<svg width="500" height="500" viewBox="0 0 500 500" fill="none" xmlns="http://www.w3.org/2000/svg">
<path d="M101.168 219.97C98.712 221.496 95.982 222.662 93.017 223.382C85.351 225.255 77.659 223.816 71.444 219.958C65.365 216.199 60.689 210.133 58.853 202.64C55.156 187.468 64.435 172.173 79.607 168.476C94.766 164.767 110.062 174.058 113.771 189.23C116.749 201.437 111.303 213.718 101.168 219.97Z" fill="#EBEBEB"/>
<path d="M94.906 192.699C94.906 197.449 91.056 201.299 86.306 201.299C81.556 201.299 77.706 197.448 77.706 192.699C77.706 187.949 81.557 184.099 86.306 184.099C91.056 184.098 94.906 187.949 94.906 192.699Z" fill="white"/>
<path d="M101.168 216.422V219.97C98.712 221.496 95.982 222.662 93.017 223.382C85.351 225.255 77.659 223.816 71.444 219.958V216.422C71.444 208.234 78.093 201.56 86.305 201.56C94.519 201.561 101.168 208.235 101.168 216.422Z" fill="white"/>
<path d="M63.418 102.635C64.432 102.006 65.701 102.041 66.722 102.658C66.999 102.825 67.282 102.986 67.569 103.141C67.86 103.297 68.152 103.444 68.446 103.583C69.521 104.091 70.25 105.124 70.287 106.313L70.413 110.376L83.647 109.965L83.522 105.904C83.485 104.712 84.138 103.621 85.184 103.049C85.76 102.735 86.32 102.389 86.862 102.012C87.837 101.335 89.101 101.24 90.148 101.802L93.721 103.718L99.981 92.0457L96.408 90.1297C95.361 89.5687 94.741 88.4637 94.765 87.2757C94.779 86.6167 94.757 85.9587 94.7 85.3047C94.597 84.1167 95.145 82.9697 96.158 82.3407L99.61 80.1977L92.631 68.9457L89.16 71.0957C88.151 71.7207 86.889 71.6847 85.872 71.0717C85.595 70.9037 85.312 70.7437 85.025 70.5897C84.737 70.4357 84.447 70.2887 84.154 70.1507C83.075 69.6417 82.344 68.6037 82.309 67.4117L82.187 63.3457L68.953 63.7567L69.081 67.8087C69.119 68.9997 68.468 70.0917 67.422 70.6637C66.844 70.9797 66.282 71.3277 65.739 71.7067C64.763 72.3857 63.498 72.4807 62.45 71.9187L58.879 70.0037L52.619 81.6757L56.191 83.5907C57.239 84.1527 57.86 85.2587 57.834 86.4477C57.82 87.1097 57.841 87.7707 57.897 88.4267C57.999 89.6147 57.449 90.7607 56.436 91.3877L52.99 93.5227L59.969 104.774L63.418 102.635ZM66.735 81.7367C69.566 76.4587 76.148 74.4717 81.426 77.3027C86.705 80.1337 88.682 86.7107 85.851 91.9887C83.02 97.2667 76.452 99.2497 71.174 96.4187C65.896 93.5877 63.905 87.0157 66.735 81.7367Z" fill="#EBEBEB"/>
<path d="M428.313 340.793C428.731 340.069 429.526 339.67 430.36 339.713C430.587 339.725 430.814 339.73 431.043 339.73C431.274 339.73 431.504 339.724 431.731 339.713C432.563 339.67 433.355 340.067 433.771 340.789L435.194 343.256L443.228 338.62L441.806 336.154C441.389 335.43 441.43 334.54 441.887 333.841C442.138 333.456 442.37 333.057 442.58 332.646C442.958 331.905 443.707 331.428 444.539 331.428H447.379V322.149H444.539C443.707 322.149 442.958 321.672 442.58 320.931C442.37 320.519 442.139 320.12 441.887 319.735C441.43 319.036 441.389 318.146 441.806 317.422L443.228 314.956L435.194 310.32L433.763 312.797C433.347 313.517 432.556 313.913 431.725 313.87C431.499 313.859 431.271 313.853 431.042 313.853C430.813 313.853 430.586 313.859 430.359 313.87C429.524 313.913 428.73 313.514 428.313 312.79L426.891 310.32L418.857 314.956L420.278 317.415C420.696 318.138 420.656 319.028 420.2 319.727C419.948 320.114 419.716 320.515 419.506 320.928C419.128 321.67 418.379 322.148 417.546 322.148H414.707V331.427H417.546C418.379 331.427 419.128 331.904 419.506 332.647C419.716 333.061 419.948 333.462 420.2 333.848C420.656 334.548 420.696 335.437 420.278 336.16L418.857 338.619L426.891 343.255L428.313 340.793ZM423.442 326.792C423.442 322.596 426.848 319.19 431.044 319.19C435.24 319.19 438.638 322.596 438.638 326.792C438.638 330.988 435.24 334.386 431.044 334.386C426.847 334.387 423.442 330.988 423.442 326.792Z" fill="#EBEBEB"/>
<path d="M97.339 126.206C98.063 126.624 98.461 127.419 98.418 128.253C98.407 128.48 98.401 128.707 98.401 128.936C98.401 129.167 98.407 129.397 98.418 129.624C98.46 130.456 98.064 131.248 97.342 131.664L94.876 133.087L99.512 141.121L101.978 139.699C102.702 139.282 103.591 139.323 104.291 139.78C104.676 140.031 105.075 140.263 105.487 140.472C106.228 140.85 106.705 141.599 106.705 142.431V145.271H115.984V142.431C115.984 141.599 116.461 140.85 117.202 140.472C117.614 140.262 118.013 140.031 118.398 139.78C119.097 139.323 119.987 139.282 120.71 139.699L123.176 141.121L127.812 133.087L125.335 131.656C124.615 131.24 124.219 130.449 124.262 129.618C124.274 129.392 124.279 129.164 124.279 128.935C124.279 128.706 124.273 128.479 124.262 128.252C124.219 127.417 124.618 126.623 125.342 126.206L127.812 124.784L123.176 116.75L120.717 118.171C119.994 118.589 119.104 118.549 118.405 118.093C118.018 117.841 117.617 117.609 117.204 117.399C116.462 117.022 115.984 116.272 115.984 115.439V112.6H106.705V115.439C106.705 116.272 106.228 117.022 105.485 117.399C105.071 117.609 104.67 117.841 104.284 118.093C103.584 118.549 102.695 118.589 101.972 118.171L99.513 116.75L94.877 124.784L97.339 126.206ZM111.339 121.335C115.535 121.335 118.941 124.741 118.941 128.937C118.941 133.133 115.535 136.531 111.339 136.531C107.143 136.531 103.744 133.133 103.744 128.937C103.745 124.741 107.143 121.335 111.339 121.335Z" fill="#EBEBEB"/>
<path d="M446.083 55.4072H390.636V122.664H446.083V55.4072Z" fill="#EBEBEB"/>
<path d="M439.747 61.5459H396.971V116.526H439.747V61.5459Z" fill="white"/>
<path d="M398.64 61.5459H396.971V116.526H398.64V61.5459Z" fill="#C7C7C7"/>
<path d="M447.752 55.4072H446.083V122.664H447.752V55.4072Z" fill="#C7C7C7"/>
<path d="M419.314 104.309H429.4V74.2596H419.314V104.309Z" fill="#EBEBEB"/>
<path d="M406.907 83.8477H433.801V69.1257H406.907V83.8477Z" stroke="#EBEBEB" stroke-miterlimit="10"/>
<path d="M446.083 221.154H390.636V288.411H446.083V221.154Z" fill="#EBEBEB"/>
<path d="M439.747 227.292H396.972V282.272H439.747V227.292Z" fill="white"/>
<path d="M398.641 227.292H396.972V282.272H398.641V227.292Z" fill="#C7C7C7"/>
<path d="M447.752 221.154H446.083V288.411H447.752V221.154Z" fill="#C7C7C7"/>
<path d="M421.393 240.005H411.307V270.054H421.393V240.005Z" fill="#EBEBEB"/>
<path d="M433.8 234.872H406.906V249.594H433.8V234.872Z" stroke="#EBEBEB" stroke-miterlimit="10"/>
<path d="M446.083 138.584H390.636V205.84H446.083V138.584Z" fill="#EBEBEB"/>
<path d="M439.747 144.722H396.971V199.702H439.747V144.722Z" fill="white"/>
<path d="M398.64 144.722H396.971V199.702H398.64V144.722Z" fill="#C7C7C7"/>
<path d="M447.752 138.584H446.083V205.84H447.752V138.584Z" fill="#C7C7C7"/>
<path d="M422.858 158.934H414.217V180.782H422.858V158.934Z" fill="#EBEBEB"/>
<path d="M431.956 172.212H408.744V187.273H431.956V172.212Z" stroke="#DBDBDB" stroke-miterlimit="10"/>
<path d="M71.714 308.543V452.996H159.037V308.543H71.714ZM79.643 362.081H151.109V399.686H79.643V362.081ZM79.643 315.522H151.109V353.127H79.643V315.522Z" fill="#EBEBEB"/>
<path d="M36.7908 452.992H71.7118L71.7118 308.543H36.7908L36.7908 452.992Z" fill="#DBDBDB"/>
<path d="M134.125 353.121H151.108V315.519H134.125V353.121Z" fill="#DBDBDB"/>
<path d="M79.6418 443.928H150.662V408.076H79.6418V443.928Z" stroke="#DBDBDB" stroke-width="0.75" stroke-miterlimit="10"/>
<path d="M111.076 425.3H125.183V418.162H111.076V425.3Z" fill="#DBDBDB"/>
<path d="M106.906 424.762H121.013V418.701H106.906V424.762Z" stroke="#DBDBDB" stroke-width="0.75" stroke-miterlimit="10"/>
<path d="M134.125 399.688H151.108V362.085H134.125V399.688Z" fill="#DBDBDB"/>
<path d="M72.684 397.182C72.684 397.182 80.843 367.899 87.358 357.953C93.874 348.008 106.018 337.084 106.018 337.084C106.018 337.084 105.733 382.232 72.684 397.182Z" fill="#5C60F5"/>
<path d="M73.268 396.681C76.063 392.137 78.438 387.345 80.705 382.493C81.709 377.296 82.93 372.065 84.757 367.095C84.792 367.001 84.923 367.052 84.901 367.146C83.818 371.773 82.559 376.358 81.415 380.97C84.708 373.843 87.838 366.626 91.761 359.889C92.553 356.623 94.054 353.482 95.543 350.519C95.586 350.433 95.729 350.479 95.687 350.57C94.64 352.864 93.887 355.227 93.142 357.599C94.997 354.617 97.029 351.743 99.34 349.036C99.483 348.869 99.769 349.054 99.628 349.234C94.383 355.928 90.763 363.542 87.315 371.253C91.041 367.269 94.43 362.91 97.552 358.457C97.584 358.411 97.654 358.459 97.624 358.506C94.401 363.63 90.69 368.225 86.662 372.718C84.151 378.367 81.682 384.039 78.689 389.412C84.671 384.356 89.272 377.813 93.827 371.501C93.929 371.359 94.149 371.508 94.052 371.656C89.495 378.582 84.78 385.105 78.224 390.235C76.883 392.584 75.448 394.879 73.844 397.078C73.578 397.441 73.033 397.064 73.268 396.681Z" fill="#263238"/>
<path d="M71.133 397.224C71.133 397.224 85.798 370.222 81.538 344.043C77.278 317.864 72.717 308.543 72.717 308.543C72.717 308.543 49.665 349.261 71.133 397.224Z" fill="#5C60F5"/>
<path d="M65.113 354.775C66.284 362.335 68.336 369.412 70.774 376.578C70.815 366.97 70.998 357.363 71.255 347.757C69.567 341.917 68.718 335.938 68.487 329.865C68.48 329.687 68.745 329.698 68.759 329.87C69.193 335.096 70.111 340.195 71.328 345.266C71.551 337.34 71.813 329.416 72.102 321.494C72.107 321.361 72.309 321.364 72.309 321.498C72.297 333.877 72.304 346.259 72.225 358.64C74.118 353.871 75.304 348.963 76.453 343.932C76.464 343.885 76.542 343.896 76.539 343.945C76.099 349.727 74.341 355.317 72.211 360.682C72.154 368.596 72.068 376.51 71.892 384.421C74.373 376.008 77.023 367.86 77.74 358.969C77.749 358.851 77.928 358.852 77.925 358.972C77.73 368.777 75.204 378.728 71.97 387.948C71.933 388.051 71.874 388.123 71.806 388.18C71.732 391.072 71.651 393.964 71.553 396.856C71.539 397.271 70.917 397.258 70.909 396.845C70.794 390.928 70.755 385.011 70.764 379.094C67.47 371.49 65.716 363.008 64.982 354.79C64.978 354.717 65.102 354.702 65.113 354.775Z" fill="#263238"/>
<path d="M66.118 350.599C66.582 352.918 67.018 355.369 67.142 357.732C67.146 357.814 67.023 357.824 67.002 357.749C66.395 355.458 66.064 352.99 65.796 350.637C65.775 350.454 66.083 350.42 66.118 350.599Z" fill="#263238"/>
<path d="M74.693 330.861C74.707 330.78 74.831 330.806 74.832 330.882C74.852 332.505 74.525 334.243 74.097 335.802C74.061 335.932 73.873 335.872 73.898 335.743C74.217 334.12 74.415 332.488 74.693 330.861Z" fill="#263238"/>
<path d="M65.775 397.224C65.775 397.224 66.373 369.038 58.287 355.028C50.201 341.018 36.79 333.88 36.79 333.88C36.79 333.88 42.198 383.564 65.775 397.224Z" fill="#5C60F5"/>
<path d="M51.039 373.118C54.438 378.013 57.815 382.73 61.981 386.988C60.367 381.224 58.493 375.562 56.384 369.989C51.851 366.014 47.355 361.895 44.574 356.457C44.529 356.369 44.654 356.295 44.706 356.379C47.696 361.196 51.695 365.05 55.902 368.757C52.673 360.385 48.916 352.216 44.647 344.246C44.538 344.043 44.834 343.87 44.956 344.066C47.546 348.22 49.895 352.519 52.013 356.93C51.255 353.917 50.65 350.836 49.873 347.845C49.851 347.761 49.971 347.731 50.001 347.81C51.435 351.576 52.862 355.74 53.321 359.765C56.15 366.012 58.532 372.464 60.439 379.053C60.231 374.828 59.966 370.62 59.53 366.407C59.522 366.327 59.656 366.309 59.671 366.388C60.548 371.066 61.007 375.826 60.896 380.585C62.062 384.785 63.043 389.035 63.829 393.318C63.85 393.433 63.68 393.484 63.652 393.367C63.214 391.572 62.736 389.792 62.25 388.016C62.219 388.003 62.187 388.008 62.158 387.98C57.821 383.636 53.702 378.683 50.994 373.144C50.981 373.114 51.021 373.091 51.039 373.118Z" fill="#263238"/>
<path d="M41.671 350.184C42.573 351.157 43.399 352.18 44.269 353.183C45.038 354.069 45.977 354.904 46.597 355.902C46.621 355.941 46.573 355.99 46.534 355.965C45.491 355.303 44.655 354.233 43.845 353.312C42.991 352.34 42.224 351.381 41.543 350.284C41.494 350.205 41.607 350.116 41.671 350.184Z" fill="#263238"/>
<path d="M88.828 399.286L87.809 412.637L84.737 452.996H57.953L54.881 412.637L53.862 399.286C55 399.286 71.341 399.286 71.341 399.286C71.341 399.286 87.69 399.286 88.828 399.286Z" fill="#37474F"/>
<path d="M88.828 399.286L88.208 407.403L54.584 408.752L53.862 399.286C55 399.286 71.341 399.286 71.341 399.286C71.341 399.286 87.69 399.286 88.828 399.286Z" fill="#263238"/>
<path d="M51.4817 402.972H91.2077V392.736H51.4817V402.972Z" fill="#37474F"/>
<path d="M36.79 452.996C173.385 452.384 326.614 452.379 463.209 452.996C326.614 453.613 173.385 453.608 36.79 452.996Z" fill="#263238"/>
<path d="M113.318 440.103V63.5541C113.318 56.4331 119.09 50.6611 126.211 50.6611H369.604C376.725 50.6611 382.497 56.4331 382.497 63.5541V440.103C382.497 447.224 376.725 452.996 369.604 452.996H126.211C119.091 452.996 113.318 447.224 113.318 440.103Z" fill="#455A64"/>
<path d="M371.139 78.8213H124.987V425.082H371.139V78.8213Z" fill="white"/>
<path d="M218.616 67.8442V66.1602C218.616 65.4692 219.176 64.9102 219.866 64.9102H275.946C276.636 64.9102 277.196 65.4702 277.196 66.1602V67.8442C277.196 68.5342 276.636 69.0942 275.946 69.0942H219.866C219.176 69.0942 218.616 68.5342 218.616 67.8442Z" fill="#263238"/>
<path d="M247.906 446.26C252.09 446.26 255.482 442.868 255.482 438.684C255.482 434.5 252.09 431.108 247.906 431.108C243.722 431.108 240.33 434.5 240.33 438.684C240.33 442.868 243.722 446.26 247.906 446.26Z" fill="#263238"/>
<path d="M371.139 78.8213H124.987V425.082H371.139V78.8213Z" fill="white"/>
<path d="M248.03 227.841C271.502 227.841 290.53 208.813 290.53 185.341C290.53 161.869 271.502 142.841 248.03 142.841C224.558 142.841 205.53 161.869 205.53 185.341C205.53 208.813 224.558 227.841 248.03 227.841Z" fill="#A6A6A6"/>
<path d="M300.657 262.938H195.403V278.191H300.657V262.938Z" fill="#EBEBEB"/>
<path d="M211.665 267.572C211.665 267.465 211.756 267.373 211.864 267.373C211.98 267.373 212.071 267.464 212.071 267.572V270.832C212.071 271.902 212.942 272.764 214.003 272.772C215.081 272.764 215.952 271.901 215.952 270.832V267.572C215.952 267.465 216.043 267.373 216.151 267.373C216.267 267.373 216.358 267.464 216.358 267.572V270.832C216.358 272.125 215.305 273.179 214.003 273.179C212.717 273.179 211.664 272.125 211.664 270.832L211.665 267.572Z" fill="#A6A6A6"/>
<path d="M218.029 272.333C218.096 272.25 218.22 272.234 218.311 272.308C218.593 272.516 219.041 272.781 219.555 272.781C219.87 272.781 220.144 272.682 220.326 272.532C220.525 272.4 220.633 272.217 220.633 272.034C220.625 271.843 220.55 271.711 220.343 271.536C220.168 271.404 219.878 271.304 219.48 271.238L219.463 271.23C219.098 271.163 218.775 271.08 218.542 270.914C218.285 270.765 218.103 270.5 218.103 270.185C218.103 269.862 218.286 269.58 218.542 269.389C218.783 269.222 219.123 269.115 219.537 269.115C220.06 269.115 220.432 269.356 220.748 269.554C220.839 269.62 220.864 269.745 220.806 269.836C220.748 269.927 220.624 269.952 220.533 269.894C220.234 269.694 219.936 269.488 219.538 269.488C219.206 269.488 218.941 269.579 218.767 269.72C218.601 269.853 218.51 270.019 218.51 270.185C218.51 270.351 218.585 270.467 218.742 270.591C218.925 270.715 219.198 270.815 219.571 270.873H219.587C219.977 270.931 220.292 271.047 220.574 271.205C220.839 271.379 221.03 271.694 221.03 272.034C221.03 272.374 220.839 272.648 220.565 272.856C220.283 273.063 219.952 273.179 219.553 273.179C218.898 273.171 218.384 272.864 218.052 272.598C217.971 272.523 217.963 272.416 218.029 272.333Z" fill="#A6A6A6"/>
<path d="M222.098 271.155C222.098 270.027 222.977 269.115 224.072 269.115C225.117 269.115 225.946 269.944 226.029 271.005V271.014V271.038C226.029 271.146 225.938 271.221 225.83 271.221H222.496C222.538 272.109 223.234 272.78 224.072 272.78C224.611 272.78 225.109 272.498 225.382 272.043C225.44 271.943 225.565 271.927 225.647 271.976C225.738 272.043 225.771 272.158 225.713 272.259C225.365 272.814 224.759 273.179 224.071 273.179C222.977 273.178 222.098 272.266 222.098 271.155ZM222.521 270.832H225.598C225.466 270.068 224.818 269.514 224.072 269.514C223.309 269.513 222.67 270.06 222.521 270.832Z" fill="#A6A6A6"/>
<path d="M227.261 269.322C227.261 269.207 227.352 269.123 227.469 269.123C227.568 269.123 227.66 269.206 227.66 269.322V270.218C227.677 270.185 227.693 270.152 227.718 270.119C228.025 269.638 228.564 269.124 229.343 269.124C229.451 269.124 229.542 269.207 229.542 269.323C229.542 269.431 229.451 269.523 229.343 269.523C228.812 269.523 228.447 269.821 228.165 270.186C227.892 270.551 227.734 270.966 227.676 271.131C227.659 271.164 227.659 271.181 227.659 271.198V272.981C227.659 273.096 227.568 273.18 227.468 273.18C227.352 273.18 227.26 273.097 227.26 272.981V269.322H227.261Z" fill="#A6A6A6"/>
<path d="M233.802 270.773C233.802 270.085 233.246 269.521 232.55 269.521C231.862 269.521 231.306 270.085 231.289 270.773V272.979V273.012C231.281 273.045 231.272 273.078 231.248 273.103C231.215 273.152 231.157 273.177 231.098 273.177H231.048C230.99 273.16 230.94 273.119 230.915 273.07C230.907 273.061 230.907 273.053 230.907 273.045C230.907 273.036 230.899 273.028 230.899 273.028V272.979V270.773V270.707V269.321C230.899 269.214 230.982 269.122 231.098 269.122C231.206 269.122 231.289 269.213 231.289 269.321V269.711C231.587 269.355 232.044 269.122 232.55 269.122C233.462 269.122 234.2 269.868 234.2 270.773V272.979C234.2 273.094 234.109 273.178 234.001 273.178C233.893 273.178 233.801 273.095 233.801 272.979V270.773H233.802Z" fill="#A6A6A6"/>
<path d="M239.388 269.314V272.98C239.388 273.087 239.297 273.179 239.189 273.179C239.081 273.179 238.989 273.088 238.989 272.98V272.374C238.641 272.856 238.085 273.179 237.463 273.179C236.393 273.179 235.539 272.259 235.539 271.147C235.539 270.035 236.393 269.115 237.463 269.115C238.085 269.115 238.641 269.43 238.989 269.911V269.314C238.989 269.198 239.08 269.115 239.189 269.115C239.297 269.115 239.388 269.197 239.388 269.314ZM238.99 271.147C238.99 270.235 238.302 269.505 237.464 269.505C236.635 269.505 235.938 270.235 235.938 271.147C235.938 272.059 236.635 272.78 237.464 272.78C238.301 272.78 238.99 272.059 238.99 271.147Z" fill="#A6A6A6"/>
<path d="M246.922 270.773C246.905 270.085 246.358 269.513 245.662 269.513C244.973 269.513 244.409 270.085 244.409 270.773V272.987V273.012C244.409 273.02 244.401 273.028 244.401 273.028V273.045C244.385 273.094 244.343 273.127 244.302 273.152C244.269 273.169 244.236 273.177 244.203 273.177H244.178H244.161C244.153 273.177 244.145 273.169 244.145 273.169C244.128 273.169 244.112 273.152 244.095 273.144C244.087 273.144 244.079 273.136 244.071 273.127L244.046 273.103C244.037 273.094 244.037 273.086 244.029 273.086C244.029 273.078 244.029 273.078 244.021 273.07C244.021 273.07 244.021 273.061 244.013 273.053C244.013 273.045 244.013 273.036 244.004 273.028V273.003V272.987V270.773C244.004 270.085 243.449 269.513 242.752 269.513C242.056 269.513 241.5 270.085 241.5 270.773V272.987C241.5 273.053 241.467 273.111 241.409 273.145C241.401 273.153 241.376 273.17 241.36 273.17C241.351 273.178 241.343 273.178 241.327 273.178H241.3H241.275C241.201 273.17 241.134 273.104 241.109 273.028V272.987V270.773V270.707V269.313C241.109 269.206 241.2 269.122 241.3 269.122C241.416 269.122 241.499 269.205 241.499 269.313V269.703C241.798 269.346 242.245 269.122 242.751 269.122C243.381 269.122 243.921 269.47 244.203 269.985C244.493 269.47 245.041 269.122 245.663 269.122C246.575 269.122 247.313 269.86 247.313 270.773V272.987C247.313 273.086 247.231 273.178 247.114 273.178C247.007 273.178 246.923 273.087 246.923 272.987V270.773H246.922Z" fill="#A6A6A6"/>
<path d="M248.7 271.155C248.7 270.027 249.579 269.115 250.674 269.115C251.719 269.115 252.548 269.944 252.63 271.005V271.014V271.038C252.63 271.146 252.539 271.221 252.431 271.221H249.097C249.138 272.109 249.835 272.78 250.673 272.78C251.212 272.78 251.709 272.498 251.983 272.043C252.04 271.943 252.165 271.927 252.248 271.976C252.339 272.043 252.372 272.158 252.314 272.259C251.966 272.814 251.361 273.179 250.672 273.179C249.579 273.178 248.7 272.266 248.7 271.155ZM249.123 270.832H252.199C252.067 270.068 251.42 269.514 250.674 269.514C249.911 269.513 249.272 270.06 249.123 270.832Z" fill="#A6A6A6"/>
<path d="M204.261 269.289C204.261 270.094 203.608 270.747 202.803 270.747C201.998 270.747 201.345 270.094 201.345 269.289C201.345 268.484 201.998 267.831 202.803 267.831C203.608 267.831 204.261 268.484 204.261 269.289Z" fill="#A6A6A6"/>
<path d="M205.326 273.297H200.28C200.291 271.911 201.416 270.797 202.803 270.797C204.201 270.797 205.314 271.91 205.326 273.297Z" fill="#A6A6A6"/>
<path d="M300.657 285.079H195.403V300.332H300.657V285.079Z" fill="#EBEBEB"/>
<path d="M215.142 290.905C214.184 292.344 212.981 293.551 211.54 294.507C212.496 293.065 213.703 291.863 215.142 290.905Z" fill="#A6A6A6"/>
<path d="M211.54 290.905C212.979 291.863 214.186 293.066 215.142 294.507C213.701 293.551 212.498 292.344 211.54 290.905Z" fill="#A6A6A6"/>
<path d="M215.888 292.706C214.193 293.046 212.489 293.049 210.794 292.706C212.489 292.362 214.193 292.366 215.888 292.706Z" fill="#A6A6A6"/>
<path d="M213.341 290.159C213.681 291.854 213.684 293.558 213.341 295.253C212.998 293.558 213.001 291.854 213.341 290.159Z" fill="#A6A6A6"/>
<path d="M223.929 290.905C222.971 292.344 221.768 293.551 220.327 294.507C221.283 293.065 222.49 291.863 223.929 290.905Z" fill="#A6A6A6"/>
<path d="M220.327 290.905C221.766 291.863 222.973 293.066 223.929 294.507C222.488 293.551 221.285 292.344 220.327 290.905Z" fill="#A6A6A6"/>
<path d="M224.675 292.706C222.98 293.046 221.276 293.049 219.581 292.706C221.276 292.362 222.98 292.366 224.675 292.706Z" fill="#A6A6A6"/>
<path d="M222.128 290.159C222.468 291.854 222.471 293.558 222.128 295.253C221.785 293.558 221.788 291.854 222.128 290.159Z" fill="#A6A6A6"/>
<path d="M232.716 290.905C231.758 292.344 230.555 293.551 229.114 294.507C230.07 293.065 231.277 291.863 232.716 290.905Z" fill="#A6A6A6"/>
<path d="M229.114 290.905C230.553 291.863 231.76 293.066 232.716 294.507C231.275 293.551 230.072 292.344 229.114 290.905Z" fill="#A6A6A6"/>
<path d="M233.463 292.706C231.768 293.046 230.064 293.049 228.369 292.706C230.063 292.362 231.767 292.366 233.463 292.706Z" fill="#A6A6A6"/>
<path d="M230.915 290.159C231.255 291.854 231.258 293.558 230.915 295.253C230.572 293.558 230.575 291.854 230.915 290.159Z" fill="#A6A6A6"/>
<path d="M241.504 290.905C240.546 292.344 239.343 293.551 237.902 294.507C238.857 293.065 240.064 291.863 241.504 290.905Z" fill="#A6A6A6"/>
<path d="M237.901 290.905C239.34 291.863 240.547 293.066 241.503 294.507C240.062 293.551 238.859 292.344 237.901 290.905Z" fill="#A6A6A6"/>
<path d="M242.25 292.706C240.555 293.046 238.851 293.049 237.156 292.706C238.85 292.362 240.554 292.366 242.25 292.706Z" fill="#A6A6A6"/>
<path d="M239.702 290.159C240.042 291.854 240.045 293.558 239.702 295.253C239.359 293.558 239.362 291.854 239.702 290.159Z" fill="#A6A6A6"/>
<path d="M204.512 291.064V292.907H203.99V291.064C203.99 290.363 203.458 289.793 202.802 289.793C202.146 289.793 201.614 290.363 201.614 291.064V292.907H201.092V291.064C201.092 290.061 201.859 289.243 202.801 289.243C203.743 289.243 204.512 290.061 204.512 291.064Z" fill="#A6A6A6"/>
<path d="M200.428 292.227V296.17H205.178V292.227H200.428ZM203.203 295.116H202.357L202.557 294.171C202.438 294.098 202.357 293.966 202.357 293.814C202.357 293.581 202.547 293.394 202.78 293.394C203.013 293.394 203.203 293.581 203.203 293.814C203.203 293.966 203.122 294.098 203.003 294.171L203.203 295.116Z" fill="#A6A6A6"/>
<path d="M230.183 251.225V244.336C230.183 243.985 230.463 243.693 230.825 243.693C231.187 243.693 231.479 243.985 231.479 244.336V250.572H234.644C234.982 250.572 235.286 250.864 235.286 251.225C235.286 251.576 234.983 251.868 234.644 251.868H230.86C230.837 251.868 230.837 251.868 230.837 251.868C230.825 251.868 230.825 251.868 230.825 251.868C230.463 251.867 230.183 251.576 230.183 251.225Z" fill="#263238"/>
<path d="M242.74 244.709C243.464 245.48 243.919 246.507 243.919 247.663C243.919 248.819 243.464 249.859 242.74 250.618C242.051 251.377 241.023 251.867 239.949 251.867C238.827 251.867 237.8 251.377 237.088 250.618C236.364 249.859 235.932 248.82 235.932 247.663C235.932 246.506 236.364 245.479 237.088 244.709C237.8 243.938 238.828 243.46 239.949 243.46C241.023 243.459 242.051 243.938 242.74 244.709ZM242.588 247.663C242.588 246.869 242.273 246.133 241.794 245.62C241.303 245.095 240.649 244.791 239.949 244.791C239.202 244.791 238.547 245.094 238.057 245.62C237.566 246.134 237.263 246.869 237.263 247.663C237.263 248.457 237.566 249.193 238.057 249.695C238.547 250.22 239.202 250.536 239.949 250.536C240.649 250.536 241.303 250.22 241.794 249.695C242.273 249.193 242.588 248.457 242.588 247.663Z" fill="#263238"/>
<path d="M245.862 247.675C245.862 245.328 247.801 243.459 250.171 243.459C251.164 243.459 252.11 243.798 252.833 244.37C253.137 244.592 253.184 245.024 252.962 245.316C252.74 245.596 252.308 245.654 252.016 245.421C251.514 245.036 250.872 244.791 250.171 244.791C249.33 244.791 248.594 245.106 248.069 245.643C247.52 246.168 247.194 246.881 247.194 247.675C247.194 248.446 247.521 249.158 248.069 249.683C248.594 250.22 249.33 250.536 250.171 250.536C250.755 250.536 251.303 250.361 251.77 250.092V248.492H250.1C249.738 248.492 249.435 248.189 249.435 247.827C249.435 247.453 249.738 247.173 250.1 247.173H252.401C252.413 247.173 252.413 247.173 252.413 247.173C252.425 247.173 252.425 247.173 252.425 247.173C252.798 247.173 253.102 247.453 253.102 247.827V250.407C253.102 250.488 253.079 250.536 253.067 250.606C253.055 250.629 253.055 250.641 253.044 250.664V250.676C253.009 250.782 252.939 250.875 252.822 250.956C252.086 251.529 251.164 251.867 250.172 251.867C247.8 251.867 245.862 250.011 245.862 247.675Z" fill="#263238"/>
<path d="M255.815 244.335C255.815 243.973 256.095 243.692 256.458 243.692C256.808 243.692 257.111 243.972 257.111 244.335V251.224C257.111 251.587 256.808 251.867 256.458 251.867C256.096 251.867 255.815 251.587 255.815 251.224V244.335Z" fill="#263238"/>
<path d="M260.581 251.225C260.581 251.576 260.289 251.868 259.95 251.868C259.588 251.868 259.308 251.576 259.308 251.225V244.441C259.308 244.441 259.308 244.441 259.308 244.429C259.296 244.23 259.389 244.021 259.565 243.892C259.857 243.693 260.254 243.751 260.453 244.033L264.225 249.252V244.441C264.225 244.103 264.505 243.811 264.855 243.811C265.206 243.811 265.498 244.103 265.498 244.441V251.225C265.498 251.576 265.206 251.868 264.855 251.868C264.668 251.868 264.493 251.775 264.376 251.634C264.353 251.611 264.329 251.587 264.318 251.564L260.581 246.379V251.225Z" fill="#263238"/>
<path d="M265.472 309.659H230.589V320.505H265.472V309.659Z" fill="#5C60F5"/>
<path d="M239.107 316.706V313.256C239.107 313.081 239.248 312.935 239.428 312.935C239.61 312.935 239.756 313.081 239.756 313.256V316.378H241.34C241.51 316.378 241.661 316.524 241.661 316.706C241.661 316.881 241.51 317.027 241.34 317.027H239.446C239.434 317.027 239.434 317.027 239.434 317.027C239.428 317.027 239.428 317.027 239.428 317.027C239.247 317.027 239.107 316.881 239.107 316.706Z" fill="white"/>
<path d="M245.388 313.442C245.75 313.828 245.979 314.342 245.979 314.922C245.979 315.5 245.751 316.021 245.388 316.401C245.043 316.781 244.529 317.027 243.992 317.027C243.431 317.027 242.916 316.782 242.559 316.401C242.196 316.022 241.981 315.501 241.981 314.922C241.981 314.343 242.197 313.828 242.559 313.442C242.916 313.056 243.431 312.817 243.992 312.817C244.529 312.818 245.044 313.056 245.388 313.442ZM245.313 314.922C245.313 314.525 245.155 314.156 244.915 313.899C244.67 313.636 244.342 313.484 243.992 313.484C243.618 313.484 243.29 313.636 243.044 313.899C242.799 314.156 242.647 314.525 242.647 314.922C242.647 315.319 242.799 315.687 243.044 315.939C243.29 316.202 243.618 316.36 243.992 316.36C244.342 316.36 244.669 316.202 244.915 315.939C245.155 315.687 245.313 315.319 245.313 314.922Z" fill="white"/>
<path d="M246.947 314.927C246.947 313.752 247.917 312.817 249.104 312.817C249.601 312.817 250.074 312.986 250.437 313.273C250.589 313.384 250.612 313.601 250.501 313.747C250.39 313.887 250.173 313.916 250.027 313.8C249.776 313.607 249.454 313.484 249.103 313.484C248.683 313.484 248.314 313.642 248.051 313.911C247.776 314.174 247.612 314.53 247.612 314.928C247.612 315.314 247.776 315.671 248.051 315.934C248.314 316.202 248.683 316.36 249.103 316.36C249.395 316.36 249.669 316.272 249.904 316.138V315.337H249.068C248.886 315.337 248.735 315.186 248.735 315.004C248.735 314.817 248.887 314.676 249.068 314.676H250.219C250.225 314.676 250.225 314.676 250.225 314.676C250.23 314.676 250.23 314.676 250.23 314.676C250.417 314.676 250.569 314.817 250.569 315.004V316.296C250.569 316.336 250.557 316.36 250.552 316.395C250.546 316.407 250.546 316.412 250.54 316.424V316.43C250.522 316.483 250.487 316.529 250.428 316.571C250.06 316.857 249.598 317.027 249.102 317.027C247.917 317.026 246.947 316.097 246.947 314.927Z" fill="white"/>
<path d="M251.923 313.256C251.923 313.075 252.064 312.935 252.244 312.935C252.419 312.935 252.572 313.076 252.572 313.256V316.706C252.572 316.887 252.42 317.027 252.244 317.027C252.063 317.027 251.923 316.886 251.923 316.706V313.256Z" fill="white"/>
<path d="M254.307 316.705C254.307 316.88 254.16 317.026 253.991 317.026C253.81 317.026 253.67 316.88 253.67 316.705V313.308C253.67 313.308 253.67 313.308 253.67 313.303C253.664 313.204 253.71 313.098 253.798 313.034C253.945 312.935 254.144 312.964 254.243 313.105L256.131 315.718V313.309C256.131 313.14 256.272 312.993 256.447 312.993C256.623 312.993 256.768 313.14 256.768 313.309V316.706C256.768 316.881 256.622 317.027 256.447 317.027C256.354 317.027 256.266 316.98 256.207 316.91C256.195 316.898 256.184 316.887 256.178 316.875L254.307 314.279V316.705Z" fill="white"/>
<path d="M272.69 219.95C271.81 220.58 270.91 221.17 269.99 221.74C267.79 223.06 265.46 224.2 263.03 225.11C262.46 225.33 261.88 225.53 261.3 225.73C259.99 226.16 258.64 226.53 257.28 226.83C257.27 226.83 257.26 226.83 257.25 226.84C256.05 227.1 254.83 227.32 253.59 227.48C251.96 225.05 250.63 222.94 249.7 221.31C249.08 220.23 248.26 218.72 247.43 217.02C244.86 211.81 242.15 204.8 244.66 202.89C244.71 202.85 244.75 202.82 244.8 202.79C244.86 202.75 244.93 202.72 245 202.68C245.04 202.66 245.08 202.64 245.13 202.62C245.34 202.52 245.59 202.46 245.86 202.43C246.17 202.38 246.52 202.38 246.92 202.42C248.19 202.54 249.89 203.11 252.11 204.24V204.25C252.58 204.48 253.06 204.74 253.58 205.03C253.64 205.06 253.71 205.1 253.78 205.14C258.05 207.56 265.36 213.64 272.69 219.95Z" fill="#FFC4C0"/>
<path d="M274.19 218.83C273.7 219.22 273.2 219.59 272.69 219.95C271.81 220.58 270.91 221.17 269.99 221.74C267.79 223.06 265.46 224.2 263.03 225.11C262.46 225.33 261.88 225.53 261.3 225.73C259.99 226.16 258.64 226.53 257.28 226.83C257.27 226.83 257.26 226.83 257.25 226.84C256.05 227.1 254.83 227.32 253.59 227.48C253.35 227.51 253.1 227.54 252.85 227.57C250.24 223.47 248.04 219.77 246.51 216.88V216.87C246.42 216.7 246.33 216.54 246.25 216.38C245.71 215.33 245.24 214.34 244.84 213.41C244.54 212.71 244.28 212.04 244.06 211.4C243.92 210.98 243.79 210.57 243.67 210.17C243.57 209.82 243.49 209.49 243.41 209.17C243.34 208.84 243.28 208.52 243.23 208.21C243.09 207.38 243.05 206.63 243.11 205.97C243.15 205.37 243.27 204.84 243.46 204.39C243.56 204.15 243.67 203.93 243.81 203.73C243.88 203.63 243.95 203.54 244.02 203.45C244.1 203.36 244.18 203.27 244.27 203.19C244.35 203.11 244.44 203.04 244.54 202.97C244.58 202.94 244.62 202.91 244.66 202.89C244.71 202.85 244.75 202.82 244.8 202.79C244.86 202.75 244.93 202.72 245 202.68C245.04 202.66 245.08 202.64 245.13 202.62C245.14 202.61 245.15 202.61 245.16 202.6C245.36 202.51 245.57 202.43 245.8 202.37C247.1 202.03 248.85 202.22 250.96 202.95C250.96 202.95 250.96 202.96 250.97 202.96C251.83 203.25 252.76 203.63 253.74 204.11L253.75 204.12C255.31 204.87 257 205.86 258.83 207.08C263.38 210.12 268.85 214.43 274.19 218.83Z" fill="#5C60F5"/>
<path d="M255.54 209.78C255.3 209.55 255.06 209.33 254.8 209.11H254.79C254.7 209.03 254.61 208.96 254.52 208.89C254.45 208.84 254.39 208.79 254.32 208.74C254.21 208.65 254.1 208.58 253.98 208.51C253.87 208.43 253.76 208.36 253.64 208.29C253.64 208.29 253.64 208.29 253.63 208.29C253.56 208.25 253.5 208.22 253.43 208.18C253.39 208.16 253.34 208.14 253.3 208.12C253.31 208.12 253.3 208.11 253.3 208.11C253.16 208.04 253.02 207.98 252.88 207.92C252.98 208.17 253.1 208.4 253.22 208.62C253.64 209.36 254.18 209.99 254.74 210.58C254.96 210.79 255.18 210.99 255.41 211.19C255.59 211.34 255.77 211.48 255.96 211.62C255.97 211.63 255.98 211.64 255.99 211.64C255.99 211.65 256 211.65 256 211.65C256.43 211.96 256.89 212.23 257.4 212.44C256.96 211.38 256.28 210.55 255.54 209.78ZM255.54 209.78C255.3 209.55 255.06 209.33 254.8 209.11H254.79C254.7 209.03 254.61 208.96 254.52 208.89C254.45 208.84 254.39 208.79 254.32 208.74C254.21 208.65 254.1 208.58 253.98 208.51C253.87 208.43 253.76 208.36 253.64 208.29C253.64 208.29 253.64 208.29 253.63 208.29C253.56 208.25 253.5 208.22 253.43 208.18C253.39 208.16 253.34 208.14 253.3 208.12C253.31 208.12 253.3 208.11 253.3 208.11C253.16 208.04 253.02 207.98 252.88 207.92C252.98 208.17 253.1 208.4 253.22 208.62C253.64 209.36 254.18 209.99 254.74 210.58C254.96 210.79 255.18 210.99 255.41 211.19C255.59 211.34 255.77 211.48 255.96 211.62C255.97 211.63 255.98 211.64 255.99 211.64C255.99 211.65 256 211.65 256 211.65C256.43 211.96 256.89 212.23 257.4 212.44C256.96 211.38 256.28 210.55 255.54 209.78Z" fill="white"/>
<path opacity="0.1" d="M269.99 221.74C267.79 223.06 265.46 224.2 263.03 225.11C262.46 225.33 261.88 225.53 261.3 225.73C259.99 226.16 258.64 226.53 257.28 226.83C257.27 226.83 257.26 226.83 257.25 226.84C256.05 227.1 254.83 227.32 253.59 227.48C253.35 227.51 253.1 227.54 252.85 227.57C250.24 223.47 248.04 219.77 246.51 216.88V216.87C246.42 216.7 246.33 216.54 246.25 216.38C245.71 215.33 245.24 214.34 244.84 213.41C244.54 212.71 244.28 212.04 244.06 211.4C243.92 210.98 243.79 210.57 243.67 210.17C243.57 209.82 243.49 209.49 243.41 209.17C243.34 208.84 243.28 208.52 243.23 208.21C243.1 207.38 243.06 206.63 243.11 205.97C243.15 205.37 243.27 204.84 243.46 204.39C243.56 204.15 243.67 203.93 243.81 203.73C243.88 203.63 243.95 203.54 244.02 203.45C244.1 203.36 244.18 203.27 244.27 203.19C244.35 203.11 244.44 203.04 244.54 202.97C244.58 202.94 244.62 202.91 244.66 202.89C244.71 202.85 244.75 202.82 244.8 202.79C244.86 202.75 244.93 202.72 245 202.68C245.04 202.66 245.08 202.64 245.13 202.62C245.14 202.61 245.15 202.61 245.16 202.6C245.36 202.51 245.58 202.44 245.81 202.38C246.08 202.31 246.38 202.26 246.7 202.24L246.92 202.42L250.46 205.4C250.46 205.4 250.47 205.41 250.48 205.41L253.35 207.81L254.72 208.96L269.99 221.74Z" fill="black"/>
<path d="M261.3 225.73C259.99 226.16 258.64 226.53 257.28 226.83C257.27 226.83 257.26 226.83 257.25 226.84C256.05 227.1 254.83 227.32 253.59 227.48C253.35 227.51 253.1 227.54 252.85 227.57C251.27 227.75 249.66 227.84 248.03 227.84C243.23 227.84 238.61 227.04 234.3 225.57C234.26 225.56 234.23 225.55 234.19 225.54C234.16 225.52 234.12 225.51 234.09 225.5C233.93 225.44 233.77 225.39 233.61 225.33C229.38 223.8 225.46 221.62 221.97 218.91C223.16 216.82 224.26 214.98 225.29 213.37C226.03 212.21 226.72 211.17 227.38 210.24C227.38 210.22 227.39 210.22 227.39 210.22L227.4 210.21C230.89 205.23 233.3 203.19 235.18 202.2C235.3 202.14 235.42 202.08 235.53 202.03C235.67 201.95 235.81 201.89 235.94 201.84C236.19 201.73 236.43 201.65 236.66 201.57C238.68 200.89 241.7 200.54 244.59 200.8C247.04 201.02 249.4 201.68 250.96 202.95C250.96 202.95 250.96 202.96 250.97 202.96C251.42 203.33 251.81 203.76 252.11 204.24V204.25C252.46 204.8 252.8 205.37 253.13 205.96C253.25 206.17 253.37 206.38 253.49 206.6C253.91 207.36 254.32 208.14 254.72 208.96C254.75 209.01 254.78 209.06 254.79 209.11H254.8C255 209.52 255.2 209.93 255.4 210.36C255.6 210.78 255.8 211.2 255.99 211.64C255.99 211.65 256 211.65 256 211.65C257.85 215.75 259.59 220.42 261.19 225.39C261.23 225.5 261.26 225.61 261.3 225.73Z" fill="#5C60F5"/>
<path d="M246.79 223.98C245.73 224 244.67 224.1 243.6 224.54C244.67 224.99 245.73 225.08 246.79 225.1C247.86 225.08 248.93 224.98 249.99 224.54C248.93 224.1 247.86 224 246.79 223.98ZM228.63 209.42C228.48 209.49 228.34 209.58 228.2 209.66C228.06 209.74 227.92 209.83 227.79 209.93C227.72 209.97 227.66 210.01 227.61 210.06C227.54 210.11 227.47 210.16 227.4 210.21L227.39 210.22C227.39 210.22 227.38 210.22 227.38 210.24C227.36 210.25 227.35 210.26 227.34 210.27C227.02 210.52 226.73 210.79 226.44 211.06C225.7 211.83 225.02 212.66 224.57 213.72C224.82 213.62 225.06 213.5 225.29 213.37C226.02 212.96 226.65 212.42 227.23 211.86C227.97 211.1 228.65 210.26 229.09 209.2C228.93 209.27 228.78 209.34 228.63 209.42ZM255.4 210.36C255.2 209.94 255 209.52 254.79 209.11C254.7 209.03 254.61 208.96 254.52 208.89C254.45 208.84 254.39 208.79 254.32 208.74C254.21 208.65 254.1 208.58 253.98 208.51C253.87 208.43 253.76 208.36 253.64 208.29C253.64 208.29 253.64 208.29 253.63 208.29C253.56 208.25 253.5 208.22 253.43 208.18C253.39 208.16 253.34 208.13 253.3 208.11C253.16 208.04 253.02 207.98 252.88 207.92C252.98 208.17 253.1 208.4 253.22 208.62C253.64 209.36 254.18 209.99 254.74 210.58C254.96 210.79 255.18 210.99 255.41 211.19C255.59 211.34 255.77 211.48 255.96 211.62C255.97 211.63 255.98 211.64 255.99 211.64C255.8 211.2 255.6 210.78 255.4 210.36ZM255.4 210.36C255.2 209.94 255 209.52 254.79 209.11C254.7 209.03 254.61 208.96 254.52 208.89C254.45 208.84 254.39 208.79 254.32 208.74C254.21 208.65 254.1 208.58 253.98 208.51C253.87 208.43 253.76 208.36 253.64 208.29C253.64 208.29 253.64 208.29 253.63 208.29C253.56 208.25 253.5 208.22 253.43 208.18C253.39 208.16 253.34 208.13 253.3 208.11C253.16 208.04 253.02 207.98 252.88 207.92C252.98 208.17 253.1 208.4 253.22 208.62C253.64 209.36 254.18 209.99 254.74 210.58C254.96 210.79 255.18 210.99 255.41 211.19C255.59 211.34 255.77 211.48 255.96 211.62C255.97 211.63 255.98 211.64 255.99 211.64C255.8 211.2 255.6 210.78 255.4 210.36Z" fill="white"/>
<path d="M238.21 209.27C237.93 211.58 237.26 214.46 236.15 217.95C235.29 220.63 234.44 223.08 233.61 225.33C229.38 223.8 225.46 221.62 221.97 218.91C221.13 218.26 220.31 217.57 219.53 216.86C220.95 214.97 222.38 213.14 223.8 211.39C228.52 205.58 232.56 202.43 235.18 202.2C235.28 202.19 235.38 202.18 235.48 202.18C237.71 202.18 238.79 204.48 238.21 209.27Z" fill="#FFC4C0"/>
<path d="M238.77 210.11C238.49 212.67 237.94 214.96 237.81 215.47C237.34 217.36 236.4 220.01 235.25 222.94V222.95C234.91 223.79 234.55 224.66 234.19 225.54C234.16 225.52 234.12 225.51 234.09 225.5C233.93 225.44 233.77 225.39 233.61 225.33C229.38 223.8 225.46 221.62 221.97 218.91C221.13 218.26 220.31 217.57 219.53 216.86C219.25 216.61 218.98 216.36 218.72 216.11C221.75 212.25 224.68 209.01 227.32 206.68C231.18 203.28 233.81 201.92 235.58 201.84C235.71 201.83 235.83 201.83 235.94 201.84C238.99 202.01 239.18 206.36 238.77 210.11Z" fill="#5C60F5"/>
<path d="M228.63 209.419C228.48 209.489 228.34 209.579 228.2 209.659C228.06 209.739 227.92 209.829 227.79 209.929C227.72 209.969 227.66 210.009 227.61 210.059C227.53 210.119 227.45 210.179 227.38 210.239C227.36 210.249 227.35 210.259 227.34 210.269C227.02 210.519 226.73 210.789 226.44 211.059C225.7 211.829 225.02 212.659 224.57 213.719C224.82 213.619 225.06 213.499 225.29 213.369C226.02 212.959 226.65 212.419 227.23 211.859C227.97 211.099 228.65 210.259 229.09 209.199C228.93 209.269 228.78 209.339 228.63 209.419Z" fill="white"/>
<path d="M235.25 222.939V222.949C235.25 222.959 235.25 222.959 235.25 222.969C234.94 223.839 234.62 224.709 234.3 225.569C234.26 225.559 234.23 225.549 234.19 225.539C234.16 225.519 234.12 225.509 234.09 225.499C234.46 224.649 234.83 223.799 235.18 222.939C235.19 222.899 235.24 222.909 235.25 222.939Z" fill="#263238"/>
<path d="M247.76 217.025C243.25 217.194 237.151 209.15 235.282 203.237C235.156 202.831 236.478 199.085 237.868 194.457C238.701 191.645 239.562 188.495 240.14 185.564C240.256 184.962 257.645 193.656 257.645 193.656C257.645 193.656 254.626 199.445 253.649 204.561C253.572 204.99 253.536 205.395 253.538 205.789C253.533 205.846 253.536 205.915 253.525 205.994C253.448 208.352 252.12 216.859 247.76 217.025Z" fill="#FFC4C0"/>
<path d="M241.256 185.863C241.132 190.987 241.853 203.569 251.62 205.726C252.3 205.877 252.934 205.967 253.521 205.995C253.542 205.914 253.534 205.85 253.537 205.789C253.541 205.393 253.57 204.992 253.643 204.564C254.623 199.438 257.646 193.651 257.646 193.651C257.646 193.651 245.102 187.379 241.256 185.863Z" fill="#263238"/>
<path d="M237.012 166.277C235.125 172.963 239.04 192.08 243.855 196.259C250.837 202.317 262.064 202.673 267.16 194.327C272.1 186.238 266.558 161.414 261.198 157.637C253.303 152.075 239.799 156.4 237.012 166.277Z" fill="#FFC4C0"/>
<path d="M253.747 178.353C253.725 178.307 253.661 178.438 253.676 178.49C254.022 179.758 254.205 181.27 253.15 181.971C253.118 181.993 253.137 182.056 253.178 182.04C254.541 181.503 254.278 179.499 253.747 178.353Z" fill="#263238"/>
<path d="M252.285 177.291C250.192 177.627 251.017 181.789 252.957 181.478C254.866 181.172 254.04 177.01 252.285 177.291Z" fill="#263238"/>
<path d="M261.138 176.868C261.138 176.817 261.251 176.909 261.26 176.962C261.475 178.259 261.939 179.709 263.191 179.906C263.23 179.912 263.239 179.978 263.195 179.98C261.731 180.061 261.134 178.131 261.138 176.868Z" fill="#263238"/>
<path d="M262.022 175.294C264.064 174.726 265.052 178.852 263.16 179.378C261.298 179.897 260.311 175.77 262.022 175.294Z" fill="#263238"/>
<path d="M250.333 175.246C250.873 174.993 251.328 174.67 251.837 174.366C252.41 174.022 252.902 173.807 253.199 173.176C253.358 172.837 253.165 172.322 252.851 172.137C252.119 171.705 251.312 171.952 250.605 172.338C249.838 172.757 249.354 173.276 249.025 174.084C248.705 174.865 249.621 175.578 250.333 175.246Z" fill="#263238"/>
<path d="M263.557 173.604C262.965 173.67 262.407 173.632 261.815 173.637C261.146 173.642 260.614 173.715 260.032 173.332C259.719 173.126 259.616 172.587 259.787 172.264C260.186 171.514 261.003 171.304 261.808 171.265C262.681 171.222 263.364 171.413 264.067 171.931C264.747 172.431 264.338 173.517 263.557 173.604Z" fill="#263238"/>
<path d="M254.543 189.647C254.807 190 255.051 190.467 255.516 190.58C255.962 190.689 256.524 190.567 256.963 190.471C257.006 190.462 257.041 190.511 257.009 190.546C256.594 190.992 255.836 191.193 255.251 190.994C254.679 190.799 254.468 190.246 254.409 189.686C254.401 189.608 254.504 189.595 254.543 189.647Z" fill="#263238"/>
<path d="M255.648 185.88C256.592 186.856 257.774 187.257 258.966 187.252C259.498 187.253 260.041 187.164 260.56 187.011C260.663 186.988 260.765 186.956 260.855 186.917C260.947 186.887 261.029 186.859 261.129 186.818C261.275 186.766 261.333 186.625 261.33 186.478L261.328 186.469C261.318 186.422 261.309 186.384 261.29 186.339C261.29 186.339 261.29 186.339 261.288 186.329L261.263 186.216C261.093 185.218 260.697 183.727 260.697 183.727C261.096 183.837 263.11 184.302 262.978 183.789C261.87 179.547 260.638 174.829 258.639 170.842C258.58 170.707 258.37 170.782 258.41 170.922C259.313 175.041 260.935 178.974 261.909 183.097C261.274 182.99 260.229 182.766 259.712 182.879C259.579 182.948 260.528 185.746 260.569 186.201C260.569 186.201 260.573 186.22 260.57 186.25C258.945 186.794 257.588 186.539 255.746 185.741C255.635 185.685 255.55 185.793 255.648 185.88Z" fill="#263238"/>
<path d="M236.256 181.238C241.33 181.486 243.847 175.389 242.559 170.553C242.559 170.553 256.069 172.055 256.486 161.226C256.486 161.226 259.233 165.864 265.347 165.896L266.937 169.852C268.31 169.423 269.699 165.465 266.252 162.455C266.252 162.455 265.905 157.068 261.863 153.917C257.821 150.765 253.916 152.976 253.916 152.976C253.916 152.976 250.701 150.405 245.75 151.146C240.8 151.886 238.853 156.455 238.853 156.455C238.853 156.455 232.206 157.872 231.17 162.636C230.134 167.401 232.651 170.527 232.651 170.527C232.651 170.527 231.016 172.424 231.952 176.452C232.553 179.042 234.733 181.164 236.256 181.238Z" fill="#263238"/>
<path d="M256.167 160.272C256.275 161.153 256.328 162.037 256.253 162.913C256.221 163.789 256.057 164.65 255.818 165.478C255.309 167.125 254.261 168.578 252.781 169.426C251.346 170.389 249.554 170.574 247.841 170.778C246.967 170.77 246.086 170.824 245.208 170.767C244.329 170.697 243.45 170.606 242.559 170.553C243.424 170.745 244.302 170.897 245.179 171.071C246.062 171.191 246.962 171.192 247.858 171.257C249.635 171.147 251.51 170.957 253.103 169.959C254.686 168.998 255.846 167.38 256.278 165.607C256.705 163.834 256.635 161.985 256.167 160.272Z" fill="#263238"/>
<path d="M263.244 166.377C261.733 165.862 260.318 165.202 259.111 164.263C258.494 163.811 257.973 163.251 257.499 162.651C257.005 162.056 256.686 161.347 256.323 160.628C256.435 161.416 256.658 162.222 257.1 162.918C257.512 163.628 258.073 164.258 258.728 164.755C259.384 165.251 260.106 165.655 260.875 165.921C261.642 166.19 262.438 166.374 263.244 166.377Z" fill="#263238"/>
<path d="M241.445 181.831C241.445 181.831 236.852 175.808 234.102 177.47C231.351 179.133 234.984 187.988 238.338 189.082C241.693 190.175 242.766 187.09 242.766 187.09L241.445 181.831Z" fill="#FFC4C0"/>
<path d="M235.206 179.983C235.153 179.98 235.145 180.055 235.192 180.072C237.547 180.915 238.856 183.013 239.802 185.205C239.077 184.376 238.12 183.945 237.006 184.813C236.947 184.859 237.009 184.951 237.074 184.934C238.015 184.692 238.706 184.828 239.379 185.562C239.855 186.081 240.193 186.749 240.544 187.357C240.661 187.56 241.03 187.434 240.942 187.198C240.935 187.181 240.928 187.163 240.921 187.145C240.856 184.188 238.39 180.149 235.206 179.983Z" fill="#263238"/>
<g opacity="0.2">
<path d="M247.527 183.622C247.52 183.791 247.376 183.922 247.207 183.915C247.038 183.907 246.907 183.764 246.914 183.595C246.921 183.426 247.065 183.295 247.234 183.302C247.403 183.31 247.534 183.453 247.527 183.622Z" fill="black"/>
<path d="M253.958 183.6C253.951 183.769 253.807 183.9 253.638 183.893C253.469 183.886 253.338 183.742 253.345 183.573C253.353 183.404 253.496 183.273 253.665 183.28C253.835 183.287 253.966 183.43 253.958 183.6Z" fill="black"/>
<path d="M251.6 185.754C251.592 185.923 251.449 186.054 251.28 186.047C251.111 186.04 250.98 185.896 250.987 185.727C250.994 185.558 251.138 185.427 251.307 185.434C251.476 185.442 251.607 185.585 251.6 185.754Z" fill="black"/>
<path d="M247.809 181.096C247.802 181.265 247.658 181.396 247.489 181.389C247.32 181.381 247.189 181.238 247.196 181.069C247.204 180.9 247.347 180.769 247.516 180.776C247.685 180.784 247.816 180.927 247.809 181.096Z" fill="black"/>
<path d="M250.763 182.953C250.755 183.122 250.612 183.253 250.443 183.246C250.274 183.239 250.143 183.095 250.15 182.926C250.158 182.757 250.301 182.626 250.47 182.633C250.639 182.641 250.77 182.784 250.763 182.953Z" fill="black"/>
<path d="M266.745 179.199C266.737 179.368 266.594 179.499 266.425 179.492C266.256 179.485 266.125 179.341 266.132 179.172C266.14 179.003 266.283 178.872 266.452 178.879C266.621 178.887 266.752 179.03 266.745 179.199Z" fill="black"/>
<path d="M264.276 180.838C264.269 181.007 264.125 181.138 263.956 181.131C263.787 181.123 263.656 180.98 263.663 180.811C263.67 180.642 263.814 180.511 263.983 180.518C264.153 180.526 264.284 180.669 264.276 180.838Z" fill="black"/>
<path d="M264.8 182.885C264.792 183.054 264.649 183.185 264.48 183.178C264.311 183.171 264.18 183.027 264.187 182.858C264.195 182.689 264.338 182.558 264.507 182.565C264.677 182.573 264.808 182.716 264.8 182.885Z" fill="black"/>
<path d="M266.947 181.57C266.94 181.739 266.796 181.87 266.627 181.863C266.458 181.856 266.327 181.712 266.334 181.543C266.341 181.374 266.485 181.243 266.654 181.25C266.823 181.258 266.955 181.401 266.947 181.57Z" fill="black"/>
</g>
<path d="M193.553 452.189C196.339 453.199 278.877 454.826 281.984 452.93C282.347 452.738 283.691 425.431 283.691 425.431C283.592 425.043 284.972 422.411 287.075 418.755C292.961 408.485 304.465 390.092 304.465 390.092L255.48 375.28L235.356 415.589L230.228 425.874C230.228 425.874 218.977 430.273 209.162 434.659C209.148 434.672 209.135 434.672 209.135 434.685C203.088 437.375 197.83 439.84 196.603 440.761C193.446 443.187 190.767 451.205 193.553 452.189Z" fill="#FFC4C0"/>
<path d="M193.553 452.189C196.339 453.199 278.877 454.826 281.984 452.93C282.347 452.738 283.691 425.431 283.691 425.431C283.592 425.043 284.972 422.411 287.075 418.755L235.355 415.589L230.227 425.874C230.227 425.874 218.976 430.273 209.161 434.659C209.147 434.672 209.134 434.672 209.134 434.685C203.087 437.375 197.829 439.84 196.602 440.761C193.446 443.187 190.767 451.205 193.553 452.189Z" fill="white"/>
<path d="M193.207 452.498C196.078 453.513 278.722 454.931 281.909 452.993C283.121 452.264 284.579 439.543 283.689 425.433L230.406 424.583C230.406 424.583 199.549 438.222 196.283 440.722C193.034 443.223 190.337 451.482 193.207 452.498Z" fill="#5C60F5"/>
<path opacity="0.1" d="M281.905 452.99C280.742 453.694 268.999 453.959 254.41 453.959L282.384 425.414L282.394 425.404L283.69 425.435C284.578 439.543 283.119 452.265 281.905 452.99Z" fill="black"/>
<path d="M194.449 449.211C208.309 449.108 264.219 450.003 277.927 450.954C278.038 450.962 278.037 451.038 277.925 451.041C264.19 451.443 208.289 450.096 194.444 449.437C194.153 449.424 194.156 449.213 194.449 449.211Z" fill="#263238"/>
<path d="M201.649 437.84C204.937 437.762 208.121 439.378 209.879 441.365C211.568 443.275 212.995 445.943 212.848 448.815C212.844 448.897 212.692 448.897 212.681 448.812C211.983 443.377 207.133 438.531 201.646 438.014C201.535 438.003 201.537 437.843 201.649 437.84Z" fill="#263238"/>
<path d="M226.036 425.896C231.583 425.914 237.978 427.981 241.346 432.576C241.477 432.754 241.222 432.937 241.058 432.849C236.09 430.179 231.358 428.172 225.929 426.577C225.546 426.465 225.639 425.895 226.036 425.896Z" fill="#263238"/>
<path d="M221.727 427.491C227.273 427.509 233.668 429.577 237.036 434.171C237.166 434.349 236.912 434.532 236.749 434.444C231.781 431.774 227.048 429.767 221.619 428.173C221.237 428.06 221.33 427.49 221.727 427.491Z" fill="#263238"/>
<path d="M217.418 429.088C222.964 429.106 229.36 431.174 232.728 435.768C232.859 435.946 232.604 436.129 232.44 436.041C227.472 433.371 222.74 431.364 217.311 429.769C216.928 429.656 217.021 429.087 217.418 429.088Z" fill="#263238"/>
<path d="M213.109 430.683C218.655 430.701 225.051 432.769 228.418 437.363C228.549 437.541 228.294 437.724 228.131 437.636C223.163 434.966 218.431 432.959 213.002 431.364C212.619 431.252 212.711 430.682 213.109 430.683Z" fill="#263238"/>
<path d="M274.624 437.737C280.845 437.862 280.662 447.53 274.43 447.405C268.209 447.28 268.392 437.612 274.624 437.737Z" fill="#263238"/>
<path d="M220.601 419.133C223.527 423.045 228.044 425.554 231.945 428.352C232.35 428.643 232.825 428.317 232.95 427.921C233.041 427.929 233.131 427.883 233.126 427.765C232.898 422.98 231.066 417.461 228.331 413.499C226.642 411.053 223.144 408.718 220.298 410.997C217.605 413.154 218.892 416.849 220.601 419.133ZM220.423 414.535C221.078 408.512 226.441 413.239 227.615 415.092C228.369 416.282 228.992 417.587 229.576 418.867C230.799 421.551 231.617 424.357 232.56 427.137C230.728 425.645 228.785 424.323 226.899 422.9C224.652 421.204 220.061 417.856 220.423 414.535Z" fill="#263238"/>
<path d="M252.878 424.567C252.505 420.939 248.388 420.085 245.46 420.597C240.718 421.426 235.499 423.993 231.929 427.187C231.841 427.266 231.872 427.362 231.941 427.421C231.747 427.788 231.848 428.355 232.339 428.439C237.07 429.256 242.027 430.716 246.867 430.057C249.693 429.673 253.23 427.999 252.878 424.567ZM239.765 428.212C237.428 427.867 235.123 427.409 232.774 427.15C235.417 425.872 237.991 424.486 240.761 423.475C242.083 422.992 243.449 422.522 244.827 422.224C246.97 421.761 254.102 422.267 250.268 426.959C248.156 429.547 242.55 428.623 239.765 428.212Z" fill="#263238"/>
<path d="M290.801 418.222L232.687 409.415C232.687 409.415 260.622 353.741 277.914 323.528C287.528 306.73 313.83 305.907 326.622 326.034C343.713 352.922 356.972 378.116 364.572 392.085L377.755 393.213L374.91 414.749L331.1 424.561C314.319 426.569 302.541 396.694 302.267 397.199C300.144 401.122 290.801 418.222 290.801 418.222Z" fill="#263238"/>
<path d="M301.96 397.331C303.614 393.947 304.902 390.354 306.371 386.886C307.792 383.531 309.222 380.179 310.632 376.82C313.482 370.03 316.435 363.274 319.2 356.45C320.752 352.619 322.177 348.741 323.627 344.87C323.662 344.777 323.806 344.818 323.776 344.915C322.655 348.573 321.486 352.216 320.262 355.841C320.587 355.215 320.911 354.59 321.251 353.981C322.183 352.313 323.147 350.664 324.114 349.016C324.152 348.952 324.246 349.012 324.211 349.076C323.32 350.731 322.428 352.384 321.502 354.02C321.042 354.834 320.538 355.638 320.051 356.452C316.603 366.601 312.696 376.587 307.998 386.231C306.15 390.023 303.986 393.654 302.137 397.44C302.078 397.56 301.902 397.45 301.96 397.331Z" fill="#37474F"/>
<path d="M289.503 407.891C292.304 403.568 298.977 390.482 301.367 385.958C306.201 376.808 310.625 367.469 314.807 358.006C317.17 352.659 319.381 347.263 321.569 341.843C321.584 341.807 321.642 341.823 321.629 341.861C318.338 351.625 314.416 361.189 310.161 370.569C305.9 379.962 292.154 405.265 289.678 408.001C289.589 408.099 289.43 408.003 289.503 407.891Z" fill="#37474F"/>
<path d="M325.579 349.071C330.586 358.013 335.704 366.893 340.733 375.823C343.275 380.336 345.815 384.849 348.329 389.377C349.512 391.508 350.66 393.663 351.888 395.769C353.049 397.76 354.436 399.41 356.481 400.533C358.731 401.769 361.321 402.361 363.768 403.077C366.594 403.904 369.402 404.794 372.242 405.573C372.371 405.608 372.311 405.806 372.182 405.772C369.649 405.095 367.094 404.512 364.549 403.885C362.238 403.315 359.863 402.834 357.623 402.016C355.595 401.276 353.839 400.175 352.487 398.47C351.037 396.643 350.006 394.501 348.891 392.465C343.867 383.281 338.896 374.067 333.959 364.836C331.152 359.589 328.371 354.327 325.534 349.096C325.518 349.066 325.563 349.042 325.579 349.071Z" fill="#37474F"/>
<path d="M292.121 410.068C288.639 409.434 285.073 409.131 281.562 408.681C278.041 408.228 274.52 407.773 271 407.314C263.978 406.397 240.073 402.589 238.268 401.991C238.154 401.953 238.193 401.767 238.308 401.764C240.019 401.71 255.673 403.795 259.184 404.312C266.206 405.346 273.182 406.591 280.179 407.771C282.177 408.108 284.168 408.488 286.163 408.842C288.154 409.195 290.147 409.624 292.153 409.881C292.276 409.895 292.243 410.09 292.121 410.068Z" fill="#37474F"/>
<path d="M255.341 464.627C256.392 461.857 309.022 398.259 312.476 397.139C312.873 396.989 334.432 413.79 334.432 413.79C335.297 415.054 377.976 407.956 377.976 407.956L376.18 458.992L299.213 454.005C299.213 454.005 288.541 459.67 278.807 464.24C278.79 464.241 278.783 464.251 278.774 464.243C272.783 467.075 267.484 469.451 265.989 469.773C262.093 470.592 254.272 467.382 255.341 464.627Z" fill="#FFC4C0"/>
<path d="M265.988 469.772C267.49 469.456 272.782 467.079 278.771 464.241C278.783 464.254 278.796 464.242 278.808 464.243C288.536 459.674 299.21 454.002 299.21 454.002L316.34 455.116L345.064 412.971C339.128 413.758 334.706 414.193 334.429 413.787C334.429 413.787 312.878 396.988 312.478 397.142C309.023 398.258 256.397 461.855 255.342 464.625C254.275 467.381 262.091 470.598 265.988 469.772Z" fill="white"/>
<path d="M254.882 464.694C255.986 461.856 308.839 398.306 312.386 397.155C313.729 396.712 324.321 403.908 334.432 413.79L300.308 454.721C300.308 454.721 269.838 469.204 265.812 470.048C261.798 470.878 253.779 467.531 254.882 464.694Z" fill="#5C60F5"/>
<path d="M258.183 465.896C267.304 455.461 303.109 412.51 311.333 401.501C311.4 401.412 311.342 401.363 311.266 401.445C301.999 411.591 266.544 454.83 258.008 465.751C257.828 465.982 257.99 466.117 258.183 465.896Z" fill="#263238"/>
<path d="M271.498 467.861C273.702 465.42 274.556 461.953 274.197 459.324C273.852 456.798 272.761 453.975 270.489 452.213C270.424 452.162 270.325 452.278 270.382 452.342C274.045 456.418 274.553 463.255 271.364 467.75C271.3 467.841 271.423 467.945 271.498 467.861Z" fill="#263238"/>
<path d="M296.461 457.175C300.066 452.96 302.673 446.765 301.389 441.215C301.339 441 301.035 441.074 300.995 441.255C299.776 446.762 298.209 451.657 295.875 456.812C295.711 457.175 296.203 457.477 296.461 457.175Z" fill="#263238"/>
<path d="M292.441 459.399C296.047 455.184 298.652 448.989 297.369 443.439C297.319 443.224 297.014 443.298 296.975 443.479C295.756 448.986 294.189 453.882 291.855 459.036C291.69 459.399 292.182 459.7 292.441 459.399Z" fill="#263238"/>
<path d="M288.42 461.623C292.025 457.408 294.632 451.213 293.348 445.663C293.298 445.448 292.993 445.522 292.953 445.703C291.734 451.21 290.168 456.105 287.833 461.26C287.67 461.623 288.162 461.925 288.42 461.623Z" fill="#263238"/>
<path d="M284.399 463.847C288.004 459.632 290.611 453.437 289.327 447.887C289.277 447.672 288.973 447.746 288.932 447.927C287.713 453.434 286.147 458.33 283.813 463.484C283.649 463.848 284.141 464.149 284.399 463.847Z" fill="#263238"/>
<path d="M319.194 412.631C323.159 407.835 315.713 401.666 311.741 406.469C307.777 411.264 315.223 417.434 319.194 412.631Z" fill="#263238"/>
<path d="M304.007 471.245C307.592 470.575 308.104 466.401 307.353 463.525C306.136 458.867 303.149 453.877 299.672 450.582C299.586 450.501 299.492 450.54 299.439 450.614C299.057 450.451 298.501 450.598 298.457 451.095C298.032 455.877 296.985 460.937 298.04 465.707C298.656 468.491 300.616 471.878 304.007 471.245ZM299.295 458.476C299.447 456.119 299.714 453.784 299.778 451.422C301.269 453.951 302.862 456.402 304.098 459.079C304.687 460.357 305.269 461.68 305.679 463.028C306.317 465.126 306.4 472.275 301.408 468.841C298.656 466.949 299.115 461.286 299.295 458.476Z" fill="#263238"/>
<path d="M306.901 438.674C303.243 441.912 301.115 446.621 298.647 450.739C298.391 451.166 298.754 451.613 299.159 451.705C299.158 451.796 299.211 451.883 299.328 451.867C304.078 451.246 309.428 448.966 313.151 445.913C315.45 444.028 317.489 440.351 314.984 437.701C312.613 435.197 309.037 436.784 306.901 438.674ZM311.469 438.118C317.526 438.275 313.256 444.009 311.506 445.331C310.382 446.181 309.133 446.909 307.905 447.596C305.331 449.035 302.601 450.082 299.909 451.251C301.245 449.302 302.402 447.257 303.666 445.26C305.171 442.882 308.129 438.031 311.469 438.118Z" fill="#263238"/>
<path d="M353.175 395.067C353.175 395.067 419.177 386.206 440.778 392.024C470.905 400.139 474.359 436.332 451.157 450.108C421.761 467.562 319.777 457.834 319.777 457.834L348.243 409.85C348.243 409.85 390.966 401.887 429.262 404.976L351.994 414.537L353.175 395.067Z" fill="#263238"/>
<path d="M346.268 413.082C346.305 413.02 346.318 412.893 346.337 412.822C346.356 412.751 346.375 412.681 346.394 412.61C346.439 412.445 346.486 412.281 346.536 412.118C346.639 411.778 346.765 411.455 346.899 411.128C347.032 410.801 347.176 410.484 347.328 410.168C347.485 409.842 347.688 409.582 347.882 409.284C347.902 409.253 347.933 409.249 347.958 409.23C347.974 409.217 347.99 409.205 348.008 409.195C348.033 409.184 348.052 409.17 348.078 409.167C348.102 409.158 348.121 409.143 348.149 409.139C352.842 408.388 384.665 404.784 389.391 404.398C394.155 404.009 398.928 403.73 403.7 403.497C413.216 403.033 422.768 403.013 432.273 403.607C433.164 403.663 434.053 403.74 434.942 403.814C435.133 403.753 435.337 403.724 435.535 403.681C435.997 403.58 436.456 403.475 436.921 403.398C437.787 403.254 438.658 403.153 439.528 403.045C441.341 402.82 443.156 402.689 444.962 402.398C445.072 402.381 445.107 402.563 444.996 402.585C443.176 402.946 441.382 403.443 439.561 403.797C439.036 403.899 438.511 404 437.985 404.093C441.465 404.446 444.934 404.894 448.401 405.392C448.51 405.408 448.505 405.595 448.393 405.583C443.669 405.07 438.897 404.825 434.149 404.707C429.433 404.59 424.72 404.499 420.001 404.591C410.459 404.778 400.908 405.304 391.381 405.984C386.036 406.366 353.584 410.142 348.23 410.156C348.206 410.156 348.187 410.145 348.165 410.141C348.116 410.274 348.066 410.407 348 410.537C347.84 410.85 347.679 411.16 347.507 411.465C347.341 411.76 347.178 412.05 346.992 412.331C346.899 412.47 346.807 412.609 346.712 412.746C346.665 412.814 346.617 412.883 346.57 412.952C346.53 413.011 346.444 413.098 346.421 413.168C346.378 413.295 346.198 413.2 346.268 413.082Z" fill="#37474F"/>
<path d="M334.402 454.843C336.084 452.084 337.544 449.124 339.097 446.271C340.655 443.409 342.215 440.547 343.778 437.688C346.896 431.985 358.032 412.83 359.108 411.503C359.176 411.419 359.303 411.524 359.267 411.624C358.717 413.119 351.734 425.819 350.131 428.648C346.924 434.307 343.574 439.845 340.264 445.427C339.319 447.021 338.344 448.592 337.387 450.177C336.432 451.759 335.419 453.313 334.532 454.944C334.479 455.042 334.343 454.94 334.402 454.843Z" fill="#37474F"/>
<path d="M360.841 416.763C363.68 416.144 366.575 415.786 369.437 415.318C372.305 414.849 375.174 414.384 378.044 413.927C383.784 413.012 389.53 412.144 395.283 411.335C406.756 409.721 418.261 408.466 429.804 407.753C436.32 407.35 442.841 407.181 449.362 406.939C449.5 406.934 449.486 407.176 449.346 407.177C437.748 407.246 426.116 408.471 414.578 409.785C403.151 411.086 391.744 412.566 380.347 414.173C377.129 414.627 373.913 415.091 370.697 415.56C367.432 416.037 364.159 416.658 360.879 416.972C360.757 416.984 360.714 416.79 360.841 416.763Z" fill="#37474F"/>
<path d="M360.831 334.146C354.508 345.178 329.343 379.204 321.425 380.334C313.185 381.51 282.806 378.907 277.265 372.382C274.552 369.187 278.927 341.798 283.138 343.329C287.35 344.86 313.342 351.137 316.677 350.649C319.993 350.164 346.95 324.083 356.877 318.457C373.994 308.755 364.236 328.205 360.831 334.146Z" fill="#FFC4C0"/>
<path d="M289.821 344.201L283.41 378.139C283.41 378.139 313.838 384.374 322.814 381.747C331.79 379.119 356.863 343.47 364.175 329.366C371.487 315.262 365.099 311.562 351.974 320.344C338.849 329.126 317.797 348.825 315.754 348.91C313.711 348.994 289.821 344.201 289.821 344.201Z" fill="#5C60F5"/>
<path d="M355.164 322.963C354.45 323.708 353.787 324.514 353.358 325.544C354.388 325.116 355.194 324.452 355.939 323.738C356.653 322.993 357.316 322.187 357.745 321.157C356.715 321.586 355.909 322.249 355.164 322.963ZM289.514 374.677C288.473 374.697 287.443 374.799 286.412 375.218C287.442 375.647 288.473 375.749 289.514 375.769C290.544 375.749 291.575 375.647 292.615 375.218C291.575 374.8 290.544 374.698 289.514 374.677ZM339.239 364.536C338.198 364.556 337.168 364.658 336.127 365.077C337.168 365.506 338.198 365.608 339.239 365.628C339.372 365.628 339.514 365.618 339.647 365.618C339.902 365.291 340.177 364.955 340.443 364.618C340.035 364.567 339.637 364.547 339.239 364.536ZM317.58 372.668C317.152 373.698 317.06 374.739 317.039 375.769C317.059 376.799 317.151 377.84 317.58 378.87C318.008 377.84 318.1 376.799 318.131 375.769C318.11 374.738 318.008 373.698 317.58 372.668ZM343.075 339.5C342.647 340.53 342.545 341.561 342.534 342.601C342.554 343.631 342.646 344.672 343.075 345.703C343.503 344.673 343.595 343.632 343.616 342.601C343.605 341.561 343.503 340.531 343.075 339.5ZM355.164 322.963C354.45 323.708 353.787 324.514 353.358 325.544C354.388 325.116 355.194 324.452 355.939 323.738C356.653 322.993 357.316 322.187 357.745 321.157C356.715 321.586 355.909 322.249 355.164 322.963ZM322.426 350.927C321.712 351.672 321.049 352.467 320.62 353.508C321.65 353.069 322.456 352.416 323.201 351.692C323.915 350.947 324.578 350.152 325.007 349.111C323.977 349.549 323.171 350.213 322.426 350.927ZM291.707 344.581H291.697C291.605 344.663 291.513 344.755 291.421 344.836C290.707 345.581 290.044 346.376 289.615 347.417C290.645 346.989 291.441 346.325 292.196 345.601C292.441 345.346 292.675 345.091 292.9 344.816C292.462 344.734 292.064 344.652 291.707 344.581ZM303.96 361.384C303.215 360.67 302.42 360.007 301.379 359.578C301.807 360.608 302.471 361.414 303.195 362.159C303.94 362.873 304.736 363.536 305.766 363.965C305.337 362.935 304.674 362.129 303.96 361.384ZM339.239 364.536C338.198 364.556 337.168 364.658 336.127 365.077C337.168 365.506 338.198 365.608 339.239 365.628C339.372 365.628 339.514 365.618 339.647 365.618C339.902 365.291 340.177 364.955 340.443 364.618C340.035 364.567 339.637 364.547 339.239 364.536ZM343.075 339.5C342.647 340.53 342.545 341.561 342.534 342.601C342.554 343.631 342.646 344.672 343.075 345.703C343.503 344.673 343.595 343.632 343.616 342.601C343.605 341.561 343.503 340.531 343.075 339.5Z" fill="white"/>
<path d="M295.32 362.706C295.837 360.02 297.832 349.261 298.122 346.551C298.127 346.507 298.058 346.485 298.044 346.531C297.261 349.062 294.982 359.622 294.459 362.312C293.416 367.674 292.255 373.046 291.807 378.499C291.799 378.595 291.95 378.647 291.979 378.544C293.446 373.348 294.301 368.001 295.32 362.706Z" fill="#263238"/>
<path opacity="0.1" d="M364.18 329.362C356.859 343.473 331.795 379.119 322.815 381.744C316.013 383.734 296.927 380.642 288.058 379.021L363.738 315.644C367.986 315.949 368.669 320.688 364.18 329.362Z" fill="black"/>
<path d="M337.654 396.651L412.476 400.994C412.384 399.467 400.68 356.55 392.262 340.212C381.469 319.263 376.683 316.062 373.479 314.992C369.381 313.622 360.969 313.629 358.493 317.585C345.124 338.947 336.633 395.702 337.654 396.651Z" fill="#5C60F5"/>
<path d="M355.889 322.31C355.491 323.106 355.103 323.922 354.716 324.779C355.155 324.463 355.553 324.106 355.94 323.738C356.654 322.993 357.317 322.187 357.746 321.157C357.041 321.453 356.44 321.851 355.889 322.31ZM378.415 391.633C377.701 392.378 377.038 393.174 376.609 394.214C377.639 393.786 378.445 393.122 379.19 392.408C379.904 391.653 380.567 390.857 380.996 389.827C379.966 390.256 379.16 390.919 378.415 391.633ZM355.889 322.31C355.491 323.106 355.103 323.922 354.716 324.779C355.155 324.463 355.553 324.106 355.94 323.738C356.654 322.993 357.317 322.187 357.746 321.157C357.041 321.453 356.44 321.851 355.889 322.31ZM399.839 358.864H399.829C399.645 358.762 399.452 358.66 399.247 358.578C399.533 359.272 399.931 359.853 400.369 360.394C400.196 359.884 400.013 359.364 399.839 358.864ZM383.393 324.208C383.097 323.922 382.801 323.647 382.475 323.392L382.465 323.382C381.975 323.004 381.445 322.658 380.823 322.403C381.251 323.433 381.915 324.239 382.629 324.984C383.19 325.525 383.792 326.035 384.496 326.433C384.72 326.566 384.955 326.688 385.21 326.79C384.771 325.758 384.118 324.952 383.393 324.208ZM363.122 359.19C362.377 358.476 361.581 357.813 360.541 357.384C360.98 358.414 361.633 359.22 362.357 359.965C363.102 360.679 363.897 361.342 364.938 361.771C364.499 360.741 363.836 359.935 363.122 359.19ZM381.904 369.546C380.874 369.566 379.833 369.668 378.802 370.097C379.833 370.515 380.873 370.617 381.904 370.638C382.945 370.618 383.975 370.516 385.005 370.097C383.975 369.668 382.945 369.566 381.904 369.546ZM363.652 336.736C362.611 336.756 361.581 336.858 360.55 337.287C361.58 337.705 362.611 337.807 363.652 337.828C364.682 337.808 365.713 337.716 366.753 337.287C365.713 336.858 364.683 336.756 363.652 336.736ZM355.552 381.431C355.123 382.461 355.021 383.492 355.001 384.533C355.032 385.563 355.123 386.594 355.552 387.634C355.98 386.593 356.072 385.563 356.093 384.533C356.072 383.492 355.98 382.461 355.552 381.431ZM398.36 378.319C397.932 379.36 397.829 380.39 397.809 381.431C397.829 382.461 397.931 383.492 398.36 384.533C398.778 383.492 398.88 382.462 398.901 381.431C398.88 380.39 398.778 379.36 398.36 378.319ZM383.016 344.857C382.588 345.887 382.485 346.918 382.465 347.958C382.485 348.988 382.587 350.019 383.016 351.06C383.434 350.019 383.536 348.989 383.557 347.958C383.536 346.917 383.444 345.887 383.016 344.857Z" fill="white"/>
<path d="M385.963 324.527C404.869 347.775 425.525 386.376 415.411 393.848C406.174 400.671 374.226 392.01 354.334 382.985C350.548 381.267 368.051 347.892 371.887 350.139C378.617 354.081 383.925 356.441 384.438 356.61C385.536 356.973 379.825 349.187 373.98 330.893C368.037 312.301 375.156 311.238 385.963 324.527Z" fill="#FFC4C0"/>
<path d="M322.649 344.96C322.417 348.935 332.266 348.676 332.266 348.676C332.266 348.676 329.85 349.991 329.068 352.515C328.172 355.406 332.312 358.078 332.312 358.078C332.312 358.078 330.142 359.915 329.584 362.665C329.005 365.518 332.798 368.81 332.798 368.81C332.798 368.81 331.717 371.632 332.939 374.354C335.029 379.008 342.862 379.519 347.649 380.794C352.776 382.159 360.207 385.164 363.257 386.697L374.157 351.454C374.157 351.454 353.823 337.871 347.941 337.838C342.985 337.808 323.004 338.885 322.649 344.96Z" fill="#FFC4C0"/>
<path d="M332.354 348.566C337.63 347.332 343.191 347.363 348.557 347.451C348.676 347.453 348.672 347.64 348.552 347.637C343.217 347.487 337.712 348.76 332.382 348.822C332.234 348.824 332.212 348.6 332.354 348.566Z" fill="#263238"/>
<path d="M332.477 357.682C333.679 357.439 334.957 357.593 336.171 357.673C337.477 357.76 338.781 357.87 340.084 358C342.692 358.26 345.294 358.579 347.885 358.975C348 358.993 348.002 359.173 347.88 359.161C345.28 358.906 342.677 358.691 340.069 358.546C338.764 358.473 337.458 358.412 336.152 358.359C334.937 358.31 333.651 358.359 332.469 358.04C332.294 357.993 332.295 357.718 332.477 357.682Z" fill="#263238"/>
<path d="M332.908 368.816C333.944 368.562 335.189 368.86 336.234 368.986C337.42 369.129 338.606 369.266 339.793 369.396C342.167 369.656 344.541 369.914 346.923 370.092C347.042 370.101 347.038 370.286 346.918 370.278C344.497 370.111 342.074 369.976 339.655 369.787C338.467 369.694 337.279 369.595 336.093 369.489C335.084 369.399 333.812 369.401 332.89 368.936C332.838 368.909 332.856 368.829 332.908 368.816Z" fill="#263238"/>
<path d="M375.116 351.099L365.331 389.114C365.331 389.114 412.767 404.228 418.404 392.319C424.042 380.41 398.163 333.715 382.546 319.954C366.929 306.192 371.959 326.833 372.368 328.483C374.186 335.815 383.443 355.183 383.443 355.183L375.116 351.099Z" fill="#5C60F5"/>
<path d="M383.016 344.857C382.588 345.887 382.485 346.918 382.465 347.958C382.485 348.988 382.587 350.019 383.016 351.06C383.434 350.019 383.536 348.989 383.557 347.958C383.536 346.917 383.444 345.887 383.016 344.857ZM398.36 378.319C397.932 379.36 397.829 380.39 397.809 381.431C397.829 382.461 397.931 383.492 398.36 384.533C398.778 383.492 398.88 382.462 398.901 381.431C398.88 380.39 398.778 379.36 398.36 378.319ZM381.904 369.546C380.874 369.566 379.833 369.668 378.802 370.097C379.833 370.515 380.873 370.617 381.904 370.638C382.945 370.618 383.975 370.516 385.005 370.097C383.975 369.668 382.945 369.566 381.904 369.546ZM383.393 324.208C382.648 323.494 381.853 322.831 380.822 322.402C381.25 323.432 381.914 324.238 382.628 324.983C383.373 325.697 384.179 326.36 385.209 326.789C384.771 325.758 384.118 324.952 383.393 324.208ZM416.254 389.44C415.509 388.726 414.714 388.063 413.683 387.634C414.111 388.664 414.775 389.47 415.489 390.215C416.234 390.929 417.04 391.592 418.07 392.021C417.632 390.99 416.979 390.184 416.254 389.44ZM401.829 360.384C401.084 359.67 400.278 359.007 399.248 358.578C399.676 359.608 400.34 360.414 401.054 361.159C401.799 361.873 402.605 362.536 403.635 362.965C403.206 361.935 402.543 361.129 401.829 360.384ZM378.415 391.633C378.139 391.929 377.864 392.225 377.609 392.541C377.987 392.633 378.354 392.725 378.741 392.816C378.894 392.683 379.047 392.551 379.19 392.408C379.904 391.653 380.567 390.857 380.996 389.827C379.966 390.256 379.16 390.919 378.415 391.633Z" fill="white"/>
<path d="M375.947 351.174C381.367 353.413 395.462 361.403 398.479 364.537C398.568 364.629 398.46 364.775 398.36 364.696C395.348 362.326 377.922 352.614 375.184 351.394C375.184 351.394 375.031 351.732 374.965 351.817C374.865 351.945 374.796 351.862 374.806 351.74C374.813 351.655 375.024 350.861 375.063 350.814C375.063 350.814 375.355 350.929 375.947 351.174Z" fill="#263238"/>
<path d="M378.916 372.892C379.579 370.238 382.16 359.604 382.598 356.915C382.605 356.872 382.538 356.846 382.522 356.89C381.602 359.375 378.748 369.794 378.078 372.451C376.743 377.748 375.29 383.048 374.543 388.468C374.53 388.563 374.678 388.624 374.713 388.523C376.462 383.415 377.608 378.123 378.916 372.892Z" fill="#263238"/>
<path d="M383.813 355.433C382.477 352.082 380.806 348.866 379.321 345.579C377.843 342.306 376.288 339.046 374.922 335.726C374.905 335.683 374.83 335.712 374.846 335.756C375.667 338.016 376.484 340.264 377.366 342.491C377.084 342.131 376.815 341.761 376.555 341.386C376.082 340.704 375.649 339.993 375.226 339.279C375.198 339.232 375.135 339.27 375.154 339.318C375.47 340.116 375.885 340.858 376.373 341.563C376.737 342.089 377.155 342.568 377.582 343.042C377.947 343.949 378.323 344.852 378.72 345.751C380.189 349.075 381.293 352.346 383.252 355.414C383.317 355.513 383.855 355.54 383.813 355.433Z" fill="#263238"/>
<path d="M411.351 396.298C401.553 397.675 370.762 390.54 365.515 389.173C365.614 388.613 365.605 388.415 365.739 387.624C365.756 387.521 365.596 387.463 365.568 387.571C365.38 388.316 364.793 389.791 365.001 389.885C367.496 391.023 401.794 398.842 411.343 396.535C411.492 396.499 411.503 396.276 411.351 396.298Z" fill="#263238"/>
<path d="M335.33 381.802L295.26 386.326L281.284 330.469L321.355 325.945L335.33 381.802Z" fill="#37474F"/>
<path d="M333.361 382.024L293.291 386.548L279.316 330.692L319.386 326.167L333.361 382.024Z" fill="#455A64"/>
<path d="M300.796 354.47C301.228 356.601 303.322 358.132 305.475 357.889C307.628 357.646 309.023 355.721 308.591 353.59C308.16 351.459 306.065 349.928 303.912 350.171C301.76 350.415 300.365 352.339 300.796 354.47Z" fill="white"/>
<path d="M279.47 342.148C277.707 346.786 272.811 352.764 272.666 356.449C272.534 359.777 275.364 360.716 275.364 360.716C275.364 360.716 271.868 362.824 272.287 366.191C272.503 367.923 275.459 369.1 275.459 369.1C275.459 369.1 272.731 370.912 273.288 373.882C273.732 376.249 276.628 377.074 276.628 377.074C276.628 377.074 274.821 380.032 276.047 382.298C278.533 386.893 299.137 385.242 301.711 377.397C302.911 373.741 297.9 374.417 297.9 374.417C297.9 374.417 304.87 371.704 304.639 367.447C304.407 363.191 297.95 364.463 297.95 364.463C297.95 364.463 304.682 361.775 303.996 357.386C303.282 352.817 297.041 355.196 297.041 355.196C297.041 355.196 301.374 351.723 300.079 348.483C297.942 343.133 289.82 350.727 285.206 350.015L282.109 342.749L279.47 342.148Z" fill="#FFC4C0"/>
<path d="M275.86 348.97C277.146 344.433 271.252 339.429 271.859 334.913C272.679 328.804 279.909 334.148 282.11 342.748L282.646 349.725L275.86 348.97Z" fill="#FFC4C0"/>
<path d="M277.068 377.271C276.999 377.271 276.986 377.368 277.056 377.379C283.966 378.487 291.897 377.587 298.18 374.412C298.386 374.308 298.306 373.928 298.057 373.999C290.956 376.033 284.49 377.272 277.068 377.271Z" fill="#263238"/>
<path d="M275.363 369.151C275.283 369.151 275.281 369.285 275.367 369.298C282.493 370.401 291.398 369.142 298.209 364.629C298.443 364.475 298.497 364.102 298.215 364.259C293.458 366.916 282.045 369.186 275.363 369.151Z" fill="#263238"/>
<path d="M297.436 354.71C290.738 358.784 283.407 360.301 275.654 360.776C275.553 360.782 275.572 360.924 275.658 360.942C279.514 361.743 284.425 360.925 288.191 359.965C291.799 359.046 294.87 357.491 297.578 354.944C297.684 354.846 297.579 354.623 297.436 354.71Z" fill="#263238"/>
<path d="M362.713 329.991C367.089 330.155 373.005 322.351 374.819 316.614C374.941 316.22 373.659 312.586 372.31 308.096C371.502 305.368 370.667 302.312 370.106 299.468C369.994 298.884 353.123 307.319 353.123 307.319C353.123 307.319 356.052 312.935 357 317.899C357.075 318.315 357.109 318.708 357.108 319.09C357.112 319.145 357.11 319.213 357.12 319.288C357.195 321.577 358.484 329.83 362.713 329.991Z" fill="#FFC4C0"/>
<path d="M369.024 299.759C369.145 304.73 368.445 316.937 358.969 319.03C358.309 319.177 357.694 319.264 357.124 319.291C357.104 319.212 357.112 319.15 357.108 319.091C357.105 318.707 357.076 318.318 357.005 317.903C356.054 312.93 353.121 307.316 353.121 307.316C353.121 307.316 365.292 301.23 369.024 299.759Z" fill="#263238"/>
<path d="M373.141 280.756C374.971 287.243 371.174 305.79 366.502 309.844C359.729 315.722 348.836 316.067 343.892 307.97C339.099 300.122 344.476 276.038 349.676 272.374C357.336 266.977 370.437 271.174 373.141 280.756Z" fill="#FFC4C0"/>
<path d="M354.67 291.744C354.691 291.699 354.753 291.826 354.739 291.877C354.403 293.108 354.225 294.574 355.249 295.254C355.281 295.275 355.262 295.336 355.222 295.321C353.899 294.8 354.154 292.856 354.67 291.744Z" fill="#263238"/>
<path d="M356.088 290.713C358.119 291.039 357.318 295.077 355.436 294.775C353.584 294.478 354.385 290.44 356.088 290.713Z" fill="#263238"/>
<path d="M347.661 290.393C347.661 290.343 347.551 290.433 347.543 290.484C347.334 291.743 346.884 293.149 345.67 293.34C345.632 293.346 345.623 293.41 345.666 293.412C347.086 293.491 347.666 291.618 347.661 290.393Z" fill="#263238"/>
<path d="M346.804 288.865C344.822 288.313 343.864 292.317 345.7 292.828C347.507 293.331 348.464 289.327 346.804 288.865Z" fill="#263238"/>
<path d="M358.043 288.463C357.519 288.218 357.077 287.905 356.584 287.609C356.028 287.275 355.551 287.067 355.263 286.454C355.109 286.125 355.296 285.626 355.601 285.446C356.311 285.026 357.094 285.266 357.78 285.641C358.524 286.047 358.994 286.551 359.313 287.335C359.622 288.094 358.734 288.786 358.043 288.463Z" fill="#263238"/>
<path d="M345.315 286.473C345.89 286.537 346.43 286.5 347.005 286.505C347.654 286.51 348.17 286.581 348.735 286.209C349.038 286.009 349.139 285.486 348.973 285.173C348.586 284.445 347.793 284.242 347.013 284.203C346.166 284.162 345.503 284.347 344.821 284.849C344.16 285.334 344.557 286.388 345.315 286.473Z" fill="#263238"/>
<path d="M354.953 303.43C354.697 303.772 354.46 304.225 354.009 304.335C353.576 304.44 353.031 304.323 352.605 304.23C352.563 304.221 352.529 304.269 352.561 304.303C352.963 304.735 353.699 304.931 354.267 304.737C354.822 304.548 355.027 304.011 355.084 303.468C355.091 303.392 354.991 303.38 354.953 303.43Z" fill="#263238"/>
<path d="M353.881 299.775C352.966 300.722 351.818 301.111 350.662 301.106C350.145 301.107 349.619 301.021 349.116 300.872C349.016 300.85 348.917 300.819 348.83 300.78C348.741 300.751 348.661 300.724 348.564 300.684C348.422 300.634 348.366 300.497 348.369 300.354L348.371 300.345C348.381 300.299 348.389 300.263 348.408 300.219C348.408 300.219 348.408 300.219 348.41 300.21L348.434 300.101C348.599 299.133 348.983 297.687 348.983 297.687C348.596 297.794 346.642 298.245 346.77 297.747C347.845 293.632 349.041 289.054 350.979 285.186C351.036 285.055 351.24 285.128 351.201 285.263C350.324 289.259 348.751 293.075 347.806 297.075C348.422 296.971 349.435 296.753 349.937 296.863C350.066 296.93 349.145 299.645 349.106 300.085C349.106 300.085 349.102 300.103 349.105 300.133C350.682 300.661 351.998 300.414 353.785 299.639C353.894 299.587 353.976 299.691 353.881 299.775Z" fill="#263238"/>
<path d="M350.16 300.98C350.16 300.98 350.913 302.117 352.002 302.571C352.403 302.74 352.841 302.821 353.309 302.723C354.271 302.524 354.341 301.655 354.206 300.901C354.098 300.281 353.842 299.738 353.842 299.738C353.842 299.738 352.388 300.961 350.16 300.98Z" fill="#263238"/>
<path d="M352.002 302.571C352.403 302.74 352.841 302.821 353.309 302.723C354.271 302.524 354.341 301.655 354.206 300.901C353.184 300.951 352.141 301.588 352.002 302.571Z" fill="#FF9BBC"/>
<path d="M373.874 295.271C368.951 295.512 366.509 289.597 367.759 284.905C367.759 284.905 354.652 286.363 354.247 275.856C354.247 275.856 351.582 280.356 345.651 280.386L344.108 284.224C342.776 283.808 341.429 279.967 344.772 277.048C344.772 277.048 345.109 271.822 349.031 268.764C352.953 265.706 356.741 267.851 356.741 267.851C356.741 267.851 359.861 265.357 364.663 266.075C369.466 266.793 371.355 271.226 371.355 271.226C371.355 271.226 377.804 272.6 378.809 277.223C379.814 281.846 377.372 284.879 377.372 284.879C377.372 284.879 378.958 286.72 378.05 290.628C377.467 293.14 375.352 295.199 373.874 295.271Z" fill="#263238"/>
<path d="M354.557 274.932C354.452 275.786 354.4 276.645 354.474 277.494C354.505 278.344 354.664 279.179 354.896 279.983C355.389 281.581 356.406 282.99 357.843 283.813C359.235 284.747 360.974 284.926 362.636 285.125C363.484 285.117 364.338 285.17 365.191 285.114C366.043 285.046 366.896 284.958 367.761 284.907C366.921 285.093 366.07 285.241 365.219 285.41C364.362 285.526 363.49 285.527 362.62 285.591C360.896 285.484 359.077 285.3 357.531 284.332C355.995 283.399 354.87 281.83 354.451 280.109C354.035 278.388 354.103 276.594 354.557 274.932Z" fill="#263238"/>
<path d="M347.691 280.853C349.157 280.354 350.53 279.713 351.701 278.802C352.3 278.364 352.805 277.82 353.265 277.238C353.745 276.66 354.053 275.972 354.406 275.276C354.297 276.04 354.081 276.823 353.652 277.498C353.252 278.187 352.707 278.798 352.072 279.281C351.436 279.762 350.735 280.154 349.989 280.412C349.246 280.671 348.473 280.85 347.691 280.853Z" fill="#263238"/>
<path d="M368.84 295.847C368.84 295.847 373.296 290.003 375.964 291.616C378.633 293.229 375.109 301.821 371.854 302.882C368.599 303.943 367.558 300.949 367.558 300.949L368.84 295.847Z" fill="#FFC4C0"/>
<path d="M374.893 294.054C374.945 294.051 374.952 294.124 374.906 294.14C372.621 294.958 371.351 296.993 370.434 299.12C371.137 298.316 372.066 297.898 373.147 298.739C373.204 298.783 373.144 298.872 373.081 298.856C372.168 298.621 371.498 298.753 370.845 299.465C370.383 299.969 370.055 300.617 369.715 301.206C369.601 301.403 369.243 301.28 369.329 301.052C369.336 301.035 369.343 301.018 369.35 301.001C369.411 298.134 371.804 294.216 374.893 294.054Z" fill="#263238"/>
<g opacity="0.2">
<path d="M361.76 297.584C361.767 297.748 361.906 297.875 362.07 297.868C362.234 297.861 362.361 297.722 362.354 297.558C362.347 297.394 362.208 297.267 362.044 297.274C361.88 297.281 361.753 297.42 361.76 297.584Z" fill="black"/>
<path d="M355.52 297.56C355.527 297.724 355.666 297.851 355.83 297.844C355.994 297.837 356.121 297.698 356.114 297.534C356.107 297.37 355.968 297.243 355.804 297.25C355.64 297.257 355.513 297.396 355.52 297.56Z" fill="black"/>
<path d="M357.809 299.652C357.816 299.816 357.955 299.943 358.119 299.936C358.283 299.929 358.41 299.79 358.403 299.626C358.396 299.462 358.257 299.335 358.093 299.342C357.929 299.349 357.802 299.488 357.809 299.652Z" fill="black"/>
<path d="M361.487 295.132C361.494 295.296 361.633 295.423 361.797 295.416C361.961 295.409 362.088 295.27 362.081 295.106C362.074 294.942 361.935 294.815 361.771 294.822C361.607 294.829 361.479 294.968 361.487 295.132Z" fill="black"/>
<path d="M358.62 296.934C358.627 297.098 358.766 297.225 358.93 297.218C359.094 297.211 359.221 297.072 359.214 296.908C359.207 296.744 359.068 296.617 358.904 296.624C358.74 296.631 358.613 296.77 358.62 296.934Z" fill="black"/>
<path d="M343.115 293.293C343.122 293.457 343.261 293.584 343.425 293.577C343.589 293.57 343.716 293.431 343.709 293.267C343.702 293.103 343.563 292.976 343.399 292.983C343.235 292.99 343.108 293.129 343.115 293.293Z" fill="black"/>
<path d="M345.51 294.883C345.517 295.047 345.656 295.174 345.82 295.167C345.984 295.16 346.111 295.021 346.104 294.857C346.097 294.693 345.958 294.566 345.794 294.573C345.63 294.58 345.503 294.719 345.51 294.883Z" fill="black"/>
<path d="M345.002 296.869C345.009 297.033 345.148 297.16 345.312 297.153C345.476 297.146 345.603 297.007 345.596 296.843C345.589 296.679 345.45 296.552 345.286 296.559C345.122 296.566 344.995 296.705 345.002 296.869Z" fill="black"/>
<path d="M342.919 295.593C342.926 295.757 343.065 295.884 343.229 295.877C343.393 295.87 343.52 295.73 343.513 295.566C343.506 295.402 343.367 295.276 343.203 295.283C343.039 295.29 342.912 295.429 342.919 295.593Z" fill="black"/>
</g>
<path d="M433.96 252.892C433.96 266.517 422.909 277.568 409.284 277.568C403.778 277.568 398.694 275.762 394.584 272.702L382.496 275.788L387.529 264.532C385.659 261.062 384.609 257.092 384.609 252.892C384.609 239.267 395.66 228.216 409.285 228.216C422.909 228.216 433.96 239.267 433.96 252.892Z" fill="white"/>
<path d="M433.96 252.892C434.131 267.159 421.332 278.943 407.139 277.712C402.563 277.369 398.09 275.712 394.371 272.988L394.672 273.047L382.604 276.213L381.724 276.444L382.094 275.608L387.088 264.335L387.104 264.76C381.419 254.652 384.181 240.992 393.158 233.74C409.391 220.375 433.903 231.877 433.96 252.892ZM433.96 252.892C434.037 237.122 418.604 225.076 403.354 229.247C392.491 231.893 384.527 242.647 385.107 253.795C385.257 257.454 386.236 261.071 387.952 264.304L388.064 264.515L387.968 264.729L382.897 275.967L382.388 275.362L394.496 272.356L394.664 272.314C399.138 275.758 404.883 277.632 410.551 277.296C423.399 276.985 434.046 265.691 433.96 252.892Z" fill="#263238"/>
<path d="M408.573 239.338C404.886 243.025 404.886 249.01 408.573 252.697C412.267 256.391 418.245 256.384 421.932 252.697C425.626 249.003 425.626 243.032 421.932 239.338C418.245 235.651 412.267 235.644 408.573 239.338ZM420.013 243.762C419.326 244.449 418.209 244.449 417.514 243.755C416.827 243.068 416.827 241.951 417.514 241.264C418.208 240.57 419.325 240.57 420.012 241.257C420.707 241.951 420.707 243.068 420.013 243.762Z" fill="#5C60F5"/>
<path d="M407.281 247.862L405.263 249.88L411.393 256.01L413.411 253.992L407.281 247.862Z" fill="#5C60F5"/>
<path d="M406.24 250.853L410.396 255.009L409.375 256.03L407.656 255.5L408.186 257.22L406.499 258.906L404.217 258.435L404.689 260.716L404.307 261.098L402.588 260.568L403.118 262.287L401.399 261.757L401.929 263.476L400.591 264.815L398.309 264.342L398.781 266.624L397.611 267.794L392.983 268.26L393.455 263.638L406.24 250.853Z" fill="#EBEBEB"/>
<path d="M407.476 253.237L395.565 265.148L395.851 265.435L407.763 253.523L407.476 253.237Z" fill="#DBDBDB"/>
<g opacity="0.1">
<path d="M423.464 246.018C423.555 253.303 414.467 257.127 409.294 251.977C406.001 248.866 405.998 243.169 409.296 240.06C414.468 234.91 423.562 238.729 423.464 246.018ZM423.464 246.018C423.503 238.835 414.564 235.211 409.599 240.363C406.54 243.348 406.538 248.688 409.596 251.675C414.56 256.831 423.5 253.195 423.464 246.018Z" fill="black"/>
</g>
</svg>
