<svg width="500" height="500" viewBox="0 0 500 500" fill="none" xmlns="http://www.w3.org/2000/svg">
<path d="M410.906 275.498L424.262 275.219L430.841 275.107C433.029 275.06 435.205 275.07 437.387 275.052L436.941 275.498L436.887 264.308L437.386 264.807L424.146 264.744C419.733 264.739 415.319 264.632 410.906 264.58L411.179 264.307C411.16 266.138 411.093 267.98 411.048 269.843L410.906 275.498ZM410.906 275.498L410.764 269.962C410.719 268.095 410.652 266.207 410.633 264.308L410.63 264.038L410.906 264.035C415.319 263.984 419.733 263.876 424.146 263.871L437.386 263.808L437.888 263.806L437.886 264.308L437.832 275.498L437.83 275.947L437.386 275.944C435.154 275.926 432.917 275.936 430.691 275.889L424.03 275.777L410.906 275.498Z" fill="#EBEBEB"/>
<path d="M425.678 289.607L439.034 289.328L445.613 289.216C447.801 289.169 449.977 289.179 452.159 289.161L451.713 289.607L451.659 278.417L452.158 278.916L438.918 278.853C434.505 278.848 430.091 278.741 425.678 278.689L425.951 278.416C425.932 280.247 425.865 282.089 425.82 283.952L425.678 289.607ZM425.678 289.607L425.536 284.071C425.491 282.204 425.424 280.316 425.405 278.417L425.402 278.147L425.678 278.144C430.091 278.093 434.505 277.985 438.918 277.98L452.158 277.917L452.66 277.915L452.658 278.417L452.604 289.607L452.602 290.056L452.158 290.053C449.926 290.035 447.689 290.045 445.463 289.998L438.802 289.886L425.678 289.607Z" fill="#EBEBEB"/>
<path d="M396.081 289.607H422.562V278.417H396.081V289.607Z" fill="#EBEBEB"/>
<path d="M47.842 366.847L61.198 366.568L67.777 366.456C69.965 366.409 72.141 366.419 74.323 366.401L73.877 366.847L73.823 355.657L74.322 356.156L61.082 356.093C56.669 356.088 52.255 355.981 47.842 355.929L48.115 355.656C48.096 357.487 48.029 359.329 47.984 361.192L47.842 366.847ZM47.842 366.847L47.7 361.311C47.655 359.444 47.588 357.556 47.569 355.657L47.566 355.387L47.842 355.384C52.255 355.333 56.669 355.225 61.082 355.22L74.322 355.157L74.824 355.155L74.822 355.657L74.768 366.847L74.766 367.296L74.322 367.293C72.09 367.275 69.853 367.285 67.627 367.238L60.966 367.126L47.842 366.847Z" fill="#EBEBEB"/>
<path d="M62.6134 380.957H89.0944V369.767H62.6134V380.957Z" fill="#EBEBEB"/>
<path d="M116.451 157.862L129.807 157.583L136.386 157.471C138.574 157.424 140.75 157.434 142.932 157.416L142.486 157.862L142.432 146.672L142.931 147.171L129.691 147.108C125.278 147.103 120.864 146.995 116.451 146.944L116.724 146.671C116.705 148.502 116.638 150.344 116.593 152.207L116.451 157.862ZM116.451 157.862L116.309 152.326C116.264 150.459 116.197 148.571 116.178 146.672L116.175 146.402L116.451 146.399C120.864 146.348 125.278 146.24 129.691 146.235L142.931 146.172L143.433 146.17L143.43 146.672L143.376 157.862L143.374 158.311L142.93 158.307C140.698 158.289 138.461 158.299 136.235 158.252L129.574 158.14L116.451 157.862Z" fill="#EBEBEB"/>
<path d="M62.4862 61.1416H88.9672V49.9516H62.4862V61.1416Z" fill="#EBEBEB"/>
<path d="M47.715 75.2516L61.071 74.9726L67.65 74.8606C69.838 74.8136 72.014 74.8236 74.196 74.8056L73.75 75.2516L73.696 64.0616L74.195 64.5606L60.955 64.4976C56.542 64.4926 52.128 64.3846 47.715 64.3336L47.988 64.0606C47.969 65.8916 47.902 67.7336 47.857 69.5966L47.715 75.2516ZM47.715 75.2516L47.573 69.7156C47.528 67.8486 47.461 65.9606 47.442 64.0616L47.439 63.7916L47.715 63.7886C52.128 63.7376 56.542 63.6296 60.955 63.6246L74.195 63.5616L74.697 63.5596L74.695 64.0616L74.641 75.2516L74.639 75.7006L74.195 75.6966C71.963 75.6786 69.726 75.6886 67.5 75.6416L60.84 75.5306L47.715 75.2516Z" fill="#EBEBEB"/>
<path d="M410.906 61.1412L424.262 60.8622L430.841 60.7502C433.029 60.7032 435.205 60.7132 437.387 60.6952L436.941 61.1412L436.887 49.9512L437.386 50.4502L424.146 50.3872C419.733 50.3822 415.319 50.2752 410.906 50.2232L411.179 49.9502C411.16 51.7812 411.093 53.6232 411.048 55.4862L410.906 61.1412ZM410.906 61.1412L410.764 55.6052C410.719 53.7382 410.652 51.8502 410.633 49.9512L410.63 49.6812L410.906 49.6782C415.319 49.6272 419.733 49.5192 424.146 49.5142L437.386 49.4512L437.888 49.4492L437.886 49.9512L437.832 61.1412L437.83 61.5902L437.386 61.5872C435.154 61.5692 432.917 61.5792 430.691 61.5322L424.03 61.4202L410.906 61.1412Z" fill="#EBEBEB"/>
<path d="M369.051 201.072H395.532V189.882H369.051V201.072Z" fill="#EBEBEB"/>
<path d="M87.227 119.4C88.241 118.771 89.509 118.806 90.531 119.423C90.808 119.59 91.091 119.751 91.378 119.906C91.669 120.062 91.961 120.209 92.255 120.348C93.33 120.856 94.059 121.889 94.096 123.078L94.222 127.141L107.456 126.73L107.331 122.669C107.294 121.477 107.946 120.386 108.993 119.814C109.569 119.5 110.129 119.154 110.671 118.777C111.646 118.1 112.91 118.005 113.957 118.567L117.53 120.483L123.79 108.811L120.217 106.895C119.17 106.334 118.55 105.229 118.574 104.041C118.588 103.382 118.566 102.724 118.509 102.07C118.406 100.882 118.954 99.7353 119.967 99.1063L123.419 96.9633L116.44 85.7113L112.969 87.8613C111.96 88.4863 110.698 88.4503 109.682 87.8373C109.405 87.6693 109.122 87.5093 108.835 87.3553C108.547 87.2013 108.257 87.0543 107.964 86.9163C106.885 86.4073 106.155 85.3693 106.119 84.1773L105.996 80.1113L92.762 80.5223L92.891 84.5743C92.929 85.7653 92.278 86.8573 91.232 87.4293C90.654 87.7453 90.092 88.0933 89.548 88.4723C88.572 89.1513 87.307 89.2463 86.259 88.6843L82.688 86.7693L76.428 98.4413L80 100.356C81.048 100.918 81.669 102.024 81.643 103.213C81.628 103.875 81.649 104.536 81.706 105.192C81.808 106.38 81.258 107.526 80.245 108.153L76.799 110.288L83.778 121.539L87.227 119.4ZM90.544 98.5023C93.375 93.2243 99.957 91.2373 105.235 94.0683C110.514 96.8993 112.491 103.476 109.66 108.754C106.829 114.032 100.261 116.015 94.983 113.184C89.705 110.353 87.713 103.781 90.544 98.5023Z" fill="#EBEBEB"/>
<path d="M434.013 255.537C434.431 254.813 435.226 254.414 436.06 254.457C436.287 254.469 436.514 254.474 436.743 254.474C436.974 254.474 437.204 254.468 437.431 254.457C438.263 254.415 439.055 254.811 439.471 255.533L440.894 258L448.928 253.364L447.506 250.898C447.089 250.174 447.13 249.284 447.587 248.585C447.838 248.2 448.07 247.801 448.28 247.39C448.658 246.649 449.407 246.172 450.239 246.172H453.079V236.893H450.239C449.407 236.893 448.658 236.416 448.28 235.675C448.07 235.263 447.839 234.864 447.587 234.479C447.13 233.78 447.089 232.89 447.506 232.166L448.928 229.7L440.894 225.064L439.463 227.541C439.047 228.261 438.256 228.657 437.425 228.614C437.199 228.603 436.971 228.597 436.742 228.597C436.513 228.597 436.286 228.603 436.059 228.614C435.224 228.657 434.43 228.258 434.013 227.534L432.591 225.064L424.557 229.7L425.978 232.159C426.396 232.882 426.356 233.772 425.9 234.471C425.648 234.858 425.416 235.259 425.206 235.672C424.828 236.414 424.079 236.892 423.246 236.892H420.407V246.171H423.246C424.079 246.171 424.828 246.648 425.206 247.391C425.416 247.805 425.648 248.206 425.9 248.592C426.356 249.292 426.396 250.181 425.978 250.904L424.557 253.363L432.591 257.999L434.013 255.537ZM429.141 241.536C429.141 237.34 432.547 233.934 436.743 233.934C440.939 233.934 444.337 237.34 444.337 241.536C444.337 245.732 440.939 249.13 436.743 249.13C432.547 249.131 429.141 245.732 429.141 241.536Z" fill="#EBEBEB"/>
<path d="M49.383 137.669C50.107 138.087 50.505 138.881 50.462 139.715C50.45 139.942 50.445 140.169 50.445 140.398C50.445 140.629 50.45 140.86 50.462 141.087C50.504 141.919 50.108 142.711 49.386 143.127L46.92 144.549L51.556 152.583L54.022 151.161C54.745 150.744 55.635 150.786 56.335 151.243C56.72 151.494 57.119 151.726 57.53 151.935C58.271 152.313 58.748 153.062 58.748 153.894V156.734H68.027V153.894C68.027 153.062 68.504 152.313 69.245 151.935C69.657 151.725 70.056 151.494 70.441 151.243C71.14 150.786 72.03 150.744 72.753 151.161L75.219 152.583L79.855 144.549L77.379 143.118C76.659 142.702 76.263 141.912 76.306 141.081C76.318 140.855 76.323 140.627 76.323 140.398C76.323 140.169 76.317 139.942 76.306 139.715C76.263 138.88 76.662 138.086 77.386 137.669L79.856 136.247L75.22 128.213L72.761 129.633C72.038 130.051 71.148 130.01 70.449 129.555C70.062 129.303 69.662 129.071 69.248 128.861C68.506 128.484 68.028 127.735 68.028 126.902V124.062H58.749V126.902C58.749 127.735 58.272 128.484 57.529 128.861C57.115 129.071 56.714 129.303 56.328 129.555C55.628 130.011 54.739 130.051 54.016 129.633L51.557 128.213L46.921 136.247L49.383 137.669ZM63.383 132.797C67.579 132.797 70.985 136.202 70.985 140.398C70.985 144.594 67.579 147.993 63.383 147.993C59.187 147.993 55.788 144.594 55.788 140.398C55.789 136.202 59.188 132.797 63.383 132.797Z" fill="#EBEBEB"/>
<path d="M131.956 472.971C172.055 472.971 204.561 468.32 204.561 462.582C204.561 456.845 172.055 452.193 131.956 452.193C91.8574 452.193 59.351 456.845 59.351 462.582C59.351 468.32 91.8574 472.971 131.956 472.971Z" fill="#EBEBEB"/>
<path d="M396.163 351.232C388.762 336.018 375.809 328.205 361.212 332.523C346.615 336.84 344.353 357.194 355.25 362.334C366.146 367.474 377.043 352.465 382.8 349.381C388.556 346.298 396.163 351.232 396.163 351.232Z" fill="#5C60F5"/>
<path d="M403.328 391.729C403.29 389.895 403.219 388.062 403.154 386.229C403.024 382.567 402.901 378.905 402.765 375.244C402.516 368.548 401.795 361.972 399.02 355.798C396.532 350.261 392.499 345.412 387.279 342.267C385.335 341.095 383.256 340.198 381.107 339.604C379.302 337.582 376.479 336.273 373.904 335.647C370.529 334.827 367.059 335.006 363.636 335.39C363.513 335.404 363.517 335.598 363.641 335.583C366.882 335.186 370.206 335.382 373.356 336.275C374.706 336.658 376.025 337.147 377.269 337.797C378.075 338.218 378.81 338.713 379.533 339.232C376.615 338.645 373.595 338.627 370.612 339.318C369.551 339.564 368.523 339.926 367.517 340.34C366.735 340.137 365.861 340.117 365.085 340.133C364.021 340.156 362.956 340.326 361.924 340.584C359.797 341.115 357.81 342.122 355.919 343.207C355.811 343.269 355.912 343.431 356.021 343.371C357.862 342.358 359.833 341.626 361.881 341.162C362.875 340.937 363.876 340.79 364.893 340.721C365.454 340.683 366.013 340.71 366.572 340.734C362.466 342.671 359.012 345.966 357.132 350.139C357.081 350.252 357.251 350.346 357.301 350.232C359.49 345.285 364.159 341.907 369.329 340.59C369.651 340.508 369.98 340.465 370.305 340.401C370.191 340.873 370.21 341.415 370.149 341.873C370.051 342.613 369.927 343.35 369.778 344.082C369.472 345.586 369.079 347.08 368.59 348.535C368.093 350.01 367.51 351.457 366.821 352.854C366.118 354.278 365.38 355.798 364.354 357.02C364.264 357.126 364.433 357.252 364.509 357.133C365.385 355.759 366.406 354.494 367.206 353.066C367.971 351.701 368.639 350.284 369.186 348.819C369.74 347.334 370.183 345.815 370.487 344.259C370.647 343.44 370.775 342.614 370.871 341.784C370.927 341.304 371.04 340.762 370.963 340.274C372.675 340.004 374.419 339.988 376.147 340.168C375.499 343.796 374.803 347.579 372.77 350.731C372.703 350.835 372.88 350.935 372.939 350.824C373.847 349.116 374.775 347.454 375.447 345.633C376.082 343.912 376.573 342.067 376.698 340.226C379.707 340.618 382.651 341.629 385.268 343.101C390.321 345.943 394.154 350.401 396.678 355.583C399.419 361.212 400.519 367.269 400.907 373.474C401.393 381.25 401.494 389.074 402.271 396.828C402.322 397.335 403.125 397.505 403.223 396.933C403.515 395.22 403.364 393.462 403.328 391.729Z" fill="#263238"/>
<path d="M386.222 341.047C385.811 340.442 385.099 339.958 384.54 339.494C383.934 338.992 383.312 338.507 382.661 338.065C381.365 337.186 379.969 336.525 378.456 336.115C378.336 336.082 378.288 336.276 378.409 336.303C379.931 336.632 381.314 337.429 382.56 338.343C383.179 338.797 383.773 339.284 384.351 339.788C384.888 340.256 385.421 340.889 386.049 341.231C386.159 341.29 386.297 341.157 386.222 341.047Z" fill="#263238"/>
<path d="M362.599 346.56C361.41 348.005 360.203 349.465 359.204 351.051C358.201 352.644 357.337 354.292 356.679 356.057C356.659 356.109 356.742 356.139 356.768 356.092C358.563 352.864 360.366 349.539 362.739 346.693C362.818 346.598 362.678 346.464 362.599 346.56Z" fill="#263238"/>
<path d="M378.523 345.055C378.363 346.005 378.088 346.932 377.687 347.808C377.297 348.658 376.794 349.469 376.278 350.247C376.244 350.298 376.322 350.352 376.363 350.309C377.678 348.908 378.413 346.981 378.711 345.102C378.73 344.98 378.543 344.932 378.523 345.055Z" fill="#263238"/>
<path d="M402.295 351.606C402.295 351.606 412.775 338.435 433.004 343.103C452.231 347.54 461.103 382.796 441.675 387.014C422.247 391.232 425.672 358.607 418.592 353.071C413.397 349.009 405.926 349.881 402.295 351.606Z" fill="#5C60F5"/>
<path d="M448.627 362.357C447.3 361.215 445.928 360.118 444.459 359.163C443.085 358.269 441.592 357.431 440.015 356.945C439.221 355.755 438.358 354.609 437.378 353.553C435.572 351.607 433.51 349.977 431.266 348.685C431.467 348.673 431.667 348.651 431.868 348.645C432.943 348.61 434.01 348.603 435.084 348.677C437.256 348.827 439.342 349.331 441.326 350.231C441.44 350.282 441.523 350.105 441.409 350.056C439.416 349.209 437.311 348.548 435.176 348.177C434.14 347.997 433.07 347.896 432.017 347.906C431.45 347.911 430.881 347.95 430.317 348.005C430.212 348.015 430.102 348.021 429.993 348.03C428.143 347.095 426.187 346.379 424.162 345.886C424.35 345.836 424.535 345.777 424.725 345.734C425.713 345.507 426.717 345.36 427.723 345.242C429.752 345.003 431.753 345.052 433.776 345.335C433.899 345.352 433.934 345.16 433.811 345.145C431.793 344.896 429.725 344.819 427.693 344.898C426.027 344.963 424.258 345.15 422.605 345.557C421.394 345.337 420.164 345.189 418.916 345.136C411.863 344.838 404.175 347.475 399.833 353.27C395.477 359.085 394.64 366.814 393.872 373.814C392.804 383.558 392.315 393.438 393.099 403.216C393.145 403.795 393.957 403.689 393.975 403.139C394.24 394.826 394.533 386.511 395.329 378.227C395.697 374.392 396.106 370.541 396.744 366.74C397.289 363.491 398.066 360.248 399.532 357.28C401.061 354.184 403.38 351.69 406.359 349.94C409.295 348.215 412.649 347.259 416.03 346.965C419.1 346.699 422.168 347.017 425.105 347.815C424.976 348.397 425.003 349.006 425.054 349.605C425.117 350.356 425.269 351.097 425.498 351.815C425.714 352.494 426.006 353.15 426.344 353.777C426.718 354.472 427.19 355.091 427.607 355.756C427.673 355.861 427.842 355.742 427.765 355.644C426.893 354.548 426.447 353.014 426.197 351.656C426.072 350.976 425.99 350.285 425.955 349.594C425.928 349.073 425.973 348.548 425.95 348.029C429.139 349.008 432.145 350.586 434.781 352.692C435.274 353.085 435.748 353.503 436.212 353.931C435.521 354.497 434.963 355.351 434.497 356.038C433.807 357.056 433.198 358.117 432.698 359.242C431.71 361.465 431.186 363.882 430.827 366.278C430.809 366.401 431 366.436 431.017 366.313C431.344 363.945 432.214 361.754 433.319 359.645C433.854 358.625 434.45 357.625 435.111 356.682C435.452 356.195 435.805 355.714 436.174 355.248C436.372 354.997 436.589 354.742 436.777 354.473C439.145 356.79 441.105 359.544 442.514 362.552C442.502 362.559 442.488 362.559 442.476 362.569C441.477 363.499 440.768 364.794 440.105 365.976C439.377 367.273 438.749 368.638 438.211 370.024C437.172 372.699 436.489 375.492 435.797 378.273C435.767 378.393 435.963 378.43 435.987 378.308C436.545 375.473 437.619 372.788 438.856 370.185C439.459 368.916 440.098 367.669 440.77 366.437C441.403 365.278 442.176 364.13 442.67 362.901C444.005 365.856 444.818 369.039 444.978 372.271C444.984 372.395 445.181 372.378 445.171 372.254C444.768 367.214 443.271 362.197 440.63 357.875C441.867 358.402 443.109 358.91 444.299 359.552C445.814 360.369 447.239 361.339 448.506 362.507C448.594 362.59 448.722 362.439 448.627 362.357Z" fill="#263238"/>
<path d="M433.792 363.103C433.185 365.1 432.421 367.039 431.874 369.057C431.348 370.996 430.983 372.991 430.98 375.004C430.98 375.059 431.068 375.062 431.076 375.008C431.67 371.011 432.546 366.951 433.974 363.161C434.024 363.032 433.833 362.968 433.792 363.103Z" fill="#263238"/>
<path d="M446.606 358.15C445.801 357.391 444.921 356.733 443.928 356.236C442.941 355.743 441.877 355.457 440.827 355.139C440.71 355.104 440.669 355.302 440.792 355.329C441.847 355.565 442.826 356.054 443.776 356.557C444.725 357.06 445.658 357.61 446.525 358.245C446.591 358.294 446.665 358.205 446.606 358.15Z" fill="#263238"/>
<path d="M412.257 334.014C412.257 334.014 414.19 310.351 431.784 302.681C446.475 296.276 454.885 312.784 444.499 322.889C436.097 331.063 422.625 327.374 412.257 334.014Z" fill="#5C60F5"/>
<path d="M441.245 307.264C438.581 308.401 435.941 309.527 433.421 310.968C431.31 312.175 429.291 313.539 427.346 315C427.638 314.402 427.892 313.776 428.186 313.191C428.646 312.277 429.137 311.383 429.681 310.516C430.799 308.734 432.031 307.066 433.556 305.611C433.646 305.525 433.503 305.388 433.416 305.478C431.963 306.966 430.531 308.52 429.337 310.226C428.734 311.087 428.168 311.98 427.665 312.903C427.207 313.745 426.687 314.679 426.483 315.628C426.42 315.677 426.352 315.72 426.289 315.769C423.202 318.201 420.415 320.986 417.886 323.99C417.935 323.757 417.984 323.525 418.045 323.312C418.374 322.157 418.731 321.013 419.111 319.874C419.91 317.478 420.895 315.086 422.289 312.972C422.357 312.869 422.185 312.772 422.12 312.879C420.788 315.072 419.456 317.246 418.438 319.609C417.95 320.741 417.541 321.917 417.223 323.107C417.034 323.815 416.727 324.672 416.651 325.484C415.884 326.454 415.131 327.435 414.42 328.446C406.868 339.197 403.077 352.202 402.168 365.214C401.897 369.096 401.842 372.983 401.972 376.871C402.102 380.762 402.244 384.743 403.003 388.57C403.051 388.815 403.434 388.741 403.428 388.502C403.34 385.083 402.986 381.679 402.921 378.257C402.855 374.831 402.975 371.399 403.251 367.984C403.802 361.18 405.093 354.377 407.087 347.848C409.126 341.174 412.14 334.746 416.033 328.919C416.774 328.772 417.509 328.571 418.237 328.383C419.116 328.157 419.995 327.932 420.869 327.687C422.549 327.216 424.216 326.684 425.774 325.889C425.884 325.833 425.781 325.661 425.672 325.725C424.137 326.623 422.431 327.095 420.698 327.441C419.322 327.715 417.891 327.894 416.512 328.211C417.788 326.352 419.147 324.553 420.603 322.835C423.945 323.161 427.35 322.866 430.612 322.088C432.349 321.674 434.068 321.134 435.734 320.493C437.497 319.814 439.164 318.942 440.903 318.215C441.033 318.161 440.943 317.968 440.824 318.04C437.84 319.851 434.091 320.781 430.678 321.361C427.53 321.896 424.37 322.091 421.187 322.145C422.437 320.712 423.728 319.314 425.106 318.002C429.727 313.601 435.216 309.557 441.301 307.45C441.42 307.408 441.358 307.216 441.245 307.264Z" fill="#263238"/>
<path d="M426.929 307.337C426.143 308.335 425.407 309.391 424.772 310.492C424.099 311.659 423.609 312.874 423.22 314.162C423.207 314.204 423.272 314.229 423.292 314.19C423.878 313.029 424.374 311.825 424.968 310.67C425.556 309.526 426.248 308.462 427.069 307.471C427.148 307.374 427.005 307.24 426.929 307.337Z" fill="#263238"/>
<path d="M443.287 315.214C442.146 315.875 440.931 316.316 439.68 316.719C438.474 317.108 437.25 317.458 436.006 317.705C435.948 317.716 435.963 317.816 436.023 317.809C437.318 317.656 438.593 317.406 439.826 316.976C441.052 316.548 442.226 315.951 443.388 315.378C443.498 315.325 443.396 315.151 443.287 315.214Z" fill="#263238"/>
<path d="M398.581 329.756C398.47 330.778 395.919 321.165 381.045 312.63C367.536 304.879 351.413 284.72 364.658 271.984C375.348 261.704 403.515 284.113 398.581 329.756Z" fill="#5C60F5"/>
<path d="M408.82 384.872C408.598 374.869 407.817 364.877 406.46 354.963C405.212 345.846 403.249 336.874 400.175 328.192C399.067 325.064 397.804 321.986 396.432 318.956C396.575 317.802 396.424 316.531 396.37 315.417C396.298 313.903 396.16 312.391 396.021 310.881C395.882 309.371 395.729 307.86 395.548 306.354C395.368 304.859 395.049 303.346 394.987 301.842C394.981 301.704 394.765 301.733 394.798 301.872C395.161 303.415 395.209 305.083 395.332 306.661C395.445 308.12 395.529 309.58 395.574 311.043C395.619 312.507 395.611 313.971 395.613 315.435C395.613 315.963 395.585 316.524 395.565 317.088C394.166 314.132 392.666 311.222 391.044 308.388C392.051 302.22 390.744 295.774 389.483 289.744C389.457 289.623 389.273 289.679 389.298 289.8C389.954 292.941 390.206 296.154 390.279 299.359C390.336 301.891 390.218 304.424 390.208 306.956C389.851 306.35 389.496 305.742 389.129 305.142C387.201 301.992 385.14 298.905 382.951 295.91C383.188 294.47 383.018 292.943 382.807 291.518C382.567 289.898 382.2 288.281 381.729 286.713C381.255 285.136 380.709 283.591 380.082 282.069C379.438 280.505 378.579 279.025 377.958 277.456C377.906 277.325 377.712 277.415 377.783 277.535C378.627 278.946 379.143 280.642 379.645 282.201C380.133 283.715 380.549 285.268 380.862 286.828C381.176 288.395 381.434 289.963 381.654 291.546C381.799 292.592 381.891 293.677 382.072 294.735C378.873 290.462 375.41 286.384 371.656 282.614C371.567 282.525 371.442 282.662 371.523 282.754C377.169 289.169 382.28 295.971 386.647 303.327C386.81 303.601 386.964 303.88 387.125 304.155C386.306 303.641 385.365 303.233 384.594 302.805C383.152 302.004 381.707 301.207 380.256 300.424C378.847 299.663 377.442 298.894 376.042 298.118C375.321 297.718 374.61 297.302 373.875 296.926C373.042 296.5 372.104 296.092 371.354 295.529C371.241 295.444 371.12 295.617 371.241 295.684C372.672 296.471 373.938 297.64 375.32 298.523C376.713 299.412 378.123 300.265 379.567 301.07C382.212 302.545 385.084 303.606 387.687 305.132C389.494 308.292 391.156 311.537 392.693 314.839C391.113 313.826 389.5 312.865 387.861 311.947C386.807 311.356 385.75 310.775 384.68 310.212C383.647 309.669 382.576 309.166 381.684 308.402C381.59 308.322 381.461 308.454 381.551 308.542C383.234 310.19 385.245 311.338 387.266 312.519C389.177 313.636 391.108 314.713 393.095 315.688C394.686 319.172 396.126 322.725 397.4 326.333C403.66 344.061 405.961 362.881 407.06 381.572C407.388 387.146 407.557 392.713 407.626 398.295C407.695 403.869 407.401 409.434 407.412 415.004C407.412 415.168 407.684 415.207 407.707 415.037C408.376 410.096 408.493 405.07 408.709 400.093C408.929 395.027 408.932 389.938 408.82 384.872Z" fill="#263238"/>
<path d="M381.795 304.614C379.062 303.492 376.459 301.979 373.89 300.526C371.306 299.064 368.799 297.491 366.385 295.762C366.345 295.733 366.296 295.801 366.334 295.832C368.62 297.664 371.022 299.375 373.541 300.872C376.157 302.426 378.92 303.572 381.701 304.784C381.815 304.833 381.909 304.661 381.795 304.614Z" fill="#263238"/>
<path d="M386.104 284.574C385.883 283.709 385.611 282.859 385.32 282.016C385.352 281.996 385.375 281.963 385.357 281.917C385.17 281.437 384.971 280.963 384.776 280.486C384.753 280.421 384.728 280.36 384.706 280.314C384.669 280.223 384.632 280.132 384.595 280.041C384.583 280.011 384.536 280.024 384.547 280.055C384.6 280.218 384.641 280.385 384.692 280.549C384.718 280.642 384.734 280.727 384.772 280.822C385.785 284.124 386.457 287.509 386.977 290.922C386.993 291.029 387.158 291.033 387.151 290.918C387.022 288.771 386.635 286.656 386.104 284.574Z" fill="#263238"/>
<path d="M424.536 388.467L423.476 401.048L420.226 439.418H385.42L382.171 401.048L381.11 388.467H424.536Z" fill="#37474F"/>
<path d="M424.536 388.467L423.476 401.048H382.171L381.11 388.467H424.536Z" fill="#263238"/>
<path d="M427.952 383.418H377.695V395.488H427.952V383.418Z" fill="#37474F"/>
<path d="M47.443 439.418L98.082 439.175L148.721 439.086L250 438.919L351.279 439.085L401.918 439.173L452.557 439.418L401.918 439.662L351.279 439.75L250 439.917L148.721 439.749L98.082 439.661L47.443 439.418Z" fill="#263238"/>
<path d="M334.515 56.5684H165.465C156.025 56.5684 148.365 64.3584 148.365 73.9884V421.998C148.365 431.608 156.025 439.418 165.465 439.418H334.515C343.965 439.418 351.635 431.608 351.635 421.998V73.9884C351.635 64.3584 343.965 56.5684 334.515 56.5684ZM340.945 411.238C340.945 420.398 334.085 427.808 325.625 427.808H174.385C165.905 427.808 159.045 420.398 159.045 411.238V87.1784C159.045 68.5184 165.905 67.6084 174.385 67.6084H204.675C206.435 67.6084 207.875 69.6084 207.875 72.0884V73.1584C207.875 78.9684 211.055 78.9884 214.965 78.9884H285.025C288.965 78.9884 292.115 78.9684 292.115 73.1584V72.0884C292.115 69.6084 293.535 67.6084 295.325 67.6084H325.625C334.085 67.6084 340.945 70.0884 340.945 87.1784V411.238Z" fill="#263238"/>
<path d="M259.551 71.7311H240.441C239.789 71.7311 239.261 71.2031 239.261 70.5511C239.261 69.8991 239.789 69.3711 240.441 69.3711H259.551C260.203 69.3711 260.731 69.8991 260.731 70.5511C260.732 71.2031 260.203 71.7311 259.551 71.7311Z" fill="white"/>
<path d="M340.947 87.1784V411.238C340.947 420.398 334.087 427.808 325.627 427.808H174.387C165.907 427.808 159.047 420.398 159.047 411.238V87.1784C159.047 68.5184 165.907 67.6084 174.387 67.6084H204.677C206.437 67.6084 207.877 69.6084 207.877 72.0884V73.1584C207.877 78.9684 211.057 78.9884 214.967 78.9884H285.027C288.967 78.9884 292.117 78.9684 292.117 73.1584V72.0884C292.117 69.6084 293.537 67.6084 295.327 67.6084H325.627C334.087 67.6084 340.947 70.0884 340.947 87.1784Z" fill="white"/>
<path d="M177.457 99.5534L172.083 94.5174L177.457 89.4834L178.291 90.3714L173.865 94.5174L178.291 98.6654L177.457 99.5534Z" fill="#C7C7C7"/>
<path d="M326.86 91.3822C326.86 91.9662 326.387 92.4392 325.803 92.4392C325.219 92.4392 324.746 91.9662 324.746 91.3822C324.746 90.7982 325.219 90.3252 325.803 90.3252C326.387 90.3252 326.86 90.7982 326.86 91.3822Z" fill="#C7C7C7"/>
<path d="M326.86 95.142C326.86 95.726 326.387 96.199 325.803 96.199C325.219 96.199 324.746 95.726 324.746 95.142C324.746 94.558 325.219 94.085 325.803 94.085C326.387 94.085 326.86 94.558 326.86 95.142Z" fill="#C7C7C7"/>
<path d="M326.86 98.9017C326.86 99.4857 326.387 99.9587 325.803 99.9587C325.219 99.9587 324.746 99.4857 324.746 98.9017C324.746 98.3177 325.219 97.8447 325.803 97.8447C326.387 97.8447 326.86 98.3177 326.86 98.9017Z" fill="#C7C7C7"/>
<path d="M199.451 74.8864C199.353 74.9834 199.256 75.0804 199.158 75.1774C199.103 75.2324 199.047 75.2884 198.992 75.3444C198.206 74.5814 197.269 74.1744 196.173 74.1744C195.077 74.1744 194.141 74.5804 193.348 75.3484C193.296 75.2944 193.244 75.2384 193.19 75.1834C193.094 75.0864 192.998 74.9894 192.901 74.8924C192.899 74.8904 192.895 74.8894 192.892 74.8874C192.892 74.8854 192.892 74.8824 192.892 74.8804C192.899 74.8744 192.907 74.8694 192.914 74.8634C193.037 74.7534 193.157 74.6404 193.284 74.5354C193.547 74.3184 193.834 74.1394 194.14 73.9894C194.501 73.8124 194.879 73.6804 195.275 73.6084C195.462 73.5734 195.653 73.5564 195.842 73.5334C195.906 73.5254 196.325 73.5244 196.338 73.5244C196.467 73.5344 196.596 73.5394 196.725 73.5534C197.082 73.5924 197.428 73.6784 197.766 73.8024C198.01 73.8914 198.245 74.0024 198.47 74.1314C198.708 74.2684 198.933 74.4234 199.142 74.6014C199.247 74.6914 199.348 74.7864 199.451 74.8794C199.451 74.8814 199.451 74.8844 199.451 74.8864Z" fill="#C7C7C7"/>
<path d="M194.277 76.2636C194.122 76.1106 193.97 75.9596 193.814 75.8046C194.341 75.2876 194.964 74.9586 195.696 74.8596C196.79 74.7116 197.73 75.0436 198.527 75.7976C198.37 75.9536 198.217 76.1056 198.063 76.2596C197.54 75.7516 196.909 75.4766 196.171 75.4776C195.434 75.4796 194.804 75.7536 194.277 76.2636Z" fill="#C7C7C7"/>
<path d="M197.601 76.7256C197.449 76.8786 197.296 77.0306 197.141 77.1856C196.875 76.9266 196.551 76.7836 196.171 76.7836C195.792 76.7846 195.47 76.9266 195.201 77.1876C195.047 77.0336 194.894 76.8806 194.742 76.7286C195.474 75.9616 196.791 75.9006 197.601 76.7256Z" fill="#C7C7C7"/>
<path d="M196.587 77.6035C196.587 77.8335 196.401 78.0195 196.171 78.0195C195.942 78.0195 195.756 77.8335 195.756 77.6035C195.756 77.3745 195.942 77.1885 196.171 77.1885C196.401 77.1875 196.587 77.3735 196.587 77.6035Z" fill="#C7C7C7"/>
<path d="M170.907 75.7714C170.907 75.1054 171.447 74.5664 172.112 74.5664C172.778 74.5664 173.318 75.1064 173.318 75.7714C173.318 76.4374 172.778 76.9764 172.112 76.9764C171.447 76.9764 170.907 76.4374 170.907 75.7714Z" fill="#C7C7C7"/>
<path d="M174.704 75.7714C174.704 75.1054 175.244 74.5664 175.91 74.5664C176.576 74.5664 177.115 75.1064 177.115 75.7714C177.115 76.4374 176.575 76.9764 175.91 76.9764C175.244 76.9764 174.704 76.4374 174.704 75.7714Z" fill="#C7C7C7"/>
<path d="M178.501 75.7714C178.501 75.1054 179.041 74.5664 179.707 74.5664C180.373 74.5664 180.913 75.1064 180.913 75.7714C180.913 76.4374 180.373 76.9764 179.707 76.9764C179.041 76.9764 178.501 76.4374 178.501 75.7714Z" fill="#C7C7C7"/>
<path d="M182.298 75.7714C182.298 75.1054 182.838 74.5664 183.503 74.5664C184.169 74.5664 184.709 75.1064 184.709 75.7714C184.709 76.4374 184.169 76.9764 183.503 76.9764C182.838 76.9764 182.298 76.4374 182.298 75.7714Z" fill="#C7C7C7"/>
<path d="M186.095 75.7714C186.095 75.1054 186.635 74.5664 187.301 74.5664C187.967 74.5664 188.506 75.1064 188.506 75.7714C188.506 76.4374 187.966 76.9764 187.301 76.9764C186.635 76.9764 186.095 76.4374 186.095 75.7714Z" fill="#C7C7C7"/>
<path d="M327.306 78.4096H317.479V73.8496H327.306V78.4096ZM317.993 77.8956H326.792V74.3636H317.993V77.8956Z" fill="#C7C7C7"/>
<path d="M324.627 74.6289H318.301V77.6309H324.627V74.6289Z" fill="#C7C7C7"/>
<path d="M328.179 74.9141H327.306V77.3461H328.179V74.9141Z" fill="#C7C7C7"/>
<path d="M186.686 407.997H185.303V414.348H182.719V411.112H178.143V414.348H175.559V407.997H174.176L180.431 401.533L186.686 407.997Z" fill="#EBEBEB"/>
<path d="M325.83 401.533H310.753V403.688H325.83V401.533Z" fill="#EBEBEB"/>
<path d="M325.83 406.863H310.753V409.018H325.83V406.863Z" fill="#EBEBEB"/>
<path d="M325.83 412.194H310.753V414.349H325.83V412.194Z" fill="#EBEBEB"/>
<path d="M254.287 407.085L250 411.661L245.713 407.085L246.469 406.375L250 410.143L253.531 406.375L254.287 407.085Z" fill="#EBEBEB"/>
<path d="M250 416.387C245.706 416.387 242.213 412.893 242.213 408.6C242.213 404.306 245.706 400.813 250 400.813C254.294 400.813 257.787 404.306 257.787 408.6C257.787 412.893 254.294 416.387 250 416.387ZM250 401.84C246.273 401.84 243.241 404.872 243.241 408.599C243.241 412.326 246.273 415.358 250 415.358C253.727 415.358 256.759 412.326 256.759 408.599C256.759 404.872 253.727 401.84 250 401.84Z" fill="#EBEBEB"/>
<path d="M238.373 380.609C238.373 382.047 237.208 383.212 235.77 383.212C234.332 383.212 233.167 382.046 233.167 380.609C233.167 379.171 234.333 378.006 235.77 378.006C237.208 378.005 238.373 379.171 238.373 380.609Z" fill="#DBDBDB"/>
<path d="M254.218 380.609C254.218 382.784 252.455 384.547 250.28 384.547C248.105 384.547 246.342 382.784 246.342 380.609C246.342 378.434 248.105 376.671 250.28 376.671C252.455 376.671 254.218 378.434 254.218 380.609Z" fill="#5C60F5"/>
<path d="M267.394 380.609C267.394 382.047 266.229 383.212 264.791 383.212C263.353 383.212 262.188 382.046 262.188 380.609C262.188 379.171 263.353 378.006 264.791 378.006C266.228 378.005 267.394 379.171 267.394 380.609Z" fill="#DBDBDB"/>
<path d="M284.532 308.172H214.349V330.489H284.532V308.172Z" fill="#5C60F5"/>
<path d="M233.947 322.455V316.409C233.947 316.101 234.193 315.846 234.511 315.846C234.828 315.846 235.085 316.101 235.085 316.409V321.88H237.861C238.158 321.88 238.425 322.137 238.425 322.454C238.425 322.761 238.159 323.017 237.861 323.017H234.542C234.521 323.017 234.521 323.017 234.521 323.017C234.511 323.017 234.511 323.017 234.511 323.017C234.193 323.019 233.947 322.762 233.947 322.455Z" fill="white"/>
<path d="M244.964 316.738C245.599 317.414 245.999 318.316 245.999 319.33C245.999 320.345 245.599 321.257 244.964 321.923C244.36 322.589 243.458 323.019 242.515 323.019C241.532 323.019 240.63 322.589 240.005 321.923C239.369 321.257 238.99 320.345 238.99 319.33C238.99 318.316 239.369 317.414 240.005 316.738C240.629 316.062 241.531 315.642 242.515 315.642C243.458 315.642 244.36 316.062 244.964 316.738ZM244.831 319.33C244.831 318.634 244.554 317.988 244.135 317.538C243.705 317.076 243.131 316.81 242.516 316.81C241.86 316.81 241.287 317.077 240.857 317.538C240.427 317.988 240.16 318.634 240.16 319.33C240.16 320.027 240.427 320.673 240.857 321.113C241.287 321.575 241.861 321.851 242.516 321.851C243.131 321.851 243.705 321.574 244.135 321.113C244.554 320.672 244.831 320.026 244.831 319.33Z" fill="white"/>
<path d="M247.704 319.341C247.704 317.281 249.405 315.642 251.485 315.642C252.356 315.642 253.186 315.939 253.821 316.442C254.088 316.636 254.129 317.015 253.934 317.272C253.739 317.517 253.36 317.569 253.104 317.363C252.663 317.025 252.099 316.81 251.485 316.81C250.747 316.81 250.102 317.087 249.64 317.558C249.159 318.019 248.872 318.644 248.872 319.341C248.872 320.017 249.159 320.641 249.64 321.103C250.101 321.575 250.747 321.852 251.485 321.852C251.998 321.852 252.479 321.698 252.889 321.463V320.059H251.424C251.106 320.059 250.839 319.792 250.839 319.475C250.839 319.147 251.106 318.902 251.424 318.902H253.442C253.452 318.902 253.452 318.902 253.452 318.902C253.462 318.902 253.462 318.902 253.462 318.902C253.79 318.902 254.056 319.147 254.056 319.475V321.74C254.056 321.811 254.036 321.853 254.026 321.914C254.015 321.934 254.015 321.944 254.005 321.965V321.975C253.975 322.068 253.914 322.149 253.811 322.22C253.165 322.723 252.356 323.02 251.485 323.02C249.405 323.019 247.704 321.389 247.704 319.341Z" fill="white"/>
<path d="M256.44 316.41C256.44 316.092 256.685 315.847 257.003 315.847C257.311 315.847 257.577 316.092 257.577 316.41V322.456C257.577 322.774 257.311 323.019 257.003 323.019C256.685 323.019 256.44 322.774 256.44 322.456V316.41Z" fill="white"/>
<path d="M260.621 322.454C260.621 322.761 260.364 323.017 260.068 323.017C259.75 323.017 259.505 322.76 259.505 322.454V316.501C259.505 316.501 259.505 316.501 259.505 316.491C259.495 316.316 259.576 316.132 259.73 316.019C259.985 315.845 260.334 315.897 260.508 316.142L263.818 320.722V316.501C263.818 316.203 264.063 315.948 264.371 315.948C264.677 315.948 264.934 316.203 264.934 316.501V322.454C264.934 322.761 264.677 323.017 264.371 323.017C264.207 323.017 264.053 322.935 263.95 322.812C263.93 322.792 263.909 322.772 263.899 322.751L260.62 318.202V322.454H260.621Z" fill="white"/>
<path d="M266.957 135.394V142.703H261.785V135.394C261.785 128.435 256.499 122.776 249.997 122.776C243.495 122.776 238.209 128.435 238.209 135.394V153.695H233.037V135.394C233.037 125.427 240.645 117.322 249.997 117.322C259.349 117.322 266.957 125.427 266.957 135.394Z" fill="#C7C7C7"/>
<path d="M233.038 142.722L238.209 142.93V153.695H233.038V142.722Z" fill="#A6A6A6"/>
<path d="M273.586 147.56H226.41V190.359H273.586V147.56Z" fill="#5C60F5"/>
<path opacity="0.1" d="M273.585 147.56H249.997V190.359H273.585V147.56Z" fill="black"/>
<path d="M251.993 170.526L253.968 179.894H245.587L247.562 170.526C246.382 169.779 245.587 168.479 245.587 166.986C245.587 164.65 247.465 162.795 249.777 162.795C252.089 162.795 253.967 164.65 253.967 166.986C253.968 168.479 253.173 169.779 251.993 170.526Z" fill="#263238"/>
<path d="M310.752 237.594H189.247V258.393H310.752V237.594Z" fill="white"/>
<path d="M311.253 258.894H188.748V237.095H311.253V258.894ZM189.748 257.894H310.253V238.095H189.748V257.894Z" fill="#EBEBEB"/>
<path d="M201.86 243.332H200.86V252.219H201.86V243.332Z" fill="#37474F"/>
<path d="M205.803 247.275H196.916V248.275H205.803V247.275Z" fill="#37474F"/>
<path d="M204.169 244.283L197.882 250.565L198.589 251.273L204.876 244.99L204.169 244.283Z" fill="#37474F"/>
<path d="M198.569 244.277L197.862 244.984L204.146 251.269L204.853 250.562L198.569 244.277Z" fill="#37474F"/>
<path d="M216.942 243.332H215.942V252.219H216.942V243.332Z" fill="#37474F"/>
<path d="M220.885 247.275H211.998V248.275H220.885V247.275Z" fill="#37474F"/>
<path d="M219.252 244.283L212.965 250.565L213.672 251.273L219.959 244.991L219.252 244.283Z" fill="#37474F"/>
<path d="M213.651 244.267L212.944 244.974L219.228 251.258L219.935 250.551L213.651 244.267Z" fill="#37474F"/>
<path d="M232.024 243.332H231.024V252.219H232.024V243.332Z" fill="#37474F"/>
<path d="M235.967 247.275H227.08V248.275H235.967V247.275Z" fill="#37474F"/>
<path d="M234.309 244.28L228.024 250.562L228.731 251.27L235.016 244.988L234.309 244.28Z" fill="#37474F"/>
<path d="M228.733 244.267L228.026 244.974L234.31 251.258L235.017 250.551L228.733 244.267Z" fill="#37474F"/>
<path d="M247.106 243.332H246.106V252.219H247.106V243.332Z" fill="#37474F"/>
<path d="M251.05 247.275H242.162V248.275H251.05V247.275Z" fill="#37474F"/>
<path d="M249.417 244.28L243.13 250.562L243.837 251.27L250.124 244.987L249.417 244.28Z" fill="#37474F"/>
<path d="M243.814 244.277L243.107 244.984L249.392 251.269L250.099 250.562L243.814 244.277Z" fill="#37474F"/>
<path d="M262.188 243.332H261.188V252.219H262.188V243.332Z" fill="#37474F"/>
<path d="M266.131 247.275H257.244V248.275H266.131V247.275Z" fill="#37474F"/>
<path d="M264.5 244.281L258.213 250.563L258.92 251.271L265.207 244.989L264.5 244.281Z" fill="#37474F"/>
<path d="M258.896 244.266L258.189 244.973L264.473 251.257L265.18 250.55L258.896 244.266Z" fill="#37474F"/>
<path d="M277.27 243.332H276.27V252.219H277.27V243.332Z" fill="#37474F"/>
<path d="M281.213 247.275H272.326V248.275H281.213V247.275Z" fill="#37474F"/>
<path d="M279.554 244.281L273.268 250.563L273.975 251.271L280.261 244.989L279.554 244.281Z" fill="#37474F"/>
<path d="M273.976 244.266L273.269 244.973L279.553 251.257L280.26 250.55L273.976 244.266Z" fill="#37474F"/>
<path d="M300.377 251.206C297.028 251.206 294.934 248.36 294.846 248.239L294.634 247.946L294.846 247.653C294.934 247.532 297.029 244.686 300.377 244.686C303.727 244.686 305.812 247.533 305.9 247.654L306.11 247.946L305.9 248.238C305.813 248.359 303.727 251.206 300.377 251.206ZM295.898 247.946C296.491 248.617 298.133 250.207 300.377 250.207C302.621 250.207 304.258 248.617 304.848 247.946C304.258 247.276 302.621 245.686 300.377 245.686C298.134 245.686 296.491 247.275 295.898 247.946Z" fill="#EBEBEB"/>
<path d="M300.373 250.197C301.617 250.197 302.625 249.189 302.625 247.945C302.625 246.702 301.617 245.693 300.373 245.693C299.129 245.693 298.121 246.702 298.121 247.945C298.121 249.189 299.129 250.197 300.373 250.197Z" fill="#EBEBEB"/>
<path d="M304.11 243.423L296.119 251.415L296.826 252.122L304.817 244.13L304.11 243.423Z" fill="#EBEBEB"/>
<path d="M217.327 215.926H215.732V218.74C215.732 219.129 215.408 219.453 215.006 219.453C214.618 219.453 214.293 219.129 214.293 218.74V211.09C214.293 210.688 214.618 210.377 215.006 210.377H215.019H217.327C218.871 210.377 220.115 211.622 220.115 213.165C220.115 214.681 218.871 215.926 217.327 215.926ZM215.732 214.487H217.327C218.079 214.487 218.663 213.891 218.675 213.164C218.662 212.412 218.078 211.816 217.327 211.816H215.732V214.487Z" fill="#5C60F5"/>
<path d="M225.578 217.313H222.427L221.793 218.999C221.676 219.285 221.403 219.453 221.118 219.453C221.027 219.453 220.949 219.44 220.872 219.414C220.495 219.271 220.313 218.857 220.443 218.481L223.308 210.844C223.425 210.558 223.71 210.377 223.995 210.39C224.294 210.377 224.566 210.558 224.682 210.844L227.547 218.481C227.677 218.857 227.495 219.272 227.119 219.414C227.055 219.44 226.964 219.453 226.873 219.453C226.588 219.453 226.316 219.285 226.211 218.999L225.578 217.313ZM225.046 215.887L223.995 213.099L222.946 215.887H225.046Z" fill="#5C60F5"/>
<path d="M228.824 217.196C229.057 216.911 229.485 216.872 229.771 217.105C230.341 217.572 231.326 218.116 232.247 218.103C232.895 218.103 233.479 217.909 233.868 217.624C234.257 217.338 234.427 217.014 234.427 216.69C234.427 216.522 234.388 216.405 234.31 216.275C234.232 216.146 234.116 216.016 233.921 215.886C233.544 215.64 232.91 215.419 232.144 215.277H232.118C231.509 215.16 230.939 215.005 230.446 214.771C229.954 214.538 229.525 214.214 229.24 213.76C229.046 213.449 228.942 213.086 228.942 212.697C228.942 211.919 229.382 211.245 229.979 210.804C230.588 210.363 231.379 210.117 232.222 210.117C233.467 210.117 234.387 210.726 235.048 211.154C235.347 211.361 235.437 211.776 235.23 212.075C235.036 212.386 234.621 212.477 234.309 212.269C233.648 211.828 233.012 211.439 232.222 211.439C231.638 211.439 231.12 211.621 230.769 211.88C230.42 212.14 230.277 212.425 230.277 212.697C230.277 212.853 230.302 212.956 230.368 213.06C230.432 213.164 230.548 213.28 230.717 213.397C231.054 213.63 231.638 213.838 232.338 213.968H232.364C233.025 214.098 233.634 214.266 234.154 214.513C234.685 214.772 235.152 215.11 235.45 215.589C235.644 215.9 235.762 216.29 235.762 216.691C235.762 217.521 235.294 218.234 234.646 218.701C234.011 219.168 233.168 219.44 232.247 219.44C230.847 219.427 229.667 218.727 228.928 218.143C228.642 217.91 228.603 217.482 228.824 217.196Z" fill="#5C60F5"/>
<path d="M237.347 217.196C237.58 216.911 238.008 216.872 238.294 217.105C238.864 217.572 239.849 218.116 240.77 218.103C241.418 218.103 242.002 217.909 242.391 217.624C242.781 217.338 242.949 217.014 242.949 216.69C242.949 216.522 242.91 216.405 242.832 216.275C242.754 216.146 242.638 216.016 242.443 215.886C242.066 215.64 241.432 215.419 240.666 215.277H240.641C240.031 215.16 239.461 215.005 238.968 214.771C238.476 214.538 238.047 214.214 237.762 213.76C237.568 213.449 237.464 213.086 237.464 212.697C237.464 211.919 237.904 211.245 238.501 210.804C239.11 210.363 239.901 210.117 240.744 210.117C241.989 210.117 242.909 210.726 243.57 211.154C243.869 211.361 243.96 211.776 243.752 212.075C243.558 212.386 243.143 212.477 242.831 212.269C242.17 211.828 241.535 211.439 240.744 211.439C240.16 211.439 239.642 211.621 239.291 211.88C238.941 212.14 238.799 212.425 238.799 212.697C238.799 212.853 238.824 212.956 238.89 213.06C238.954 213.164 239.07 213.28 239.239 213.397C239.576 213.63 240.16 213.838 240.86 213.968H240.886C241.547 214.098 242.156 214.266 242.676 214.513C243.207 214.772 243.674 215.11 243.972 215.589C244.166 215.9 244.283 216.29 244.283 216.691C244.283 217.521 243.815 218.234 243.167 218.701C242.533 219.168 241.689 219.44 240.768 219.44C239.368 219.427 238.188 218.727 237.449 218.143C237.165 217.91 237.126 217.482 237.347 217.196Z" fill="#5C60F5"/>
<path d="M257.916 211.452L254.739 219.011C254.725 219.05 254.7 219.102 254.674 219.128L254.661 219.141C254.648 219.167 254.622 219.193 254.597 219.219C254.597 219.245 254.583 219.245 254.583 219.258C254.558 219.271 254.519 219.297 254.492 219.322H254.479C254.44 219.348 254.415 219.387 254.363 219.4H254.349C254.349 219.4 254.336 219.4 254.336 219.413C254.31 219.413 254.272 219.426 254.232 219.439C254.218 219.439 254.206 219.439 254.206 219.439C254.167 219.452 254.128 219.452 254.076 219.452C254.037 219.452 253.999 219.452 253.96 219.439C253.934 219.439 253.921 219.439 253.921 219.439C253.882 219.426 253.857 219.413 253.83 219.413C253.817 219.4 253.817 219.4 253.804 219.4C253.752 219.387 253.713 219.348 253.688 219.322C253.675 219.322 253.675 219.322 253.675 219.322C253.636 219.296 253.609 219.27 253.584 219.258C253.57 219.245 253.57 219.245 253.558 219.219C253.545 219.193 253.519 219.167 253.506 219.141C253.48 219.141 253.48 219.128 253.48 219.128C253.455 219.102 253.442 219.05 253.428 219.011L251.729 214.992L250.031 219.011C250.017 219.05 249.992 219.102 249.978 219.128C249.965 219.128 249.965 219.141 249.965 219.141C249.94 219.167 249.913 219.193 249.887 219.219C249.887 219.245 249.874 219.245 249.874 219.258C249.849 219.271 249.822 219.297 249.796 219.322C249.771 219.322 249.771 219.322 249.771 219.322C249.732 219.348 249.693 219.387 249.668 219.4C249.654 219.4 249.654 219.4 249.654 219.4C249.654 219.4 249.641 219.4 249.641 219.413C249.589 219.413 249.563 219.426 249.537 219.439C249.524 219.439 249.511 219.439 249.498 219.439C249.459 219.452 249.42 219.452 249.382 219.452C249.343 219.452 249.291 219.452 249.252 219.439C249.238 219.439 249.226 219.439 249.213 219.439C249.174 219.426 249.148 219.413 249.122 219.413C249.109 219.4 249.109 219.4 249.096 219.4C249.057 219.387 249.005 219.348 248.98 219.322C248.966 219.322 248.966 219.322 248.966 219.322C248.928 219.296 248.914 219.27 248.876 219.258C248.862 219.245 248.862 219.245 248.85 219.219C248.824 219.193 248.811 219.167 248.786 219.141V219.128C248.76 219.102 248.747 219.05 248.72 219.011L245.531 211.452C245.388 211.102 245.544 210.674 245.92 210.531C246.27 210.375 246.698 210.544 246.841 210.907L249.383 216.911L251.055 212.93C251.171 212.645 251.444 212.489 251.729 212.489C252.001 212.489 252.274 212.645 252.404 212.93L254.076 216.911L256.605 210.907C256.761 210.544 257.176 210.376 257.552 210.531C257.902 210.674 258.071 211.102 257.916 211.452Z" fill="#5C60F5"/>
<path d="M266.961 211.504C267.764 212.36 268.27 213.501 268.27 214.784C268.27 216.068 267.764 217.222 266.961 218.065C266.196 218.907 265.054 219.452 263.861 219.452C262.616 219.452 261.476 218.907 260.684 218.065C259.881 217.222 259.401 216.068 259.401 214.784C259.401 213.501 259.88 212.359 260.684 211.504C261.476 210.648 262.616 210.117 263.861 210.117C265.054 210.117 266.195 210.649 266.961 211.504ZM266.792 214.785C266.792 213.903 266.441 213.087 265.91 212.516C265.365 211.933 264.639 211.595 263.861 211.595C263.031 211.595 262.306 211.932 261.761 212.516C261.216 213.087 260.879 213.903 260.879 214.785C260.879 215.667 261.216 216.484 261.761 217.041C262.306 217.625 263.031 217.975 263.861 217.975C264.639 217.975 265.365 217.625 265.91 217.041C266.441 216.483 266.792 215.667 266.792 214.785Z" fill="#5C60F5"/>
<path d="M276.833 218.376C276.963 218.752 276.756 219.154 276.38 219.284C276.327 219.297 276.224 219.322 276.094 219.322C276.094 219.322 276.094 219.322 276.081 219.322C275.951 219.322 275.757 219.296 275.575 219.18C275.407 219.076 275.264 218.908 275.16 218.726C274.978 218.35 274.888 217.883 274.888 217.17C274.875 216.923 274.824 216.755 274.733 216.613C274.655 216.47 274.5 216.341 274.344 216.237C274.073 216.055 273.735 215.952 273.619 215.926H272.089V218.74C272.089 219.129 271.765 219.453 271.363 219.453C270.961 219.453 270.649 219.129 270.649 218.74V211.09C270.649 210.688 270.96 210.377 271.363 210.377C271.363 210.377 271.363 210.377 271.376 210.377H273.684C275.228 210.377 276.459 211.622 276.459 213.165C276.459 214.021 276.071 214.773 275.448 215.291C275.617 215.421 275.772 215.577 275.902 215.771C276.162 216.147 276.33 216.627 276.33 217.171C276.317 217.56 276.356 217.807 276.383 217.936C276.587 218 276.756 218.156 276.833 218.376ZM275.018 213.164C275.018 212.412 274.422 211.816 273.682 211.816H272.088V214.487H273.682C274.422 214.487 275.018 213.89 275.018 213.164Z" fill="#5C60F5"/>
<path d="M278.939 218.739V211.089C278.939 210.687 279.25 210.376 279.653 210.376H281.183C283.685 210.376 285.708 212.412 285.708 214.901C285.708 217.416 283.685 219.452 281.183 219.452H279.653C279.25 219.453 278.939 219.128 278.939 218.739ZM280.378 218.014H281.182C282.893 218.001 284.268 216.626 284.268 214.902C284.268 213.203 282.893 211.816 281.182 211.816H280.378V218.014Z" fill="#5C60F5"/>
<path d="M434.056 100.277C434.056 100.277 426.43 161.336 413.895 175.076C398.848 191.558 387.928 189.149 381.853 197.646C381.84 197.646 381.84 197.659 381.84 197.659C375.765 189.149 364.845 191.571 349.785 175.076C337.25 161.336 329.637 100.277 329.637 100.277C362.666 84.2434 381.84 66.2744 381.84 66.2744C381.84 66.2744 381.84 66.2744 381.853 66.2874C382.442 66.8384 401.539 84.5004 434.056 100.277Z" fill="#37474F"/>
<path d="M381.853 66.2874V197.646C381.84 197.646 381.84 197.659 381.84 197.659C375.765 189.149 364.845 191.571 349.785 175.076C337.25 161.336 329.637 100.277 329.637 100.277C362.666 84.2434 381.84 66.2744 381.84 66.2744C381.84 66.2744 381.84 66.2744 381.853 66.2874Z" fill="#455A64"/>
<path d="M425.954 105.197C425.954 105.197 419.513 156.777 408.925 168.388C396.203 182.332 386.973 180.283 381.84 187.465C376.707 180.283 367.477 182.332 354.754 168.388C344.167 156.776 337.738 105.197 337.738 105.197C365.638 91.6477 381.84 76.4697 381.84 76.4697C381.84 76.4697 398.055 91.6477 425.954 105.197Z" fill="#455A64"/>
<path d="M337.752 105.199C337.752 105.199 344.193 156.773 354.783 168.39C367.493 182.322 376.714 180.287 381.853 187.449V76.4844C381.358 76.9494 365.22 91.8594 337.752 105.199Z" fill="#37474F"/>
<path d="M396.305 146.432C404.293 138.445 404.293 125.495 396.305 117.507C388.318 109.52 375.368 109.52 367.381 117.507C359.393 125.495 359.393 138.445 367.381 146.432C375.368 154.419 388.318 154.419 396.305 146.432Z" fill="#5C60F5"/>
<path d="M379.516 145.255L370.406 135.782L373.786 132.533L378.808 137.755L389.633 121.148L393.561 123.709L379.516 145.255Z" fill="white"/>
<path d="M80.3628 247.085H150.526V232.551H80.3628V247.085Z" fill="#C7C7C7"/>
<path d="M131.697 246.965L133.664 265.534L157.916 439.367H164.855L145.712 265.534L144.155 246.965H131.697Z" fill="#C7C7C7"/>
<path d="M66.026 439.367H72.975L97.227 265.534L99.194 246.965H86.735L85.179 265.534L66.026 439.367Z" fill="#C7C7C7"/>
<path d="M77.7389 382.58H155.131V378.218H77.7389V382.58Z" fill="#C7C7C7"/>
<path d="M145.712 264.876H133.664L131.697 246.965H144.155L145.712 264.876Z" fill="#A6A6A6"/>
<path d="M85.179 264.876H97.227L99.194 246.965H86.735L85.179 264.876Z" fill="#A6A6A6"/>
<path d="M89.731 162.718C92.681 164.256 93.247 169.565 102.59 169.279C103.923 169.238 105.007 168.709 106.232 169.157C108.016 169.814 109.432 171.24 111.021 172.281C112.332 173.144 113.752 173.711 115.275 173.922C118.166 174.329 121.145 173.53 123.638 171.993C125.168 171.052 126.454 169.747 127.933 168.731C129.331 167.77 138.344 165.555 139.849 160.529C140.803 157.343 140.656 153.709 136.869 149.047C136.112 148.115 135.269 147.226 135.158 145.95C135.06 144.867 135.495 143.931 135.85 142.954C136.252 141.856 136.686 140.717 136.396 139.515C136.105 138.303 135.157 137.488 134.412 136.589C133.012 134.904 133.272 132.459 134.424 129.455C135.407 126.892 134.932 124.004 133.522 121.723C132.663 120.336 131.458 119.32 130.298 118.218C128.593 116.601 128.278 115.096 127.528 112.812C126.081 108.407 123.814 106.435 121.137 105.083C118.729 103.867 118.811 104.33 116.226 104.723C113.65 103.116 110.474 102.456 107.498 102.834C104.679 103.194 102.351 105.088 100.221 106.898C98.318 108.517 96.582 110.258 96.478 112.985C96.416 114.558 96.802 116.121 96.727 117.69C96.633 119.687 95.52 120.955 94.187 122.219C92.336 123.979 90.738 126.087 90.3 128.747C89.955 130.88 92.049 134.184 89.596 137.335C87.43 140.116 83.622 143.317 82.618 146.82C79.503 157.687 86.904 161.244 89.731 162.718Z" fill="#263238"/>
<path d="M125.899 168.581C130.187 167.931 136.784 168.736 139.061 163.961C140.762 162.499 141.882 160.468 141.745 157.826C141.614 155.293 140.138 153.095 138.503 151.32C137.558 150.294 136.436 149.273 135.781 147.994C135.534 147.039 135.358 146.066 135.247 145.086C135.365 143.836 135.835 142.607 136.272 141.448C136.283 141.419 136.236 141.4 136.223 141.427C135.293 143.398 134.419 145.594 135.289 147.79C135.415 148.107 135.569 148.407 135.741 148.696C136.047 149.843 136.467 150.959 137.016 152.05C138.429 154.853 139.718 157.381 139.53 160.653C139.457 161.923 139.184 162.955 138.759 163.803C136.965 165.503 134.564 166.335 132.128 166.675C132.065 166.684 132.065 166.787 132.13 166.78C134.244 166.547 136.519 165.808 138.327 164.53C135.835 168.096 130.045 167.613 125.856 168.436C125.767 168.456 125.811 168.595 125.899 168.581ZM139.387 163.153C139.398 163.121 139.411 163.091 139.421 163.058C140.232 160.519 139.886 157.536 138.883 155.098C138.196 153.427 137.18 151.933 136.512 150.25C136.397 149.961 136.293 149.669 136.193 149.374C137.151 150.68 138.448 151.774 139.385 153.048C141.428 155.826 142.027 159.14 140.122 162.154C139.897 162.512 139.651 162.844 139.387 163.153Z" fill="#263238"/>
<path d="M80.489 157.517C80.546 157.606 80.678 157.525 80.624 157.432C78.81 154.288 79.325 151.056 80.778 148.166C80.082 152.482 80.929 157.315 84.869 159.629C84.935 159.668 84.991 159.563 84.926 159.524C80.847 157.082 80.233 151.506 81.336 147.147C82.235 145.628 83.359 144.223 84.492 143.004C86.367 140.985 88.696 138.996 90.08 136.514C89.837 137.869 89.108 139.068 87.765 140.145C87.697 140.2 87.763 140.322 87.836 140.268C89.082 139.358 90.1 138.129 90.437 136.537C90.505 136.215 90.536 135.895 90.54 135.577C90.882 134.785 91.128 133.946 91.225 133.037C91.228 133.006 91.177 133 91.173 133.03C91.065 133.831 90.843 134.584 90.535 135.299C90.484 133.946 89.967 132.627 89.616 131.324C88.611 127.583 90.496 125.377 92.813 123.368C93 123.25 93.191 123.133 93.385 123.014C94.619 122.262 95.794 121.416 96.472 120.162C96.633 119.995 96.79 119.826 96.94 119.652C96.947 119.644 96.936 119.633 96.929 119.64C96.808 119.766 96.681 119.887 96.553 120.008C96.717 119.677 96.848 119.318 96.936 118.926C96.939 118.911 96.917 118.901 96.912 118.916C96.653 119.582 96.29 120.14 95.86 120.627C94.939 121.396 93.915 122.103 92.94 122.855C91.122 123.964 89.277 125.029 88.572 127.254C87.903 129.367 88.418 131.651 88.588 133.807C88.85 137.142 87.642 139.929 84.625 141.254C84.573 141.277 84.566 141.329 84.622 141.309C84.845 141.23 85.089 141.172 85.299 141.069C83.52 142.523 81.993 144.096 81.199 146.456C79.123 149.763 78.228 153.987 80.489 157.517ZM88.261 138.763C87.919 139.033 87.578 139.296 87.239 139.555C87.712 139 88.096 138.357 88.354 137.633C89.194 135.274 88.497 132.702 88.44 130.271C88.379 127.704 89.282 126.145 90.724 124.878C90.055 125.652 89.511 126.525 89.198 127.574C88.664 129.366 89.222 131.035 89.738 132.763C90.102 133.983 90.248 135.098 90.135 136.126C89.629 137.06 88.983 137.931 88.261 138.763ZM81.989 145.319C82.956 143.322 84.582 141.861 86.274 140.465C86.396 140.373 86.513 140.275 86.627 140.175C87.107 139.782 87.59 139.39 88.06 138.991C86.102 141.192 83.66 143.141 81.989 145.319Z" fill="#263238"/>
<path d="M86.577 160.273C86.599 160.273 86.599 160.308 86.578 160.308C86.556 160.308 86.555 160.273 86.577 160.273Z" fill="#263238"/>
<path d="M129.703 117.574C131.278 118.959 132.85 120.44 134.274 121.995C135.258 123.07 135.889 124.278 135.968 125.787C136.048 127.318 135.5 128.558 134.68 129.776C134.355 130.258 134.033 130.753 133.741 131.256C133.692 132.164 133.785 133.072 134.17 133.985C134.865 135.634 136.424 136.647 137.145 138.319C138.309 141.019 137.016 143.238 135.878 145.651C135.87 145.667 135.848 145.653 135.855 145.637C136.676 143.658 137.827 141.706 137.192 139.475C136.669 137.637 135.33 136.654 134.323 135.163C133.687 134.22 133.399 133.125 133.344 131.996C132.446 133.81 132.126 135.727 133.717 137.642C133.788 137.727 133.679 137.849 133.6 137.768C131.589 135.73 132.119 133.263 133.347 131.107C133.415 129.823 133.743 128.536 134.182 127.416C134.232 127.289 134.409 127.382 134.386 127.504C134.208 128.445 133.973 129.38 133.838 130.313C133.908 130.208 133.979 130.103 134.052 129.999C135.654 127.712 136.278 125.046 134.438 122.599C133.062 120.768 131.177 119.331 129.642 117.642C129.6 117.596 129.659 117.535 129.703 117.574Z" fill="#263238"/>
<path d="M141.729 306.389C141.729 306.389 123.816 346.17 123.802 346.197C120.336 353.787 117.433 360.502 116.256 364.117C116.247 364.135 116.238 364.153 116.238 364.176C115.792 365.539 115.597 366.45 115.727 366.776C115.736 366.803 115.736 366.826 115.75 366.844C117.31 369.406 177.155 398.871 179.587 399.195C182.024 399.533 183.138 392.611 181.727 389.615C180.299 386.61 162.441 365.086 162.441 365.086L179.969 325.152L141.729 306.389Z" fill="#EB9481"/>
<path d="M127.481 338.029C127.481 338.029 123.816 346.169 123.802 346.196C120.336 353.786 117.433 360.501 116.256 364.116C116.247 364.134 116.238 364.152 116.238 364.175C115.874 365.556 115.687 366.494 115.727 366.775C115.736 366.802 115.736 366.825 115.75 366.843C117.31 369.405 177.155 398.87 179.587 399.194C182.024 399.532 183.138 392.61 181.727 389.614C180.299 386.609 162.441 365.085 162.441 365.085L166.287 356.848L127.481 338.029Z" fill="#EBEBEB"/>
<path d="M179.572 399.112C177.135 398.79 117.267 369.386 115.701 366.819C115.089 365.854 118.865 356.88 123.738 346.169C123.79 346.057 123.842 345.946 123.894 345.835L162.73 364.373L162.393 365.021C162.393 365.021 180.275 386.525 181.701 389.531C183.112 392.52 182.006 399.444 179.572 399.112Z" fill="#263238"/>
<path d="M181.54 397.414C182.409 398.353 180.41 401.838 179.495 401.747C178.58 401.656 113.445 369.308 112.457 368.514C111.469 367.72 113.833 363.94 115.221 364.369C116.61 364.797 181.54 397.414 181.54 397.414Z" fill="#5C60F5"/>
<path d="M165.581 366.731C161.974 364.039 156.817 362.263 152.393 363.602C152.221 363.654 152.298 363.896 152.446 363.919C156.971 364.608 161.019 365.613 165.318 367.224C165.622 367.339 165.84 366.924 165.581 366.731Z" fill="white"/>
<path d="M167.6 369.867C163.993 367.175 158.836 365.399 154.412 366.738C154.24 366.79 154.317 367.033 154.465 367.055C158.99 367.744 163.038 368.749 167.337 370.36C167.641 370.474 167.858 370.06 167.6 369.867Z" fill="white"/>
<path d="M169.618 373.002C166.011 370.31 160.854 368.534 156.43 369.874C156.258 369.926 156.335 370.168 156.483 370.191C161.008 370.88 165.056 371.885 169.355 373.496C169.659 373.61 169.876 373.195 169.618 373.002Z" fill="white"/>
<path d="M130.486 357.394C127.212 353.092 120.521 358.174 123.8 362.483C127.075 366.785 133.766 361.703 130.486 357.394Z" fill="white"/>
<path d="M152.289 271.806C151.892 283.375 129.587 333.353 129.587 333.353L168.702 351.356C168.702 351.356 200.271 295.793 197.338 270.194C194.842 248.475 140.193 208.305 131.419 196.981C130.12 195.304 130.564 188.539 130.564 188.539H95.076V196.981C108.632 225.739 149.163 260.242 152.163 270.367C152.269 270.728 152.311 271.211 152.288 271.786L152.289 271.806Z" fill="#37474F"/>
<path d="M168.479 342.996C162.042 339.911 163.934 340.703 157.461 337.692C154.294 336.219 138.392 328.772 135.188 327.935C135.117 327.917 135.065 328.032 135.126 328.073C137.868 329.93 153.94 336.998 157.137 338.408C163.669 341.289 161.826 340.388 168.39 343.192C168.513 343.246 168.6 343.055 168.479 342.996Z" fill="#263238"/>
<path d="M104.039 203.047C114.814 219.34 126.66 234.86 139.853 249.277C143.066 252.789 146.376 256.205 149.689 259.622C152.494 262.515 155.345 265.725 156.044 269.835C156.821 274.409 155.027 278.973 153.607 283.237C152.041 287.938 150.463 292.636 148.793 297.301C146.991 302.333 139.634 320.488 138.418 322.936C137.809 324.161 148.158 297.983 149.836 293.1C151.493 288.279 153.223 283.448 154.648 278.552C155.376 276.052 155.952 273.415 155.683 270.798C155.418 268.226 154.292 265.931 152.758 263.882C149.884 260.041 146.137 256.785 142.869 253.284C136.091 246.021 129.621 238.472 123.476 230.666C116.513 221.82 109.933 212.64 103.921 203.12C103.873 203.043 103.99 202.972 104.039 203.047Z" fill="#263238"/>
<path d="M82.969 393.118C82.969 393.118 81.225 436.728 81.225 436.759C81.422 445.1 81.742 452.409 82.261 456.175C82.261 456.195 82.26 456.215 82.27 456.236C82.464 457.657 82.686 458.562 82.946 458.798C82.966 458.818 82.976 458.839 82.996 458.849C85.518 460.472 152.222 460.847 154.552 460.077C156.892 459.317 154.871 452.604 152.294 450.524C149.697 448.444 124.232 436.879 124.232 436.879L125.563 393.299L82.969 393.118Z" fill="#EB9481"/>
<path d="M81.57 428.13C81.57 428.13 81.226 436.729 81.225 436.76C81.422 445.101 81.742 452.41 82.261 456.176C82.261 456.196 82.26 456.216 82.27 456.237C82.546 457.639 82.787 458.564 82.946 458.799C82.966 458.819 82.976 458.84 82.996 458.85C85.518 460.473 152.222 460.848 154.552 460.078C156.892 459.318 154.871 452.605 152.294 450.525C149.697 448.445 124.232 436.88 124.232 436.88L124.501 428.059L81.57 428.13Z" fill="#EBEBEB"/>
<path d="M154.503 460.009C152.17 460.783 85.4709 460.474 82.9409 458.848C81.9689 458.247 81.4469 448.525 81.1539 436.761C81.1519 436.638 81.1499 436.515 81.1479 436.392L124.181 436.111L124.161 436.841C124.161 436.841 149.638 448.378 152.234 450.46C154.809 452.533 156.838 459.244 154.503 460.009Z" fill="#263238"/>
<path d="M155.533 457.622C156.725 458.088 156.448 462.095 155.585 462.413C154.722 462.73 82 462.072 80.765 461.789C79.53 461.506 80.006 457.074 81.442 456.853C82.877 456.632 155.533 457.622 155.533 457.622Z" fill="#5C60F5"/>
<path d="M127.777 436.989C123.357 436.143 117.942 436.797 114.547 439.933C114.415 440.054 114.59 440.239 114.734 440.195C119.105 438.839 123.186 437.975 127.757 437.547C128.079 437.517 128.094 437.049 127.777 436.989Z" fill="white"/>
<path d="M130.962 438.928C126.541 438.081 121.127 438.736 117.732 441.872C117.6 441.993 117.775 442.179 117.919 442.134C122.291 440.778 126.371 439.914 130.943 439.486C131.264 439.457 131.279 438.989 130.962 438.928Z" fill="white"/>
<path d="M134.147 440.868C129.726 440.022 124.312 440.676 120.916 443.812C120.784 443.933 120.959 444.119 121.103 444.074C125.474 442.718 129.555 441.854 134.126 441.426C134.449 441.396 134.463 440.928 134.147 440.868Z" fill="white"/>
<path d="M92.127 443.914C87.303 441.474 83.502 448.967 88.334 451.411C93.159 453.852 96.96 446.359 92.127 443.914Z" fill="white"/>
<path d="M125.399 422.857L81.804 423.215C81.804 423.215 89.062 245.146 84.203 239.334C72.638 225.5 74.483 207.059 82.269 188.539H122.018C122.018 188.539 120.114 216.662 120.3 217.477C132.498 270.783 125.399 422.857 125.399 422.857Z" fill="#37474F"/>
<path d="M122.998 413.928C113.492 413.188 88.444 414.003 85.283 414.484C85.213 414.494 85.21 414.621 85.279 414.635C88.412 415.274 117.135 414.367 122.993 414.144C123.122 414.139 123.127 413.938 122.998 413.928Z" fill="#263238"/>
<path d="M122.936 199.467C122.539 204.5 122.739 213.088 119.827 213.222C117.008 213.352 117.426 202.847 117.346 200.433C117.274 198.243 116.521 198.542 116.439 201.124C116.216 208.13 116.395 214.31 120.121 214.024C123.917 213.733 123.81 202.876 123.72 200.396C123.673 199.118 123.062 197.879 122.936 199.467Z" fill="#263238"/>
<path d="M120.018 213.555C119.844 214.53 119.875 218.122 120.129 218.857C120.178 219 120.74 218.89 120.796 218.774C121.144 218.045 120.866 214.6 120.964 213.675C121.028 213.062 120.125 212.953 120.018 213.555Z" fill="#263238"/>
<path d="M121.25 219.749C122.491 224.153 123.762 232.57 123.463 234.789C123.436 234.989 123.136 235.057 123.1 234.846C122.701 232.486 120.941 221.139 120.764 219.947C120.574 218.679 120.904 218.522 121.25 219.749Z" fill="#263238"/>
<path d="M113.605 223.221C114.147 222.626 114.829 222.149 115.46 221.651C116.109 221.138 116.763 220.64 117.44 220.163C118.819 219.191 120.245 218.301 121.694 217.438C123.111 216.594 124.565 215.826 126.036 215.081C127.579 214.299 129.22 213.713 130.764 212.938C130.852 212.894 130.933 213.021 130.845 213.07C129.377 213.88 128.024 214.894 126.603 215.78C125.174 216.67 123.762 217.587 122.333 218.479C120.937 219.35 119.555 220.241 118.153 221.1C117.418 221.55 116.678 221.987 115.934 222.422C115.243 222.826 114.571 223.282 113.832 223.593C113.612 223.683 113.466 223.374 113.605 223.221Z" fill="#263238"/>
<path d="M88.37 330.21C89.014 315.935 90.036 300.037 90.245 285.749C90.349 278.605 90.401 271.46 90.399 264.316C90.397 257.227 90.449 247.76 90.077 240.679C89.888 237.08 83.55 234.304 82.26 223.818C81.454 217.269 81.815 211.737 83.649 206.012C84.098 204.61 84.634 203.241 85.237 201.898C85.278 201.807 85.41 201.885 85.371 201.975C82.827 207.845 81.779 214.296 82.299 220.673C82.56 223.873 83.046 227.062 84.263 230.082C85.966 234.305 90.155 237.74 90.374 239.984C90.701 243.341 90.753 246.242 90.796 249.605C90.84 253.107 90.872 256.609 90.89 260.111C90.927 267.255 90.909 274.4 90.831 281.544C90.676 295.762 90.307 309.978 89.708 324.184C89.109 338.39 85.429 409.536 85.191 411.15C85.165 411.326 84.868 411.287 84.88 411.109C85.357 403.992 87.726 344.484 88.37 330.21Z" fill="#263238"/>
<path d="M111.918 155.717C121.377 175.24 133.39 196.379 144.633 199.698C155.327 202.855 176.072 176.583 182.577 169.667C184.923 167.173 165.911 152.874 162.962 155.045C157.404 159.137 147.409 170.276 145.731 169.883C143.985 169.467 130.07 156.198 117.433 145.001C109.772 138.213 105.366 142.193 111.918 155.717Z" fill="#EB9481"/>
<path d="M199.081 157.331C201.678 156.241 221.703 155.604 221.696 151.263C221.688 146.923 196.214 148.136 196.214 148.136L199.081 157.331Z" fill="#EB9481"/>
<path d="M160.681 157.838C164.181 153.49 167.257 148.8 170.3 147.94C172.407 147.345 195.075 148.324 198.617 148.109C202.159 147.894 214.794 148.22 215.085 151.325C215.497 155.715 200.543 155.675 198.947 157.918C193.436 165.664 172.485 177.117 172.485 177.117L160.681 157.838Z" fill="#EB9481"/>
<path d="M215.418 151.386C215.25 150.577 214.628 149.897 213.969 149.434C212.421 148.345 210.383 148.254 208.562 148.107C205.811 147.885 203.008 147.8 200.256 148.042C200.195 148.047 200.197 148.137 200.258 148.137C202.332 148.167 204.399 148.191 206.468 148.365C208.326 148.521 210.296 148.65 212.083 149.224C212.889 149.483 213.688 149.861 214.244 150.521C214.621 150.969 214.861 151.585 214.669 152.192C214.065 154.104 210.294 154.671 208.553 155.06C206.276 155.569 203.916 156.016 201.631 156.484C201.531 156.505 201.578 156.656 201.677 156.636C204.052 156.165 206.557 155.984 208.94 155.553C210.872 155.203 212.941 154.811 214.502 153.53C215.153 152.997 215.597 152.248 215.418 151.386Z" fill="#263238"/>
<path d="M221.299 147.856L221.164 148.546C221.019 149.287 220.302 149.77 219.561 149.625L180.166 141.934L180.824 138.562L220.219 146.253C220.961 146.398 221.444 147.116 221.299 147.856Z" fill="#5C60F5"/>
<path opacity="0.1" d="M180.826 138.553L180.167 141.927L184.922 142.855L185.58 139.481L180.826 138.553Z" fill="black"/>
<path d="M165.775 134.266L164.607 140.248C164.194 142.361 164.678 144.442 165.791 146.099C166.904 147.753 168.651 148.983 170.764 149.396C174.994 150.222 179.087 147.462 179.912 143.236L181.08 137.254C181.493 135.141 181.009 133.06 179.896 131.406C178.783 129.752 177.036 128.522 174.92 128.109C170.693 127.284 166.6 130.04 165.775 134.266ZM178.634 135.766C178.287 137.545 176.732 138.828 174.811 139.135C176.475 140.146 177.434 141.916 177.086 143.695C176.622 146.073 173.997 147.569 171.226 147.028C168.455 146.487 166.589 144.115 167.053 141.737C167.4 139.958 168.955 138.675 170.876 138.367C169.211 137.36 168.253 135.586 168.601 133.807C169.066 131.425 171.686 129.936 174.457 130.477C177.228 131.018 179.099 133.384 178.634 135.766Z" fill="#5C60F5"/>
<path d="M182.679 137.337L181.424 143.765C181.357 144.107 181.026 144.33 180.685 144.263L180.367 144.201C180.025 144.134 179.802 143.803 179.869 143.462L181.124 137.034C181.191 136.692 181.522 136.469 181.863 136.536L182.181 136.598C182.523 136.664 182.746 136.995 182.679 137.337Z" fill="#5C60F5"/>
<path d="M184.234 137.64L182.979 144.068C182.912 144.41 182.581 144.633 182.24 144.566L181.922 144.504C181.58 144.437 181.357 144.106 181.424 143.764L182.679 137.336C182.746 136.994 183.077 136.771 183.418 136.838L183.736 136.9C184.078 136.968 184.301 137.299 184.234 137.64Z" fill="#5C60F5"/>
<path d="M210.797 142.974L211.97 143.203L212.635 139.796L213.637 139.991L213.29 141.767L214.46 141.996L214.807 140.22L215.695 140.393L215.147 143.202L216.32 143.431L216.869 140.623L218.128 140.868L217.396 144.62L218.57 144.849L219.302 141.097L220.493 141.33L219.557 146.124L209.077 144.078L210.013 139.284L211.462 139.567L210.797 142.974Z" fill="#5C60F5"/>
<path d="M76.559 194.56L132.381 195.478L128.006 178.764C128.006 178.764 132.814 172.634 130.519 164.189C129.184 159.274 122.827 151.897 118.934 147.217C109.449 135.817 101.207 140.969 98.578 143.902C88.536 155.101 76.559 194.56 76.559 194.56Z" fill="#5C60F5"/>
<path d="M104.045 150.373L104.088 147.186L106.201 149.55L108.483 148.839L107.366 150.867L108.44 151.994L106.781 152.161L106.752 154.315L104.926 152.799L103.442 154.033L103.609 152.213L101.445 151.213L104.045 150.373ZM127.828 186.099L126.069 187.708L124.454 186.851L125.019 188.697L122.915 189.795L124.89 190.655L124.402 192.25L125.857 191.696L127.296 193.51L127.523 191.131L130.52 190.096L127.597 188.824L127.828 186.099ZM107.422 174.232L109.128 177.631L110.818 174.382L114.043 174.937L112.327 171.519L114.723 169.238L111.333 169.359L110.655 166.04L108.866 169.478L104.354 169.135L107.014 171.882L104.55 173.767L107.422 174.232ZM120.729 154.579L121.548 153.203L120.012 153.34L119.478 152.07L118.655 153.454L117.303 153.122L118.115 154.297L117.092 155.29L118.717 155.145L119.619 156.823L119.99 155.257L121.217 155.703L120.729 154.579ZM94.553 190.963L95.372 189.587L93.836 189.724L93.302 188.454L92.479 189.838L91.127 189.506L91.939 190.681L90.916 191.674L92.541 191.529L93.443 193.207L93.814 191.641L95.041 192.087L94.553 190.963ZM103.73 166.172L104.549 164.796L103.013 164.933L102.479 163.663L101.656 165.047L100.304 164.715L101.116 165.89L100.093 166.883L101.718 166.738L102.62 168.416L102.991 166.85L104.218 167.296L103.73 166.172ZM93.794 169.887L93.51 168.986L92.967 169.716L92.198 169.453L92.484 170.359L91.807 170.824L92.643 170.928L92.678 171.769L93.252 170.996L94.345 171.258L93.801 170.48L94.479 170.115L93.794 169.887ZM119.701 191.34L119.417 190.439L118.874 191.169L118.105 190.906L118.391 191.812L117.714 192.277L118.55 192.381L118.585 193.222L119.159 192.449L120.252 192.711L119.708 191.933L120.386 191.568L119.701 191.34ZM127.453 165.201L128.157 164.571L127.268 164.377L127.191 163.568L126.483 164.201L125.781 163.775L126.03 164.58L125.279 164.958L126.219 165.163L126.43 166.267L126.915 165.451L127.527 165.919L127.453 165.201ZM113.436 182.092L114.14 181.462L113.251 181.268L113.174 180.459L112.466 181.092L111.764 180.666L112.013 181.471L111.262 181.849L112.202 182.054L112.413 183.158L112.898 182.342L113.51 182.81L113.436 182.092ZM84.617 187.388L85.321 186.758L84.432 186.564L84.355 185.755L83.647 186.388L82.945 185.962L83.194 186.767L82.443 187.145L83.383 187.35L83.594 188.454L84.079 187.638L84.691 188.106L84.617 187.388Z" fill="white"/>
<path d="M113.071 177.779C115.455 177.594 117.862 177.489 120.251 177.659C121.439 177.744 122.616 177.883 123.795 178.047C124.383 178.129 124.97 178.191 125.56 178.25C126.166 178.311 126.812 178.352 127.418 178.262C127.473 178.254 127.486 178.335 127.432 178.346C126.849 178.468 126.292 178.584 125.696 178.628C125.13 178.67 124.557 178.652 123.991 178.617C122.785 178.543 121.583 178.412 120.378 178.326C117.946 178.151 115.516 177.977 113.077 177.978C112.965 177.977 112.958 177.787 113.071 177.779Z" fill="#263238"/>
<path d="M107.646 180.913C109.535 180.367 111.479 179.903 113.419 179.575C114.395 179.41 115.372 179.303 116.358 179.22C116.829 179.181 117.3 179.15 117.772 179.125C118.291 179.097 118.814 179.139 119.332 179.104C119.386 179.1 119.401 179.183 119.346 179.188C118.858 179.236 118.376 179.365 117.892 179.441C117.406 179.517 116.918 179.59 116.432 179.666C115.458 179.819 114.486 179.982 113.51 180.125C111.556 180.412 109.614 180.718 107.672 181.072C107.567 181.093 107.548 180.942 107.646 180.913Z" fill="#263238"/>
<path d="M104.045 143.237C104.279 144.232 109.042 150.688 113.593 150.468C115.075 150.394 115.03 142.287 115.03 142.287L115.164 141.688L117.026 133.299L107.165 126.993L105.74 126.158C105.74 126.158 105.382 128.487 104.965 131.391C104.945 131.526 104.925 131.66 104.905 131.805C104.877 131.969 104.849 132.123 104.83 132.277C104.762 132.71 104.695 133.152 104.637 133.595C104.592 133.931 104.545 134.258 104.511 134.613C104.467 134.968 104.431 135.314 104.387 135.669C104.027 139.179 103.951 142.814 104.045 143.237Z" fill="#EB9481"/>
<path d="M104.965 131.391C107.378 138.062 112.714 140.775 115.164 141.687L117.026 133.298L107.165 126.992L105.74 126.157C105.74 126.157 105.381 128.487 104.965 131.391Z" fill="#263238"/>
<path d="M128.833 119.613C131.756 134.409 123.224 137.831 120.033 138.457C117.136 139.026 107.2 140.595 102.763 126.18C98.327 111.765 104.282 105.729 110.839 104.077C117.396 102.426 125.91 104.817 128.833 119.613Z" fill="#EB9481"/>
<path d="M124.506 117.353C124.162 117.443 123.829 117.469 123.479 117.523C123.084 117.584 122.775 117.673 122.398 117.496C122.195 117.402 122.087 117.091 122.161 116.886C122.332 116.407 122.797 116.213 123.27 116.12C123.783 116.019 124.204 116.073 124.664 116.319C125.109 116.556 124.961 117.234 124.506 117.353Z" fill="#263238"/>
<path d="M113.998 120.38C114.352 120.341 114.672 120.247 115.019 120.173C115.41 120.089 115.73 120.063 116.02 119.763C116.176 119.602 116.166 119.274 116.024 119.108C115.694 118.722 115.19 118.705 114.715 118.787C114.2 118.876 113.826 119.076 113.483 119.469C113.15 119.85 113.53 120.43 113.998 120.38Z" fill="#263238"/>
<path d="M116.224 122.275C116.211 122.237 116.152 122.335 116.159 122.377C116.343 123.387 116.384 124.576 115.515 125.051C115.488 125.066 115.499 125.116 115.532 125.107C116.631 124.781 116.561 123.203 116.224 122.275Z" fill="#263238"/>
<path d="M115.159 121.35C113.507 121.47 113.869 124.766 115.4 124.654C116.906 124.545 116.544 121.249 115.159 121.35Z" fill="#263238"/>
<path d="M114.531 121.595C114.264 121.813 114.018 122.173 113.675 122.245C113.278 122.329 112.937 122.017 112.638 121.714C112.607 121.682 112.582 121.714 112.586 121.758C112.646 122.39 112.96 123.011 113.647 123.031C114.274 123.049 114.656 122.441 114.744 121.789C114.76 121.67 114.639 121.507 114.531 121.595Z" fill="#263238"/>
<path d="M122.486 121.32C122.49 121.28 122.571 121.36 122.574 121.402C122.646 122.427 122.9 123.589 123.859 123.833C123.889 123.841 123.891 123.892 123.856 123.891C122.713 123.848 122.39 122.303 122.486 121.32Z" fill="#263238"/>
<path d="M123.289 120.16C124.92 119.867 125.384 123.15 123.874 123.421C122.388 123.688 121.923 120.406 123.289 120.16Z" fill="#263238"/>
<path d="M124.004 120.279C124.288 120.416 124.589 120.696 124.902 120.673C125.264 120.646 125.48 120.253 125.661 119.88C125.68 119.841 125.709 119.865 125.717 119.909C125.823 120.534 125.708 121.217 125.123 121.422C124.589 121.61 124.109 121.129 123.871 120.525C123.826 120.413 123.89 120.224 124.004 120.279Z" fill="#263238"/>
<path d="M118.081 130.902C118.342 131.126 118.608 131.441 118.982 131.448C119.341 131.455 119.748 131.267 120.067 131.12C120.099 131.106 120.133 131.138 120.115 131.17C119.874 131.58 119.33 131.863 118.85 131.81C118.381 131.759 118.126 131.372 117.986 130.955C117.965 130.897 118.043 130.869 118.081 130.902Z" fill="#263238"/>
<path d="M121.894 126.697C121.894 126.697 122.29 128.194 122.378 128.912C122.386 128.979 122.216 129.032 121.974 129.076C121.963 129.081 121.957 129.086 121.946 129.08C120.702 129.432 119.372 129.15 118.475 128.209C118.417 128.145 118.499 128.06 118.57 128.097C119.601 128.677 120.669 128.729 121.796 128.61C121.823 128.405 121.033 126.069 121.145 126.047C121.534 125.966 122.339 126.139 122.821 126.218C122.087 123.076 120.856 120.077 120.171 116.938C120.149 116.825 120.307 116.772 120.353 116.869C121.866 119.921 122.791 123.518 123.632 126.743C123.74 127.144 122.196 126.785 121.894 126.697Z" fill="#263238"/>
<path d="M121.868 128.82C121.868 128.82 121.347 129.881 120.461 130.391C120.135 130.58 119.768 130.698 119.354 130.665C118.506 130.6 118.35 129.861 118.382 129.198C118.407 128.653 118.567 128.158 118.567 128.158C118.567 128.158 119.952 129.049 121.868 128.82Z" fill="#263238"/>
<path d="M120.461 130.392C120.135 130.581 119.768 130.699 119.354 130.666C118.506 130.601 118.35 129.862 118.382 129.199C119.267 129.13 120.233 129.562 120.461 130.392Z" fill="#FF9ABB"/>
<path d="M104.412 127.486C107.24 127.443 107.052 120.979 107.052 120.979C107.052 120.979 118.608 117.295 118.247 107.516C118.247 107.516 121.146 113.371 127.74 115.273C127.74 115.273 125.83 104.767 117.161 103.902C117.161 103.902 106.227 101.592 101.55 110.668C96.873 119.743 102.514 127.515 104.412 127.486Z" fill="#263238"/>
<path d="M118.188 106.798C118.555 108.246 118.553 109.785 118.283 111.272C118.012 112.759 117.457 114.216 116.599 115.48C116.411 115.813 116.139 116.087 115.913 116.393L115.558 116.84C115.428 116.978 115.291 117.11 115.154 117.242C114.878 117.503 114.612 117.775 114.327 118.024C114.026 118.255 113.72 118.478 113.413 118.698C113.259 118.807 113.11 118.922 112.952 119.025L112.459 119.301L111.475 119.848C110.788 120.148 110.087 120.413 109.39 120.665C110.028 120.272 110.693 119.951 111.315 119.558L112.228 118.942L112.683 118.636C112.827 118.524 112.962 118.4 113.101 118.283C113.377 118.044 113.653 117.809 113.936 117.581C114.198 117.331 114.439 117.06 114.692 116.801L115.068 116.411L115.398 115.982C115.608 115.689 115.862 115.427 116.036 115.11C116.861 113.924 117.399 112.563 117.778 111.164C117.964 110.461 118.082 109.739 118.149 109.01C118.228 108.278 118.234 107.541 118.188 106.798Z" fill="#263238"/>
<path d="M100.008 118.588L99.31 120.008L103.987 123.434L105.493 120.237L100.008 118.588ZM103.664 121.967L100.425 119.873L100.58 119.538L104.215 120.848L103.664 121.967Z" fill="#5C60F5"/>
<path d="M100.204 116.078L100.092 117.656L105.715 119.067L105.905 115.539L100.204 116.078ZM104.864 117.831L101.075 117.111L101.092 116.743L104.952 116.587L104.864 117.831Z" fill="#5C60F5"/>
<path d="M106.576 126.207C106.576 126.207 102.794 121.883 100.797 123.281C98.801 124.679 102 131.195 104.594 131.852C107.188 132.509 107.843 130.119 107.843 130.119L106.576 126.207Z" fill="#EB9481"/>
<path d="M101.761 125.127C101.72 125.128 101.719 125.185 101.755 125.195C103.58 125.713 104.677 127.233 105.505 128.844C104.915 128.254 104.168 127.976 103.369 128.689C103.327 128.727 103.378 128.793 103.426 128.778C104.125 128.547 104.656 128.615 105.202 129.135C105.589 129.504 105.879 129.992 106.175 130.434C106.274 130.581 106.547 130.467 106.468 130.293C106.462 130.28 106.455 130.267 106.449 130.254C106.251 128.021 104.178 125.091 101.761 125.127Z" fill="#263238"/>
<path d="M95.25 147.197C82.533 169.142 63.517 219.498 60.083 226.702C57.752 231.591 83.31 244.477 84.395 240.921C85.785 236.368 103.523 177.713 104.68 151.545C105.216 139.416 99.318 140.179 95.25 147.197Z" fill="#EB9481"/>
<path d="M74.003 252.117C75.347 250.941 75.973 251.639 75.387 254.758C74.801 257.915 69.835 269.727 74.115 271.11C78.407 272.506 85.161 255.674 85.738 250.405C86.328 245.136 85.404 236.41 85.404 236.41C83.431 239.419 77.949 246.263 74.003 252.117Z" fill="#EB9481"/>
<path d="M81.504 270.462L49.449 264.704C48.49 264.618 47.843 263.955 48.007 263.224L50.941 250.142C51.105 249.412 52.017 248.888 52.976 248.973L85.031 254.732C85.992 254.818 86.637 255.481 86.473 256.211L83.539 269.293C83.376 270.024 82.465 270.548 81.504 270.462Z" fill="#A6A6A6"/>
<path d="M81.869 268.916L49.814 263.157C48.855 263.071 48.208 262.408 48.372 261.677L51.306 248.595C51.47 247.865 52.383 247.341 53.342 247.426L85.397 253.184C86.358 253.27 87.003 253.933 86.839 254.663L83.905 267.745C83.741 268.478 82.83 269.002 81.869 268.916Z" fill="#C7C7C7"/>
<path d="M81.274 264.774C80.53 264.493 79.828 264.769 79.707 265.389C79.586 266.01 80.091 266.739 80.835 267.02C81.579 267.301 82.281 267.025 82.402 266.405C82.524 265.785 82.019 265.055 81.274 264.774Z" fill="#263238"/>
<path d="M61.785 224.398C55.256 233.198 49.478 243.565 49.343 255.007C49.317 257.252 50.426 258.556 50.426 258.556C50.275 263.684 52.65 265.295 52.65 265.295C53.971 270.114 56.628 271.428 56.628 271.428C56.628 271.428 57.013 275.556 59.919 275.498C62.739 275.442 64.425 268.674 66.968 263.726C72.796 252.389 83.398 239.512 85.404 236.409L61.785 224.398Z" fill="#EB9481"/>
<path d="M63.874 249.161C62.226 252.531 60.518 255.799 59.335 259.376C58.037 263.299 57.445 267.293 56.742 271.344C56.72 271.47 56.542 271.453 56.544 271.325C56.656 263.791 59.53 255.327 63.723 249.085C63.824 248.932 63.957 248.991 63.874 249.161Z" fill="#263238"/>
<path d="M57.543 244.649C56.121 248.018 53.659 253.954 52.772 265.306C52.769 265.343 52.705 265.35 52.703 265.309C52.299 257.862 53.946 251.13 57.382 244.582C57.489 244.378 57.638 244.425 57.543 244.649Z" fill="#263238"/>
<path d="M54.095 242.288C51.895 248.108 51.244 252.056 50.455 258.534C50.451 258.571 50.386 258.573 50.386 258.532C50.51 251.075 51.4 248.384 53.905 242.184C53.992 241.971 54.181 242.061 54.095 242.288Z" fill="#263238"/>
</svg>
