<svg width="500" height="500" viewBox="0 0 500 500" fill="none" xmlns="http://www.w3.org/2000/svg">
<path d="M118.374 52.835H61.778V121.485H118.374V52.835Z" fill="#EBEBEB"/>
<path d="M111.907 59.1006H68.245V115.22H111.907V59.1006Z" fill="white"/>
<path d="M69.949 59.1006H68.245V115.22H69.949V59.1006Z" fill="#DBDBDB"/>
<path d="M120.078 52.835H118.374V121.485H120.078V52.835Z" fill="#DBDBDB"/>
<path d="M93.173 66.8379H82.878V97.5109H93.173V66.8379Z" fill="#DBDBDB"/>
<path d="M105.838 87.7227H78.386V102.75H105.838V87.7227Z" stroke="#EBEBEB" stroke-miterlimit="10"/>
<path d="M191.172 106.809H134.576V175.459H191.172V106.809Z" fill="#EBEBEB"/>
<path d="M184.705 113.074H141.043V169.193H184.705V113.074Z" fill="white"/>
<path d="M142.747 113.074H141.043V169.193H142.747V113.074Z" fill="#DBDBDB"/>
<path d="M192.877 106.809H191.173V175.459H192.877V106.809Z" fill="#DBDBDB"/>
<path d="M167.467 127.581H158.647V149.882H167.467V127.581Z" fill="#EBEBEB"/>
<path d="M176.753 141.134H153.06V156.507H176.753V141.134Z" stroke="#DBDBDB" stroke-miterlimit="10"/>
<path d="M409.793 62.1611H436.274V50.9711H409.793V62.1611Z" fill="#EBEBEB"/>
<path d="M424.564 48.0518H451.045V36.8618H424.564V48.0518Z" fill="#EBEBEB"/>
<path d="M395.021 48.0518H421.501V36.8618H395.021V48.0518Z" fill="#EBEBEB"/>
<path d="M41.955 48.0518H68.436V36.8618H41.955V48.0518Z" fill="#EBEBEB"/>
<path d="M56.7264 327.224H83.2074V316.034H56.7264V327.224Z" fill="#EBEBEB"/>
<path d="M41.955 313.113H68.436V301.923H41.955V313.113Z" fill="#EBEBEB"/>
<path d="M424.564 327.211H451.045V316.021H424.564V327.211Z" fill="#EBEBEB"/>
<path d="M285.83 97.7783H259.349V108.968H285.83V97.7783Z" fill="#EBEBEB"/>
<path d="M271.059 111.889H244.578V123.079H271.059V111.889Z" fill="#EBEBEB"/>
<path d="M250 465.26C352.085 465.26 434.841 454.814 434.841 441.929C434.841 429.043 352.085 418.598 250 418.598C147.915 418.598 65.159 429.043 65.159 441.929C65.159 454.814 147.915 465.26 250 465.26Z" fill="#EBEBEB"/>
<path d="M37.285 333.918L90.463 333.675L143.642 333.586L250 333.419L356.358 333.585L409.537 333.673L462.715 333.918L409.537 334.162L356.358 334.25L250 334.417L143.642 334.249L90.463 334.161L37.285 333.918Z" fill="#263238"/>
<path d="M383.726 249.898H417.922L437.494 152.326L406.184 137.941L383.726 249.898Z" fill="#DBDBDB"/>
<path d="M285.852 249.898H383.726L406.184 137.941H308.31L285.852 249.898Z" fill="#EBEBEB"/>
<path d="M401.282 305.079H453.689V197.548H401.282V305.079Z" fill="#DBDBDB"/>
<path d="M260.7 305.08H275.018L296.353 197.549H260.7V305.08Z" fill="#DBDBDB"/>
<path d="M372.488 305.079H401.283V197.548H372.488V305.079Z" fill="#EBEBEB"/>
<path d="M231.905 305.079H260.7V197.548H231.905V305.079Z" fill="#EBEBEB"/>
<path d="M260.701 305.079H372.488V249.898H260.701V305.079Z" fill="#EBEBEB"/>
<path d="M260.701 250.122H372.488V226.043H260.701V250.122Z" fill="#EBEBEB"/>
<path d="M394.227 197.548L383.357 197.727L372.487 197.852L372.79 197.548L372.903 210.132L372.944 222.716C372.975 231.105 372.999 239.495 372.955 247.884C372.931 256.273 372.919 264.663 372.822 273.052C372.758 281.441 372.65 289.831 372.486 298.22C372.322 289.831 372.215 281.441 372.15 273.052C372.054 264.663 372.042 256.273 372.018 247.884C371.974 239.495 371.998 231.105 372.029 222.716L372.07 210.132L372.182 197.548L372.185 197.241L372.486 197.244L383.356 197.369L394.227 197.548Z" fill="#DBDBDB"/>
<path d="M260.7 197.549C260.906 205.97 261.003 214.39 261.083 222.811L261.2 248.072L261.085 273.334L260.945 285.965L260.7 298.596L260.455 285.965L260.315 273.334L260.2 248.072L260.317 222.811C260.397 214.39 260.494 205.969 260.7 197.549Z" fill="#DBDBDB"/>
<path d="M260.7 249.898C270.016 249.692 279.331 249.595 288.647 249.515L316.594 249.398L344.541 249.513L358.514 249.653L372.487 249.898L358.514 250.143L344.541 250.283L316.594 250.398L288.647 250.281C279.331 250.2 270.016 250.104 260.7 249.898Z" fill="#DBDBDB"/>
<path d="M260.7 226.042C270.016 225.836 279.331 225.739 288.647 225.659L316.594 225.542L344.541 225.657L358.514 225.797L372.487 226.042L358.514 226.287L344.541 226.427L316.594 226.542L288.647 226.425C279.331 226.345 270.016 226.249 260.7 226.042Z" fill="#DBDBDB"/>
<path d="M433.774 305.078L434.483 313.789L436.138 333.918H443.726L445.381 313.789L446.09 305.078H433.774Z" fill="#C7C7C7"/>
<path d="M446.09 305.078H433.774L434.483 313.789H445.381L446.09 305.078Z" fill="#A6A6A6"/>
<path d="M380.727 305.078L381.436 313.789L383.091 333.918H390.679L392.334 313.789L393.043 305.078H380.727Z" fill="#C7C7C7"/>
<path d="M393.043 305.078H380.727L381.436 313.789H392.334L393.043 305.078Z" fill="#A6A6A6"/>
<path d="M292.741 305.078L293.45 313.789L295.105 333.918H302.693L304.348 313.789L305.057 305.078H292.741Z" fill="#C7C7C7"/>
<path d="M305.057 305.078H292.741L293.45 313.789H304.348L305.057 305.078Z" fill="#A6A6A6"/>
<path d="M239.682 305.078L240.391 313.789L242.046 333.918H249.634L251.289 313.789L251.998 305.078H239.682Z" fill="#C7C7C7"/>
<path d="M239.682 305.078L240.391 313.789H251.289L251.998 305.078H239.682Z" fill="#A6A6A6"/>
<path d="M192 322.194C194.2 323.48 261.909 337.634 264.832 336.542C265.943 336.134 268.579 326.393 271.431 314.532C272.047 311.971 272.668 309.322 273.283 306.629C277.297 289.148 281.148 270.506 281.148 270.506L235.882 260.907L229.263 297.294L227.804 305.28C227.804 305.28 199.457 311.456 196.379 312.998C193.315 314.543 189.8 320.909 192 322.194Z" fill="#F7A9A0"/>
<path d="M191.773 322.248C193.985 323.541 262.073 337.774 265.013 336.676C266.371 336.17 270.003 321.816 273.511 306.596L229.245 297.209L227.778 305.24C227.778 305.24 199.272 311.45 196.177 313.001C193.096 314.554 189.561 320.955 191.773 322.248Z" fill="#5C60F5"/>
<path d="M193.319 319.728C204.791 321.834 250.863 331.409 262.044 334.362C262.135 334.386 262.122 334.449 262.029 334.434C250.613 332.595 204.619 322.647 193.28 319.915C193.04 319.858 193.077 319.684 193.319 319.728Z" fill="#263238"/>
<path d="M226.699 302.367C231.366 302.468 236.715 304.305 239.478 308.223C239.585 308.375 239.368 308.525 239.232 308.448C235.093 306.125 231.142 304.363 226.599 302.938C226.278 302.838 226.365 302.36 226.699 302.367Z" fill="#263238"/>
<path d="M223.049 303.644C227.715 303.745 233.064 305.583 235.828 309.5C235.935 309.652 235.718 309.802 235.582 309.726C231.443 307.403 227.492 305.641 222.949 304.216C222.627 304.115 222.714 303.637 223.049 303.644Z" fill="#263238"/>
<path d="M219.398 304.92C224.065 305.02 229.414 306.858 232.177 310.776C232.284 310.928 232.067 311.078 231.931 311.001C227.792 308.678 223.841 306.916 219.298 305.491C218.977 305.39 219.064 304.912 219.398 304.92Z" fill="#263238"/>
<path d="M215.748 306.195C220.415 306.296 225.764 308.134 228.527 312.051C228.634 312.203 228.417 312.353 228.281 312.276C224.142 309.953 220.191 308.191 215.648 306.766C215.327 306.666 215.414 306.188 215.748 306.195Z" fill="#263238"/>
<path d="M221.25 297.064C223.91 300.199 227.835 302.072 231.256 304.22C231.611 304.443 231.993 304.145 232.078 303.806C232.155 303.808 232.228 303.765 232.218 303.666C231.779 299.659 229.955 295.118 227.452 291.932C225.906 289.965 222.848 288.184 220.576 290.246C218.425 292.197 219.697 295.234 221.25 297.064ZM220.863 293.211C221.102 288.118 225.851 291.811 226.933 293.306C227.628 294.267 228.219 295.33 228.776 296.375C229.942 298.566 230.774 300.88 231.71 303.167C230.094 302.008 228.393 300.999 226.736 299.901C224.76 298.593 220.731 296.019 220.863 293.211Z" fill="#263238"/>
<path d="M248.642 299.958C248.142 296.931 244.639 296.426 242.206 297.008C238.265 297.95 234.015 300.376 231.182 303.243C231.112 303.314 231.143 303.393 231.205 303.439C231.061 303.757 231.175 304.228 231.592 304.274C235.608 304.715 239.847 305.685 243.879 304.881C246.232 304.412 249.116 302.822 248.642 299.958ZM237.817 303.699C235.836 303.53 233.876 303.264 231.89 303.169C234.044 301.959 236.134 300.662 238.409 299.669C239.494 299.195 240.618 298.73 241.759 298.408C243.535 297.908 249.552 297.964 246.575 302.103C244.934 304.385 240.178 303.9 237.817 303.699Z" fill="#263238"/>
<path d="M254.261 359.495C256.716 360.178 325.796 356.61 328.345 354.809C329.315 354.131 329.617 326.397 328.894 323.73C326.443 314.693 315.673 287.479 315.673 287.479L269.456 289.732L283.95 325.921L284.574 334.015C284.574 334.015 258.736 347.211 256.153 349.486C253.583 351.762 251.806 358.813 254.261 359.495Z" fill="#F7A9A0"/>
<path d="M254.056 359.605C256.525 360.292 325.992 356.704 328.555 354.893C329.739 354.057 329.594 339.251 329.107 323.64L283.91 325.843L284.537 333.983C284.537 333.983 258.555 347.253 255.957 349.541C253.374 351.828 251.587 358.918 254.056 359.605Z" fill="#5C60F5"/>
<path d="M254.908 356.774C266.538 355.887 313.529 353.405 325.093 353.412C325.187 353.412 325.19 353.476 325.097 353.485C313.589 354.616 266.579 356.717 254.918 356.965C254.672 356.97 254.663 356.792 254.908 356.774Z" fill="#263238"/>
<path d="M282.762 331.479C287.3 330.387 292.941 330.801 296.611 333.885C296.753 334.005 296.581 334.205 296.43 334.166C291.835 332.975 287.566 332.278 282.81 332.057C282.475 332.042 282.437 331.558 282.762 331.479Z" fill="#263238"/>
<path d="M279.557 333.644C284.095 332.552 289.736 332.966 293.406 336.05C293.548 336.17 293.376 336.37 293.225 336.331C288.63 335.14 284.362 334.443 279.605 334.222C279.27 334.206 279.232 333.722 279.557 333.644Z" fill="#263238"/>
<path d="M276.353 335.808C280.891 334.716 286.532 335.13 290.202 338.214C290.344 338.333 290.172 338.534 290.021 338.495C285.427 337.304 281.157 336.607 276.401 336.386C276.066 336.37 276.028 335.886 276.353 335.808Z" fill="#263238"/>
<path d="M273.148 337.972C277.686 336.88 283.327 337.294 286.997 340.378C287.139 340.498 286.967 340.698 286.816 340.659C282.221 339.468 277.952 338.771 273.196 338.55C272.861 338.534 272.823 338.05 273.148 337.972Z" fill="#263238"/>
<path d="M276.142 327.741C279.513 330.094 283.785 330.905 287.641 332.111C288.041 332.236 288.335 331.851 288.33 331.502C288.405 331.484 288.465 331.424 288.429 331.331C286.983 327.568 284.062 323.642 280.83 321.199C278.834 319.69 275.423 318.748 273.751 321.321C272.169 323.754 274.174 326.367 276.142 327.741ZM274.785 324.114C273.718 319.128 279.252 321.489 280.679 322.659C281.596 323.411 282.439 324.288 283.243 325.157C284.929 326.978 286.324 329.005 287.811 330.977C285.953 330.269 284.051 329.726 282.169 329.087C279.926 328.325 275.374 326.863 274.785 324.114Z" fill="#263238"/>
<path d="M303.367 323.558C302.112 320.758 298.596 321.163 296.391 322.345C292.821 324.26 289.329 327.689 287.32 331.184C287.271 331.27 287.321 331.339 287.392 331.368C287.334 331.712 287.564 332.138 287.979 332.076C291.975 331.479 296.321 331.337 300.015 329.532C302.171 328.479 304.555 326.207 303.367 323.558ZM293.852 329.933C291.894 330.274 289.931 330.517 287.986 330.931C289.76 329.212 291.451 327.425 293.397 325.885C294.326 325.151 295.294 324.414 296.316 323.812C297.906 322.876 303.738 321.397 301.915 326.158C300.909 328.784 296.186 329.526 293.852 329.933Z" fill="#263238"/>
<path d="M360.278 220.198C346.51 235.536 300.249 223.422 297.482 229.525C295.046 234.907 328.908 318.937 328.908 318.937L279.934 323.393C279.934 323.393 232.489 231.328 248.077 203.745C256.496 188.847 293.598 194.787 315.987 192.06C322.741 191.238 325.912 177.31 325.912 177.31H365.919C365.921 177.31 376.015 202.667 360.278 220.198Z" fill="#455A64"/>
<path d="M262.12 195.198L304.541 227.66C318.63 227.362 349.465 232.242 360.274 220.195C376.017 202.663 365.922 177.312 365.922 177.312H325.914C325.914 177.312 322.742 191.239 315.991 192.062C300.275 193.969 277.33 191.619 262.12 195.198Z" fill="#263238"/>
<path d="M277.118 313.869C278.513 313.433 291.612 311.972 294.5 311.66C300.283 311.036 318.489 309.335 321.787 309.343C321.875 309.343 321.889 309.479 321.803 309.497C318.937 310.098 307.319 311.454 304.431 311.75C298.64 312.345 278.75 314.275 277.143 314.115C277.002 314.101 276.982 313.911 277.118 313.869Z" fill="#263238"/>
<path d="M290.959 223.712C294.207 222.096 310.494 222.741 317.356 222.578C320.809 222.496 324.262 222.414 327.715 222.332C330.775 222.259 333.84 222.223 336.892 221.99C342.658 221.551 348.423 220.224 352.816 216.451C356.773 213.053 359.317 208.347 360.68 203.5C362.378 197.464 362.202 191.169 361.912 184.985C361.841 183.463 361.736 181.943 361.639 180.423C361.634 180.336 361.791 180.318 361.801 180.406C363.144 191.481 364.172 203.854 356.969 213.453C353.803 217.672 349.36 220.565 344.09 221.901C338.181 223.399 331.915 223.233 325.851 223.368C319.033 223.52 312.215 223.673 305.396 223.825C301.987 223.901 293.373 224.009 291.96 225.09C290.276 226.378 300.011 256.445 302.34 262.55C307.024 274.828 311.627 287.133 316.206 299.447C316.76 300.936 318.3 305.228 318.813 306.73C318.909 307.013 318.415 307.203 318.296 306.923C315.741 300.871 312.433 291.919 310.044 285.807C307.664 279.718 305.277 273.63 302.925 267.531C298.181 255.223 288.132 225.119 290.959 223.712Z" fill="#263238"/>
<path d="M246.266 206.412C248.953 200.495 254.081 196.602 262.074 195.161C262.208 195.137 262.199 195.334 262.069 195.372C255.095 197.411 250.154 200.132 247.25 205.941C245.962 208.518 244.935 212.703 245.091 217.888C245.443 229.58 249.609 246.512 251.99 254.619C254.375 262.74 257.214 270.716 260.252 278.613C263.306 286.551 270.292 303.003 270.75 304.024C270.791 304.116 270.664 304.185 270.613 304.1C267.438 298.755 257.567 274.869 252.058 257.471C249.447 249.226 240.502 219.104 246.266 206.412Z" fill="#263238"/>
<path d="M228.003 294.979L270.705 304.082C270.705 304.082 236.076 213.045 250.251 201.425C254.18 198.204 262.745 197.079 272.925 201.475C288.123 208.038 305.716 221.424 322.3 226.318C337.833 230.902 356.27 226.686 362.616 219.701C375.947 205.028 365.919 177.297 365.919 177.297L318.466 175.232C318.466 175.232 319.442 177.347 316.818 179.675C316.818 179.675 276.771 170.896 262.722 179.479C237.377 194.964 228.003 294.979 228.003 294.979Z" fill="#455A64"/>
<path d="M342.154 180.515C342.19 180.409 342.341 180.435 342.345 180.546C342.423 182.63 342.332 184.664 342.822 186.715C343.288 188.663 344.176 190.41 345.589 191.84C348.605 194.891 352.931 195.929 356.885 197.176C357.094 197.242 357.055 197.61 356.821 197.574C352.434 196.9 347.82 195.788 344.615 192.497C343.143 190.986 342.155 189.05 341.777 186.976C341.398 184.893 341.458 182.528 342.154 180.515Z" fill="#263238"/>
<path d="M251.198 199.706C257.08 196.015 266.273 198.819 270.674 200.505C270.767 200.541 270.724 200.689 270.629 200.655C266.581 199.199 256.505 196.994 251.119 200.81C238.672 209.628 258.236 267.488 270.704 303.598C270.882 304.113 270.463 303.979 270.234 303.48C268.433 299.546 250.095 250.912 247.041 227.862C246.477 223.595 242.719 205.026 251.198 199.706Z" fill="#263238"/>
<path d="M233.243 286.196C234.399 286.167 244.313 288.352 246.496 288.844C250.865 289.828 264.526 293.173 266.888 294.075C266.951 294.099 266.913 294.23 266.844 294.223C264.574 294.007 255.76 292.125 253.583 291.62C249.218 290.606 234.268 287.018 233.173 286.433C233.076 286.381 233.13 286.199 233.243 286.196Z" fill="#263238"/>
<path d="M253.07 198.141C257.028 195.976 261.738 195.624 266.131 196.165C270.788 196.738 275.217 198.392 279.476 200.34C288.424 204.432 296.947 209.431 305.907 213.5C314.815 217.546 324.325 220.713 334.143 221.015C342.535 221.273 353.156 219.795 358.552 212.245C366.865 200.614 362.023 180.56 361.926 179.264C361.918 179.163 362.054 179.17 362.079 179.266C368.528 203.918 360.231 213.487 354.63 217.514C350.183 220.711 343.792 221.517 339.571 221.873C329.804 222.698 320.015 220.307 310.963 216.702C301.685 213.006 292.985 208.032 284.097 203.485C275.574 199.125 266.076 194.629 256.342 197.126C255.242 197.408 254.155 197.797 253.105 198.233C253.055 198.256 253.021 198.167 253.07 198.141Z" fill="#263238"/>
<path d="M299.054 162.063C299.669 162.038 302.549 161.931 306.759 161.784C308.069 159.017 309.512 154.172 308.365 147.506C308.168 146.403 311.179 152.628 310.672 161.646C318.808 161.353 331.918 160.749 341.58 160.304C341.54 156.523 341.674 153.017 341.674 153.017C342.168 155.714 342.897 158.13 343.682 160.215C345.004 160.164 346.298 160.09 347.539 160.03C346.905 154.195 347.29 143.939 347.29 143.939C348.59 150.979 351.196 156.507 353.03 159.747C359.161 159.4 363.188 159.06 362.912 158.785C353 148.71 359.422 142.179 356.223 132.974C352.385 121.944 342.605 120.743 342.386 112.299C342.19 105.429 342.772 80.0912 332.67 79.9682C332.67 79.9682 324.101 72.2562 313.291 77.1692C299.918 83.2342 306.428 115.503 305.753 119.859C304.794 126.083 301.999 128.424 300.237 135.562C298.435 142.787 301.947 147.301 302.603 152.087C303.239 156.872 297.514 162.141 299.054 162.063Z" fill="#263238"/>
<path d="M363.095 157.251C361.744 155.426 360.522 153.492 359.758 151.427C358.932 149.379 359.107 147.22 359.397 144.986C359.686 142.764 360.054 140.487 360.118 138.144C360.157 135.812 359.926 133.375 359.018 131.125C358.15 128.868 356.699 126.859 354.961 125.264C353.24 123.641 351.301 122.368 349.429 121.109C347.572 119.832 345.722 118.573 344.287 116.892C342.825 115.242 341.872 113.154 341.462 110.91C341.508 113.185 342.253 115.498 343.635 117.402C345.001 119.321 346.834 120.821 348.641 122.201C350.449 123.592 352.264 124.911 353.808 126.454C355.343 127.997 356.602 129.769 357.34 131.77C358.084 133.765 358.391 135.922 358.367 138.12C358.372 140.321 358.096 142.551 357.938 144.845C357.869 145.992 357.816 147.161 357.926 148.351C358.03 149.545 358.404 150.737 358.91 151.789C359.969 153.888 361.424 155.699 363.095 157.251Z" fill="#263238"/>
<path d="M305.957 89.165C304.96 91.708 304.64 94.452 304.313 97.143C304.04 99.85 304.559 112.504 304.452 115.208L304.265 119.245C304.2 120.594 304.059 121.862 303.745 123.109C303.134 125.615 301.756 127.814 300.194 130.054C299.439 131.19 298.672 132.372 298.055 133.649C297.436 134.924 296.95 136.271 296.64 137.653C296.372 139.05 296.204 140.417 296.153 141.818C296.094 143.215 296.212 144.642 296.506 146.02C296.794 147.404 297.234 148.71 297.606 149.991C297.983 151.269 298.239 152.581 298.356 153.887C298.632 156.474 297.292 159.086 295.178 160.818C297.537 159.397 299.222 156.744 299.223 153.867C299.224 152.468 299.038 151.089 298.75 149.733C298.469 148.378 298.082 147.083 297.894 145.793C297.488 143.235 297.751 140.556 298.317 138.03C298.643 136.781 299.072 135.567 299.656 134.409C300.232 133.247 300.959 132.146 301.721 131.026C302.47 129.899 303.251 128.741 303.91 127.487C304.566 126.234 305.108 124.894 305.422 123.503C305.729 122.113 305.837 120.678 305.857 119.322C305.898 117.953 305.886 116.597 305.871 115.242C305.856 112.534 305.143 99.895 305.203 97.201C305.23 94.506 305.362 91.811 305.957 89.165Z" fill="#263238"/>
<path d="M329.198 127.93C325.247 143.999 315.675 168.964 307.218 168.83C299.497 168.708 282.274 155.018 275.062 150.533C267.805 146.02 284.029 128.37 288.166 131.231C294.574 135.663 304.167 143.575 305.787 143.056C307.807 142.409 310.376 137.441 321.894 122.791C326.606 116.798 330.88 121.09 329.198 127.93Z" fill="#F7A9A0"/>
<path d="M280.407 124.42C277.006 123.217 273.202 121.566 269.423 121.637C265.644 121.708 262.507 126.697 262.507 128.125C262.507 129.554 263.933 138.464 267.712 138.464C271.491 138.464 269.209 131.619 269.352 130.835C269.494 130.051 269.637 129.047 270.35 129.121C271.063 129.195 283.541 135.113 283.541 135.113L280.407 124.42Z" fill="#F7A9A0"/>
<path d="M280.166 124.941C279.952 124.941 269.827 120.948 266.048 121.019C262.269 121.09 259.132 126.079 259.132 127.507C259.132 128.936 260.558 137.846 264.337 137.846C268.116 137.846 265.834 131.001 265.977 130.217C266.12 129.433 266.262 128.43 266.975 128.503C267.688 128.577 280.166 134.495 280.166 134.495V124.941Z" fill="#F7A9A0"/>
<path d="M265.62 137.367C266.086 136.77 266.166 135.871 266.249 135.134C266.34 134.33 266.273 133.512 266.112 132.721C265.972 132.033 265.678 131.349 265.653 130.643C265.63 129.989 265.867 129.213 266.18 128.645C266.472 128.115 267.027 128.296 267.504 128.465C268.207 128.713 268.892 129.063 269.559 129.394C270.281 129.752 270.996 130.126 271.712 130.497C272.448 130.877 273.224 131.23 273.906 131.703C273.957 131.738 273.923 131.828 273.86 131.806C273.199 131.576 272.575 131.24 271.943 130.944C271.225 130.607 270.505 130.276 269.781 129.953C269.105 129.652 268.444 129.315 267.762 129.026C267.521 128.924 267.04 128.666 266.766 128.728C266.477 128.793 266.335 129.502 266.271 129.732C266.069 130.457 266.202 131.07 266.402 131.774C266.594 132.452 266.738 133.142 266.793 133.845C266.844 134.493 266.822 135.187 266.635 135.814C266.456 136.417 266.046 136.904 265.734 137.439C265.689 137.513 265.567 137.434 265.62 137.367Z" fill="#263238"/>
<path d="M292.154 134.86C292.154 134.86 281.681 125.316 279.501 123.42C275.128 119.617 256.708 112.093 254.142 111.822C251.575 111.55 250.648 116.813 263.15 122.279C269.739 125.16 270.912 128.934 270.786 131.025C270.66 133.117 268.664 137.014 265.146 136.919C261.629 136.824 259.347 131.69 256.115 131.12C252.883 130.549 255.017 136.474 257.299 139.896C259.581 143.319 263.721 146.141 266.763 147.282C269.805 148.423 279.221 152.479 279.221 152.479L292.154 134.86Z" fill="#F7A9A0"/>
<path d="M260.781 134.445C262.105 135.471 263.606 136.8 265.349 136.866C267.151 136.934 268.322 135.764 269.158 134.295C270.002 132.815 270.491 131.126 270.081 129.431C269.712 127.904 268.802 126.555 267.671 125.486C266.271 124.163 264.614 123.179 262.905 122.315C262.829 122.276 262.896 122.165 262.975 122.201C264.594 122.924 269.628 124.986 270.635 129.432C271.046 131.248 270.501 132.869 269.655 134.389C268.876 135.789 267.741 137.14 266.036 137.278C263.957 137.447 262.168 135.757 260.676 134.495C260.611 134.438 260.711 134.391 260.781 134.445Z" fill="#263238"/>
<path d="M326.414 161.158L306.509 142.327C306.509 142.327 311.842 134.548 319.27 125.227C326.469 116.193 331.021 116.554 330.833 132.619C330.646 148.683 326.414 161.158 326.414 161.158Z" fill="#5C60F5"/>
<path d="M309.26 139.415C310.893 140.642 312.354 142.123 313.877 143.481C315.332 144.777 316.788 146.076 318.2 147.42C321.132 150.21 323.996 153.052 326.808 155.963C326.857 156.013 326.779 156.103 326.725 156.056C323.73 153.402 320.775 150.715 317.85 147.983C316.397 146.626 314.977 145.23 313.561 143.834C312.105 142.399 310.524 141.049 309.178 139.508C309.131 139.455 309.202 139.372 309.26 139.415Z" fill="#263238"/>
<path opacity="0.1" d="M330.83 132.621C330.65 148.681 326.41 161.161 326.41 161.161L306.8 142.611L327.5 119.381C329.72 120.071 330.93 124.171 330.83 132.621Z" fill="black"/>
<path d="M309.9 182.184L369.762 183.161C369.762 183.161 354.005 134.406 341.55 121.336C335.883 115.388 330.404 116.354 325.789 120.254C324.638 121.229 310.419 139.613 309.258 145.986C308.232 151.619 312.858 157.818 312.858 157.818L309.9 182.184Z" fill="#5C60F5"/>
<path opacity="0.1" d="M339.47 119.46H326.8C327.33 119.06 327.88 118.71 328.43 118.41H337.91C338.43 118.71 338.95 119.05 339.47 119.46ZM342.61 122.53H323.87C323.61 122.85 323.34 123.2 323.05 123.58H343.45C343.17 123.21 342.89 122.86 342.61 122.53ZM345.63 126.65H320.73C320.47 126.99 320.21 127.35 319.95 127.71H346.31C346.09 127.35 345.86 126.99 345.63 126.65ZM348.15 130.78H317.75C317.51 131.12 317.27 131.47 317.02 131.83H348.74C348.54 131.48 348.35 131.13 348.15 130.78ZM350.39 134.9H314.96C314.73 135.25 314.5 135.6 314.28 135.95H350.93C350.75 135.59 350.57 135.25 350.39 134.9ZM352.45 139.03H312.39C312.18 139.39 311.98 139.74 311.8 140.08H352.96C352.79 139.72 352.62 139.37 352.45 139.03ZM354.38 143.15H310.23C310.07 143.52 309.92 143.87 309.8 144.2H354.86C354.7 143.85 354.54 143.5 354.38 143.15ZM356.23 147.28H309.13C309.1 147.63 309.11 147.98 309.13 148.33H356.68C356.53 147.98 356.38 147.63 356.23 147.28ZM357.98 151.4H309.69C309.79 151.76 309.91 152.11 310.03 152.45H358.42C358.27 152.1 358.13 151.75 357.98 151.4ZM359.67 155.52H311.43C311.64 155.92 311.85 156.27 312.04 156.58H360.09C359.95 156.23 359.81 155.88 359.67 155.52ZM361.3 159.65H312.64L312.51 160.7H361.71C361.58 160.35 361.44 160 361.3 159.65ZM362.88 163.77H312.14L312.01 164.82H363.28C363.16 164.48 363.02 164.12 362.88 163.77ZM364.43 167.9H311.64L311.51 168.95H364.82C364.69 168.61 364.56 168.26 364.43 167.9ZM365.92 172.02H311.13L311.01 173.07H366.3C366.18 172.73 366.06 172.38 365.92 172.02ZM367.39 176.15H310.63L310.51 177.2H367.75C367.63 176.86 367.51 176.51 367.39 176.15ZM368.8 180.27H310.13L310 181.32H369.15C369.05 181.01 368.93 180.66 368.8 180.27Z" fill="#030402"/>
<path d="M321.514 155.33C324.149 155.544 326.798 155.868 329.389 156.554C330.678 156.895 331.947 157.306 333.216 157.751C333.849 157.973 334.483 158.169 335.121 158.361C335.776 158.558 336.478 158.738 337.153 158.735C337.214 158.735 337.217 158.845 337.157 158.85C336.503 158.9 335.876 158.946 335.219 158.89C334.594 158.837 333.969 158.702 333.354 158.547C332.044 158.216 330.746 157.811 329.438 157.464C326.8 156.763 324.163 156.064 321.494 155.596C321.371 155.573 321.39 155.32 321.514 155.33Z" fill="#263238"/>
<path d="M315.15 158.44C317.292 158.08 319.483 157.84 321.651 157.778C322.742 157.747 323.826 157.793 324.917 157.874C325.438 157.913 325.958 157.963 326.477 158.02C327.049 158.083 327.616 158.24 328.188 158.293C328.248 158.299 328.253 158.411 328.192 158.407C327.652 158.376 327.107 158.454 326.566 158.462C326.023 158.47 325.48 158.472 324.937 158.479C323.85 158.493 322.764 158.523 321.676 158.525C319.499 158.529 317.332 158.56 315.157 158.656C315.04 158.663 315.04 158.459 315.15 158.44Z" fill="#263238"/>
<path d="M334.793 118.986C334.752 120.068 331.116 127.748 326.341 128.445C324.785 128.669 323.182 120.234 323.182 120.234L322.921 119.638L319.278 111.297L328.244 102.736L329.555 101.579C329.555 101.579 330.401 103.927 331.426 106.861C331.474 106.997 331.523 107.133 331.572 107.279C331.634 107.443 331.695 107.598 331.746 107.754C331.905 108.19 332.065 108.636 332.215 109.084C332.331 109.424 332.445 109.755 332.553 110.117C332.671 110.477 332.778 110.829 332.897 111.189C333.985 114.764 334.804 118.527 334.793 118.986Z" fill="#F7A9A0"/>
<path d="M331.425 106.86C330.275 114.285 325.28 118.191 322.92 119.638L319.277 111.297L328.243 102.736L329.554 101.579C329.554 101.579 330.401 103.926 331.425 106.86Z" fill="#263238"/>
<path d="M305.48 100.6C308.612 116.264 318.348 116.157 321.725 115.478C324.791 114.861 335.151 112.373 333.654 96.4686C332.157 80.5646 323.884 77.0686 316.798 78.1076C309.712 79.1466 302.348 84.9356 305.48 100.6Z" fill="#F7A9A0"/>
<path d="M307.149 97.4538C307.505 97.3298 307.814 97.1558 308.153 96.9968C308.536 96.8168 308.86 96.7138 309.088 96.3348C309.21 96.1318 309.122 95.7948 308.936 95.6578C308.503 95.3378 307.979 95.4418 307.508 95.6388C306.998 95.8528 306.659 96.1488 306.399 96.6358C306.148 97.1088 306.679 97.6178 307.149 97.4538Z" fill="#263238"/>
<path d="M317.833 95.0356C317.458 95.0746 317.105 95.0476 316.73 95.0486C316.307 95.0486 315.97 95.0926 315.602 94.8476C315.405 94.7156 315.342 94.3736 315.452 94.1706C315.708 93.6976 316.226 93.5676 316.736 93.5466C317.289 93.5236 317.721 93.6476 318.164 93.9786C318.593 94.2986 318.328 94.9846 317.833 95.0356Z" fill="#263238"/>
<path d="M316.216 99.4136C316.216 99.3716 316.309 99.4476 316.317 99.4916C316.495 100.565 316.88 101.765 317.915 101.927C317.947 101.932 317.955 101.987 317.918 101.988C316.707 102.057 316.212 100.46 316.216 99.4136Z" fill="#263238"/>
<path d="M316.947 98.1109C318.637 97.6399 319.455 101.055 317.889 101.491C316.348 101.92 315.531 98.5059 316.947 98.1109Z" fill="#263238"/>
<path d="M317.661 98.1307C318.006 98.2527 318.379 98.5237 318.747 98.4727C319.173 98.4137 319.401 97.9817 319.591 97.5727C319.611 97.5297 319.647 97.5527 319.659 97.5977C319.825 98.2497 319.735 98.9817 319.056 99.2467C318.437 99.4887 317.839 99.0197 317.518 98.4007C317.459 98.2867 317.522 98.0807 317.661 98.1307Z" fill="#263238"/>
<path d="M310.283 100.598C310.265 100.56 310.213 100.668 310.225 100.711C310.52 101.758 310.682 103.008 309.813 103.595C309.786 103.613 309.802 103.666 309.836 103.652C310.961 103.2 310.73 101.544 310.283 100.598Z" fill="#263238"/>
<path d="M309.067 99.7292C307.337 100.021 308.047 103.459 309.65 103.189C311.227 102.923 310.517 99.4852 309.067 99.7292Z" fill="#263238"/>
<path d="M308.396 100.104C308.162 100.342 307.962 100.729 307.641 100.818C307.27 100.921 306.915 100.606 306.601 100.299C306.568 100.267 306.547 100.302 306.555 100.347C306.673 101.008 307.032 101.648 307.689 101.643C308.289 101.639 308.595 100.988 308.616 100.301C308.622 100.173 308.491 100.008 308.396 100.104Z" fill="#263238"/>
<path d="M318.417 108.068C318.237 108.385 318.085 108.794 317.714 108.935C317.359 109.07 316.885 109.029 316.515 108.996C316.479 108.993 316.455 109.037 316.485 109.063C316.872 109.386 317.515 109.473 317.975 109.249C318.424 109.03 318.54 108.554 318.53 108.088C318.53 108.021 318.443 108.022 318.417 108.068Z" fill="#263238"/>
<path d="M313.112 105.241C313.112 105.241 313.253 106.875 313.422 107.622C313.438 107.692 313.627 107.684 313.884 107.641C313.897 107.642 313.905 107.645 313.913 107.635C315.279 107.541 316.504 106.784 317.062 105.525C317.097 105.44 316.985 105.385 316.927 105.447C316.106 106.394 315.06 106.828 313.894 107.113C313.794 106.918 313.746 104.307 313.626 104.325C313.209 104.383 312.468 104.844 312.016 105.095C311.624 101.7 311.779 98.27 311.338 94.895C311.32 94.775 311.143 94.778 311.132 94.891C310.715 98.475 311.08 102.391 311.395 105.908C311.43 106.346 312.841 105.436 313.112 105.241Z" fill="#263238"/>
<path d="M313.911 107.258C313.911 107.258 314.804 108.145 315.874 108.351C316.268 108.428 316.679 108.42 317.084 108.243C317.916 107.883 317.816 107.085 317.554 106.428C317.34 105.888 317.007 105.446 317.007 105.446C317.007 105.446 315.921 106.823 313.911 107.258Z" fill="#263238"/>
<path d="M315.874 108.352C316.268 108.429 316.679 108.421 317.084 108.244C317.916 107.884 317.816 107.086 317.554 106.429C316.639 106.666 315.815 107.437 315.874 108.352Z" fill="#FF9BBC"/>
<path d="M332.734 97.9128C331.003 98.0898 325.772 94.0988 324.289 85.8428C324.289 85.8428 326.134 93.1648 326.87 94.1628C327.606 95.1608 323.943 91.9148 322.653 85.2718C322.653 85.2718 319.389 88.5418 316.38 89.9388C313.371 91.3348 311.437 91.6198 311.174 91.4278C310.912 91.2358 315.313 89.0198 316.333 87.3688C316.333 87.3688 308.58 92.6318 304.762 93.5558C304.32 93.6628 303.767 84.8738 309.109 79.9998C314.45 75.1248 323.128 77.4788 326.073 79.5228C326.073 79.5228 329.132 79.4618 333.1 83.3548C337.068 87.2478 334.598 97.7228 332.734 97.9128Z" fill="#263238"/>
<path d="M334.838 102.238C334.612 102.408 334.395 102.534 334.181 102.629C333.933 102.753 333.692 102.823 333.464 102.859C333.109 102.927 332.783 102.904 332.497 102.831C332.234 102.772 331.992 102.667 331.787 102.553C331.258 102.251 330.954 101.862 330.954 101.862L330.607 97.518C330.607 97.518 332.562 91.754 335.077 92.317C337.602 92.876 337.113 100.547 334.838 102.238Z" fill="#F7A9A0"/>
<path d="M334.884 94.5068C334.924 94.4908 334.949 94.5458 334.917 94.5708C333.34 95.8168 332.883 97.7488 332.725 99.6608C333.064 98.8438 333.682 98.2698 334.753 98.6448C334.809 98.6638 334.786 98.7498 334.733 98.7548C333.955 98.8118 333.464 99.0928 333.14 99.8238C332.911 100.342 332.825 100.937 332.713 101.489C332.676 101.673 332.362 101.672 332.37 101.47C332.371 101.455 332.372 101.439 332.373 101.424C331.663 99.1578 332.504 95.4508 334.884 94.5068Z" fill="#263238"/>
<path d="M334.436 101.655C334.47 102.062 334.169 102.42 333.761 102.455C333.354 102.49 332.996 102.188 332.961 101.78C332.926 101.373 333.228 101.015 333.636 100.98C334.043 100.946 334.401 101.248 334.436 101.655Z" fill="white"/>
<path d="M335.583 100.157C335.608 100.445 335.394 100.698 335.106 100.722C334.818 100.747 334.565 100.533 334.54 100.245C334.515 99.9566 334.729 99.7036 335.017 99.6786C335.305 99.6546 335.559 99.8686 335.583 100.157Z" fill="white"/>
<path d="M343.438 135.003C340.647 151.384 330.607 183.137 321.648 186.021C311.276 189.36 273.191 177.252 266.125 172.077C263.313 170.017 278.337 151.285 281.868 152.479C295.476 157.082 310.287 160.587 311.35 160.043C314.471 158.447 324.442 140.611 332.13 130.098C341.789 116.889 344.69 127.652 343.438 135.003Z" fill="#F7A9A0"/>
<path d="M267.052 172.569C265.45 171.998 254.419 163.992 251.168 160.234C249.094 157.837 245.523 153.69 242.689 147.087C239.418 139.466 237.879 133.889 238.667 131.39C239.582 128.488 239.843 128.016 247.469 140.665C251.784 147.821 255.897 148.626 259.465 148.559C274.091 148.283 284.801 154.225 284.801 154.225C284.801 154.225 273.211 174.765 267.052 172.569Z" fill="#F7A9A0"/>
<path d="M247.378 116.526L269.399 139.397C270.006 140.028 269.9 140.808 269.159 141.136L255.911 147.011C255.171 147.339 254.077 147.092 253.469 146.461L231.448 123.59C230.838 122.957 230.946 122.179 231.686 121.851L244.934 115.976C245.674 115.648 246.768 115.893 247.378 116.526Z" fill="#37474F"/>
<path d="M245.776 115.603L232.528 121.478C231.788 121.806 231.681 122.584 232.29 123.217L254.31 146.088C254.918 146.72 256.013 146.967 256.752 146.639L270 140.764C270.741 140.436 270.848 139.656 270.239 139.024L248.219 116.153C247.61 115.52 246.516 115.275 245.776 115.603ZM268.721 138.688C269.301 139.29 269.232 140.015 268.569 140.309L256.717 145.565C256.052 145.86 255.046 145.611 254.466 145.009L233.961 123.712C232.78 122.486 233.26 122.188 233.925 121.893L236.299 120.84C236.437 120.779 236.676 120.86 236.833 121.023L236.901 121.093C237.269 121.475 237.519 121.366 237.825 121.23L243.316 118.795C243.625 118.658 243.87 118.547 243.503 118.165L243.435 118.095C243.278 117.932 243.263 117.751 243.403 117.689L245.778 116.636C246.441 116.342 247.135 116.267 248.217 117.39L268.721 138.688Z" fill="#263238"/>
<path d="M240.86 119.204L239.362 119.868C239.311 119.891 239.236 119.874 239.195 119.832C239.154 119.789 239.162 119.736 239.213 119.713L240.711 119.049C240.762 119.026 240.837 119.043 240.878 119.086C240.919 119.128 240.911 119.181 240.86 119.204Z" fill="white"/>
<path d="M248.217 117.39L268.722 138.687C269.302 139.289 269.233 140.014 268.57 140.308L256.718 145.564C256.053 145.859 255.047 145.61 254.467 145.008L233.962 123.711C232.781 122.485 233.261 122.187 233.926 121.892L236.3 120.839C236.438 120.778 236.677 120.859 236.834 121.022L236.902 121.092C237.27 121.474 237.52 121.365 237.826 121.229L243.316 118.794C243.625 118.657 243.87 118.546 243.503 118.164L243.435 118.094C243.278 117.931 243.263 117.75 243.403 117.688L245.778 116.635C246.441 116.342 247.135 116.267 248.217 117.39Z" fill="white"/>
<path d="M248.216 117.39L249.746 118.979L235.491 125.3L233.961 123.711C232.78 122.485 233.26 122.187 233.925 121.892L236.3 120.839C236.438 120.778 236.677 120.859 236.834 121.022L236.902 121.092C237.27 121.474 237.52 121.365 237.826 121.229L243.316 118.794C243.625 118.657 243.871 118.546 243.504 118.164L243.436 118.094C243.279 117.931 243.264 117.75 243.404 117.688L245.778 116.635C246.44 116.343 247.135 116.267 248.216 117.39Z" fill="#5C60F5"/>
<path d="M236.187 123.886L235.448 123.742L235.55 123.224L235.672 123.254L235.587 123.68L236.196 123.799L236.187 123.886Z" fill="white"/>
<path d="M247.528 118.19C247.565 118.228 247.558 118.276 247.512 118.296C247.466 118.316 247.399 118.302 247.362 118.263C247.325 118.225 247.332 118.177 247.378 118.157C247.424 118.137 247.492 118.151 247.528 118.19Z" fill="white"/>
<path d="M247.766 118.437C247.803 118.475 247.796 118.523 247.75 118.543C247.704 118.563 247.637 118.549 247.6 118.51C247.563 118.472 247.57 118.424 247.616 118.404C247.662 118.384 247.729 118.398 247.766 118.437Z" fill="white"/>
<path d="M248.004 118.683C248.041 118.721 248.034 118.769 247.988 118.789C247.942 118.809 247.875 118.795 247.838 118.756C247.801 118.718 247.808 118.67 247.854 118.65C247.9 118.63 247.967 118.645 248.004 118.683Z" fill="white"/>
<path d="M236.35 121.501C236.348 121.511 236.347 121.521 236.345 121.53C236.344 121.536 236.343 121.541 236.343 121.547C236.233 121.524 236.134 121.53 236.048 121.568C235.962 121.606 235.914 121.665 235.901 121.743C235.893 121.741 235.886 121.739 235.878 121.738C235.864 121.735 235.851 121.732 235.837 121.729H235.836C235.836 121.728 235.836 121.728 235.836 121.727C235.839 121.715 235.841 121.704 235.844 121.693C235.851 121.67 235.862 121.648 235.877 121.627C235.894 121.603 235.915 121.581 235.942 121.563C235.955 121.554 235.968 121.546 235.982 121.538C235.987 121.535 236.019 121.521 236.02 121.52C236.031 121.516 236.041 121.512 236.052 121.508C236.082 121.498 236.115 121.492 236.149 121.488C236.174 121.485 236.199 121.484 236.225 121.485C236.252 121.486 236.28 121.488 236.307 121.492C236.322 121.495 236.336 121.498 236.35 121.501Z" fill="white"/>
<path d="M236.032 121.771C236.01 121.766 235.989 121.762 235.967 121.757C235.976 121.705 236.004 121.661 236.055 121.63C236.131 121.582 236.226 121.571 236.336 121.593C236.334 121.609 236.331 121.624 236.329 121.64C236.256 121.625 236.189 121.629 236.131 121.654C236.073 121.679 236.041 121.719 236.032 121.771Z" fill="white"/>
<path d="M236.321 121.686C236.319 121.701 236.316 121.717 236.314 121.732C236.277 121.724 236.242 121.726 236.213 121.739C236.183 121.752 236.167 121.773 236.163 121.799C236.141 121.794 236.119 121.79 236.098 121.785C236.106 121.71 236.206 121.66 236.321 121.686Z" fill="white"/>
<path d="M236.298 121.778C236.312 121.793 236.31 121.812 236.292 121.82C236.274 121.828 236.248 121.822 236.233 121.807C236.218 121.792 236.221 121.773 236.239 121.765C236.257 121.757 236.283 121.763 236.298 121.778Z" fill="white"/>
<path d="M234.169 122.551C234.127 122.507 234.135 122.453 234.187 122.43C234.239 122.407 234.316 122.424 234.358 122.467C234.4 122.511 234.392 122.565 234.34 122.588C234.288 122.611 234.211 122.595 234.169 122.551Z" fill="white"/>
<path d="M234.467 122.419C234.425 122.375 234.433 122.321 234.485 122.298C234.537 122.275 234.614 122.291 234.656 122.335C234.698 122.379 234.69 122.433 234.638 122.456C234.586 122.479 234.509 122.463 234.467 122.419Z" fill="white"/>
<path d="M234.764 122.287C234.722 122.243 234.73 122.189 234.782 122.166C234.834 122.143 234.911 122.16 234.953 122.203C234.995 122.247 234.987 122.301 234.935 122.324C234.883 122.347 234.806 122.331 234.764 122.287Z" fill="white"/>
<path d="M235.062 122.155C235.02 122.111 235.028 122.057 235.08 122.034C235.132 122.011 235.209 122.027 235.251 122.071C235.293 122.115 235.285 122.169 235.233 122.192C235.18 122.215 235.104 122.199 235.062 122.155Z" fill="white"/>
<path d="M235.359 122.023C235.317 121.979 235.325 121.925 235.377 121.902C235.429 121.879 235.506 121.896 235.548 121.939C235.59 121.983 235.582 122.037 235.53 122.06C235.478 122.083 235.401 122.067 235.359 122.023Z" fill="white"/>
<path d="M246.3 117.015L245.57 117.339L245.826 117.605L246.556 117.281L246.3 117.015Z" stroke="white" stroke-width="0.5" stroke-miterlimit="10"/>
<path d="M246.143 117.134L245.648 117.354L245.838 117.551L246.333 117.331L246.143 117.134Z" fill="white"/>
<path d="M246.594 117.188L246.525 117.218L246.371 117.058L246.44 117.028L246.594 117.188Z" fill="white"/>
<path d="M256.427 143.835L256.319 143.883L256.721 144.301L256.518 144.39L256.314 144.178L255.955 144.337L256.16 144.549L255.957 144.639L255.555 144.222L255.447 144.27L255.528 143.628L256.427 143.835Z" fill="#EBEBEB"/>
<path d="M267.059 138.717L265.878 139.24L265.741 139.099L266.923 138.575L267.059 138.717Z" fill="#EBEBEB"/>
<path d="M267.396 139.067L266.215 139.591L266.078 139.449L267.26 138.925L267.396 139.067Z" fill="#EBEBEB"/>
<path d="M267.734 139.417L266.552 139.941L266.416 139.799L267.597 139.275L267.734 139.417Z" fill="#EBEBEB"/>
<path d="M261.667 141.426L261.621 141.876L260.995 141.724L261.01 141.651L261.525 141.776L261.563 141.406L261.667 141.426Z" fill="#EBEBEB"/>
<path d="M261.997 141.422C262.251 141.686 262.202 142.013 261.887 142.153C261.572 142.293 261.111 142.192 260.857 141.928C260.603 141.664 260.652 141.337 260.967 141.197C261.282 141.057 261.743 141.158 261.997 141.422Z" stroke="#EBEBEB" stroke-miterlimit="10"/>
<path d="M240.369 121.716C240.203 121.542 240.24 121.323 240.449 121.229C240.541 121.188 240.65 121.176 240.757 121.19C240.799 121.196 240.833 121.225 240.835 121.256C240.835 121.287 240.8 121.308 240.76 121.303C240.683 121.292 240.61 121.301 240.545 121.329C240.473 121.361 240.429 121.415 240.417 121.476C240.409 121.537 240.43 121.603 240.488 121.663C240.546 121.723 240.627 121.764 240.712 121.782C240.799 121.799 240.889 121.794 240.962 121.762C241.027 121.733 241.067 121.691 241.084 121.639C241.094 121.613 241.136 121.6 241.177 121.612C241.217 121.626 241.243 121.659 241.234 121.687C241.209 121.759 241.15 121.822 241.058 121.863C240.849 121.955 240.538 121.891 240.369 121.716Z" fill="white"/>
<path d="M241.468 121.612L240.969 121.093C240.943 121.066 240.948 121.033 240.98 121.019C241.013 121.004 241.059 121.014 241.085 121.041L241.288 121.252L241.559 121.132L241.356 120.921C241.33 120.894 241.335 120.862 241.367 120.847C241.4 120.833 241.446 120.842 241.472 120.869L241.971 121.388C241.997 121.415 241.991 121.448 241.959 121.462C241.926 121.476 241.881 121.467 241.855 121.439L241.652 121.228L241.381 121.348L241.584 121.559C241.61 121.586 241.604 121.619 241.572 121.633C241.54 121.649 241.494 121.639 241.468 121.612Z" fill="white"/>
<path d="M242.424 121.05L242.169 121.163L242.228 121.3C242.237 121.324 242.226 121.345 242.203 121.355C242.196 121.358 242.189 121.36 242.181 121.361C242.141 121.365 242.1 121.343 242.086 121.313L241.819 120.693C241.81 120.67 241.821 120.647 241.845 120.638C241.868 120.626 241.902 120.629 241.93 120.644L242.66 121.059C242.695 121.08 242.707 121.115 242.686 121.138C242.682 121.142 242.676 121.146 242.669 121.15C242.646 121.16 242.613 121.159 242.586 121.143L242.424 121.05ZM242.288 120.972L242.021 120.821L242.118 121.048L242.288 120.972Z" fill="white"/>
<path d="M242.713 120.39L242.546 120.464L242.998 120.933C243.024 120.96 243.019 120.993 242.987 121.007C242.955 121.021 242.909 121.011 242.883 120.984L242.431 120.515L242.265 120.588C242.232 120.602 242.185 120.591 242.16 120.564C242.134 120.537 242.139 120.505 242.171 120.49L242.619 120.292C242.65 120.278 242.697 120.288 242.723 120.315C242.748 120.341 242.744 120.376 242.713 120.39Z" fill="white"/>
<path d="M245.61 133.5L255.805 128.98L253.22 126.295L243.025 130.816L245.61 133.5Z" fill="#455A64"/>
<path d="M256.749 128.561L255.805 128.98L255.011 128.155L256.749 128.561Z" fill="#455A64"/>
<path d="M253.132 127.069L244.105 131.072L244.056 131.021L253.083 127.018L253.132 127.069Z" fill="white"/>
<path d="M251.524 128.175L244.37 131.348L244.321 131.297L251.474 128.124L251.524 128.175Z" fill="white"/>
<path d="M253.186 128.225L244.901 131.898L244.852 131.848L253.136 128.174L253.186 128.225Z" fill="white"/>
<path d="M254.193 128.17L245.166 132.173L245.117 132.122L254.144 128.119L254.193 128.17Z" fill="white"/>
<path d="M254.458 128.447L245.431 132.449L245.382 132.398L254.409 128.395L254.458 128.447Z" fill="white"/>
<path d="M252.223 129.83L245.696 132.724L245.647 132.673L252.174 129.779L252.223 129.83Z" fill="white"/>
<path d="M251.714 139.841L261.909 135.32L259.324 132.636L249.129 137.157L251.714 139.841Z" fill="#455A64"/>
<path d="M262.853 134.902L261.909 135.32L261.115 134.496L262.853 134.902Z" fill="#455A64"/>
<path d="M259.236 133.409L250.209 137.412L250.16 137.361L259.187 133.358L259.236 133.409Z" fill="white"/>
<path d="M257.628 134.516L250.474 137.688L250.425 137.637L257.579 134.465L257.628 134.516Z" fill="white"/>
<path d="M259.289 134.565L251.005 138.239L250.956 138.188L259.24 134.515L259.289 134.565Z" fill="white"/>
<path d="M260.297 134.511L251.27 138.514L251.221 138.463L260.248 134.46L260.297 134.511Z" fill="white"/>
<path d="M260.562 134.786L251.535 138.789L251.486 138.738L260.513 134.735L260.562 134.786Z" fill="white"/>
<path d="M258.327 136.171L251.8 139.065L251.751 139.014L258.278 136.12L258.327 136.171Z" fill="white"/>
<path d="M251.599 123.212L241.404 127.733L239.223 125.468L249.418 120.947L251.599 123.212Z" fill="#5C60F5"/>
<path d="M240.46 128.152L241.404 127.733L240.61 126.909L240.46 128.152Z" fill="#5C60F5"/>
<path d="M247.789 122.339L240.271 125.673L240.222 125.622L247.74 122.288L247.789 122.339Z" fill="white"/>
<path d="M249.563 121.947L240.536 125.95L240.487 125.899L249.514 121.896L249.563 121.947Z" fill="white"/>
<path d="M249.828 122.222L240.801 126.225L240.752 126.174L249.779 122.171L249.828 122.222Z" fill="white"/>
<path d="M249.379 122.815L241.067 126.501L241.017 126.45L249.33 122.764L249.379 122.815Z" fill="white"/>
<path d="M250.359 122.773L241.332 126.776L241.283 126.725L250.31 122.722L250.359 122.773Z" fill="white"/>
<path d="M248.267 124.094L241.597 127.052L241.548 127.001L248.218 124.043L248.267 124.094Z" fill="white"/>
<path d="M253.569 125.259L243.374 129.779L241.757 128.1L251.952 123.579L253.569 125.259Z" fill="#5C60F5"/>
<path d="M242.43 130.198L243.374 129.779L242.581 128.955L242.43 130.198Z" fill="#5C60F5"/>
<path d="M251.815 124.309L242.805 128.305L242.755 128.254L251.766 124.258L251.815 124.309Z" fill="white"/>
<path d="M250.486 125.291L243.07 128.58L243.021 128.529L250.437 125.24L250.486 125.291Z" fill="white"/>
<path d="M251.497 125.237L243.335 128.856L243.286 128.805L251.447 125.186L251.497 125.237Z" fill="white"/>
<path d="M249.896 126.339L243.6 129.131L243.551 129.08L249.847 126.288L249.896 126.339Z" fill="white"/>
<path d="M259.661 131.587L249.466 136.108L247.187 133.74L257.382 129.219L259.661 131.587Z" fill="#DBDBDB"/>
<path d="M248.522 136.526L249.466 136.108L248.673 135.283L248.522 136.526Z" fill="#DBDBDB"/>
<path d="M257.547 130.983L249.022 134.763L248.973 134.712L257.498 130.932L257.547 130.983Z" fill="white"/>
<path d="M257.118 131.566L249.287 135.039L249.238 134.987L257.069 131.515L257.118 131.566Z" fill="white"/>
<path d="M256.525 130.65L248.491 134.212L248.442 134.161L256.475 130.599L256.525 130.65Z" fill="white"/>
<path d="M257.141 129.983L248.226 133.937L248.177 133.886L257.092 129.933L257.141 129.983Z" fill="white"/>
<path d="M257.661 131.718L249.552 135.314L249.503 135.263L257.612 131.667L257.661 131.718Z" fill="white"/>
<path d="M265.424 137.572L255.229 142.093L253.331 140.121L263.526 135.6L265.424 137.572Z" fill="#5C60F5"/>
<path d="M254.285 142.512L255.229 142.093L254.435 141.269L254.285 142.512Z" fill="#5C60F5"/>
<path d="M263.388 136.306L254.361 140.309L254.312 140.258L263.339 136.255L263.388 136.306Z" fill="white"/>
<path d="M263.653 136.581L254.626 140.584L254.577 140.533L263.604 136.53L263.653 136.581Z" fill="white"/>
<path d="M263.204 137.174L254.892 140.86L254.842 140.809L263.155 137.123L263.204 137.174Z" fill="white"/>
<path d="M264.184 137.132L255.157 141.135L255.108 141.084L264.135 137.081L264.184 137.132Z" fill="white"/>
<path d="M262.092 138.453L255.422 141.411L255.373 141.36L262.043 138.402L262.092 138.453Z" fill="white"/>
<path d="M257.683 148.498C261.368 148.553 249.39 141.078 249.208 136.885C249.026 132.691 253.113 134.01 256.335 136.378C267.519 144.596 275.959 144.195 281.63 152.049C287.301 159.903 257.683 148.498 257.683 148.498Z" fill="#F7A9A0"/>
<path d="M266.416 142.353C267.965 142.857 269.489 143.434 271.002 144.044C272.516 144.654 274.008 145.32 275.449 146.122C276.928 146.888 278.19 148.037 279.37 149.152C280.543 150.305 281.645 151.51 282.706 152.774L282.482 152.624L290.099 154.781C292.634 155.513 295.174 156.231 297.719 156.923C300.266 157.607 302.8 158.345 305.361 158.968C306.642 159.274 307.921 159.591 309.211 159.825C309.849 159.915 310.523 160.076 311.112 159.902C311.706 159.675 312.261 159.289 312.771 158.876C312.301 159.338 311.809 159.796 311.184 160.086C310.507 160.339 309.821 160.202 309.164 160.162C307.839 160.021 306.533 159.791 305.236 159.526C302.643 158.991 300.058 158.423 297.498 157.76C294.937 157.102 292.383 156.42 289.834 155.722C287.283 155.03 284.757 154.253 282.223 153.497L282.088 153.457L281.999 153.348C280.987 152.105 279.904 150.894 278.778 149.747C277.645 148.587 276.522 147.466 275.13 146.669C273.762 145.827 272.3 145.116 270.849 144.391C269.389 143.676 267.904 143.015 266.416 142.353Z" fill="#263238"/>
<path d="M340.676 164.724L320.771 145.893C320.771 145.893 325.22 137.843 332.32 128.27C339.419 118.697 345.283 120.121 345.095 136.185C344.908 152.249 340.676 164.724 340.676 164.724Z" fill="#5C60F5"/>
<path d="M323.522 142.981C325.155 144.208 326.616 145.689 328.139 147.047C329.594 148.343 331.05 149.642 332.462 150.986C335.394 153.776 338.258 156.619 341.07 159.529C341.119 159.579 341.041 159.669 340.987 159.622C337.992 156.968 335.037 154.281 332.112 151.549C330.659 150.192 329.239 148.796 327.823 147.4C326.367 145.965 324.786 144.615 323.44 143.074C323.393 143.02 323.464 142.937 323.522 142.981Z" fill="#263238"/>
<path d="M321.878 143.289C322.373 142.42 322.894 141.57 323.43 140.725C323.54 140.551 323.652 140.378 323.762 140.204C324.2 139.035 324.646 137.864 325.205 136.746C325.224 136.707 325.284 136.726 325.27 136.769C324.98 137.683 324.618 138.574 324.239 139.455C325.067 138.17 325.925 136.899 326.877 135.706C326.908 135.667 326.962 135.706 326.939 135.749C325.983 137.507 324.902 139.198 323.883 140.919C323.39 141.752 320.863 145.797 320.9 145.841C320.9 145.841 321.403 146.336 321.472 146.474C321.548 146.627 321.46 146.574 321.412 146.534C321.373 146.501 320.417 145.817 320.417 145.817C320.425 145.783 321.456 144.031 321.878 143.289Z" fill="#263238"/>
<path d="M336.035 160.334C337.675 161.7 339.275 163.107 340.858 164.532L340.426 164.635C341.465 161.122 342.182 157.482 342.929 153.87L345.016 142.969C344.879 144.818 344.698 146.664 344.455 148.501C344.224 150.341 343.947 152.174 343.607 153.998C343.288 155.825 342.928 157.647 342.475 159.448C342.026 161.252 341.584 163.05 340.925 164.814L340.78 165.202L340.493 164.917C338.983 163.416 337.49 161.896 336.035 160.334Z" fill="#263238"/>
<path d="M345.502 145.748C345.444 146.505 345.228 147.212 344.968 147.901C344.688 148.581 344.359 149.251 343.864 149.828C344.005 149.084 344.242 148.4 344.503 147.717C344.779 147.042 345.076 146.376 345.502 145.748Z" fill="#263238"/>
<path d="M423.559 438.16C420.981 439.152 346.085 440.512 343.154 438.837C342.834 438.65 342.923 435.344 341.821 426.793C341.766 426.385 340.058 424.799 337.391 422.562C327.375 414.166 303.839 396.469 303.839 396.469L341.215 363.996L377.434 399.598L386.855 408.854C386.855 408.854 417.455 425.377 420.485 427.559C423.493 429.752 426.137 437.168 423.559 438.16Z" fill="#AD6359"/>
<path d="M423.558 438.156C420.977 439.155 346.082 440.51 343.154 438.839C342.837 438.651 342.927 435.347 341.819 426.792C341.77 426.386 340.058 424.804 337.388 422.559C333.906 419.641 332.253 418.309 327.07 414.273L374.588 396.803L377.437 399.602L386.853 408.86C386.853 408.86 417.456 425.378 420.482 427.564C423.489 429.749 426.14 437.167 423.558 438.156Z" fill="#EBEBEB"/>
<path d="M428.72 439.192C426.118 440.096 346.32 440.97 343.448 439.201C342.773 438.786 342.154 434.151 341.659 427.802C341.597 427.006 333.514 420.545 332.408 419.349L381.307 402.879L387.482 408.69C387.482 408.69 423.468 425.435 426.41 427.712C429.335 429.991 431.321 438.288 428.72 439.192Z" fill="#5C60F5"/>
<path d="M427.612 436.214C415.075 436.053 359.464 436.585 347.059 437.379C346.958 437.385 346.959 437.454 347.06 437.458C359.482 437.889 415.087 436.947 427.614 436.42C427.879 436.408 427.877 436.217 427.612 436.214Z" fill="#263238"/>
<path d="M391.469 409.217C386.526 408.355 380.503 409.182 376.775 412.74C376.63 412.878 376.828 413.081 376.988 413.029C381.836 411.439 386.369 410.401 391.456 409.841C391.815 409.801 391.823 409.28 391.469 409.217Z" fill="#263238"/>
<path d="M395.054 411.321C390.111 410.458 384.089 411.286 380.361 414.844C380.216 414.982 380.415 415.185 380.574 415.133C385.422 413.542 389.954 412.505 395.042 411.944C395.401 411.906 395.408 411.384 395.054 411.321Z" fill="#263238"/>
<path d="M398.639 413.425C393.696 412.562 387.673 413.39 383.945 416.948C383.8 417.086 383.998 417.289 384.158 417.237C389.006 415.647 393.538 414.609 398.627 414.049C398.986 414.009 398.993 413.487 398.639 413.425Z" fill="#263238"/>
<path d="M402.224 415.529C397.281 414.666 391.258 415.494 387.53 419.052C387.385 419.19 387.583 419.393 387.743 419.341C392.591 417.751 397.123 416.713 402.211 416.153C402.571 416.113 402.578 415.591 402.224 415.529Z" fill="#263238"/>
<path d="M400.445 397.706C398.476 395.059 394.881 396.302 392.843 398.056C389.541 400.897 386.674 405.307 385.379 409.442C385.347 409.544 385.416 409.605 385.497 409.619C385.516 409.994 385.857 410.387 386.278 410.226C390.333 408.67 394.86 407.51 398.317 404.756C400.335 403.148 402.308 400.209 400.445 397.706ZM391.943 406.61C389.967 407.424 387.964 408.135 386.018 409.022C387.48 406.805 388.839 404.536 390.523 402.468C391.327 401.481 392.171 400.482 393.104 399.613C394.555 398.261 400.331 395.351 399.525 400.773C399.082 403.762 394.298 405.64 391.943 406.61Z" fill="#263238"/>
<path d="M372.828 408.301C376.913 409.986 381.586 409.844 385.913 410.212C386.362 410.25 386.58 409.777 386.494 409.412C386.568 409.376 386.618 409.299 386.559 409.21C384.166 405.597 380.187 402.156 376.227 400.344C373.781 399.225 369.983 399.03 368.826 402.119C367.731 405.042 370.443 407.317 372.828 408.301ZM370.56 404.81C368.28 399.826 374.637 401.016 376.407 401.913C377.544 402.489 378.633 403.213 379.679 403.938C381.872 405.457 383.807 407.259 385.828 408.983C383.713 408.672 381.591 408.544 379.466 408.311C376.935 408.034 371.818 407.558 370.56 404.81Z" fill="#263238"/>
<path d="M377.95 397.612L331.749 421.552C331.749 421.552 283.619 377.983 279.211 377.662C274.929 377.35 210.049 421.274 177.453 421.41C143.69 421.552 141.982 386.178 141.982 386.178L191.233 374.868C226.736 357.37 263.717 325.944 287.904 328.875C314.172 332.06 377.95 397.612 377.95 397.612Z" fill="#263238"/>
<path d="M366.664 391.515C358.865 395.37 361.052 394.159 353.294 398.096C349.498 400.023 330.394 409.662 327.152 412.049C327.08 412.102 327.145 412.227 327.23 412.198C331.048 410.92 349.939 400.87 353.699 398.874C361.383 394.796 359.135 395.887 366.775 391.728C366.918 391.651 366.811 391.443 366.664 391.515Z" fill="#37474F"/>
<path d="M323.567 410.515C314.535 402.55 284.941 376.623 283.74 375.66C282.774 374.884 281.796 373.874 280.659 373.349C279.689 372.901 278.735 373.147 277.809 373.579C276.441 374.217 275.101 374.918 273.744 375.58C271.075 376.883 268.406 378.186 265.736 379.489C255.386 384.541 245.094 389.725 234.663 394.611C224.633 399.309 217.472 403.732 206.996 407.344C196.577 410.937 185.81 413.671 174.859 415.006C173.509 415.171 172.156 415.313 170.802 415.439C170.704 415.448 170.705 415.598 170.806 415.593C181.565 415.07 192.156 412.87 202.435 409.71C212.814 406.519 219.856 402.377 229.712 397.842C239.927 393.141 249.995 388.112 260.065 383.108C265.381 380.466 270.686 377.799 276.017 375.187C277.226 374.595 278.947 373.312 280.328 373.947C280.924 374.221 281.423 374.706 281.922 375.121C282.513 375.613 283.104 376.104 283.695 376.596C285.98 378.497 322.255 409.742 323.445 410.643C323.533 410.711 323.655 410.593 323.567 410.515Z" fill="#37474F"/>
<path d="M141.885 386.179C141.885 386.179 136.361 418.119 152.333 430.669C168.305 443.219 285.315 441.704 303.069 435.966C320.823 430.228 321.378 401.579 301.97 394.94C283.511 388.626 204.974 385.557 203.036 384.784C202.551 384.591 210.001 380.124 209.969 379.852L192.099 374.392L141.885 386.179Z" fill="#263238"/>
<path d="M166.129 385.373C166.106 385.236 165.894 385.28 165.895 385.411C165.911 389.021 164.573 392.82 162.202 395.557C159.483 398.696 155.474 400.454 151.841 402.291C151.492 402.468 151.756 403.014 152.118 402.906C154.332 402.242 156.514 401.276 158.533 400.142C160.371 399.11 162.07 397.815 163.358 396.131C165.733 393.026 166.771 389.242 166.129 385.373Z" fill="#37474F"/>
<path d="M201.75 381.415C200.94 380.38 200.056 379.395 199.21 378.388C197.21 376.008 195.2 373.618 193.104 371.322C192.906 371.105 192.517 371.412 192.699 371.651C194.111 373.497 195.605 375.284 197.075 377.083C197.828 378.006 198.584 378.925 199.346 379.841C200.058 380.696 200.938 381.545 201.466 382.53C202.014 383.553 201.293 384.428 200.233 384.541C199.284 384.642 198.408 384.159 197.679 383.601C196.024 382.333 194.723 380.519 193.346 378.97C192.504 378.022 191.662 377.076 190.807 376.14C189.898 375.145 188.928 374.201 188.022 373.207C187.963 373.143 187.851 373.233 187.903 373.304C188.696 374.39 189.427 375.527 190.221 376.615C191.015 377.703 191.819 378.78 192.638 379.849C193.413 380.861 194.216 381.851 195.042 382.823C195.743 383.648 196.541 384.452 197.481 385.005C199 385.899 201.637 386.091 202.445 384.129C202.846 383.16 202.347 382.177 201.75 381.415Z" fill="#37474F"/>
<path d="M300.64 436.073C294.527 436.187 288.418 436.542 282.305 436.673C276.242 436.803 270.176 436.837 264.111 436.779C251.931 436.664 239.753 436.199 227.6 435.359C215.32 434.51 202.075 433.287 189.877 431.597C184.04 430.788 178.123 430.115 172.355 428.875C167.151 427.756 162.431 425.593 158.534 421.815C150.634 414.152 147.562 402.886 146.3 392.123C146.131 390.679 145.993 389.232 145.875 387.782C145.867 387.683 145.718 387.686 145.725 387.786C146.438 398.823 148.154 410.33 155.096 419.203C158.099 423.042 161.921 426.187 166.404 427.983C171.867 430.172 177.931 430.685 183.698 431.467C195.946 433.128 209.243 434.411 221.562 435.367C233.958 436.329 246.384 436.928 258.815 437.111C271.244 437.294 283.686 437.119 296.103 436.509C297.62 436.434 299.132 436.345 300.645 436.213C300.73 436.205 300.728 436.072 300.64 436.073Z" fill="#37474F"/>
<path d="M262.099 389.12C258.251 388.556 254.411 388.004 250.542 387.601C246.635 387.194 242.722 386.844 238.808 386.513C231.067 385.858 223.306 385.269 215.545 384.905C211.135 384.698 206.728 384.677 202.315 384.732C202.173 384.734 202.185 384.936 202.32 384.948C210.08 385.651 217.844 386.14 225.619 386.657C233.376 387.173 241.122 387.853 248.86 388.592C253.249 389.011 257.642 389.334 262.036 389.692C262.359 389.717 262.423 389.167 262.099 389.12Z" fill="#37474F"/>
<path d="M210.882 379.461C207.759 380.75 204.833 382.438 201.975 384.23C199.153 385.999 196.274 387.846 193.729 389.998C193.656 390.06 193.753 390.151 193.826 390.117C196.849 388.719 199.754 386.968 202.633 385.293C205.524 383.611 208.399 381.894 211.069 379.873C211.256 379.731 211.139 379.355 210.882 379.461Z" fill="#37474F"/>
<path d="M246.155 277.377L234.891 308.411C234.456 309.311 234.848 310.118 235.766 310.212L252.201 311.884C253.118 311.977 254.218 311.322 254.653 310.422L265.917 279.388C266.353 278.486 265.96 277.681 265.043 277.587L248.608 275.915C247.689 275.822 246.591 276.476 246.155 277.377Z" fill="#A6A6A6"/>
<path d="M248.107 277.559L236.843 308.593C236.408 309.493 236.8 310.3 237.718 310.394L254.153 312.065C255.071 312.159 256.17 311.503 256.605 310.603L267.869 279.569C268.305 278.667 267.912 277.862 266.995 277.769L250.56 276.098C249.642 276.003 248.543 276.657 248.107 277.559Z" fill="#C7C7C7"/>
<path d="M252.466 279.472C252.37 280.241 251.669 280.787 250.9 280.692C250.131 280.597 249.584 279.896 249.68 279.126C249.776 278.357 250.476 277.81 251.246 277.906C252.015 278.002 252.561 278.703 252.466 279.472Z" fill="#263238"/>
<path d="M188.709 322.571C195.812 343.387 213.888 366.224 220.446 368.639C224.323 370.067 231.351 371.821 237.262 367.699C250.161 358.703 264.048 341.496 267.3 330.443C268.457 326.512 249.91 315.666 246.667 318.613C239.076 325.513 225.841 342.841 224.657 342.618C220.276 341.794 208.014 326.626 196.616 315.619C186.053 305.418 185.879 314.276 188.709 322.571Z" fill="#AD6359"/>
<path d="M270.076 309.774C268.912 301.405 267.329 299.435 270.098 291.849C271.915 286.872 269.517 283.575 265.436 287.279C258.762 293.337 257.995 304.45 258.839 308.379L270.076 309.774Z" fill="#AD6359"/>
<path d="M265.961 333.831C265.961 333.831 270.851 322.888 270.493 313.846C270.246 307.593 268.191 294.05 251.742 285.203C247.841 283.104 240.793 282.881 245.92 288.623C249.562 292.702 253.104 294.188 254.791 296.946C254.791 296.946 245.793 297.726 243.843 301.717C242.972 303.501 240.707 308.424 239.491 312.509C239.491 312.509 240.309 313.013 241.437 313.504C241.437 313.504 239.968 317.404 242.268 323.307L265.961 333.831Z" fill="#AD6359"/>
<path d="M269.305 307.916C267.052 305.533 262.193 300.561 256.803 297.876C250.816 294.894 238.481 290.764 236.325 295.205C234.744 298.462 239.316 300.453 239.316 300.453C239.316 300.453 233.857 299.82 233.073 303.075C232.358 306.04 235.987 307.369 235.987 307.369C235.987 307.369 232.61 307.555 232.472 310.544C232.306 314.139 239.411 313.16 242.389 316.948C243.057 317.799 269.305 307.916 269.305 307.916Z" fill="#AD6359"/>
<path d="M254.707 304.727C252.221 302.833 245.471 299.979 239.429 300.374C239.292 300.383 239.226 300.491 239.352 300.509C246.096 301.487 252.16 303.692 254.678 304.783C254.713 304.798 254.735 304.748 254.707 304.727Z" fill="#263238"/>
<path d="M251.521 310.683C249.208 309.269 242.119 306.639 236.011 307.25C235.874 307.264 235.815 307.377 235.942 307.39C243.03 308.121 248.917 309.804 251.496 310.742C251.531 310.753 251.551 310.701 251.521 310.683Z" fill="#263238"/>
<path d="M237.752 325.65L269.375 349.213C269.375 349.213 244.708 372.141 237.182 373.111C229.656 374.081 221.789 372.119 217.669 370.301C213.549 368.483 196.28 343.879 188.201 324.564C180.121 305.249 190.687 306.808 197.886 314.445C205.085 322.082 223.897 341.207 224.994 340.893C226.091 340.579 237.752 325.65 237.752 325.65Z" fill="#A6A6A6"/>
<path d="M260.671 354.196C249.563 343.632 236.303 334.241 234.107 332.438C234.003 332.353 233.879 332.532 233.988 332.613C236.233 334.268 250.234 346.669 260.54 354.389C260.659 354.478 260.777 354.298 260.671 354.196Z" fill="#263238"/>
<path d="M213.08 365.86C206.18 357.57 194.44 339.49 188.2 324.56C182.64 311.26 185.92 307.86 190.85 309.53L191.02 309.96L213.08 365.86Z" fill="#263238"/>
<path d="M209.518 383.269L140.468 387.277C140.553 385.868 150.824 344.767 158.592 329.69C168.553 310.357 173.499 308.898 176.456 307.91C180.238 306.646 186.903 307.466 188.472 308.25C190.252 309.129 195.753 319.257 197.639 326.635C201.429 341.451 210.461 382.392 209.518 383.269Z" fill="#DBDBDB"/>
<path d="M176.55 349.84C175.71 349.55 174.86 349.3 173.94 349.24C174.67 349.81 175.49 350.18 176.3 350.49C177.15 350.78 178 351.03 178.93 351.09C178.19 350.52 177.38 350.17 176.55 349.84ZM195.55 328.88C194.7 328.58 193.85 328.33 192.93 328.27C193.66 328.84 194.48 329.21 195.3 329.52C196.14 329.82 197 330.07 197.93 330.13C197.18 329.56 196.38 329.2 195.55 328.88ZM188.67 382.8C187.82 382.5 186.97 382.26 186.04 382.21C186.78 382.78 187.59 383.14 188.42 383.46C189.26 383.75 190.11 384 191.04 384.06C190.3 383.49 189.48 383.12 188.67 382.8ZM156.18 334.99C156.11 335.13 156.05 335.27 156 335.42C156.36 335.5 156.73 335.55 157.11 335.57C156.81 335.35 156.5 335.16 156.18 334.99ZM205.4 360.38C205 360.17 204.58 359.99 204.16 359.83C203.33 359.53 202.47 359.28 201.54 359.23C202.29 359.8 203.09 360.16 203.92 360.48C204.44 360.67 204.97 360.84 205.52 360.95C205.48 360.76 205.44 360.57 205.4 360.38ZM163.7 382.8C162.85 382.5 162 382.26 161.08 382.21C161.81 382.78 162.63 383.14 163.45 383.46C164.29 383.75 165.14 384 166.07 384.06C165.33 383.49 164.53 383.12 163.7 382.8ZM208.82 383.31L209.35 383.28C209.43 382.93 209.49 382.58 209.51 382.21C209.24 382.56 209.01 382.93 208.82 383.31ZM176.43 372.2C176.13 373.03 175.88 373.88 175.83 374.81C176.39 374.08 176.76 373.26 177.08 372.43C177.37 371.6 177.63 370.75 177.68 369.82C177.12 370.56 176.75 371.37 176.43 372.2ZM188.14 341.82C187.85 342.66 187.6 343.51 187.55 344.44C188.11 343.7 188.48 342.89 188.8 342.06C189.1 341.22 189.35 340.37 189.4 339.45C188.84 340.18 188.47 341 188.14 341.82ZM190.31 316.15C190.01 317 189.77 317.85 189.72 318.78C190.27 318.04 190.65 317.23 190.97 316.4C191.26 315.56 191.51 314.71 191.56 313.79C191 314.52 190.63 315.34 190.31 316.15ZM197.11 371.95C196.31 372.34 195.53 372.76 194.83 373.38C195.76 373.25 196.59 372.94 197.4 372.58C198.2 372.2 198.98 371.78 199.68 371.16C198.76 371.28 197.93 371.59 197.11 371.95ZM164.12 365.75C163.31 366.14 162.53 366.57 161.84 367.18C162.75 367.05 163.6 366.74 164.4 366.38C165.21 366 165.99 365.58 166.68 364.96C165.76 365.08 164.92 365.39 164.12 365.75ZM169.72 336.36C168.92 336.75 168.14 337.18 167.44 337.79C168.37 337.66 169.2 337.35 170.01 336.99C170.81 336.61 171.59 336.19 172.29 335.57C171.37 335.69 170.54 336 169.72 336.36ZM202.21 345.9C201.45 346.27 200.72 346.69 200.05 347.27C200.88 347.15 201.63 346.89 202.36 346.58C202.31 346.35 202.26 346.13 202.21 345.9ZM148.68 375.11C148.3 374.3 147.88 373.52 147.26 372.83C147.38 373.75 147.69 374.59 148.05 375.39C148.44 376.2 148.86 376.98 149.48 377.67C149.35 376.76 149.04 375.91 148.68 375.11ZM160.4 351.52C160.02 350.71 159.58 349.93 158.98 349.24C159.1 350.17 159.41 350.99 159.77 351.8C160.15 352.61 160.57 353.39 161.19 354.08C161.07 353.16 160.76 352.33 160.4 351.52ZM188.86 360.28C188.47 359.49 188.04 358.71 187.43 358.01C187.56 358.93 187.87 359.76 188.23 360.58C188.61 361.38 189.03 362.16 189.65 362.85C189.53 361.93 189.22 361.1 188.86 360.28ZM178.73 324.52C178.35 323.71 177.93 322.93 177.31 322.24C177.43 323.17 177.74 323.99 178.1 324.8C178.48 325.61 178.92 326.39 179.52 327.08C179.41 326.16 179.09 325.33 178.73 324.52Z" fill="#A6A6A6"/>
<path d="M189.762 320.14C185.833 321.084 179.06 315.1 176.376 310.239C176.194 309.905 176.693 306.384 177.097 302.076C177.332 299.461 177.531 296.544 177.522 293.868C177.517 293.319 194.316 297.882 194.316 297.882C194.316 297.882 192.687 303.496 192.733 308.16C192.741 308.55 192.781 308.912 192.852 309.257C192.858 309.308 192.873 309.368 192.877 309.439C193.224 311.523 193.559 319.224 189.762 320.14Z" fill="#AD6359"/>
<path d="M178.553 293.934C179.348 298.454 182.202 309.371 191.156 309.54C191.779 309.553 192.351 309.52 192.872 309.441C192.876 309.366 192.858 309.311 192.85 309.257C192.783 308.909 192.738 308.551 192.727 308.163C192.683 303.491 194.315 297.878 194.315 297.878C194.315 297.878 182.197 294.586 178.553 293.934Z" fill="#263238"/>
<path d="M176.728 272.666C174.315 278.399 175.689 295.817 179.507 300.06C185.043 306.212 194.98 307.764 200.427 300.91C205.707 294.266 203.516 271.599 199.169 267.653C192.767 261.84 180.292 264.197 176.728 272.666Z" fill="#AD6359"/>
<path d="M192.398 284.825C192.384 284.782 192.313 284.891 192.32 284.939C192.488 286.104 192.484 287.467 191.469 287.974C191.438 287.99 191.448 288.048 191.486 288.038C192.757 287.711 192.743 285.902 192.398 284.825Z" fill="#263238"/>
<path d="M191.216 283.72C189.319 283.788 189.594 287.577 191.352 287.514C193.082 287.452 192.806 283.664 191.216 283.72Z" fill="#263238"/>
<path d="M198.97 284.383C198.976 284.337 199.066 284.432 199.068 284.48C199.116 285.656 199.369 286.996 200.459 287.308C200.493 287.318 200.494 287.377 200.454 287.374C199.145 287.286 198.827 285.504 198.97 284.383Z" fill="#263238"/>
<path d="M199.928 283.08C201.805 282.8 202.228 286.575 200.489 286.835C198.778 287.091 198.355 283.315 199.928 283.08Z" fill="#263238"/>
<path d="M189.68 281.438C190.187 281.273 190.628 281.036 191.113 280.821C191.66 280.578 192.121 280.442 192.454 279.913C192.633 279.63 192.518 279.151 192.259 278.952C191.656 278.487 190.912 278.618 190.242 278.883C189.514 279.171 189.027 279.579 188.646 280.26C188.276 280.92 189.011 281.655 189.68 281.438Z" fill="#263238"/>
<path d="M201.563 281.058C201.029 281.052 200.538 280.956 200.012 280.895C199.417 280.826 198.937 280.832 198.461 280.427C198.206 280.21 198.173 279.719 198.361 279.451C198.798 278.828 199.547 278.732 200.266 278.786C201.046 278.844 201.633 279.089 202.2 279.626C202.751 280.147 202.267 281.067 201.563 281.058Z" fill="#263238"/>
<path d="M190.812 295.496C191.007 295.838 191.174 296.28 191.574 296.432C191.958 296.578 192.471 296.532 192.872 296.495C192.912 296.491 192.937 296.54 192.904 296.567C192.486 296.917 191.791 297.013 191.292 296.771C190.806 296.535 190.679 296.02 190.688 295.516C190.69 295.445 190.783 295.446 190.812 295.496Z" fill="#263238"/>
<path d="M192.209 292.269C192.94 293.24 193.946 293.727 195.006 293.853C195.479 293.913 195.971 293.893 196.448 293.814C196.542 293.805 196.636 293.788 196.72 293.763C196.805 293.746 196.881 293.731 196.974 293.705C197.11 293.675 197.177 293.556 197.19 293.425L197.189 293.416C197.185 293.373 197.182 293.339 197.169 293.297C197.169 293.297 197.169 293.297 197.168 293.288L197.158 293.185C197.117 292.28 196.929 290.912 196.929 290.912C197.271 291.054 199.01 291.688 198.949 291.218C198.431 287.327 197.856 282.999 196.519 279.236C196.481 279.109 196.286 279.153 196.307 279.282C196.656 283.041 197.664 286.714 198.075 290.485C197.523 290.32 196.619 290.006 196.147 290.049C196.021 290.095 196.557 292.686 196.542 293.095C196.542 293.095 196.544 293.112 196.537 293.139C195.033 293.443 193.855 293.068 192.307 292.155C192.218 292.095 192.131 292.181 192.209 292.269Z" fill="#263238"/>
<path d="M195.48 293.795C195.48 293.795 194.662 294.751 193.612 295.043C193.225 295.152 192.815 295.177 192.398 295.034C191.54 294.743 191.574 293.939 191.783 293.263C191.953 292.707 192.249 292.239 192.249 292.239C192.249 292.239 193.441 293.525 195.48 293.795Z" fill="#263238"/>
<path d="M193.612 295.044C193.225 295.153 192.815 295.178 192.398 295.035C191.54 294.744 191.574 293.94 191.783 293.264C192.713 293.426 193.597 294.128 193.612 295.044Z" fill="#FF9BBC"/>
<path d="M174.409 285.875C178.89 286.654 181.798 281.514 181.186 277.075C181.186 277.075 193.025 279.898 194.588 270.321C194.588 270.321 196.518 274.745 201.947 275.446L202.924 279.136C204.192 278.906 205.861 275.542 203.13 272.488C203.13 272.488 203.415 267.664 200.17 264.418C196.925 261.172 193.213 262.706 193.213 262.706C193.213 262.706 190.639 260.068 186.159 260.18C181.679 260.293 179.446 264.138 179.446 264.138C179.446 264.138 173.384 264.665 171.938 268.784C170.493 272.904 172.385 275.959 172.385 275.959C172.385 275.959 170.723 277.465 171.111 281.147C171.36 283.516 173.064 285.641 174.409 285.875Z" fill="#263238"/>
<path d="M194.409 269.439C194.408 270.233 194.358 271.025 194.195 271.795C194.07 272.57 193.829 273.317 193.526 274.027C192.893 275.434 191.801 276.61 190.393 277.2C189.012 277.898 187.399 277.864 185.855 277.857C185.08 277.754 184.291 277.705 183.516 277.557C182.743 277.398 181.972 277.22 181.186 277.076C181.934 277.342 182.696 277.574 183.457 277.825C184.228 278.029 185.028 278.129 185.817 278.286C187.408 278.384 189.095 278.422 190.621 277.71C192.134 277.03 193.342 275.72 193.921 274.192C194.495 272.664 194.636 271.013 194.409 269.439Z" fill="#263238"/>
<path d="M200.026 275.642C198.74 275.018 197.556 274.276 196.587 273.308C196.088 272.839 195.688 272.283 195.332 271.699C194.958 271.116 194.754 270.45 194.51 269.772C194.523 270.484 194.632 271.225 194.948 271.892C195.236 272.568 195.665 273.19 196.193 273.704C196.721 274.217 197.318 274.655 197.972 274.976C198.622 275.299 199.309 275.551 200.026 275.642Z" fill="#263238"/>
<path d="M178.955 286.974C178.955 286.974 175.537 281.116 172.911 282.291C170.284 283.465 172.536 291.734 175.397 293.075C178.257 294.416 179.551 291.792 179.551 291.792L178.955 286.974Z" fill="#AD6359"/>
<path d="M173.615 284.644C173.568 284.636 173.553 284.701 173.593 284.722C175.593 285.73 176.525 287.739 177.124 289.79C176.571 288.974 175.768 288.486 174.682 289.134C174.625 289.168 174.67 289.257 174.729 289.249C175.591 289.137 176.191 289.334 176.708 290.06C177.074 290.574 177.301 291.205 177.545 291.783C177.627 291.976 177.969 291.905 177.916 291.686C177.912 291.67 177.907 291.653 177.903 291.637C178.172 289.003 176.425 285.142 173.615 284.644Z" fill="#263238"/>
<path d="M169.566 312.982C146.205 337.3 112.146 398.88 107.935 407.712C105.077 413.706 136.414 429.507 137.745 425.147C139.449 419.564 166.746 350.65 173.996 324.646C177.994 310.307 174.392 307.959 169.566 312.982Z" fill="#AD6359"/>
<path d="M139.22 421.028C138.129 424.012 134.407 436.693 131.804 438.273C129.201 439.853 115.546 439.514 108.662 439.514C101.778 439.514 100.424 437.596 100.537 435.226C100.65 432.856 115.094 432.405 115.094 432.405C115.094 432.405 95.804 437.935 90.951 438.837C86.098 439.74 74.92 442.561 73.303 438.536C72.574 436.722 75.635 434.887 75.635 434.887C75.635 434.887 70.944 436.257 70.198 433.925C69.349 431.271 73.077 429.809 73.077 429.809C73.077 429.809 70.146 430.4 70.078 428.237C69.928 423.403 88.274 421.028 88.274 421.028C88.274 421.028 74.227 427.867 73.776 423.922C73.151 418.462 101.941 412.474 104.938 410.093C107.935 407.712 109.74 404.166 109.74 404.166L139.22 421.028Z" fill="#AD6359"/>
<path d="M100.64 436.427C100.556 435.706 100.798 435.032 101.294 434.585C101.768 434.124 102.354 433.783 102.972 433.497C104.213 432.933 105.561 432.552 106.916 432.217C109.629 431.527 112.41 431.041 115.179 430.325C112.32 430.283 109.472 430.6 106.679 431.281C105.291 431.645 103.897 432.078 102.622 432.832C101.986 433.201 101.381 433.674 100.929 434.288C100.479 434.908 100.334 435.767 100.64 436.427Z" fill="#263238"/>
<path d="M75.635 434.887C77.62 434.403 79.575 433.841 81.529 433.277C83.486 432.723 85.423 432.115 87.367 431.528L93.178 429.707C95.115 429.099 97.052 428.497 99.009 427.914C96.971 428.104 94.968 428.529 92.982 428.99C90.991 429.443 89.033 430.013 87.083 430.605C85.139 431.216 83.203 431.851 81.298 432.574C79.388 433.287 77.489 434.026 75.635 434.887Z" fill="#263238"/>
<path d="M94.35 423.098C92.475 423.196 90.621 423.499 88.785 423.868C86.944 424.225 85.132 424.717 83.341 425.27C81.555 425.839 79.785 426.468 78.073 427.237C76.35 427.976 74.679 428.836 73.078 429.81C74.852 429.198 76.58 428.517 78.344 427.929C80.102 427.33 81.857 426.733 83.63 426.191C85.395 425.621 87.178 425.111 88.961 424.586C90.746 424.071 92.542 423.589 94.35 423.098Z" fill="#263238"/>
<path d="M91.512 418.492C88.482 418.673 85.519 419.403 82.653 420.362C79.793 421.343 77.013 422.609 74.504 424.31C77.357 423.293 80.13 422.221 82.964 421.276C85.788 420.3 88.633 419.418 91.512 418.492Z" fill="#263238"/>
<path d="M173.706 331.381C168.161 355.222 141.671 420.41 141.671 420.41L117.869 408.938L105.862 403.143C105.862 403.143 146.737 339.285 163.45 318.391C164.744 316.786 165.918 315.406 166.998 314.258C177.352 303.187 177.979 313.003 173.706 331.381Z" fill="#A6A6A6"/>
<path d="M143.65 413.302C129.643 405.172 113.695 398.758 110.995 397.442C110.867 397.38 110.782 397.593 110.914 397.649C113.63 398.801 131.065 408.115 143.561 413.53C143.706 413.593 143.785 413.38 143.65 413.302Z" fill="#263238"/>
<path d="M155.351 385.515L164.635 359.362C166.208 355.014 167.695 350.637 169.176 346.258C170.65 341.877 172.093 337.485 173.308 333.02C172.395 337.561 171.086 342.012 169.725 346.436C168.355 350.859 166.86 355.241 165.341 359.612C163.769 363.965 162.2 368.319 160.531 372.635C158.865 376.953 157.165 381.257 155.351 385.515Z" fill="#263238"/>
<path d="M173.916 335.839C173.682 336.762 173.294 337.616 172.852 338.442C172.621 338.849 172.385 339.255 172.102 339.633C171.824 340.013 171.532 340.387 171.172 340.702C171.556 339.834 171.972 339.018 172.414 338.201C172.869 337.393 173.333 336.59 173.916 335.839Z" fill="#263238"/>
<path d="M82.176 181.33C82.176 181.33 60.756 178.331 65.763 152.474C65.763 152.474 89.695 157.846 82.176 181.33Z" fill="#5C60F5"/>
<path opacity="0.1" d="M82.176 181.33C82.176 181.33 60.756 178.331 65.763 152.474C65.763 152.474 89.695 157.846 82.176 181.33Z" fill="black"/>
<path d="M81.093 175.932C80.674 174.624 80.181 173.34 79.635 172.078C79.618 171.913 79.594 171.748 79.58 171.589C79.548 171.233 79.519 170.877 79.491 170.521C79.431 169.75 79.382 168.977 79.337 168.205C79.246 166.661 79.147 165.115 79.124 163.568C79.123 163.484 78.994 163.487 78.993 163.571C78.979 165.119 78.956 166.665 79.016 168.213C79.046 168.986 79.09 169.758 79.142 170.53C79.153 170.702 79.167 170.873 79.179 171.044C77.982 168.467 76.533 166.004 74.884 163.7C74.148 162.671 73.374 161.683 72.542 160.73C71.688 159.753 70.786 158.823 69.922 157.855C69.866 157.793 69.773 157.889 69.832 157.95C71.407 159.593 72.71 161.543 73.96 163.438C74.61 164.423 75.225 165.435 75.81 166.462C75.743 166.436 75.676 166.411 75.611 166.383C75.357 166.278 75.104 166.173 74.848 166.075C74.266 165.851 73.684 165.63 73.099 165.413C71.95 164.987 70.799 164.567 69.653 164.131C69.584 164.105 69.537 164.224 69.606 164.252C70.745 164.706 71.872 165.186 72.997 165.672C73.55 165.911 74.103 166.147 74.656 166.386C74.933 166.505 75.213 166.618 75.492 166.731C75.679 166.807 75.863 166.901 76.06 166.931C76.492 167.706 76.92 168.485 77.314 169.279C78.305 171.279 79.187 173.345 79.931 175.45C79.983 175.598 80.034 175.746 80.085 175.894C79.556 175.537 78.881 175.304 78.33 175.048C77.593 174.707 76.851 174.377 76.113 174.037C74.611 173.347 73.118 172.647 71.678 171.834C71.605 171.793 71.541 171.908 71.615 171.948C73.087 172.752 74.529 173.608 76.004 174.408C76.741 174.808 77.482 175.197 78.237 175.562C78.856 175.862 79.554 176.28 80.249 176.368C80.919 178.346 81.481 180.347 81.653 182.443C81.892 185.367 81.865 188.315 81.933 191.246C81.934 191.297 82.007 191.293 82.011 191.244C82.224 188.585 82.344 185.902 82.357 183.234C82.369 180.699 81.863 178.339 81.093 175.932Z" fill="#263238"/>
<path d="M77.795 160.725C77.627 162.23 77.477 163.771 77.582 165.285C77.585 165.327 77.645 165.325 77.647 165.283C77.733 163.771 77.747 162.263 77.922 160.756C77.932 160.674 77.805 160.642 77.795 160.725Z" fill="#263238"/>
<path d="M71.671 162.021C70.722 161.619 69.78 161.241 68.916 160.668C68.846 160.622 68.781 160.738 68.853 160.783C69.718 161.322 70.644 161.849 71.635 162.112C71.688 162.125 71.723 162.043 71.671 162.021Z" fill="#263238"/>
<path d="M82.86 222.38C82.842 220.013 82.798 217.646 82.77 215.279C82.725 207.418 82.661 199.558 82.52 191.697C82.408 185.457 82.261 179.219 82.084 172.979C82.083 172.943 82.06 172.918 82.03 172.899C82.021 171.195 82.014 169.491 82.003 167.787C82.003 167.744 81.952 167.723 81.901 167.724C81.85 167.725 81.798 167.747 81.799 167.79C81.788 169.497 81.777 171.204 81.767 172.911C81.742 172.93 81.719 172.952 81.718 172.985C81.403 184.091 81.122 195.198 81.056 206.306C81.043 208.564 81.044 210.823 81.034 213.081C80.958 220.323 80.925 227.566 80.951 234.808C80.943 235.961 80.93 237.114 80.925 238.267C80.901 244.893 80.994 251.519 80.996 258.145C80.996 258.502 81.392 258.679 81.813 258.696C82.293 258.715 82.806 258.524 82.805 258.116C82.808 250.809 82.855 243.502 82.855 236.195C82.877 231.591 82.894 226.986 82.86 222.38Z" fill="#263238"/>
<path d="M73.915 215.19C73.915 215.19 63.613 207.557 53.835 212.714C44.057 217.871 42.523 237.754 42.523 237.754C42.523 237.754 56.881 239.808 65.923 231.202C74.636 222.907 73.915 215.19 73.915 215.19Z" fill="#5C60F5"/>
<path opacity="0.1" d="M73.915 215.19C73.915 215.19 63.613 207.557 53.835 212.714C44.057 217.871 42.523 237.754 42.523 237.754C42.523 237.754 56.881 239.808 65.923 231.202C74.636 222.907 73.915 215.19 73.915 215.19Z" fill="black"/>
<path d="M76.723 215.659C74.859 214.876 72.782 214.682 70.755 214.88C70.344 214.788 69.908 214.787 69.492 214.757C69.008 214.722 68.524 214.686 68.04 214.648C67.039 214.57 66.037 214.51 65.036 214.435C63.004 214.283 60.965 214.159 58.937 213.955C58.864 213.948 58.85 214.074 58.923 214.084C60.93 214.341 62.929 214.626 64.942 214.83C65.977 214.935 67.013 215.042 68.051 215.116C68.295 215.133 68.548 215.161 68.805 215.19C68.497 215.259 68.191 215.332 67.891 215.417C66.275 215.875 64.718 216.53 63.223 217.314C62.411 217.46 61.605 217.687 60.809 217.874C59.534 218.174 58.265 218.503 56.998 218.835C54.496 219.49 52.021 220.228 49.538 220.95C49.457 220.974 49.494 221.095 49.576 221.075C52.057 220.466 54.551 219.909 57.036 219.318C58.244 219.031 59.453 218.747 60.659 218.45C60.971 218.373 61.288 218.302 61.606 218.231C58.831 219.939 56.336 222.13 54.283 224.598C52.233 227.061 50.601 229.757 49.194 232.624C49.158 232.698 49.262 232.769 49.304 232.694C50.97 229.777 53.064 227.029 55.463 224.611C55.418 224.748 55.372 224.885 55.329 225.022C55.137 225.628 54.947 226.235 54.756 226.842C54.374 228.055 53.989 229.267 53.626 230.486C53.602 230.568 53.724 230.595 53.753 230.518C54.187 229.342 54.599 228.159 55.014 226.977C55.218 226.397 55.422 225.817 55.625 225.237C55.731 224.936 55.832 224.635 55.934 224.332C55.965 224.239 56.002 224.147 56.033 224.056C57.191 222.937 58.407 221.887 59.687 220.942C61.377 219.695 63.223 218.642 65.156 217.807C65.12 217.986 65.088 218.164 65.052 218.334C64.951 218.804 64.846 219.273 64.749 219.743C64.548 220.718 64.358 221.696 64.168 222.674C63.78 224.668 63.54 226.686 63.166 228.681C63.151 228.763 63.274 228.795 63.293 228.713C63.755 226.708 64.351 224.735 64.797 222.725C65.02 221.72 65.247 220.716 65.456 219.708C65.553 219.237 65.647 218.766 65.742 218.295C65.795 218.033 65.856 217.77 65.887 217.506C66.074 217.432 66.257 217.345 66.446 217.275C69.149 216.274 72.136 215.548 75.018 216.101C77.774 216.63 80.137 218.479 81.219 221.07C81.312 221.294 81.666 221.154 81.614 220.925C81.053 218.449 78.986 216.611 76.723 215.659Z" fill="#263238"/>
<path d="M60.951 224.149C60.659 225.454 60.37 226.76 60.082 228.065C59.807 229.311 59.466 230.6 59.362 231.874C59.358 231.925 59.431 231.925 59.446 231.883C59.867 230.656 60.071 229.317 60.321 228.046C60.575 226.758 60.828 225.469 61.078 224.18C61.094 224.099 60.969 224.067 60.951 224.149Z" fill="#263238"/>
<path d="M50.987 227.469C49.675 228.134 48.403 228.891 47.033 229.436C46.946 229.471 47.001 229.597 47.086 229.554C48.405 228.896 49.771 228.314 51.017 227.519C51.05 227.498 51.02 227.452 50.987 227.469Z" fill="#263238"/>
<path d="M76.231 201.171C76.231 201.171 63.64 201.974 57.782 193.671C51.925 185.367 53.239 173.511 53.239 173.511C53.239 173.511 66.465 175.118 71.718 181.081C76.971 187.043 76.231 201.171 76.231 201.171Z" fill="#5C60F5"/>
<path d="M82.141 213.596C81.705 212.247 81.165 210.918 80.656 209.594C80.167 208.323 79.644 207.066 79.09 205.822C77.959 203.284 76.71 200.806 75.316 198.403C74.428 196.873 73.476 195.388 72.495 193.924C72.475 193.701 72.43 193.478 72.397 193.253C72.338 192.863 72.282 192.473 72.221 192.084C72.096 191.287 71.957 190.492 71.824 189.696C71.534 187.957 71.175 186.23 70.899 184.49C70.886 184.409 70.756 184.41 70.768 184.493C71.022 186.21 71.194 187.94 71.435 189.659C71.553 190.503 71.664 191.35 71.792 192.193C71.838 192.498 71.887 192.802 71.935 193.107C70.011 190.305 67.942 187.606 65.706 185.028C65.405 184.68 65.094 184.341 64.787 183.999C64.756 183.903 64.708 183.809 64.67 183.711C64.577 183.472 64.486 183.231 64.396 182.99C64.211 182.491 64.03 181.989 63.85 181.488C63.496 180.502 63.18 179.507 62.912 178.494C62.891 178.413 62.767 178.45 62.787 178.532C63.041 179.565 63.31 180.597 63.612 181.618C63.758 182.111 63.92 182.598 64.094 183.082C64.123 183.163 64.154 183.244 64.184 183.325C62.574 181.571 60.896 179.88 59.2 178.209C59.14 178.15 59.051 178.244 59.11 178.304C62.401 181.673 65.309 185.393 68.032 189.233C67.724 189.135 67.409 189.057 67.1 188.997C66.131 188.809 65.153 188.672 64.174 188.547C62.122 188.286 60.077 188.027 58.033 187.705C57.951 187.692 57.918 187.815 58.001 187.832C59.952 188.217 61.885 188.656 63.824 189.101C64.738 189.311 65.656 189.49 66.576 189.671C67.343 189.822 68.054 190.056 68.787 190.301C68.99 190.593 69.201 190.879 69.402 191.172C70.326 192.517 71.213 193.889 72.081 195.272C71.653 195.186 71.224 195.104 70.796 195.021C69.824 194.832 68.847 194.656 67.87 194.495C65.949 194.179 64.027 193.845 62.129 193.413C62.047 193.394 62.015 193.521 62.097 193.54C64.023 193.992 65.93 194.52 67.842 195.028C68.764 195.273 69.693 195.499 70.625 195.704C71.091 195.807 71.558 195.91 72.025 196.006C72.226 196.047 72.414 196.1 72.592 196.103C74.431 199.086 76.158 202.139 77.755 205.254C78.458 206.624 79.133 208.008 79.789 209.401C80.462 210.831 81.038 212.29 81.659 213.741C81.783 214.031 82.243 213.912 82.141 213.596Z" fill="#263238"/>
<path d="M69.2531 184.656C69.0131 183.455 68.7591 182.257 68.4931 181.061C68.4751 180.978 68.3511 181.017 68.3681 181.099C68.6071 182.279 68.8341 183.461 69.0481 184.646C69.2601 185.821 69.4311 187.025 69.7631 188.174C69.7691 188.195 69.8031 188.19 69.8011 188.168C69.7371 186.99 69.4841 185.81 69.2531 184.656Z" fill="#263238"/>
<path d="M61.908 184.306C61.324 184.015 60.707 183.78 60.098 183.544C59.779 183.42 59.461 183.297 59.143 183.17C58.981 183.105 58.819 183.04 58.656 182.975C58.484 182.906 58.273 182.854 58.124 182.742C58.029 182.671 57.969 182.837 58.063 182.853C58.249 182.884 58.43 182.997 58.601 183.073C58.76 183.144 58.919 183.215 59.078 183.286C59.384 183.422 59.69 183.56 59.997 183.696C60.604 183.965 61.222 184.234 61.857 184.432C61.932 184.456 61.977 184.341 61.908 184.306Z" fill="#263238"/>
<path d="M89.12 191.27C89.12 191.27 96.741 177.035 108.334 174.831C119.927 172.627 127.022 184.555 127.022 184.555C127.022 184.555 118.566 195.354 107.927 197.239C97.288 199.123 89.12 191.27 89.12 191.27Z" fill="#5C60F5"/>
<path d="M116.103 181.21C113.099 180.798 110.023 180.846 107.011 181.318C107.185 181.223 107.357 181.127 107.528 181.041C108.389 180.605 109.244 180.161 110.1 179.716C111.88 178.79 113.679 177.804 115.543 177.058C115.63 177.023 115.576 176.899 115.49 176.94C113.677 177.785 111.797 178.492 109.977 179.329C109.067 179.747 108.172 180.183 107.287 180.653C106.715 180.956 106.081 181.243 105.52 181.605C102.973 182.127 100.486 182.937 98.151 184.053C98.634 183.527 99.119 183.002 99.601 182.475C100.681 181.292 101.744 180.05 102.931 178.972C102.993 178.915 102.898 178.826 102.836 178.882C101.622 179.984 100.342 181.004 99.165 182.15C98.594 182.706 98.048 183.282 97.516 183.875C97.251 184.17 96.985 184.476 96.732 184.792C91.69 187.532 87.401 191.668 84.572 196.668C82.964 199.51 81.842 202.583 81.189 205.78C81.173 205.86 81.288 205.905 81.313 205.822C82.905 200.448 85.91 195.398 89.835 191.4C94.094 187.062 99.474 183.928 105.367 182.414C108.866 181.515 112.483 181.202 116.086 181.44C116.236 181.448 116.248 181.23 116.103 181.21Z" fill="#263238"/>
<path opacity="0.1" d="M127.025 184.556C127.025 184.556 118.567 195.357 107.926 197.239C99.811 198.678 93.135 194.445 90.424 192.362L89.838 191.4C89.838 191.4 95.326 186.774 105.708 184.105C116.09 181.436 127.025 184.556 127.025 184.556Z" fill="black"/>
<path d="M109.37 176.135C108.489 176.672 107.615 177.206 106.795 177.834C105.989 178.452 105.239 179.124 104.559 179.88C104.499 179.947 104.593 180.032 104.658 179.975C105.428 179.307 106.201 178.638 107 178.005C107.785 177.383 108.583 176.768 109.438 176.247C109.511 176.202 109.442 176.091 109.37 176.135Z" fill="#263238"/>
<path d="M115.732 178.544C115.302 178.723 114.864 178.878 114.434 179.056C114.004 179.235 113.574 179.413 113.143 179.592C113.051 179.63 113.094 179.78 113.189 179.742C113.62 179.567 114.051 179.392 114.483 179.217C114.915 179.042 115.337 178.843 115.77 178.669C115.848 178.638 115.81 178.512 115.732 178.544Z" fill="#263238"/>
<path d="M87.599 209.184C87.599 209.184 89.635 223.304 100.253 228.244C110.871 233.183 123.816 228.244 123.816 228.244C123.816 228.244 118.725 197.694 87.599 209.184Z" fill="#5C60F5"/>
<path opacity="0.1" d="M87.599 209.184C87.599 209.184 89.635 223.304 100.253 228.244C110.871 233.183 123.816 228.244 123.816 228.244C123.816 228.244 118.725 197.694 87.599 209.184Z" fill="black"/>
<path d="M116.5 219.059C115.521 218.948 114.547 218.78 113.577 218.603C113.101 218.516 112.625 218.427 112.15 218.333C111.909 218.286 111.657 218.228 111.405 218.184C111.119 217.918 110.838 217.646 110.545 217.388C108.535 215.617 106.355 214.047 104.051 212.68C102.797 211.936 101.495 211.27 100.159 210.68C100.226 210.683 100.292 210.686 100.359 210.689C101.524 210.739 102.689 210.787 103.854 210.841C106.185 210.949 108.515 211.001 110.844 211.151C110.928 211.156 110.924 211.026 110.841 211.02C108.503 210.861 106.178 210.605 103.844 210.404C102.712 210.306 101.58 210.204 100.448 210.102C99.865 210.049 99.282 210 98.699 209.95C98.549 209.937 98.4 209.919 98.251 209.902C97.646 209.676 97.035 209.463 96.419 209.271C93.515 208.37 90.401 208.013 87.425 208.775C84.754 209.459 82.088 211.209 81.396 214.026C81.372 214.123 81.523 214.191 81.565 214.092C82.561 211.738 85.173 210.554 87.531 210.065C89.116 209.736 90.739 209.754 92.34 209.971C92.406 210.694 92.678 211.438 92.876 212.106C93.17 213.099 93.46 214.094 93.76 215.086C94.362 217.069 95.025 219.034 95.612 221.021C95.636 221.102 95.757 221.065 95.737 220.983C95.244 219.002 94.828 217.001 94.35 215.016C94.116 214.041 93.87 213.068 93.629 212.095C93.474 211.471 93.344 210.734 93.094 210.088C94.027 210.252 94.951 210.473 95.85 210.737C97.481 211.216 99.089 211.812 100.662 212.5C100.818 213.507 101.042 214.505 101.273 215.496C101.563 216.743 101.887 217.978 102.281 219.196C102.306 219.273 102.416 219.237 102.4 219.16C102.384 219.083 102.368 219.006 102.353 218.93C102.353 218.928 102.351 218.927 102.351 218.927C102.113 217.772 101.858 216.621 101.615 215.468C101.419 214.538 101.239 213.604 101.036 212.675C102.355 213.267 103.652 213.915 104.906 214.635C104.932 214.923 105.002 215.217 105.044 215.479C105.121 215.963 105.209 216.446 105.297 216.928C105.497 218.017 105.714 219.103 105.975 220.18C106.477 222.252 107.041 224.326 107.8 226.32C107.785 226.344 107.779 226.375 107.802 226.402C107.822 226.425 107.842 226.449 107.862 226.472C107.908 226.526 107.983 226.463 107.97 226.406C107.479 224.313 106.918 222.239 106.458 220.138C106.229 219.09 105.997 218.041 105.787 216.988C105.682 216.462 105.586 215.935 105.486 215.407C105.458 215.259 105.437 215.098 105.412 214.935C106.845 215.783 108.232 216.701 109.547 217.693C111.812 219.403 113.983 221.356 115.876 223.471C115.952 223.556 116.102 223.436 116.032 223.344C115.222 222.28 114.417 221.239 113.501 220.257C112.967 219.685 112.413 219.132 111.848 218.59C111.906 218.6 111.967 218.611 112.024 218.621C112.521 218.705 113.02 218.779 113.52 218.846C114.502 218.977 115.487 219.074 116.471 219.186C116.551 219.196 116.583 219.069 116.5 219.059Z" fill="#263238"/>
<path d="M109.038 223.847C109.021 223.724 109.001 223.602 108.977 223.48C108.947 223.324 108.871 223.175 108.848 223.018C108.848 223.015 108.845 223.015 108.845 223.013C108.626 222.069 108.441 221.12 108.271 220.165C108.259 220.099 108.153 220.118 108.156 220.183C108.201 221.444 108.513 222.695 108.963 223.869C108.978 223.907 109.045 223.903 109.039 223.857C109.039 223.854 109.038 223.851 109.038 223.847Z" fill="#263238"/>
<path d="M100.151 223.62C100.148 223.581 100.118 223.562 100.088 223.56C99.79 222.31 99.503 221.059 99.246 219.799C99.111 219.137 98.972 218.476 98.845 217.813C98.777 217.456 98.711 217.098 98.647 216.74C98.592 216.431 98.565 216.102 98.418 215.822C98.393 215.774 98.307 215.786 98.299 215.841C98.211 216.434 98.455 217.153 98.565 217.736C98.695 218.425 98.829 219.114 98.981 219.799C99.289 221.192 99.638 222.58 100.031 223.951C100.053 224.028 100.178 224.011 100.172 223.929C100.165 223.825 100.158 223.723 100.151 223.62Z" fill="#263238"/>
<path d="M115.532 214.992C113.593 214.726 111.655 214.446 109.712 214.21C109.63 214.2 109.596 214.324 109.68 214.337C111.616 214.623 113.56 214.863 115.5 215.119C115.583 215.13 115.615 215.004 115.532 214.992Z" fill="#263238"/>
<path d="M82.159 176.067C82.159 176.067 75.663 147.562 106.289 136.027C106.289 136.027 114.774 173.548 82.159 176.067Z" fill="#5C60F5"/>
<path d="M88.77 159.902C88.885 159.829 88.996 159.758 89.099 159.702C89.678 159.383 90.253 159.057 90.83 158.735L94.382 156.748C96.72 155.44 99.027 154.081 101.38 152.801C101.454 152.761 101.385 152.65 101.311 152.69C98.954 153.972 96.554 155.172 94.182 156.426L90.671 158.282C90.193 158.535 89.715 158.786 89.237 159.04C90.258 157.103 91.35 155.203 92.549 153.374C94.15 150.933 95.903 148.607 97.73 146.331C97.814 146.227 97.677 146.092 97.578 146.187C94.877 148.771 92.538 151.728 90.497 154.869C90.5 154.769 90.502 154.668 90.506 154.572C90.541 153.863 90.559 153.154 90.569 152.444C90.59 151.053 90.522 149.659 90.564 148.27C90.567 148.186 90.437 148.19 90.433 148.273C90.376 149.642 90.211 151.007 90.133 152.376C90.094 153.059 90.065 153.742 90.044 154.426C90.033 154.796 89.998 155.216 90.012 155.621C89.381 156.624 88.776 157.643 88.203 158.675C87.182 160.514 86.269 162.44 85.466 164.415C85.436 163.705 85.392 162.996 85.351 162.286C85.259 160.725 85.069 159.171 85.003 157.61C85 157.526 84.871 157.529 84.872 157.613C84.904 159.175 84.832 160.736 84.88 162.298C84.904 163.079 84.928 163.858 84.98 164.637C84.999 164.923 85.014 165.215 85.033 165.508C84.057 168.066 83.273 170.698 82.72 173.341C82.123 176.196 81.88 179.056 81.579 181.949C81.577 181.97 81.609 181.969 81.612 181.948C81.88 179.369 82.535 176.765 83.237 174.272C83.616 172.927 84.015 171.588 84.447 170.26C85.722 169.66 86.941 168.911 88.172 168.229C89.449 167.521 90.735 166.829 92.016 166.126C94.57 164.725 97.121 163.299 99.758 162.06C99.834 162.024 99.765 161.915 99.689 161.949C97.018 163.158 94.328 164.309 91.706 165.625C90.401 166.281 89.117 166.981 87.844 167.698C86.781 168.297 85.688 168.897 84.672 169.586C84.97 168.699 85.279 167.816 85.618 166.942C86.551 164.547 87.601 162.194 88.77 159.902Z" fill="#263238"/>
<path d="M86.189 153.385C86.183 153.301 86.053 153.304 86.058 153.388C86.168 155.014 86.223 156.639 86.395 158.261C86.405 158.352 86.542 158.351 86.539 158.257C86.482 156.627 86.308 155.01 86.189 153.385Z" fill="#263238"/>
<path d="M100.872 158.827C98.954 159.599 97.021 160.332 95.114 161.13C95.061 161.152 95.085 161.239 95.14 161.218C97.075 160.494 98.985 159.704 100.91 158.952C100.988 158.922 100.95 158.796 100.872 158.827Z" fill="#263238"/>
<path d="M103.783 145.68C101.909 146.549 100.091 147.51 98.337 148.602C98.248 148.658 98.332 148.794 98.423 148.741C100.199 147.702 102.008 146.706 103.852 145.791C103.927 145.754 103.858 145.646 103.783 145.68Z" fill="#263238"/>
<path d="M103.321 237.707H59.153V284.263H103.321V237.707Z" fill="#455A64"/>
<path d="M58.373 254.18H56.113V333.924H58.373V254.18Z" fill="#263238"/>
<path d="M106.122 254.18H103.862V333.924H106.122V254.18Z" fill="#263238"/>
<path d="M83.4501 254.18H81.1901V333.924H83.4501V254.18Z" fill="#263238"/>
<path d="M104.992 281.279H57.2421V287.725H104.992V281.279Z" fill="#263238"/>
<path d="M124.699 113.457H219.696V63.6035H124.699V113.457Z" fill="#455A64"/>
<path d="M234.4 113.456H219.696V98.1465L234.4 113.456Z" fill="#455A64"/>
<path d="M210.602 72.2246H133.793V73.1716H210.602V72.2246Z" fill="white"/>
<path d="M181.425 77.3398H133.793V78.2868H181.425V77.3398Z" fill="white"/>
<path d="M199.044 87.5703H133.793V88.5173H199.044V87.5703Z" fill="white"/>
<path d="M210.602 92.6865H133.793V93.6335H210.602V92.6865Z" fill="white"/>
<path d="M210.602 97.8018H133.793V98.7488H210.602V97.8018Z" fill="white"/>
<path d="M171.666 102.918H133.793V103.865H171.666V102.918Z" fill="white"/>
<path d="M163.706 165.641H219.071V131.864H163.706V165.641Z" fill="#5C60F5"/>
<path d="M219.071 146.567V131.864H234.381L219.071 146.567Z" fill="#5C60F5"/>
<path d="M180.662 148.753C180.662 149.986 179.662 150.986 178.429 150.986C177.196 150.986 176.196 149.986 176.196 148.753C176.196 147.52 177.196 146.52 178.429 146.52C179.663 146.521 180.662 147.52 180.662 148.753Z" fill="white"/>
<path d="M193.621 148.753C193.621 149.986 192.621 150.986 191.388 150.986C190.155 150.986 189.155 149.986 189.155 148.753C189.155 147.52 190.155 146.52 191.388 146.52C192.622 146.521 193.621 147.52 193.621 148.753Z" fill="white"/>
<path d="M206.581 148.753C206.581 149.986 205.581 150.986 204.348 150.986C203.115 150.986 202.115 149.986 202.115 148.753C202.115 147.52 203.115 146.52 204.348 146.52C205.581 146.521 206.581 147.52 206.581 148.753Z" fill="white"/>
<path d="M385.091 236.714H290.093V280.681H385.091V236.714Z" fill="#5C60F5"/>
<path d="M275.389 280.681H290.093V265.371L275.389 280.681Z" fill="#5C60F5"/>
<path d="M368.361 259.671H299.369V260.618H368.361V259.671Z" fill="white"/>
<path d="M357.551 264.787H299.369V265.734H357.551V264.787Z" fill="white"/>
<path d="M360.703 249.44H299.369V250.387H360.703V249.44Z" fill="white"/>
<path d="M374.431 244.324H299.369V245.271H374.431V244.324Z" fill="white"/>
<path d="M361.882 269.902H299.369V270.849H361.882V269.902Z" fill="white"/>
</svg>
