<?xml version="1.0" encoding="utf-8"?>
<!-- Generator: Adobe Illustrator 24.3.0, SVG Export Plug-In . SVG Version: 6.00 Build 0)  -->
<svg version="1.1" id="Layer_1" xmlns="http://www.w3.org/2000/svg" xmlns:xlink="http://www.w3.org/1999/xlink" x="0px" y="0px"
	 viewBox="0 0 349 328.5" style="enable-background:new 0 0 349 328.5;" xml:space="preserve">
<style type="text/css">
	.st0{fill:#F6A0AB;}
	.st1{fill:#5282BD;}
	.st2{fill:#FFFFFF;}
	.st3{fill:#ACDDD8;}
	.st4{fill:#808285;}
	.st5{fill:#52607B;}
	.st6{fill:#7B6055;}
	.st7{fill:#3E4A60;}
	.st8{fill:#A17F70;}
	.st9{fill:#2A1200;}
	.st10{fill:#EFCAAC;}
	.st11{fill:#F6DFC9;}
	.st12{fill:#6B3F33;}
	.st13{fill:#694312;}
	.st14{fill:#6E6061;}
	.st15{fill:#3F5366;}
	.st16{fill:#2E4050;}
	.st17{fill:#646669;}
	.st18{fill:#AFB1B4;}
	.st19{fill:#B16153;}
	.st20{fill:#D57565;}
	.st21{fill:#3B5D6D;}
	.st22{fill:#F59066;}
	.st23{fill:#46607F;}
	.st24{fill:#492717;}
	.st25{fill:#6E6F72;}
	.st26{fill:#B8BABC;}
	.st27{fill:#86888A;}
	.st28{fill:#999B9E;}
</style>
<g>
	<g>
		<circle class="st0" cx="176.8" cy="121" r="91.6"/>
		<path class="st1" d="M231,29.6l-59.5,59.5l-59.5-59.5C144.8-3.3,198.1-3.3,231,29.6z"/>
	</g>
	<g>
		<g>
			
				<ellipse transform="matrix(0.9239 -0.3827 0.3827 0.9239 -53.57 19.6529)" class="st0" cx="22.6" cy="144.5" rx="17.4" ry="17.4"/>
			<path class="st2" d="M28.4,137.2c-2.4-0.4-4.4,0.4-5.8,1.7c-1.3-1.3-3.4-2.2-5.8-1.8c-4.6,0.8-5.5,6.2-3.1,9.6
				c2.2,3,5.2,5.5,8.4,7.7c0.1,0.1,0.2,0.1,0.3,0.2c0.1-0.1,0.2-0.1,0.3-0.2c3.2-2.2,6.3-4.6,8.5-7.6
				C33.8,143.6,33,138.1,28.4,137.2z"/>
		</g>
		<g>
			<path class="st3" d="M17.6,70.9l5.9,5.9c-3.7,3.7-6,8.8-6,14.4H9.2C9.2,83.3,12.4,76.1,17.6,70.9z"/>
			<path class="st0" d="M23.4,76.8l-5.9-5.9c5.2-5.2,12.4-8.4,20.3-8.4v8.3C32.2,70.8,27.1,73.1,23.4,76.8z"/>
			<path class="st3" d="M37.8,111.6v8.3c-15.8,0-28.7-12.8-28.7-28.7h8.3C17.5,102.5,26.6,111.6,37.8,111.6z"/>
			<path class="st1" d="M37.8,70.8v-8.3c15.8,0,28.7,12.8,28.7,28.7h-8.3C58.2,80,49.1,70.8,37.8,70.8z"/>
			<path class="st1" d="M52.3,105.6l5.9,5.9c-5.2,5.2-12.4,8.4-20.3,8.4v-8.3C43.5,111.6,48.6,109.3,52.3,105.6z"/>
			<path class="st1" d="M58.2,91.2h8.3c0,7.9-3.2,15.1-8.4,20.3l-5.9-5.9C55.9,101.9,58.2,96.8,58.2,91.2z"/>
		</g>
	</g>
	<g>
		<g>
			<g>
				<polygon class="st4" points="127.5,230.8 126.6,285.5 124.9,285.5 124.1,230.8 				"/>
				<polygon class="st4" points="94.4,230.8 93.5,285.5 91.8,285.5 91.1,230.8 				"/>
			</g>
			<g>
				<polygon class="st4" points="87.3,225.4 86.6,285.3 85.1,285.3 84.5,225.4 				"/>
				<polygon class="st4" points="59.2,225.4 58.5,285.3 57,285.3 56.4,225.4 				"/>
			</g>
			<path class="st0" d="M129.7,237.2c0,0,5.4-9-5.6-11.9s-23.5,4-31.8-8.4c-8.3-12.3-8.5-59.6-15.2-65c-6.7-5.4-34.4-6.2-34.8,0
				c-0.5,6.2,2.7,72.7,17,83C73.5,245.2,129.7,237.2,129.7,237.2z"/>
			<path class="st0" d="M42.2,151.9c0.5-6.2,28.1-5.4,34.8,0c6.7,5.4,6.9,52.6,15.2,65c3.1,4.6,6.8,6.5,10.8,7.3
				c-1.4,0.1-2.9-0.1-4.3-0.4c-2.7-0.5-5.4-1-8.2-1.4c-3.9-0.6-7.9-0.8-11.9-0.7c-3.3,0.1-6.6,0.3-9.8,0.8c-1.6,0.3-3.3,0.6-4.9,1.1
				c-1.2,0.4-2.5,0.9-3.6,1.8c-0.7,0.6-1.4,1.6-1.4,2.8c0,1.5,0.9,2.6,1.8,3.3c1.3,1.2,2.9,1.8,4.5,2.4c1.9,0.7,3.8,1.2,5.7,1.6
				c3.2,0.7,6.4,1.2,9.7,1.6c6.7,0.9,13.5,1,20.3,0.8c3.3-0.1,6.6-0.3,9.9-0.3c3.1-0.1,6.2-0.2,9.3-0.5c3.5-0.4,7-1,10.4-2.2
				c-0.4,1.4-1,2.3-1,2.3s-56.2,8-70.5-2.3C44.9,224.6,41.8,158.1,42.2,151.9z"/>
		</g>
		<g>
			<g>
				<path class="st5" d="M135.9,310.1c1.3,0.6,2.8,1,4.1,1.5c2.9,1.2,5.6,2.8,8.6,3.8c2.7,0.9,5.5,1.4,8.3,1.6
					c2.8,0.2,5.7,0,8.4-0.6c0-0.1,0.1-0.1,0.1-0.2c0.2-0.1,0.3-0.3,0.5-0.4c1.2-1.1,1.5-3,0.6-4.4c-0.5-0.7-1.2-1.2-1.9-1.7
					c-0.9-0.6-1.8-1.1-2.7-1.6c-2.1-1.1-4.2-2-6.3-3c-1.9-0.9-3.8-1.8-5.6-2.9c-0.9-0.5-1.7-1.2-2.4-1.9c-0.3-0.3-0.6-0.7-0.7-1.2
					c-0.1-0.4,0.1-0.9,0-1.3c-0.3-1.4-2.8-0.9-3.8-0.7c-0.8,0.1-1.6,0.2-2.3,0.6c-0.3,0.2-0.5,0.4-0.7,0.8c-0.2,0.4-0.2,0.9-0.7,0.7
					c-0.8-0.2-1.4-1-2.1-1.4c-0.6-0.4-1.3-0.7-2-0.7c-0.6-0.1-1.3,0.1-1.7,0.5c0,0,0,0,0,0.1c-0.7,3.8-1.2,7.9-0.1,11.6
					C133.9,309.7,135.3,309.8,135.9,310.1z"/>
			</g>
			<path class="st6" d="M76.1,201.8c0,0-1.5,22.1,8.4,25.4c9.9,3.3,45.1,10.4,45.1,10.4s-2.6,7.5,2.7,61.4c0,0,5.4,2,14.5,0.1
				l0.4-70.3c0,0,0.5-3.3-2.1-7.3c-2.6-4-36.9-12.3-36.9-12.3l-1.6-11L76.1,201.8z"/>
			<g>
				<path class="st7" d="M106.4,311.3c1.2,0.8,2.5,1.5,3.7,2.3c2.6,1.8,4.9,3.9,7.6,5.5c2.4,1.4,5.1,2.5,7.8,3.3
					c2.7,0.8,5.5,1.2,8.3,1.1c0.1-0.1,0.1-0.1,0.2-0.2c0.2-0.1,0.4-0.2,0.6-0.3c1.4-0.9,2.1-2.6,1.4-4.2c-0.3-0.8-0.9-1.5-1.5-2.1
					c-0.7-0.7-1.5-1.4-2.3-2.1c-1.8-1.5-3.7-2.8-5.5-4.2c-1.6-1.3-3.4-2.5-4.9-4c-0.7-0.7-1.4-1.5-2-2.3c-0.2-0.4-0.5-0.8-0.5-1.3
					c0-0.4,0.3-0.9,0.3-1.3c0-1.5-2.6-1.5-3.5-1.5c-0.8,0-1.7-0.1-2.4,0.1c-0.3,0.1-0.6,0.3-0.8,0.6c-0.2,0.3-0.4,0.8-0.8,0.6
					c-0.7-0.4-1.2-1.3-1.7-1.8c-0.5-0.5-1.1-0.9-1.8-1.1c-0.6-0.2-1.2-0.2-1.8,0.1c0,0,0,0-0.1,0c-1.5,3.6-2.8,7.5-2.5,11.3
					C104.5,310.6,105.8,310.9,106.4,311.3z"/>
			</g>
			<path class="st8" d="M62.5,193.9c0,0-6.2,21.3,2.7,26.6c9,5.4,42.5,20.1,42.5,20.1s-3.8,32.7-3.9,61.1c0,0,6.9,2.9,16.9,0.7
				l5.3-66.7c0,0,1.2-3.1-0.5-7.6c-1.7-4.5-27.4-16.2-27.4-16.2l6.4-10.3L62.5,193.9z"/>
		</g>
		<g>
			<path class="st9" d="M117.3,101.2c0.1,0,0.2-0.1,0.2-0.1c0-0.1,0-0.2-0.1-0.3l-13-4.2c0,0-0.7-0.3-1.6,0.1
				c-0.9,0.4-1.7,1.3-2.2,2.8c0,0.1,0,0.2,0.1,0.3c0.1,0,0.2,0,0.3-0.1c0.5-1.4,1.2-2.3,2-2.6c0.7-0.3,1.3-0.1,1.3-0.1L117.3,101.2
				C117.3,101.2,117.3,101.2,117.3,101.2z"/>
			<path class="st10" d="M125.7,161.6c0.1,0.1,6,17.1,6,17.1l-18.2,1.3l-3.4-14.3L125.7,161.6z"/>
			<g>
				<path class="st11" d="M99.8,187.7c-1.8,0-3.6-0.1-5.4-0.2c-7.2-0.3-14.5-1.5-21.4-3.8c-1.1-0.4-2.2-0.8-3.3-1.1
					c-0.7-1.4-1.2-2.4-1.3-2.6c-0.2-1-0.3-1.9-0.5-2.9c0.9-1.9-5.3-35.6-4.1-40.2c0.9-3.6-0.7-11.3,0.2-14.9c1.2-2,9.3-3,13.6-4.3
					c2.4-0.7,3.8-17.3,5.3-17.2c2.1,0.2,6.6,4.3,8.6,4.9c0.9,0.3,2.7,4.1,3.4,4.6c0.1,0.8-0.6,8.4-0.1,9.2c0.5,0.7,1.2,1.3,1.9,1.9
					c0.8,0.7,11.4,4.4,12.2,5.2c0.3,0.4,0.9,23,0,29.7c-1.7,12.8-2.3,19.3-6.1,28.5C102.6,184.6,100.1,187.7,99.8,187.7z"/>
				<path class="st10" d="M100.9,129.3c-0.9,1.9-2.4,3.4-4.3,4.4c-3.6,1.9-7.9,2-11.8,1.5c-3.9-0.5-7.7-2.2-10.7-4.8
					c-2.9-2.5-5.1-5.9-6.5-9.5c-0.1-0.2-0.2-0.5-0.2-0.7c3.1-0.9,7.5-1.7,10.4-2.5c2.4-0.7,3.8-17.3,5.3-17.2
					c2.1,0.2,6.6,4.3,8.6,4.9c0.9,0.3,2.7,4.1,3.4,4.6c0.1,0.8-0.6,8.4-0.1,9.2c0.5,0.7,1.2,1.3,1.9,1.9c0.4,0.3,2.8,1.2,5.3,2.2
					C102.1,125.4,101.7,127.5,100.9,129.3z"/>
				<g>
					<path class="st11" d="M78.1,86.7c-1,4.7-1.1,9.5,0.8,14c1.8,4.2,5,7.8,8.9,10.3c3.6,2.3,8,4,12.4,3.3c4.3-0.7,8.1-3.7,10.4-7.4
						c1.5-2.4,1.6-5,1.7-7.7c0-1.5,0.1-3,0.4-4.4c0.3-1.4,0.8-2.8,1.3-4.2c1-2.5,2-5.1,1.8-7.8c0-0.5-0.1-1.1-0.3-1.6
						c0-0.5-0.1-1-0.2-1.5c-0.7-4.2-2.8-5.9-6.3-8.4c-3.7-2.7-8.4-5.9-12.8-5.1c-4.8,0.7-9.1,3.4-12.2,7.1
						C80.9,77.1,79.1,81.8,78.1,86.7z"/>
					<g>
						<path class="st12" d="M108.4,97.3c0.3-0.6,0.7-1.2,1.3-1c0.1,0,0.2,0.1,0.2,0.2c0.2,0.4,0.3,0.8,0.3,1.2
							c0,0.6-0.1,1.3-0.4,1.8c-0.1,0.3-0.3,0.5-0.6,0.6c-0.3,0.1-0.6,0.1-0.8-0.1c-0.5-0.4-0.4-1.1-0.3-1.7
							C108,98.2,108.2,97.7,108.4,97.3z"/>
						<path class="st2" d="M109.5,97.2c0.1-0.1,0.1-0.2,0.3-0.3c0,0,0.1,0,0.1,0c0,0,0,0,0,0.1c0,0,0,0,0,0c0,0,0,0,0,0c0,0,0,0,0,0
							c0,0.1,0,0.1,0,0.2c0,0.2,0,0.3-0.1,0.5c0,0.1-0.1,0.1-0.2,0.2c-0.1,0-0.2,0-0.2,0c-0.1-0.1-0.1-0.3-0.1-0.4
							C109.4,97.4,109.4,97.3,109.5,97.2z"/>
					</g>
					<g>
						<path class="st12" d="M94.7,94c0.3-0.6,0.7-1.2,1.3-1c0.1,0,0.2,0.1,0.2,0.2c0.2,0.4,0.3,0.8,0.3,1.2c0,0.6-0.1,1.3-0.4,1.8
							c-0.1,0.3-0.3,0.5-0.6,0.6c-0.3,0.1-0.6,0.1-0.8-0.1c-0.5-0.4-0.4-1.1-0.3-1.7C94.4,94.8,94.5,94.4,94.7,94z"/>
						<path class="st2" d="M95.8,93.9c0.1-0.1,0.1-0.2,0.3-0.3c0,0,0.1,0,0.1,0c0,0,0,0,0,0.1c0,0,0,0,0,0c0,0,0,0,0,0c0,0,0,0,0,0
							c0,0.1,0,0.1,0,0.2c0,0.2,0,0.3-0.1,0.5c0,0.1-0.1,0.1-0.2,0.2c-0.1,0-0.2,0-0.2,0c-0.1-0.1-0.1-0.3-0.1-0.4
							C95.8,94.1,95.8,94,95.8,93.9z"/>
					</g>
					<path class="st13" d="M113.1,90.5c-0.6-0.1-1.2,0-1.8,0.2c-0.7,0.2-1.4,0.5-2.1,0.8c-0.6,0.3-1.2,0.6-1.7,0.9
						c-0.1-0.1-0.2-0.2-0.1-0.3c0.3-0.3,0.6-0.7,0.9-1c0.4-0.3,0.7-0.7,1.1-1c0.7-0.5,1.5-0.9,2.4-1.2c0.7-0.2,1.6-0.4,2.1,0.3
						c0.3,0.5,0.3,1.1,0.2,1.6c0,0,0,0.1,0,0.1c0,0,0,0.1,0,0.1C113.8,90.8,113.5,90.5,113.1,90.5z"/>
					<path class="st13" d="M98.5,88.6c-1-0.4-2-0.7-3-1.1c-1.7-0.5-3.4-1.1-5.1-1.5c0.4-0.4,1-0.6,1.4-0.7c1.6-0.5,3.2-0.1,4.6,0.7
						c0.8,0.5,1.7,1,2.4,1.6c0.4,0.3,0.8,0.7,1.1,1.1c0.1,0.1,0.2,0.3,0.3,0.4c0,0,0.1,0.1,0.1,0.1c0,0,0,0,0,0
						C99.8,89.1,99.1,88.9,98.5,88.6z"/>
					<path class="st11" d="M102.7,104.2c0.8-0.3,1.7-0.5,2.3-1c0.1-0.1,0.3-0.2,0.4-0.4c0.1-0.2,0-0.5-0.1-0.7
						c-0.1-0.4-0.3-0.8-0.4-1.3c-0.2-0.8-0.3-1.5-0.4-2.3c0-0.2,0.1-0.4,0.1-0.6c0.1,1.1,0.4,2.2,0.7,3.2c0.2,0.7,0.7,1.6,0.3,2.3
						c-0.4,0.7-1.2,0.9-1.9,1c-0.2,0-0.4,0.1-0.6,0.1c-0.3,0-0.6,0.1-0.9,0.1C102.3,104.6,102.5,104.4,102.7,104.2z"/>
					<path class="st2" d="M102.3,110.3c0,0-5.3-1.8-9.2-4.6c0,0-0.6,2.2,3,3.9C99.8,111.4,102.3,110.3,102.3,110.3z"/>
					<path class="st14" d="M76.4,71.2c1.6-2,3.7-3.6,6.1-4.6c2.4-1,4.9-1.5,7.5-1.4c0.5-0.5,1-0.9,1.6-1.3c2.3-0.9,4.9-0.5,7.2,0.4
						c2.6,0.9,5.1,2.3,7.5,3.6c3,1.6,5.9,3.3,9.1,4.7c1.7,0.7,3.8,0.7,5.3,1.8c2.4,1.8,3.2,5.3,2,8c-2.7,5.9-11.1,4.1-15.7,2
						c-2.2-1-4.3-2.1-6.4-3.2c-1.4-0.8-3-1.7-4.1-2.9c-3.2,1.6-6.1,3.7-8.7,6.1c-2.6,2.5-5,5.2-6.7,8.5c-0.5,1-1,1.9-1.3,3
						c-0.3,1-0.5,2-0.9,3c-0.1,0.2-0.4,0.1-0.5,0c-0.4-0.5-0.5-1.1-0.6-1.7c-0.1-0.8-0.3-1.5-0.5-2.2c-0.5-1.7-1.1-3.2-1.7-4.8
						c-0.6-1.5-1.2-3.1-1.6-4.7c-0.4-1.7-0.5-3.5-0.4-5.2C73.6,76.8,74.5,73.7,76.4,71.2z"/>
					<path class="st11" d="M74.8,93.2c0.1,2.2,0.6,4.3,2,5.9c0.6,0.7,1.5,1.5,2.5,1.2c1.1-0.3,1.3-1.7,1.4-2.7
						c0.1-1.2,0.3-2.5,0.2-3.8c-0.1-0.6-0.2-1.1-0.3-1.7c0-0.4-0.1-0.9-0.2-1.2c-0.2-1.3-0.9-3.1-2.4-3.3c-1.2-0.2-2.2,0.8-2.7,1.8
						C74.9,90.7,74.8,92,74.8,93.2z"/>
					<path class="st11" d="M76.1,90.7c0.4-0.5,0.9-0.4,1.3-0.1c0.6,0.4,0.9,1.2,1.1,1.9c0.2,0.7,0.3,1.5,0.4,2.3
						c0.1,1.1,0,2.4-0.4,3.5c-0.1,0.2-0.3,0-0.3-0.2c0.1-0.7,0.2-1.4,0.3-2c-0.1,0-0.2-0.1-0.2-0.1c-0.1-0.1-0.2-0.1-0.3-0.2
						c-0.2-0.2-0.4-0.4-0.6-0.6c-0.3-0.5-0.6-1-0.8-1.4c-0.1-0.1,0.1-0.2,0.1-0.1c0.3,0.4,0.5,0.9,0.8,1.3c0.2,0.2,0.3,0.4,0.5,0.6
						c0.1,0.1,0.2,0.1,0.3,0.2c0.1,0,0.1,0.1,0.2,0.1c0-0.3,0-0.6,0-1c-0.1-0.8-0.2-1.7-0.5-2.5c-0.2-0.5-0.7-1.7-1.5-1.4
						c-0.6,0.2-0.8,1-0.8,1.5c0,0.1-0.1,0-0.1,0C75.6,91.7,75.7,91.1,76.1,90.7z"/>
				</g>
				<path class="st15" d="M97.6,120.9c0,0,3,5.6-6.7,6.5c-9.7,0.9-14-10.2-14-10.2s-7.2,0.8-11.4,2.3c-4.3,1.5-7.4,5.4-7.4,5.4
					l0.5,83c0,0,11.7,3.4,29,2.9c17.4-0.5,21.3-5.3,21.3-5.3s4.3-51.1,3.3-62.7c-1-11.6-2.7-17.4-2.7-17.4L97.6,120.9z"/>
				<path class="st16" d="M109.5,125.4c0,0,2.3,0.8,5.9,4.6c3.6,3.8,16.2,31,16.2,31s-6.1,11.5-20.2,8.2l0.5-10
					C112,159.2,112,133.1,109.5,125.4z"/>
				<polygon class="st10" points="53.1,161 54.4,170.8 67.3,169.7 66.6,158.4 				"/>
				<g>
					<path class="st11" d="M90.3,168.6c1.4-2.4,3.7-2.8,6.2-3.4c1-0.2,1.9-0.5,2.9-0.7c0.8-0.2,1.7-0.4,2.6-0.5c0.3,0,0.7,0,1,0.1
						c0.8,0.1,1.6,0.2,2.3,0.3c1,0.2,2,0.4,3,0.6c0.8,0.2,1.7,0.4,2.4,0.8c0.8,0.4,1.4,0.9,2,1.5c0.5,0.5,1.1,0.9,1.5,1.4
						c0.2,0.2,0.3,0.5,0.3,0.7c0,0.2-0.2,0.4-0.5,0.5c-0.2,0.1-0.5,0.1-0.8,0.1c-1.3-0.3-2.5-1.1-3.6-1.7c-0.4-0.2-0.8-0.3-1.2-0.5
						c-0.6-0.2-1.2-0.3-1.9-0.4c-0.4-0.1-0.9-0.1-1.3-0.1c0.1,0,0.3,0.1,0.4,0.2c0.6,0.3,1.2,0.7,1.7,1c0.6,0.3,1.1,0.6,1.6,1.1
						c0,0,0,0,0,0c0.4,0.2,0.7,0.5,1,0.8c0.6,0.6,1.1,1.3,1.5,2c0.2,0.3,0.4,0.5,0.5,0.8c0.3,0.3,0.6,0.7,0.9,1.1
						c0.3,0.4,0.6,0.8,0.7,1.3c0.1,0.6-0.4,0.8-0.9,0.7c-0.8,0-1.3-0.6-1.8-1.2c-0.6-0.8-1.2-1.5-1.9-2.2c-0.7-0.7-1.6-1.2-2.5-1.5
						c0,0-0.1,0-0.1,0c0.1,0,0.1,0.1,0.2,0.1c0.4,0.3,0.6,0.7,0.9,1.1c0.6,1,1.3,2,2,3c0.3,0.5,0.7,1,1.1,1.5
						c0.2,0.3,1.6,2.1,0.5,2.2c-0.3,0-0.6-0.1-0.9-0.2c-0.4-0.2-0.7-0.4-1-0.7c-0.7-0.6-1.2-1.4-1.7-2.2c-0.3-0.4-0.5-0.8-0.8-1.2
						c-0.4-0.5-1-0.8-1.5-1.1c-0.9-0.4-1.9-0.6-2.8-0.8c0.3,0.1,0.6,0.3,1,0.4c1.4,0.7,2.1,1.8,3,3c0.4,0.6,1,1,1.4,1.6
						c0.2,0.4,0.4,0.9,0.1,1.2c-0.3,0.2-0.7,0.1-1,0c-1-0.5-1.6-1.4-2.4-2.2c-0.9-0.9-2-1.5-3.1-2.1c-0.9-0.5-1.2,0.2-1.9,0.6
						c-1.6,0.9-3.5,0.6-5.2-0.1c-1.5-0.6-3.5-1.2-4.4-2.6C89,171.6,89.6,169.8,90.3,168.6z"/>
					<g>
						<g>
							<path class="st11" d="M84.7,174.3c-1.8,0-3.5,0.1-5.3,0.2c-2.5,0.1-5.1,0.4-7.6,0.5c-2.6,0.1-5.1,0.2-7.7,0.1
								c-1.2,0-2.5-0.1-3.7-0.2c-1.2-0.1-2.5-0.3-3.6-0.9c-1.7-0.9-2.8-2.9-2.7-4.8c0.1-0.9,0.4-1.7,0.9-2.4
								c0.6-0.8,1.5-1.3,2.3-1.7c1.7-0.9,3.6-1.3,5.6-1.5c2-0.2,4-0.2,5.9-0.1c8,1.7,23.1,3.9,23.1,3.9l-0.2,5.7
								C91.8,173.1,88.8,173.6,84.7,174.3z"/>
						</g>
					</g>
				</g>
				<g>
					<path class="st16" d="M48.3,156.4c0.6-3.6,1.4-7.2,2.3-10.7c0.9-3.5,1.8-7,2.9-10.5c1-3.2,2.1-6.5,3.8-9.4
						c1.2-2.2,3.2-4.7,6-3.8c2.2,0.7,8,4.7,8,13.5c0,3.3-2.2,25-1.8,27.8c-3.3,0.6-13.7,2.2-22.3,0.7
						C47.5,161.4,47.9,158.9,48.3,156.4z"/>
				</g>
			</g>
			<g>
				<path class="st11" d="M104.4,184.3c1.1,0.5,2.3,1,3.4,1.5c1.1,0.5,2.3,1,3.5,1.4c1.1,0.3,2.2,0.4,3.3,0.4c1.2,0,2.5,0.1,3.7,0
					c2.3-0.1,4.5-0.3,6.7-1.1c2.1-0.8,4-2,5.9-3.2c0.7-0.4,1.4-0.9,2.1-1.4c0.2-0.1,0.9-0.5,0.8-0.8c-0.1-0.5-5.1-0.1-5.6-0.3
					c-1.2-0.4-2.5-0.4-3.8-0.4c-2.5,0-5-0.1-7.5,0.2c-2.5,0.3-4.9,0.7-7.4,0.8c-1.3,0-2.5,0-3.8,0c-1.1,0-2.4,0-3.4,0.5
					C100.9,182.8,103.9,184.1,104.4,184.3z"/>
				<g>
					<path class="st10" d="M108,182.2c0.5-0.8,1.8-1,2.6-0.7c0.8-0.5,2.2-0.4,3.1-0.3c1.3,0.1,2.6,0.4,3.9,0.7
						c1.6,0.4,3,0.8,4.7,0.7c1.5-0.1,2.9-0.4,4.4-0.3c0,0,0.1,0.1,0,0.1c-1.1,0-2.3,0.3-3.4,0.4c-1.1,0.1-2.2,0.1-3.3-0.1
						c-1.2-0.2-2.3-0.6-3.5-0.8c-1.1-0.2-2.3-0.4-3.5-0.5c-0.5,0-3.2,0.1-2.4,1.1c0.3,0.4,1,0.5,1.4,0.6c0.6,0.2,1.2,0.3,1.8,0.5
						c2.2,0.7,4.4,1.6,6.7,2.2c1,0.3,2.1,0.4,3.1,0.4c1.1,0,2.2-0.2,3.1-0.8c0.1-0.1,0.2,0.1,0.1,0.2c-1.6,1.2-3.8,1.1-5.6,0.7
						c-2.6-0.5-5-1.6-7.5-2.4c-0.6-0.2-1.3-0.4-1.9-0.5c-0.5-0.1-1-0.2-1.3-0.5c-0.4-0.3-0.6-0.8-0.3-1.2c-1.1-0.2-2.8,0.5-2,1.8
						c0.3,0.5,0.8,0.9,1.3,1.2c0.7,0.5,1.4,0.8,2.1,1.2c1.4,0.6,2.8,1.1,4.3,1.4c0,0,0,0,0,0c0,0,0,0,0,0c0.1,0,0.2,0,0.3,0.1
						c1.6,0.2,3.2,0,4.8,0.2c0,0,0,0,0,0c-1.5,0-3,0.2-4.5,0c-0.3,0-0.5-0.1-0.8-0.1c-0.3,0-0.5,0.1-0.7,0.2c-0.3,0.1-0.6,0.1-0.9,0
						c-0.6,0-1.3,0-1.9-0.1c-0.9-0.1-2.1-0.3-2.7-0.9c-0.1-0.1,0-0.1,0.1-0.1c0.5,0.2,0.9,0.4,1.4,0.5c0.5,0.1,1,0.2,1.5,0.2
						c0.6,0,1.2,0.1,1.8,0.1c0.3,0,0.5,0,0.8-0.1c-1-0.2-1.9-0.5-2.9-0.9c-1.2-0.5-2.4-1.1-3.4-2C108.4,183.9,107.5,183,108,182.2z"
						/>
				</g>
				<g>
					<g>
						
							<rect x="81" y="178.8" transform="matrix(-1 -1.224647e-16 1.224647e-16 -1 207.3149 360.2327)" class="st17" width="45.2" height="2.6"/>
						
							<rect x="99.5" y="180.1" transform="matrix(-1 -1.224647e-16 1.224647e-16 -1 213.2272 360.8785)" class="st18" width="14.1" height="0.6"/>
						<polygon class="st17" points="116.4,181.4 147,181.4 161.4,126.7 130.9,126.7 						"/>
						<polygon class="st18" points="117.5,181.4 148,181.4 162.5,126.7 131.9,126.7 						"/>
					</g>
				</g>
			</g>
			<g>
				<path class="st9" d="M109.2,105.5c-1.5-0.6-2.6-1.8-3.3-3.3c-0.6-1.6-0.6-3.3,0-4.9c0.6-1.6,1.8-2.9,3.3-3.7
					c1.5-0.7,3.1-0.8,4.6-0.2c1.5,0.6,2.6,1.8,3.3,3.3c0.6,1.6,0.6,3.3,0,4.9c-0.6,1.6-1.8,2.9-3.3,3.7c-0.8,0.4-1.7,0.6-2.6,0.6
					C110.5,105.9,109.8,105.8,109.2,105.5z M109.4,94c-1.4,0.7-2.5,1.9-3.1,3.4c-0.6,1.5-0.6,3.2,0,4.6c0.6,1.5,1.6,2.5,3,3.1
					c1.4,0.5,2.9,0.5,4.3-0.2c1.4-0.7,2.5-1.9,3.1-3.4c0.6-1.5,0.6-3.2,0-4.6c-0.6-1.5-1.6-2.5-3-3.1c-0.6-0.2-1.2-0.4-1.9-0.4
					C111.1,93.4,110.2,93.6,109.4,94z"/>
				<path class="st9" d="M93.7,101.6c-1.5-0.6-2.6-1.8-3.3-3.3c-0.6-1.6-0.6-3.3,0-4.9l0,0c1.3-3.3,4.9-5.1,7.9-3.9
					c1.5,0.6,2.6,1.8,3.3,3.3c0.6,1.6,0.6,3.3,0,4.9c-0.6,1.6-1.8,2.9-3.3,3.7c-0.8,0.4-1.7,0.6-2.6,0.6
					C95,102,94.3,101.9,93.7,101.6z M90.8,93.5L90.8,93.5c-0.6,1.5-0.6,3.2,0,4.6c0.6,1.5,1.6,2.5,3,3.1c1.4,0.5,2.9,0.5,4.3-0.2
					c1.4-0.7,2.5-1.9,3.1-3.4c0.6-1.5,0.6-3.2,0-4.6c-0.6-1.5-1.6-2.5-3-3.1c-0.6-0.2-1.2-0.3-1.9-0.3C94.1,89.5,91.8,91,90.8,93.5z
					"/>
				<path class="st9" d="M91.4,92.3c0.1,0,0.2-0.1,0.2-0.1c0-0.1,0-0.2-0.1-0.3l-13-4.2c0,0-0.7-0.3-1.6,0.1
					c-0.9,0.4-1.7,1.3-2.2,2.8c0,0.1,0,0.2,0.1,0.3c0.1,0,0.2,0,0.3-0.1c0.5-1.4,1.2-2.3,2-2.6c0.7-0.3,1.3-0.1,1.3-0.1L91.4,92.3
					C91.3,92.3,91.3,92.3,91.4,92.3z"/>
				<path class="st9" d="M106,98.2C106,98.2,106,98.2,106,98.2c0.2-0.1,0.2-0.2,0.2-0.3c0,0-1.2-2.2-4.6-1.1c-0.1,0-0.2,0.1-0.1,0.3
					c0,0.1,0.1,0.2,0.3,0.1c3.1-1,4,0.8,4.1,0.9C105.8,98.1,105.9,98.2,106,98.2z"/>
			</g>
		</g>
	</g>
	<g>
		<path class="st10" d="M243.1,143c0,0-6.7,0.4-10.5,7.6c-3.8,7.2-9.4,28-9.4,28l8.5,13.9L243.1,143z"/>
		<path class="st10" d="M198.1,175.4c0,0,28,19.5,36.1,18.9c8.1-0.6,9.8-7.8,1.4-12.2c-8.4-4.3-36-13.5-36-13.5L198.1,175.4z"/>
		<g>
			<path class="st10" d="M201.3,172.2c-0.1-0.8-0.3-1.5-0.6-2.2c-0.3-0.7-0.8-1.3-1.4-1.8c-0.8-0.7-1.6-1.3-2.4-1.9
				c-0.8-0.6-1.7-1.3-2.5-1.9c-0.7-0.5-1.5-1.1-2.3-1.6c-0.3-0.2-0.6-0.3-1-0.3c-0.8-0.3-1.6-0.5-2.4-0.7c-1-0.3-2.1-0.5-3.2-0.7
				c-0.9-0.2-1.8-0.3-2.7-0.3c-0.9,0-1.7,0.2-2.5,0.5c-0.7,0.3-1.4,0.4-2,0.7c-0.2,0.1-0.5,0.3-0.6,0.6c-0.1,0.2,0.1,0.5,0.2,0.6
				c0.2,0.2,0.5,0.3,0.7,0.4c1.4,0.3,2.8,0,4.2-0.1c0.4,0,0.9,0,1.4,0.1c0.7,0.1,1.3,0.2,2,0.4c0.4,0.1,0.9,0.3,1.3,0.4
				c-0.1,0-0.3,0-0.4,0c-0.7,0-1.4,0.2-2.1,0.2c-0.7,0.1-1.3,0.2-2,0.4c0,0,0,0,0,0c-0.5,0.1-0.9,0.2-1.3,0.4
				c-0.8,0.3-1.6,0.7-2.3,1.2c-0.3,0.2-0.6,0.4-0.8,0.5c-0.5,0.2-0.9,0.4-1.3,0.6c-0.4,0.2-0.9,0.5-1.2,1c-0.3,0.5,0.1,0.9,0.6,1.1
				c0.8,0.3,1.5,0,2.2-0.4c0.9-0.5,1.8-0.9,2.8-1.2c1-0.3,2-0.5,3-0.4c0,0,0.1,0,0.1,0c-0.1,0-0.1,0-0.2,0c-0.5,0.1-0.9,0.4-1.3,0.7
				c-1,0.7-2.1,1.3-3.2,2c-0.5,0.3-1.1,0.7-1.6,1c-0.4,0.2-2.4,1.3-1.4,1.9c0.3,0.1,0.7,0.2,1,0.2c0.4,0,0.9-0.1,1.3-0.2
				c0.9-0.3,1.7-0.8,2.5-1.4c0.4-0.3,0.9-0.6,1.3-0.8c0.6-0.3,1.3-0.4,1.9-0.4c1,0,2,0.2,3,0.4c-0.4,0-0.7,0-1.1,0
				c-1.6,0.1-2.8,0.8-4.1,1.6c-0.6,0.4-1.4,0.5-2,0.9c-0.4,0.2-0.8,0.7-0.6,1.1c0.2,0.4,0.6,0.4,1,0.4c1.1-0.1,2.2-0.7,3.2-1
				c1.2-0.5,2.5-0.5,3.8-0.7c1.5-0.2,2.4,0.5,3.6,1.1c0.6,0.3,1.2,0.6,1.9,0.9c1.3,0.5,2.6,1,4,1.3c0.5,0.1,1.1,0.2,1.6,0
				c0.4-0.1,0.7-0.3,1-0.6C201.4,175.3,201.5,173.5,201.3,172.2z"/>
			<path class="st10" d="M185,164.8c0.2,0.6,0.5,1.3,0.9,1.7c0.6,0.6,1.5,0.8,2.3,1.1c0.8,0.2,1.5,0.5,2.1,1c0.5,0.4,1,1,1.4,1.5
				c1,1.2,2.3,2.3,3.8,3c1.4,0.6,3,0.5,4.2-0.4c0.5-0.4,1-0.9,1.3-1.5c-0.1-0.4-0.2-0.8-0.4-1.2c-0.3-0.7-0.8-1.3-1.4-1.8
				c-0.8-0.7-1.6-1.3-2.4-1.9c-0.1,0-0.1-0.1-0.2-0.1c-0.2,0-0.5-0.1-0.7-0.1c-0.6-0.1-1.1-0.3-1.6-0.4c-1.2-0.3-2.4-0.6-3.6-0.8
				c-1.6-0.3-3.1-0.6-4.7-0.8c0.1,0,0.2,0,0.3,0.1c0.4,0.1,0.9,0.3,1.3,0.4c-0.1,0-0.3,0-0.4,0c-0.7,0-1.4,0.2-2.1,0.2
				C185.1,164.8,185.1,164.8,185,164.8z"/>
			<path class="st10" d="M199.4,172.8c0.7-0.2,1.4-0.7,1.6-1.4c0.5-1.6-1.1-2.9-2.2-3.7c-3.5-2.4-8.1-2-12-3.4
				c-0.3-0.1-0.7-0.2-1-0.2c-0.8,0.2-0.3,1.3,0,1.8c0.8,1,2,1.2,3.1,1.5c2.9,0.8,3.8,4.4,6.6,5.3
				C196.7,173.1,198.2,173.2,199.4,172.8z"/>
		</g>
		<g>
			<g>
				<polygon class="st4" points="190,233.4 191.2,302.7 193.3,302.7 194.3,233.4 				"/>
				<polygon class="st4" points="232.1,233.4 233.3,302.7 235.4,302.7 236.4,233.4 				"/>
			</g>
			<g>
				<polygon class="st4" points="241.1,226.6 242.1,302.5 243.9,302.5 244.7,226.6 				"/>
				<polygon class="st4" points="276.9,226.6 277.9,302.5 279.7,302.5 280.5,226.6 				"/>
			</g>
			<path class="st3" d="M187.2,241.5c0,0-6.9-11.4,7.1-15.1c14.1-3.7,29.9,5,40.5-10.6c10.6-15.6,10.8-75.6,19.4-82.4
				c8.5-6.8,43.7-7.9,44.3,0s-3.4,92.2-21.6,105.2C258.7,251.6,187.2,241.5,187.2,241.5z"/>
			<path class="st1" d="M298.5,133.4c-0.6-7.9-35.8-6.8-44.3,0c-8.5,6.8-8.8,66.7-19.4,82.4c-4,5.9-8.7,8.3-13.7,9.2
				c1.8,0.1,3.7-0.2,5.5-0.5c3.5-0.6,6.9-1.3,10.4-1.8c5-0.7,10-1,15.1-0.9c4.2,0.1,8.4,0.3,12.5,1c2.1,0.3,4.2,0.7,6.2,1.4
				c1.6,0.5,3.2,1.2,4.6,2.3c0.9,0.8,1.8,2,1.7,3.5c0,1.8-1.2,3.3-2.3,4.2c-1.7,1.5-3.7,2.3-5.7,3.1c-2.4,0.9-4.8,1.5-7.3,2.1
				c-4.1,0.9-8.2,1.5-12.3,2.1c-8.6,1.2-17.2,1.2-25.8,1c-4.2-0.1-8.4-0.3-12.6-0.4c-4-0.1-7.9-0.2-11.9-0.6
				c-4.5-0.5-8.9-1.3-13.2-2.8c0.5,1.7,1.2,2.9,1.2,2.9s71.5,10.1,89.7-2.9C295.1,225.5,299.1,141.3,298.5,133.4z"/>
		</g>
		<g>
			<path class="st10" d="M192,235.6c-0.2,22.8,1.2,60.3,2.2,66l5,0.2c0,0,5.7-36.2,7.5-63.9L192,235.6z"/>
			<g>
				<path class="st10" d="M200.3,302.7c-0.6-1-1.2-1.7-1.1-2.9c0-0.6-0.2-0.9-0.8-0.7c-0.4,0.2-0.8,0.4-1.3,0.6
					c-0.5,0.3-2.3-0.5-2.8,0.1c-0.7,0.8-1.7,3.7-2.3,4.7c-0.6,1-1.4,2-2.1,3c-1.3,1.6-3,3.5-4.6,4.7c-0.6,0.5-1,0.8-1.4,1.5
					c-0.5,0.7-0.7,1-0.6,1.8c0.5,2.7,4.9,1.5,6.6,1c2.2-0.7,4.1-2.1,5.7-3.8c0.8-0.8,1.5-1.7,2.1-2.7c0.6-0.9,1-2.1,2-2.7
					c0.3-0.2,0.7-0.4,1-0.7c0.9-1,0.2-2.8-0.3-3.8C200.4,302.9,200.3,302.8,200.3,302.7z"/>
				<path class="st19" d="M178.5,317.3c-0.5,0.4-1,0.7-1.5,1.1c-0.9,0.6-1.8,1.6-1.4,2.9c0.4,1.3,2.6,1.2,3.6,1.2
					c1.5,0,3-0.2,4.4-0.6c1.8-0.5,4.9-1.5,6.4-2.6c1.6-1.1,2-2.3,3.7-3.3c1.4-0.9,2.3-1.9,3.8-2.6c1.2-0.6,2.6-1.2,3.3-2.4
					c0.4-0.7,0.9-1.2,1-2c0.1-0.7,0-1.3-0.1-2c0-0.3-0.7-3.6-1-3.5c-0.6,0.4-1.1,0.9-1.6,1.3c-0.9,0.8-1.6,1.8-2.4,2.7
					c-1.6,1.8-3.5,3.2-5.5,4.4c-1.4,0.8-2.8,1.6-4.3,2c-0.6,0.1-1.4,0.2-1.9-0.2c-0.5-0.3,0.5-0.9,0.5-1.4c-1,0.9-2.2,1.6-3.3,2.4
					C180.8,315.5,179.7,316.4,178.5,317.3z"/>
			</g>
		</g>
		<path class="st10" d="M214.9,220.5c-0.5,0.2-18,6.5-21.2,10.7c-3.2,4.2-1.8,10.5,3.4,11.9c5.3,1.4,29.3-10.6,29.3-10.6
			L214.9,220.5z"/>
		<g>
			<g>
				<path class="st11" d="M209.2,242.1c-3.6,22.5-7.3,57.3-7.3,63.2l5.8-1.1c0,0,10.5-32,16.5-59L209.2,242.1z"/>
				<g>
					<path class="st11" d="M208.8,306.2c-0.5-1-1-1.8-0.8-3c0.1-0.6-0.1-1-0.7-0.8c-0.5,0.1-0.9,0.3-1.3,0.5
						c-0.5,0.2-2.2-0.7-2.8-0.2c-0.8,0.8-2.1,3.5-2.8,4.4c-0.7,1-1.6,1.9-2.4,2.7c-1.4,1.4-3.4,3.2-5.1,4.2c-0.7,0.4-1.5,1-2,1.6
						c-0.5,0.6-0.4,0.7-0.4,1.5c0.2,2.8,4.7,2.1,6.5,1.7c2.3-0.5,4.3-1.6,6.1-3.1c0.9-0.7,1.7-1.5,2.4-2.4c0.7-0.8,1.2-2,2.2-2.4
						c0.4-0.2,0.8-0.3,1.1-0.6c1-0.9,0.5-2.8,0.1-3.8C208.9,306.4,208.8,306.3,208.8,306.2z"/>
					<path class="st20" d="M185.5,318.3c-0.5,0.3-1.1,0.6-1.6,0.9c-1,0.5-1.9,1.4-1.7,2.7c0.2,1.4,2.4,1.5,3.5,1.6
						c1.5,0.2,3,0.1,4.5-0.1c1.9-0.3,5-0.9,6.6-1.9c1.7-1,2.3-2,4-2.9c1.5-0.7,2.5-1.6,4.1-2.2c1.3-0.5,2.7-0.9,3.6-2
						c0.5-0.6,1-1.1,1.2-1.9c0.1-0.6,0.1-1.3,0.1-2c0-0.3-0.3-3.6-0.6-3.6c-0.6,0.4-1.2,0.7-1.7,1.2c-1,0.7-1.8,1.6-2.7,2.5
						c-1.8,1.6-3.8,2.8-6,3.8c-1.4,0.6-3,1.3-4.5,1.5c-0.6,0.1-1.4,0.1-1.9-0.4c-0.4-0.4,0.6-0.8,0.6-1.3c-1.1,0.7-2.3,1.3-3.5,2
						C188.1,316.8,186.8,317.6,185.5,318.3z"/>
				</g>
			</g>
			<path class="st11" d="M232.1,226.6c-0.5,0.2-18,6.5-21.2,10.7c-3.2,4.2-1.8,10.5,3.4,11.9c5.3,1.4,29.3-10.6,29.3-10.6
				L232.1,226.6z"/>
		</g>
		<path class="st21" d="M269.7,199.9l-34.6,0.6l-0.6,8.8c0,0-25.3,11.5-37.9,19.5c1.7,0,27.7,14.4,32.1,19.1
			c10.6-2.1,37.4-12.2,42.1-19.6C277.1,218.2,269.7,199.9,269.7,199.9z"/>
		<path class="st22" d="M239,209c3,0.8,6.1,1.2,9.1,1.3c3.2,0.1,6.5,0.1,9.7-0.2c4.8-0.4,11.3-2.1,15.6-4.4
			c-0.8-7.2-3.8-9.5-4.1-16.1c-0.5-10.1,1.3-41.4-0.3-45.5c0,0,0,0,0,0c-1.1-0.8-2.3-1.6-3.5-2.3c-1.7-1-3.6-1.8-5.6-2
			c-2.5-0.3-5-0.1-7.5,0.1c-1.7,0.2-3.4,0.5-5.1,0.8c-0.9,0.2-1.8,0.3-2.6,0.6c-0.8,0.3-1.6,0.8-2.3,1.4c-1.3,1.2-2.3,2.8-3.2,4.3
			c-1.1,1.8-2.2,3.6-3.4,5.4c-1.7,2.5-3.3,5.1-4.8,7.7c-0.7,2.3-1.4,4.6-1.8,6.8c-0.6,2.9,2,27.5,3.3,40
			C233.8,207.7,237.5,208.6,239,209z"/>
		<path class="st11" d="M287.2,186.6c-0.3-1.8-0.8-3.6-1.4-5.4c-1.5-4.5-2.8-9-4.4-13.5c-2.4-6.8-4.6-15-9.3-20.7
			c-1.3-1.5-2.9-2.9-4.7-3.7c-0.2-0.1-0.4-0.1-0.7-0.2c-0.9-0.2-1.7-0.1-2.4,0.4c-0.4,0.3-0.8,0.6-1.2,1c-0.4,0.4-0.8,0.9-1.1,1.4
			c-0.6,1.1-0.9,2.3-1.1,3.5c-0.3,2.3-0.3,4.6,0.2,6.9c0.4,2,1.1,3.9,1.8,5.8c2,3.3,4.1,6.5,5.6,10.1c1,2.4,2.1,4.8,3.1,7.3
			c0.9,2.3,1.8,4.6,2.5,6.9c0.6,1.9,1.2,4,2.4,5.7c0.6,0.8,1.4,1.5,2.3,1.9c1,0.4,2.1,0.5,3.1,0.3c1.8-0.3,3.7-1.2,4.6-2.8
			C287.4,190,287.4,188.2,287.2,186.6z"/>
		<g>
			<path class="st23" d="M223,135.5c-0.1-1.8,0.4-3.6,0.8-5.3c0.5-1.7,1.1-3.4,1.6-5.2c0.5-1.7,0.8-3.4,0.7-5.2
				c-0.1-1.8-0.5-3.5-1.1-5.2c2,3.6,3,7.6,1.9,11.7c-0.5,2-1.5,3.9-2,5.9c-0.3,1.6-0.4,3.3,0.3,4.9c0.3,0.7,0.7,1.3,1.2,1.9
				c2.9-1.5,6.6-0.5,9.5,0.2c1.7,0.4,3.4,0.7,5.1,0.5c1.7-0.1,3.3-0.7,4.8-1.5c1.7-0.9,3.3-2.2,5-3.1c1.7-0.9,3.5-1.7,5.3-2.2
				c1.7-0.5,3.5-0.8,5.3-0.9c1.4-0.1,2.8,0,4.1,0c0.3,0,0.6,0,0.9,0c-0.2-4.4-0.2-8.2-0.2-9.1c0.2-4.5-15.9-5.2-18.7-8.2
				c-1.8-1.9-3.2-4-4.3-6.3c-1.2-2.6-1.6-5.3-2.5-8c-0.9-2.7-2.2-5.3-4.1-7.4c-0.1-0.1-0.2-0.2-0.3-0.3c0,0-0.1,0-0.1,0
				c-3.9,2.1-7.4,4.9-9.6,8.8c-2,3.4-3.1,7.5-3,11.4c0.2,0.4,0.4,0.9,0.6,1.3c0.7,1.6,1.2,3.4,1.3,5.1c0.2,1.8-0.1,3.6-0.5,5.4
				c-0.4,1.7-1,3.4-1.5,5.1c-0.5,1.6-0.9,3.3-1,5.1c-0.1,1.6,0.3,3.3,1.1,4.7c0,0,0.1,0.1,0.1,0.1c0.2-0.1,0.4-0.1,0.6-0.2
				C223.5,138.3,223.1,136.9,223,135.5z"/>
			<g>
				<g>
					<g>
						<path class="st10" d="M245.3,143.4c-1.1,2-3.8,4.7-0.8,6.5c2.1,1.3,5.3,0.3,7.5-0.4c2.6-0.9,5.1-2.3,7.2-4.1
							c0.6-0.5,1.2-1.1,1.5-1.8c0.7-1.7-1.1-2.9-1.1-4.5c-0.2-4.9-0.7-10.1-0.1-15.1c0.1-0.5,0.1-1.1,0.3-1.6
							c-0.1-0.1-0.2-0.3-0.4-0.4c-0.6-0.3-1.4-0.2-2.1-0.1c-0.8,0.2-1.5,0.4-2.2,0.6c-1.8,0.5-3.6,1.1-5.2,1.9c-1.6,0.8-3,1.9-4.4,3
							c-0.5,0.4-1,0.7-1.4,1.1c-0.2,0.2-0.3,0.4-0.4,0.6c0,0.3,0.3,0.5,0.5,0.8c1.1,1.6,1.4,3.9,1.7,5.8c0.3,2.1,0.5,4.3,0.1,6.4
							C245.7,142.6,245.5,143,245.3,143.4z"/>
					</g>
				</g>
				<g>
					<g>
						<g>
							<path class="st11" d="M258.6,93.3c-3.4-3.8-8.1-6.4-13.1-7.1c-4.8-0.6-9.8,0.6-13.7,3.6c-3.6,2.8-5.6,7-6.2,11.4
								c-0.1,0.5-0.1,1-0.1,1.6c-0.1,0.6-0.2,1.1-0.2,1.7c-0.2,2.9,1,5.6,2.2,8.2c0.6,1.4,1.2,2.8,1.6,4.4c0.3,1.5,0.4,3.1,0.5,4.6
								c0.2,2.8,0.4,5.6,2.1,8c2.5,3.8,6.7,6.8,11.3,7.5c4.6,0.6,9.3-1.3,13-3.9c4-2.8,7.3-6.6,9.1-11.1c1.9-4.8,1.6-9.9,0.4-14.9
								C264.1,102.2,262.1,97.2,258.6,93.3z"/>
							<path class="st23" d="M233.6,115.3c-0.2-0.4-0.5-0.7-0.8-1c-0.8-0.5-1.7-0.8-2.5-0.8c-0.1,0-0.1,0-0.2,0
								c-0.9,0.3-1.2,1.2-1.4,2.1c0-0.1,0.1-0.2,0.1-0.2c0.2-0.2,0.3-0.4,0.5-0.4c0.3-0.1,0.6-0.1,0.9-0.1c1.5,0.2,2.9,1,3.9,2
								c0.1,0.1,0.2,0.1,0.2,0C234.2,116.3,233.9,115.8,233.6,115.3z"/>
							<path class="st23" d="M251,111c-1.9-1.4-4.3-1.6-6.4-0.5c-1.8,0.9-2.9,2.7-3.3,4.6c0.1,0,0.1-0.1,0.1-0.1
								c0.7-1.7,2.7-3.2,4.4-3.6c1.1-0.3,2.3-0.2,3.4,0.1c0.6,0.1,1.2,0.3,1.8,0.5c0.6,0.2,1.1,0.6,1.6,0.8c0,0,0,0,0,0
								C252.2,112.1,251.6,111.5,251,111z"/>
							<path class="st11" d="M268.6,108.1c-0.5-1.1-1.6-2.1-2.9-1.8c-1.6,0.3-2.2,2.2-2.4,3.6c-0.1,0.3-0.1,0.8-0.2,1.3
								c-0.2,0.6-0.3,1.2-0.3,1.8c-0.1,1.3,0.1,2.7,0.3,4c0.2,1,0.4,2.5,1.6,2.8c1.1,0.2,2-0.6,2.7-1.4c1.5-1.8,1.9-4.1,1.9-6.3
								C269.3,110.6,269.2,109.2,268.6,108.1z"/>
							<path class="st11" d="M267.9,109.3c-0.4-0.5-1-0.4-1.4-0.1c-0.6,0.5-0.9,1.3-1.1,2c-0.2,0.8-0.3,1.6-0.4,2.4
								c-0.1,1.2,0.1,2.5,0.5,3.6c0.1,0.2,0.3,0,0.3-0.2c-0.2-0.7-0.3-1.4-0.4-2.2c0.1,0,0.2-0.1,0.2-0.1c0.1-0.1,0.2-0.2,0.4-0.3
								c0.2-0.2,0.4-0.5,0.6-0.7c0.3-0.5,0.6-1,0.8-1.6c0.1-0.1-0.1-0.2-0.2-0.1c-0.3,0.5-0.5,0.9-0.8,1.4c-0.2,0.2-0.3,0.4-0.5,0.6
								c-0.1,0.1-0.2,0.2-0.3,0.2c-0.1,0-0.2,0.1-0.2,0.1c0-0.3,0-0.7,0-1c0.1-0.9,0.2-1.8,0.5-2.6c0.2-0.6,0.7-1.8,1.5-1.6
								c0.6,0.2,0.9,1,0.9,1.6c0,0.1,0.1,0,0.1,0C268.4,110.4,268.3,109.7,267.9,109.3z"/>
						</g>
					</g>
					<path class="st11" d="M238.1,125.6c-0.3-0.2-0.7-0.2-1.1-0.3c-0.4-0.2-0.7-0.4-1.1-0.6c0.1-0.2,0.2-0.4,0.3-0.5
						c0.1-0.2,0.2-0.3,0.3-0.5c0.2-0.4,0.3-0.8,0.4-1.2c0.1-0.8,0.1-1.6-0.4-2.3c-0.1-0.1-0.3,0-0.2,0.1c0.3,0.7,0.4,1.5,0.3,2.2
						c-0.1,0.4-0.2,0.8-0.3,1.1c-0.1,0.2-0.3,0.9-0.5,0.9c-0.2,0-0.4,0.2-0.3,0.4c0.3,0.7,1.3,1,2,1.2c0.3,0.1,0.5,0.2,0.7,0.3
						c0.3,0.2,0.4,0.5,0.7,0.7c0.2,0.1,0.4-0.1,0.4-0.3C239.1,126.4,238.7,125.9,238.1,125.6z"/>
					<g>
						<path class="st24" d="M247.3,117.5c0.2,1.2-0.2,2.2-0.9,2.3c-0.6,0.1-1.3-0.8-1.4-2c-0.2-1.2,0.2-2.2,0.9-2.3
							C246.5,115.4,247.1,116.3,247.3,117.5z"/>
						<path class="st2" d="M246.8,116.7c0,0.2,0,0.4-0.2,0.5c-0.1,0-0.2-0.2-0.3-0.4c0-0.2,0-0.4,0.2-0.5
							C246.7,116.2,246.8,116.4,246.8,116.7z"/>
					</g>
					<g>
						<path class="st24" d="M232.9,120.6c0.2,1.2-0.2,2.2-0.9,2.3c-0.6,0.1-1.3-0.8-1.4-2c-0.2-1.2,0.2-2.2,0.9-2.3
							C232.1,118.5,232.7,119.4,232.9,120.6z"/>
						<path class="st2" d="M232.4,119.8c0,0.2,0,0.4-0.2,0.5c-0.1,0-0.2-0.2-0.3-0.4c0-0.2,0-0.4,0.2-0.5
							C232.3,119.4,232.4,119.6,232.4,119.8z"/>
					</g>
					<path class="st2" d="M239.4,133c1,0.4,2.3,0.5,3.7,0.1c1.3-0.3,2.4-1,3.1-1.8c1-1.1,1.2-2.3,0.9-3.4c-1.6,0.6-3.2,1.2-4.8,1.8
						c-1.4,0.5-2.7,1-4.1,1.5c-0.3,0.1-0.7,0.2-1,0.3C237.9,132.2,238.5,132.7,239.4,133z"/>
				</g>
			</g>
			<path class="st23" d="M248.5,109.6c0.7-0.1,1.4-0.2,2.1-0.4c0.3,0,0.5-0.1,0.8-0.1c0.1,0,0.2-0.1,0.2-0.1c0.1,0,0.1,0,0.2,0
				c0.3,0.2,0.6,0.5,0.9,0.8c0,0,0,0,0,0c0.8,1,1.4,2.2,1.8,3.3c0.7,1.6,1.2,3.4,1.3,5.1c0.2,1.8-0.1,3.6-0.5,5.4
				c-0.4,1.7-1,3.4-1.5,5.1c-0.5,1.6-0.9,3.3-1,5.1c0,1.2,0.1,2.4,0.5,3.6c0.2,0,0.4,0,0.6,0.1c-0.4-0.9-0.6-1.9-0.7-2.9
				c-0.1-1.8,0.4-3.6,0.8-5.3c0.5-1.7,1.1-3.4,1.6-5.2c0.5-1.7,0.8-3.4,0.7-5.2c-0.1-1.8-0.5-3.5-1.1-5.2c2,3.6,3,7.6,1.9,11.7
				c-0.5,2-1.5,3.9-2,5.9c-0.3,1.6-0.4,3.3,0.3,4.9c0.3,0.6,0.6,1.2,1,1.7c0.2,0,0.4,0,0.6,0c1.5-0.3,2.8-1.1,4.1-2.1
				c2-1.5,4.3-2.5,6.8-2.8c1.3-0.1,2.5,0,3.8,0c1.3-0.1,2.6-0.2,3.8-0.6c1.2-0.3,2.3-0.8,3.3-1.5c1.1-0.7,1.8-1.6,2.7-2.5
				c0.5-0.5,1-0.8,1.6-1.1c0.2-1,0.4-1.9,0.4-2.9c0.2-4.5-2.9-7.7-5.8-10.8c-1-1.1-1.9-2.3-2.8-3.5c-1-2.3-1.4-4.7-1.7-7.2
				c-0.2-1.6-0.5-3.3-0.9-4.8c-0.5-1.6-1.2-3.1-2.2-4.4c-1.6-2.4-3.5-4.7-6.3-5.6c-1.2-0.4-2.4-0.7-3.6-0.7c-0.7,0-1.6,0.1-2.2,0.6
				c-2.9-2.8-7.7-3.1-11.5-3.2c-6.7-0.2-14.5,1.3-19.3,6.3c-1.4,1.5-2.5,3.3-3.1,5.3c0,0-0.1,0.1-0.1,0.1c-1.2,0.8-2.3,1.9-3.1,3.1
				c-1.7,2.4-2.6,5.4-2.1,8.4c0.2,0.9,0.4,1.9,0.9,2.7c0.3,0.7,0.7,1.4,1.2,2c0.1-0.1,0.2-0.1,0.3-0.1c-0.3-0.6-0.6-1.1-0.9-1.7
				c-0.3-0.8-0.6-1.6-0.8-2.4c-0.3-1.5-0.3-3,0-4.5c0-0.1,0-0.2,0.1-0.3c-0.1,0.4-0.1,0.8-0.1,1.2c0,0.8,0.1,1.6,0.3,2.4
				c0.2,0.8,0.4,1.7,0.7,2.5c0.3,0.8,0.6,1.6,1.1,2.2c0.1,0.1,0.1,0.2,0.2,0.3c2-0.9,4.1-1.6,6.3-2c2.9-0.5,5.8-0.6,8.7-0.5
				c1.5,0,3,0.1,4.6,0.2c1.5,0.1,3,0.3,4.5,0.1C246.8,109.7,247.7,109.7,248.5,109.6z M261,87.9c0.9,0.2,1.9,0.4,2.8,0.8
				c2.7,1.1,4.4,3.4,6,5.7c2.6,3.6,2.7,8.1,3.6,12.3c-1-2.4-1.5-5-2.3-7.5c-0.9-2.7-2.2-5.3-4.1-7.4c-1.6-1.7-3.7-3-6-3.5
				c-0.8-0.2-1.6-0.3-2.4-0.3C259.2,87.6,260.3,87.8,261,87.9z"/>
		</g>
		<g>
			<g>
				<polygon class="st25" points="189.4,222.7 239,235.1 265,222 265,220.3 189.4,221 				"/>
				<polygon class="st26" points="189.4,221 239,233.3 265,220.3 215.3,207.9 				"/>
				<polygon class="st27" points="201.2,224 235.3,232.4 253,223.5 219,215 				"/>
			</g>
			<g>
				<polygon class="st28" points="189.4,221 238.3,234 239,233.3 221.5,204.8 171.9,192.4 171.1,193 				"/>
				<polygon class="st26" points="188.7,221.6 238.3,234 220.8,205.4 171.1,193 				"/>
			</g>
		</g>
		<g>
			<path class="st11" d="M256.3,205.6c-0.5-0.5-1-1-1.6-1.4c-0.6-0.4-1.2-0.6-1.9-0.7c-0.9-0.1-1.8-0.2-2.8-0.3
				c-0.9-0.1-1.9-0.2-2.8-0.2c-0.8-0.1-1.7-0.1-2.5-0.1c-0.3,0-0.6,0.1-0.9,0.2c-0.7,0.2-1.4,0.4-2.1,0.6c-0.9,0.3-1.8,0.6-2.7,1
				c-0.7,0.3-1.5,0.6-2.2,1.1c-0.7,0.4-1.2,1-1.7,1.6c-0.4,0.5-0.9,1-1.2,1.5c-0.1,0.2-0.2,0.5-0.2,0.7c0.1,0.2,0.3,0.3,0.5,0.4
				c0.2,0,0.5,0,0.8,0c1.2-0.4,2.1-1.4,3.1-2.1c0.3-0.2,0.7-0.4,1.1-0.6c0.5-0.3,1.1-0.5,1.7-0.6c0.4-0.1,0.8-0.2,1.2-0.3
				c-0.1,0.1-0.2,0.1-0.3,0.2c-0.5,0.3-1,0.8-1.5,1.2c-0.5,0.4-1,0.8-1.3,1.3c0,0,0,0,0,0c-0.3,0.3-0.6,0.6-0.9,0.9
				c-0.5,0.6-0.8,1.3-1.2,2c-0.1,0.3-0.3,0.5-0.4,0.8c-0.3,0.4-0.5,0.7-0.7,1.1c-0.2,0.4-0.5,0.9-0.4,1.3c0,0.5,0.5,0.6,1,0.6
				c0.7-0.2,1.2-0.8,1.5-1.4c0.4-0.8,0.9-1.6,1.5-2.3c0.6-0.7,1.3-1.3,2.1-1.7c0,0,0.1,0,0.1,0c0,0-0.1,0.1-0.1,0.1
				c-0.3,0.3-0.5,0.7-0.7,1.1c-0.4,1-1,2-1.5,3c-0.3,0.5-0.5,1-0.8,1.5c-0.2,0.3-1.2,2.2-0.2,2.1c0.3,0,0.6-0.2,0.8-0.3
				c0.3-0.2,0.6-0.5,0.9-0.8c0.5-0.7,0.9-1.5,1.3-2.3c0.2-0.4,0.4-0.9,0.6-1.3c0.3-0.5,0.8-0.9,1.3-1.2c0.8-0.5,1.7-0.8,2.5-1.1
				c-0.3,0.2-0.6,0.4-0.8,0.5c-1.2,0.8-1.7,1.9-2.4,3.2c-0.3,0.6-0.8,1.1-1.1,1.7c-0.2,0.4-0.3,0.9,0.1,1.2c0.3,0.2,0.7,0,0.9-0.2
				c0.8-0.6,1.3-1.5,1.9-2.3c0.7-0.9,1.7-1.6,2.6-2.4c1-0.8,2.1-0.8,3.3-0.9c0.6-0.1,1.2-0.1,1.8-0.2c1.2-0.2,2.5-0.5,3.7-0.9
				c0.4-0.2,0.9-0.4,1.2-0.7c0.2-0.3,0.4-0.6,0.5-1C257.8,208,257.1,206.6,256.3,205.6z"/>
			<path class="st11" d="M236.8,206.4c1.2-1,2.6-1.7,4-2.3c1.5-0.5,3.1-0.9,4.6-1.2c0.1,0,0.2,0,0.2,0c-0.3,0-0.7,0-1,0
				c-0.3,0-0.6,0.1-0.9,0.2c-0.7,0.2-1.4,0.4-2.1,0.6c-0.9,0.3-1.8,0.6-2.7,1c-0.7,0.3-1.5,0.6-2.2,1.1c-0.7,0.4-1.2,1-1.7,1.6
				c-0.4,0.5-0.9,1-1.2,1.5c-0.1,0.2-0.2,0.3-0.2,0.5C234.7,208.4,235.7,207.4,236.8,206.4z"/>
			<path class="st11" d="M241.1,210.6c0.5-0.5,1.1-1,1.7-1.5c-0.9,0.3-1.7,0.8-2.5,1.3c-0.8,0.6-1.6,1.4-2.2,2.2
				c-0.3,0.4-0.6,0.8-0.8,1.3c-0.2,0.3-0.3,0.7-0.5,1c-0.2,0.3-0.5,0.8-0.8,1c0.1,0,0.2,0,0.3,0c0.7-0.2,1.2-0.8,1.5-1.4
				c0.4-0.8,0.9-1.6,1.5-2.3C239.9,211.5,240.4,211,241.1,210.6z"/>
			<path class="st11" d="M256.5,209.1c-0.3,0.3-0.7,0.6-1.1,0.9c-0.8,0.5-1.8,0.8-2.8,1c-1,0.2-2,0.4-3,0.5
				c-0.9,0.1-1.7,0.2-2.5,0.5c-0.8,0.3-1.4,0.7-2,1.3c-0.8,0.7-1.3,1.7-1.9,2.6c-0.3,0.4-0.5,0.9-0.9,1.3c-0.2,0.2-0.4,0.4-0.7,0.6
				c0,0-0.1,0-0.1,0.1c0,0,0,0,0,0c0.3,0.2,0.7,0,0.9-0.2c0.8-0.6,1.3-1.5,1.9-2.3c0.7-0.9,1.7-1.6,2.6-2.4c1-0.8,2.1-0.8,3.3-0.9
				c0.6-0.1,1.2-0.1,1.8-0.2c1.2-0.2,2.5-0.5,3.7-0.9c0.4-0.2,0.9-0.4,1.2-0.7c0.2-0.3,0.4-0.6,0.5-1c0.1-0.4,0.1-0.8,0.1-1.2
				C257.1,208.5,256.7,208.9,256.5,209.1z"/>
			<path class="st11" d="M243.2,212.4c0.8-0.5,1.7-0.8,2.5-1.1c0,0,0,0,0,0c0.4-0.2,0.8-0.4,1.1-0.7c-0.9,0.1-1.9,0.3-2.8,0.7
				c-0.9,0.4-1.8,0.9-2.5,1.6c-0.8,0.8-1.2,1.9-1.7,2.9c-0.2,0.5-0.5,1-0.9,1.4c-0.2,0.3-0.5,0.6-0.9,0.7c-0.1,0-0.2,0-0.2,0.1
				c0,0.2,0.1,0.3,0.4,0.3c0.3,0,0.6-0.2,0.8-0.3c0.3-0.2,0.6-0.5,0.9-0.8c0.5-0.7,0.9-1.5,1.3-2.3c0.2-0.4,0.4-0.9,0.6-1.3
				C242.2,213.1,242.7,212.7,243.2,212.4z"/>
			<path class="st11" d="M239.2,207.3c0.5-0.3,1.1-0.5,1.7-0.6c0.2-0.1,0.5-0.1,0.7-0.2c0.2-0.1,0.3-0.2,0.5-0.3
				c-0.9,0.1-1.8,0.2-2.6,0.4c-0.9,0.2-1.8,0.6-2.6,1.2c-0.4,0.3-0.8,0.7-1.2,1c-0.3,0.3-0.6,0.7-0.9,0.9c-0.2,0.1-0.3,0.2-0.5,0.3
				c0.2,0,0.5,0,0.7-0.1c1.2-0.4,2.1-1.4,3.1-2.1C238.5,207.7,238.9,207.5,239.2,207.3z"/>
			<path class="st11" d="M256,209.3c0,0,25.1-9,29.8-14.1c4.6-5.1,2.1-10.9-1.5-11.7c-3.6-0.9-8,0.9-11.4,4.7
				c-3.4,3.8-19.7,16.6-19.7,16.6L256,209.3z"/>
		</g>
	</g>
	<g>
		<g>
			<g>
				<path class="st3" d="M88,23H55.5c-8.2,0-14.8,6.7-14.8,14.8c0,8.2,6.7,14.8,14.8,14.8h12.1l4.1,8.2l4.1-8.2H88
					c8.2,0,14.8-6.7,14.8-14.8C102.8,29.6,96.1,23,88,23z"/>
				<path class="st1" d="M71.7,62.2l-4.5-8.9H55.5c-8.5,0-15.5-6.9-15.5-15.5S47,22.3,55.5,22.3H88c8.5,0,15.5,6.9,15.5,15.5
					S96.5,53.3,88,53.3H76.2L71.7,62.2z M55.5,23.6c-7.8,0-14.2,6.4-14.2,14.2c0,7.8,6.4,14.2,14.2,14.2H68l3.7,7.4l3.7-7.4H88
					c7.8,0,14.2-6.4,14.2-14.2c0-7.8-6.4-14.2-14.2-14.2H55.5z"/>
			</g>
			<g>
				<path class="st2" d="M57.7,37.8c0,1.8-1.5,3.3-3.3,3.3S51,39.6,51,37.8c0-1.8,1.5-3.3,3.3-3.3S57.7,35.9,57.7,37.8z"/>
				<path class="st2" d="M75.1,37.8c0,1.8-1.5,3.3-3.3,3.3c-1.8,0-3.3-1.5-3.3-3.3c0-1.8,1.5-3.3,3.3-3.3
					C73.6,34.4,75.1,35.9,75.1,37.8z"/>
				<path class="st2" d="M92.5,37.8c0,1.8-1.5,3.3-3.3,3.3c-1.8,0-3.3-1.5-3.3-3.3c0-1.8,1.5-3.3,3.3-3.3
					C91,34.4,92.5,35.9,92.5,37.8z"/>
			</g>
		</g>
		<g>
			<path class="st1" d="M305,52.3c-2.6-1.7-5.5-2.9-8.4-3.5v-5.4l-9.8,0v5.4c-3,0.6-5.8,1.8-8.4,3.5l-3.8-3.8l-6.9,6.9l3.8,3.8
				c-1.7,2.6-2.9,5.5-3.5,8.4h-5.4l0,9.8h5.4c0.6,3,1.8,5.8,3.5,8.4l-3.8,3.8l6.9,6.9l3.8-3.8c2.6,1.7,5.5,2.9,8.4,3.5v5.4h9.8v-5.4
				c3-0.6,5.8-1.8,8.4-3.5l3.8,3.8l6.9-6.9l-3.8-3.8c1.7-2.6,2.9-5.5,3.5-8.4h5.4v-9.8l-5.4,0c-0.6-3-1.8-5.8-3.5-8.4l3.8-3.8
				l-6.9-6.9L305,52.3z M301.6,62.5c5.5,5.5,5.5,14.5,0,20c-5.5,5.5-14.5,5.5-20,0c-5.5-5.5-5.5-14.5,0-20
				C287.1,57,296.1,57,301.6,62.5z"/>
			<path class="st3" d="M260.4,45.6c-1.3-1.6-2.9-2.9-4.7-3.8l1-3.4l-6.2-1.9l-1,3.4c-2-0.2-4,0-6,0.6l-1.7-3.1l-5.7,3l1.7,3.1
				c-1.6,1.3-2.9,2.9-3.8,4.7l-3.4-1l-1.9,6.2l3.4,1c-0.2,2,0,4,0.6,6l-3.1,1.7l3,5.7l3.1-1.7c1.3,1.6,2.9,2.9,4.7,3.8l-1,3.4
				l6.2,1.9l1-3.4c2,0.2,4,0,6-0.6l1.7,3.1l5.7-3l-1.7-3.1c1.6-1.3,2.9-2.9,3.8-4.7l3.4,1l1.9-6.2l-3.4-1c0.2-2,0-4-0.6-6l3.1-1.7
				l-3-5.7L260.4,45.6z M256.3,51.4c2.4,4.5,0.7,10.2-3.8,12.6c-4.5,2.4-10.2,0.7-12.6-3.8c-2.4-4.5-0.7-10.2,3.8-12.6
				C248.3,45.2,253.9,46.9,256.3,51.4z"/>
		</g>
	</g>
	<g>
		<g>
			<g>
				<circle class="st3" cx="309.1" cy="152.2" r="26.9"/>
			</g>
			<g>
				<path class="st2" d="M307,168.2v-3.5c-2.5-0.2-4.7-1.1-6-2.3c-0.3-0.2-0.3-0.6,0.3-1.5l0.3-0.5c0.6-0.8,0.9-0.9,1.1-0.8
					c1.6,1.2,3.9,2,5.4,2c2.9,0,5.2-1.4,5.2-4.1c0-6.1-11.3-4.7-11.3-12.6c0-4.2,2.7-6.8,6.5-7.3v-3.1c0-0.3,0.4-0.4,1.3-0.4h0.5
					c1,0,1.3,0.1,1.3,0.4v3.1c1.6,0.2,3.2,0.9,4.5,1.8c0.2,0.2,0.1,0.5-0.3,1.3l-0.2,0.4c-0.4,0.7-0.8,1-1.1,0.8
					c-1.2-0.8-2.5-1.3-4.3-1.3c-3.2,0-4.5,2-4.5,3.9c0,5.4,11.3,4.5,11.3,12.6c0,4.1-2.3,7-6.9,7.6v3.5c0,0.3-0.4,0.4-1.3,0.4h-0.5
					C307.3,168.6,307,168.5,307,168.2z"/>
			</g>
		</g>
		<g>
			<g>
				
					<ellipse transform="matrix(0.7071 -0.7071 0.7071 0.7071 17.9078 264.4615)" class="st0" cx="328.2" cy="110.6" rx="15.5" ry="15.5"/>
			</g>
			<g>
				<path class="st2" d="M327,119.8v-2c-1.4-0.1-2.7-0.6-3.5-1.3c-0.2-0.1-0.2-0.3,0.2-0.9l0.2-0.3c0.3-0.4,0.5-0.5,0.6-0.5
					c0.9,0.7,2.2,1.1,3.1,1.1c1.7,0,3-0.8,3-2.4c0-3.5-6.5-2.7-6.5-7.3c0-2.4,1.6-3.9,3.7-4.2v-1.8c0-0.2,0.2-0.3,0.7-0.3h0.3
					c0.6,0,0.8,0.1,0.8,0.3v1.8c0.9,0.1,1.8,0.5,2.6,1c0.1,0.1,0,0.3-0.2,0.7l-0.1,0.2c-0.3,0.4-0.5,0.6-0.6,0.5
					c-0.7-0.5-1.5-0.8-2.5-0.8c-1.9,0-2.6,1.2-2.6,2.2c0,3.1,6.5,2.6,6.5,7.3c0,2.4-1.4,4.1-4,4.4v2c0,0.2-0.2,0.3-0.7,0.3h-0.3
					C327.2,120.1,327,120,327,119.8z"/>
			</g>
		</g>
	</g>
	<g>
		<g>
			<path class="st1" d="M213.9,129.4H168c-1.6,0-2.8-1.3-2.8-2.8v-26.2c0-1.6,1.3-2.8,2.8-2.8h45.8c1.6,0,2.8,1.3,2.8,2.8v26.2
				C216.7,128.2,215.4,129.4,213.9,129.4z"/>
			<polygon class="st1" points="208.7,127.1 212.9,136.4 213.1,126.7 			"/>
		</g>
		<rect x="169.8" y="103" class="st2" width="41.9" height="0.7"/>
		<rect x="169.8" y="105.8" class="st2" width="41.9" height="0.7"/>
		<rect x="169.8" y="108.7" class="st2" width="41.9" height="0.7"/>
		<rect x="169.8" y="111.5" class="st2" width="41.9" height="0.7"/>
		<rect x="169.8" y="114.3" class="st2" width="25.3" height="0.7"/>
		<rect x="169.8" y="117.2" class="st2" width="25.3" height="0.7"/>
		<rect x="169.8" y="120" class="st2" width="12.7" height="0.7"/>
		<rect x="169.8" y="122.8" class="st2" width="12.7" height="0.7"/>
	</g>
</g>
</svg>
